<svg xmlns="http://www.w3.org/2000/svg" width="764.538" height="619.568"><g data-name="1" transform="translate(2.538 48)"><path data-name="Path 254" d="M153.878 168.642c17.187-15.3 44.165-18.44 68.725-17.216 77.133 3.842 146.746 41.07 206.986 83.188 21.771 15.251 43.271 31.685 57.422 52.679 28.831 42.747 20.264 101.963-19.8 137.179-13.627 11.98-30.149 21.182-47.113 29.308-30.161 14.475-62.705 26.1-96.938 29.42-24.407 2.354-49.119.441-73.391-2.854-67.8-9.191-134.355-29.526-190.14-64.318-24.489-15.269-47.525-34.227-57.61-58.94s-3.63-55.945 21.353-70.555c10.332-6.043 22.683-8.773 34.78-11.333 17.8-3.772 35.892-7.49 51.955-15.163 16.593-7.92 36.245-23.236 32.95-40.764-3.518-18.81-6.342-35.332 10.821-50.631z" fill="#32614870" opacity=".065"/><path data-name="Path 10" d="M432.557 130.821a168.623 168.623 0 0113.956-53.218q3.15-7.036 6.933-13.763a1.028 1.028 0 00-1.773-1.037 170.952 170.952 0 00-19.023 52.479q-1.428 7.715-2.147 15.538c-.122 1.317 1.933 1.308 2.054.001z" fill="#e6e6e6"/><circle data-name="Ellipse 3" cx="13.008" cy="13.008" r="13.008" transform="translate(445.412 41.118)" fill="rgba(129,167,140,0.69)"/><path data-name="Path 11" d="M433.892 131.167a109.392 109.392 0 019.054-34.525q2.043-4.565 4.5-8.928a.667.667 0 00-1.151-.672 110.9 110.9 0 00-12.341 34.046q-.927 5-1.393 10.08c-.085.852 1.248.847 1.331-.001z" fill="#e6e6e6"/><circle data-name="Ellipse 4" cx="8.439" cy="8.439" r="8.439" transform="translate(442.227 72.972)" fill="rgba(129,167,140,0.69)"/><path data-name="Path 12" d="M432.205 130.369a109.4 109.4 0 01-14.1-32.791q-1.2-4.856-1.945-9.806a.667.667 0 00-1.321.177 110.907 110.907 0 0011.209 34.435q2.348 4.516 5.1 8.8c.463.721 1.51-.1 1.051-.82z" fill="#e6e6e6"/><circle data-name="Ellipse 5" cx="8.439" cy="8.439" r="8.439" transform="translate(406.394 72.38)" fill="rgba(129,167,140,0.69)"/><path data-name="Path 13" d="M406.299 137.836v-16.58a6.225 6.225 0 016.218-6.218h38.687a6.225 6.225 0 016.217 6.217v16.58a6.225 6.225 0 01-6.218 6.218h-38.686a6.225 6.225 0 01-6.218-6.217z" fill="#eee5cf" style="isolation:isolate"/><path data-name="Path 14" d="M449.822 32.14h-16.58a6.224 6.224 0 01-6.217-6.218v-67.7a6.224 6.224 0 016.218-6.218h16.58a6.225 6.225 0 016.218 6.218v67.7a6.225 6.225 0 01-6.218 6.218z" fill="#f2f2f2" style="isolation:isolate"/><path data-name="Rectangle 11" fill="rgba(129,167,140,0.32)" d="M427.715-34.874h27.634v5.527h-27.634z"/><path data-name="Rectangle 12" fill="rgba(129,167,140,0.32)" d="M427.715 7.958h27.634v5.527h-27.634z"/><path data-name="Path 15" d="M491.273 32.14h-16.58a6.224 6.224 0 01-6.218-6.218v-67.7a6.224 6.224 0 016.218-6.218h16.58a6.225 6.225 0 016.218 6.218v67.7a6.225 6.225 0 01-6.218 6.218z" fill="#f2f2f2" style="isolation:isolate"/><path data-name="Rectangle 13" fill="rgba(129,167,140,0.32)" d="M469.166-34.874H496.8v5.527h-27.634z"/><path data-name="Rectangle 14" fill="rgba(129,167,140,0.32)" d="M469.166 7.958H496.8v5.527h-27.634z"/><path data-name="Path 16" d="M532.723 32.14h-16.58a6.224 6.224 0 01-6.218-6.218v-67.7a6.225 6.225 0 016.218-6.218h16.58a6.225 6.225 0 016.218 6.218v67.7a6.225 6.225 0 01-6.218 6.218z" fill="#f2f2f2" style="isolation:isolate"/><path data-name="Rectangle 15" fill="rgba(129,167,140,0.32)" d="M510.616-34.874h27.634v5.527h-27.634z"/><path data-name="Rectangle 16" fill="rgba(129,167,140,0.32)" d="M510.616 7.958h27.634v5.527h-27.634z"/><path data-name="Path 17" d="M554.83 144.056h-16.58a6.225 6.225 0 01-6.218-6.218v-67.7a6.225 6.225 0 016.218-6.218h16.58a6.224 6.224 0 016.217 6.218v67.7a6.225 6.225 0 01-6.218 6.218z" fill="#f2f2f2" style="isolation:isolate"/><path data-name="Rectangle 17" fill="rgba(129,167,140,0.29)" d="M532.723 77.042h27.634v5.527h-27.634z"/><path data-name="Rectangle 18" fill="rgba(129,167,140,0.29)" d="M532.723 119.874h27.634v5.527h-27.634z"/><path data-name="Path 18" d="M596.28 144.056H579.7a6.225 6.225 0 01-6.218-6.218v-67.7a6.225 6.225 0 016.218-6.218h16.58a6.224 6.224 0 016.218 6.218v67.7a6.225 6.225 0 01-6.218 6.218z" fill="#f2f2f2" style="isolation:isolate"/><path data-name="Rectangle 19" fill="rgba(129,167,140,0.29)" d="M574.173 77.042h27.634v5.527h-27.634z"/><path data-name="Rectangle 20" fill="rgba(129,167,140,0.29)" d="M574.173 119.874h27.634v5.527h-27.634z"/><path data-name="Path 19" d="M637.731 144.056h-16.58a6.225 6.225 0 01-6.218-6.218v-67.7a6.225 6.225 0 016.218-6.218h16.58a6.224 6.224 0 016.217 6.218v67.7a6.225 6.225 0 01-6.218 6.218z" fill="#f2f2f2" style="isolation:isolate"/><path data-name="Rectangle 21" fill="rgba(129,167,140,0.29)" d="M615.624 77.042h27.634v5.527h-27.634z"/><path data-name="Rectangle 22" fill="rgba(129,167,140,0.29)" d="M615.624 119.874h27.634v5.527h-27.634z"/><path data-name="Path 20" d="M445.677 255.972h-16.58a6.225 6.225 0 01-6.218-6.218v-67.7a6.224 6.224 0 016.218-6.217h16.58a6.225 6.225 0 016.218 6.218v67.7a6.225 6.225 0 01-6.218 6.217z" fill="#f2f2f2" style="isolation:isolate"/><path data-name="Rectangle 23" fill="rgba(129,167,140,0.29)" d="M423.57 188.958h27.634v5.527H423.57z"/><path data-name="Rectangle 24" fill="rgba(129,167,140,0.29)" d="M423.57 231.79h27.634v5.527H423.57z"/><path data-name="Path 21" d="M487.128 255.972h-16.58a6.225 6.225 0 01-6.218-6.218v-67.7a6.225 6.225 0 016.218-6.217h16.58a6.225 6.225 0 016.218 6.218v67.7a6.225 6.225 0 01-6.218 6.217z" fill="#f2f2f2" style="isolation:isolate"/><path data-name="Rectangle 25" fill="rgba(129,167,140,0.29)" d="M465.021 188.958h27.634v5.527h-27.634z"/><path data-name="Rectangle 26" fill="rgba(129,167,140,0.29)" d="M465.021 231.79h27.634v5.527h-27.634z"/><path data-name="Path 22" d="M528.578 255.972h-16.58a6.225 6.225 0 01-6.218-6.218v-67.7a6.225 6.225 0 016.218-6.217h16.58a6.225 6.225 0 016.218 6.218v67.7a6.225 6.225 0 01-6.218 6.217z" fill="#f2f2f2" style="isolation:isolate"/><path data-name="Rectangle 27" fill="rgba(129,167,140,0.29)" d="M506.471 188.958h27.634v5.527h-27.634z"/><path data-name="Rectangle 28" fill="rgba(129,167,140,0.29)" d="M506.471 231.79h27.634v5.527h-27.634z"/><path data-name="Path 23" d="M574.173 32.14h-16.58a6.224 6.224 0 01-6.218-6.218v-67.7a6.224 6.224 0 016.218-6.218h16.58a6.225 6.225 0 016.218 6.218v67.7a6.225 6.225 0 01-6.218 6.218z" fill="#f2f2f2" style="isolation:isolate"/><path data-name="Rectangle 29" fill="rgba(129,167,140,0.32)" d="M552.066-34.874H579.7v5.527h-27.634z"/><path data-name="Rectangle 30" fill="rgba(129,167,140,0.32)" d="M552.066 7.958H579.7v5.527h-27.634z"/><path data-name="Path 24" d="M615.624 32.14h-16.58a6.224 6.224 0 01-6.218-6.218v-67.7a6.225 6.225 0 016.218-6.218h16.58a6.225 6.225 0 016.218 6.218v67.7a6.225 6.225 0 01-6.218 6.218z" fill="#f2f2f2" style="isolation:isolate"/><path data-name="Rectangle 31" fill="rgba(129,167,140,0.32)" d="M593.517-34.874h27.634v5.527h-27.634z"/><path data-name="Rectangle 32" fill="rgba(129,167,140,0.32)" d="M593.517 7.958h27.634v5.527h-27.634z"/><path data-name="Path 25" d="M657.074 32.14h-16.58a6.224 6.224 0 01-6.218-6.218v-67.7a6.225 6.225 0 016.218-6.218h16.58a6.225 6.225 0 016.218 6.218v67.7a6.225 6.225 0 01-6.218 6.218z" fill="#f2f2f2" style="isolation:isolate"/><path data-name="Rectangle 33" fill="rgba(129,167,140,0.32)" d="M634.967-34.874h27.634v5.527h-27.634z"/><path data-name="Rectangle 34" fill="rgba(129,167,140,0.32)" d="M634.967 7.958h27.634v5.527h-27.634z"/><path data-name="Path 26" d="M698.525 32.14h-16.58a6.224 6.224 0 01-6.218-6.218v-67.7a6.225 6.225 0 016.218-6.218h16.58a6.225 6.225 0 016.218 6.218v67.7a6.225 6.225 0 01-6.218 6.218z" fill="#f2f2f2" style="isolation:isolate"/><path data-name="Rectangle 35" fill="rgba(129,167,140,0.32)" d="M676.417-34.874h27.634v5.527h-27.634z"/><path data-name="Rectangle 36" fill="rgba(129,167,140,0.32)" d="M676.417 7.958h27.634v5.527h-27.634z"/><path data-name="Path 27" d="M760.618 34.21H366.84a1.382 1.382 0 110-2.763h393.778a1.382 1.382 0 110 2.763z" fill="#ccc"/><path data-name="Path 28" d="M760.618 146.126H366.84a1.382 1.382 0 110-2.763h393.778a1.382 1.382 0 110 2.763z" fill="#ccc"/><path data-name="Path 29" d="M760.618 258.042H366.84a1.382 1.382 0 110-2.763h393.778a1.382 1.382 0 110 2.763z" fill="#ccc"/><path data-name="Path 30" d="M660.534 242.737a168.619 168.619 0 0113.956-53.218q3.15-7.036 6.934-13.763a1.028 1.028 0 00-1.774-1.037 170.953 170.953 0 00-19.023 52.479q-1.428 7.715-2.147 15.538c-.122 1.317 1.933 1.308 2.054.001z" fill="#e6e6e6"/><circle data-name="Ellipse 6" cx="13.008" cy="13.008" r="13.008" transform="translate(673.389 153.034)" fill="rgba(129,167,140,0.69)"/><path data-name="Path 31" d="M661.869 243.083a109.393 109.393 0 019.054-34.525q2.043-4.565 4.5-8.928a.667.667 0 00-1.151-.672 110.9 110.9 0 00-12.341 34.046q-.927 5.005-1.393 10.08c-.085.852 1.248.847 1.331-.001z" fill="#e6e6e6"/><circle data-name="Ellipse 7" cx="8.439" cy="8.439" r="8.439" transform="translate(670.204 184.888)" fill="rgba(129,167,140,0.69)"/><path data-name="Path 32" d="M660.183 242.286a109.4 109.4 0 01-14.1-32.791q-1.2-4.856-1.945-9.807a.667.667 0 00-1.321.177 110.9 110.9 0 0011.21 34.435q2.348 4.516 5.1 8.8c.463.721 1.51-.1 1.051-.82z" fill="#e6e6e6"/><circle data-name="Ellipse 8" cx="8.439" cy="8.439" r="8.439" transform="translate(634.371 184.296)" fill="rgba(129,167,140,0.69)"/><path data-name="Path 33" d="M634.276 249.752v-16.58a6.225 6.225 0 016.218-6.218h38.687a6.225 6.225 0 016.218 6.218v16.58a6.225 6.225 0 01-6.218 6.218h-38.687a6.225 6.225 0 01-6.218-6.218z" fill="#eee5cf" style="isolation:isolate"/><circle data-name="Ellipse 9" cx="37.305" cy="37.305" r="37.305" transform="translate(237.73 246.63)" fill="#2f2e41"/><path data-name="Path 35" d="M239.59 523.416l-.988-16.909 64.754-11.865 1.459 24.959z" fill="#ffb8b8"/><path data-name="Path 36" d="M242.72 494.145l1.907 32.612-20.534 1.2-3.106-53.146a20.569 20.569 0 0121.734 19.334z" fill="#2f2e41"/><path data-name="Path 37" d="M267.755 523.261l-10.757 13.086-55.593-35.26 15.874-19.313z" fill="#ffb8b8"/><path data-name="Path 38" d="M245.507 542.422l20.735-25.244 15.895 13.056-33.792 41.138a20.569 20.569 0 01-2.838-28.95z" fill="#2f2e41"/><path data-name="Path 39" d="M236.801 462.406l-7.35 34.651a5.527 5.527 0 005.317 6.673l72.259 1.165a5.527 5.527 0 005.532-6.487l-6.321-35.816a5.527 5.527 0 00-5.443-4.566h-58.587a5.527 5.527 0 00-5.407 4.38z" fill="#2f2e41"/><path data-name="Path 40" d="M248.784 474.607s-70.466-44.214-84.282-20.725c-6.908 11.744-3.454 23.143 1.727 31.606a47.849 47.849 0 0019.9 17.811l57.129 27.957 20.725-22.107-13.817-12.435z" fill="#2f2e41"/><path data-name="Path 41" d="M284.705 467.699s91.191-26.252 73.229 23.489-85.664 30.4-85.664 30.4l-6.908-20.725 23.489-16.58z" fill="#2f2e41"/><circle data-name="Ellipse 10" cx="33.935" cy="33.935" r="33.935" transform="translate(241.568 258.518)" fill="#ffb8b8"/><path data-name="Path 42" d="M277.282 473.182a182.371 182.371 0 01-41.806-5.508l-.4-.111-18.937-87.108a32.089 32.089 0 0120.632-37.227 111.169 111.169 0 0170.88-1.415 32.427 32.427 0 0121.6 38.362L308.1 467.491l-.3.142c-8.789 4.163-19.781 5.549-30.518 5.549z" fill="#ccc"/><path data-name="Path 43" d="M251.845 479.949a13.894 13.894 0 0120-7.34l37.288-32.365 3.374 25.435-35.927 26.835a13.969 13.969 0 01-24.735-12.565z" fill="#ffb8b8"/><path data-name="Path 44" d="M287.406 487.008a6.262 6.262 0 01-1.791-.263 6.152 6.152 0 01-4.093-3.891l-4.5-12.751a6.179 6.179 0 011.8-6.774l50.8-30.5-20.026-89.341.509-.123c.207-.051 20.726-4.721 29.134 17.7 5.888 15.7 27.677 49.847 26.14 72.92a20.566 20.566 0 01-17.025 18.967l-57.185 32.764a6.156 6.156 0 01-3.763 1.292z" fill="#ccc"/><path data-name="Path 45" d="M293.104 476.917a13.894 13.894 0 00-20-7.34l-37.287-32.36-3.374 25.435 35.925 26.835a13.969 13.969 0 0024.736-12.57z" fill="#ffb8b8"/><path data-name="Path 46" d="M261.284 487.008a6.157 6.157 0 01-3.763-1.291l-61.33-30a20.566 20.566 0 01-17.025-18.967c-1.537-23.073 24.4-59.98 30.285-75.683 8.407-22.421 28.926-17.753 29.134-17.7l.509.123-24.171 92.1 54.948 27.736a6.179 6.179 0 011.8 6.773l-4.5 12.751a6.152 6.152 0 01-4.093 3.891 6.265 6.265 0 01-1.791.263z" fill="#ccc"/><path data-name="Path 47" d="M334.448 500.859H211.479a9.683 9.683 0 01-9.672-9.672v-67.7a9.683 9.683 0 019.672-9.672h122.969a9.683 9.683 0 019.672 9.672v67.7a9.683 9.683 0 01-9.672 9.672z" fill="#53906f"/><circle data-name="Ellipse 11" cx="8.29" cy="8.29" r="8.29" transform="translate(264.673 449.046)" fill="#fff"/><path data-name="Path 48" d="M241.228 291.072c-2.011-5.1 1.289-11.181 6.184-13.652s10.8-2 16.039-.373c4.4 1.369 8.525 3.49 12.818 5.165a28.686 28.686 0 0013.475 2.4c4.579-.517 9.137-3.085 11.011-7.3 1.942-4.364.621-9.69-2.37-13.414a25.974 25.974 0 00-11.9-7.647c-10.1-3.557-21.759-3.661-31.132 1.509s-15.744 16.18-13.806 26.708" fill="#2f2e41"/><path data-name="Path 49" d="M45.129 486.1a168.623 168.623 0 0113.956-53.218q3.15-7.036 6.933-13.763a1.028 1.028 0 00-1.773-1.037 170.952 170.952 0 00-19.023 52.479q-1.428 7.715-2.147 15.538c-.122 1.316 1.933 1.307 2.054 0z" fill="#e6e6e6"/><circle data-name="Ellipse 12" cx="13.008" cy="13.008" r="13.008" transform="translate(57.985 396.398)" fill="#326148"/><path data-name="Path 50" d="M46.46 486.442a109.393 109.393 0 019.054-34.525q2.043-4.565 4.5-8.928a.667.667 0 00-1.151-.673 110.906 110.906 0 00-12.341 34.046q-.927 5-1.393 10.08c-.081.858 1.252.852 1.331 0z" fill="#e6e6e6"/><circle data-name="Ellipse 13" cx="8.439" cy="8.439" r="8.439" transform="translate(54.8 428.252)" fill="#326148"/><path data-name="Path 51" d="M44.777 485.649a109.391 109.391 0 01-14.1-32.791q-1.2-4.856-1.945-9.807a.667.667 0 00-1.321.177 110.9 110.9 0 0011.21 34.435q2.348 4.516 5.1 8.8c.463.721 1.51-.1 1.051-.82z" fill="#e6e6e6"/><circle data-name="Ellipse 14" cx="8.439" cy="8.439" r="8.439" transform="translate(18.967 427.659)" fill="#326148"/><path data-name="Path 52" d="M18.872 493.116v-16.58a6.225 6.225 0 016.218-6.218h38.687a6.225 6.225 0 016.217 6.218v16.58a6.225 6.225 0 01-6.218 6.218H25.089a6.225 6.225 0 01-6.217-6.218z" fill="#eee5cf" style="isolation:isolate"/><path data-name="Path 53" d="M434.413 512.466c0 9.087-7.367 13.218-16.454 13.218s-16.454-4.13-16.454-13.218 3.656-19.691 16.454-16.034c12.797-5.485 16.454 6.946 16.454 16.034z" fill="#ff6584"/><path data-name="Path 54" d="M417.156 500.689a2.63 2.63 0 01-2.613-2.292c-.545-4.534-3.548-13.413-4.813-17.02a2.353 2.353 0 01.3-2.164 2.469 2.469 0 013.68-.266 2.356 2.356 0 01.647 1.764c-.248 4.629 3.127 12.11 5.16 16.158a2.636 2.636 0 01-2.086 3.808 2.421 2.421 0 01-.275.012z" fill="#3f3d56"/><path data-name="Path 55" d="M429.332 490.476c5.712-4.675 1.23-14.242-5.918-12.405a5.772 5.772 0 00-2.575 1.373c-4.385 4.143-5.065 14.741-5.065 14.741s7.744 1.055 13.558-3.709z" fill="#3f3d56"/></g></svg>