<svg xmlns="http://www.w3.org/2000/svg" xmlns:xlink="http://www.w3.org/1999/xlink" width="845" height="678"><defs><linearGradient id="a" x1="1.608" y1=".226" x2=".492" y2=".499" gradientUnits="objectBoundingBox"><stop offset=".09" stop-color="#84e4a4"/><stop offset=".97" stop-color="#3c53d7"/></linearGradient><linearGradient id="b" x1=".976" y1="7.586" x2="1.04" y2="8.274" xlink:href="#a"/></defs><g data-name="1" transform="translate(309.396 82.972)"><path data-name="Path 793" d="M522.559 207.2c0 11.065-3.259 19.455-8.755 24.319a118.9 118.9 0 01-14.2 9.727c-7.3 2.918-8.122-4.256-18.312-10.141-22.811-13.156-41.342-45.16-41.342-71.472 0-10.044-6.663-11.551-2.067-16.585 1.192-1.289 11.843-8.682 13.3-9.727 7.514-4.864 18.19-4.45 30.034 2.432 22.86 13.127 41.342 45.227 41.342 71.447z" transform="translate(-413.222 -122.625)" fill="url(#a)"/><ellipse data-name="Ellipse 22" cx="33.706" cy="58.365" rx="33.706" ry="58.365" transform="rotate(-30 62.896 16.853)" fill="url(#b)"/><ellipse data-name="Ellipse 23" cx="29.815" cy="51.628" rx="29.815" ry="51.628" transform="rotate(-30 73.321 6.406)" fill="none" stroke="#84e4a4" stroke-miterlimit="10" stroke-width=".69"/><path data-name="Path 794" d="M69.626 55.267v-8.439l-6.688-3.867v7.733l-6.712-3.867v-7.733l-6.685-3.866v7.733l-6.688-3.867v38.715l6.688 3.867v7.733l6.688 3.867v-7.733l6.712 3.867v7.733l6.688 3.867v-8.609a5.277 5.277 0 006.4-4.353 17.558 17.558 0 00-2.31-11.916c2.262-1.532 3.137-5.01 2.31-9.241a23.37 23.37 0 00-6.4-11.624zm-20.085-4.572l16.731 9.727a7.441 7.441 0 013.356 5.812c0 2.116-1.508 2.991-3.356 1.921l-16.731-9.727zm16.634 32.854l-16.734-9.727v-7.709l16.731 9.727a7.417 7.417 0 013.356 5.788c.098 2.116-1.41 2.991-3.355 1.921z" fill="#fff"/><path data-name="Rectangle 723" fill="none" opacity=".937" d="M-309.396-82.972h845v678h-845z"/></g></svg>