<svg xmlns="http://www.w3.org/2000/svg" xmlns:xlink="http://www.w3.org/1999/xlink" width="845" height="678"><defs><linearGradient id="a" x1="-129.053" y1="-12.403" x2="-129.053" y2="-13.729" gradientUnits="objectBoundingBox"><stop offset="0" stop-color="#1a1b6e"/><stop offset=".46" stop-color="#3c53d7"/><stop offset=".69" stop-color="#65a3fb"/></linearGradient><linearGradient id="c" x1="-129.992" y1="-21.267" x2="-129.992" y2="-22.964" xlink:href="#a"/><linearGradient id="d" x1="-130.808" y1="-15.641" x2="-130.808" y2="-17.241" xlink:href="#a"/><linearGradient id="e" x1="-131.278" y1="-13.642" x2="-131.278" y2="-14.834" xlink:href="#a"/><linearGradient id="f" x1="804.745" y1="17.791" x2="804.745" y2="16.465" xlink:href="#a"/><linearGradient id="g" x1="817.812" y1="28.648" x2="817.812" y2="26.951" xlink:href="#a"/><linearGradient id="h" x1="824.347" y1="21.602" x2="824.347" y2="20.002" xlink:href="#a"/><linearGradient id="i" x1=".933" y1=".778" x2="-.861" y2="-.37" xlink:href="#a"/><linearGradient id="j" x1="-31.993" y1="-6.887" x2="-30.727" y2="-7.906" xlink:href="#a"/><linearGradient id="k" x1="-31.993" y1="-6.866" x2="-29.701" y2="-8.714" xlink:href="#a"/><linearGradient id="l" x1="-129.872" y1="-15.326" x2="-129.872" y2="-16.926" xlink:href="#a"/><linearGradient id="m" x1="809.131" y1="21.371" x2="809.131" y2="19.771" xlink:href="#a"/><linearGradient id="n" x1="-31.925" y1="-6.79" x2="-29.637" y2="-8.637" xlink:href="#a"/><linearGradient id="o" x1="-31.896" y1="-6.735" x2="-29.608" y2="-8.581" xlink:href="#a"/><linearGradient id="p" x1="-31.772" y1="-6.979" x2="-30.82" y2="-7.748" xlink:href="#a"/><linearGradient id="q" x1=".499" y1="1" x2=".499" y2="0" xlink:href="#a"/><linearGradient id="r" x1="-21.187" y1=".984" x2="-22.012" y2="-1.878" xlink:href="#a"/><linearGradient id="s" x1=".497" y1="1" x2=".497" y2="0" xlink:href="#a"/><linearGradient id="t" x1="-23.528" y1="1.117" x2="-24.064" y2="-1.094" xlink:href="#a"/><linearGradient id="u" x1=".5" y1="1" x2=".5" y2="0" xlink:href="#a"/><linearGradient id="v" x1="-25.899" y1="1.327" x2="-26.399" y2="-1.873" xlink:href="#a"/><linearGradient id="w" x1=".5" y1="1.002" x2=".5" y2="0" xlink:href="#a"/><linearGradient id="x" x1="-28.299" y1="1.327" x2="-28.799" y2="-1.876" xlink:href="#a"/><linearGradient id="y" x1=".5" y1=".404" x2=".5" y2="1.38" xlink:href="#a"/><linearGradient id="A" x1=".5" y1="1" x2=".5" y2="0" xlink:href="#a"/><linearGradient id="B" x1=".464" y1="-.044" x2=".551" y2="1.266" xlink:href="#a"/><linearGradient id="C" x1=".5" y1=".405" x2=".5" y2="1.382" xlink:href="#a"/><linearGradient id="E" x1=".464" y1="-.044" x2=".551" y2="1.265" xlink:href="#a"/><linearGradient id="F" x1=".5" y1=".403" x2=".5" y2="1.381" xlink:href="#a"/><linearGradient id="H" x1=".464" y1="-.044" x2=".551" y2="1.265" xlink:href="#a"/><linearGradient id="I" x1=".5" y1=".404" x2=".5" y2="1.383" xlink:href="#a"/><linearGradient id="K" x1=".5" y1=".403" x2=".5" y2="1.38" xlink:href="#a"/><linearGradient id="N" x1=".464" y1="-.044" x2=".551" y2="1.265" xlink:href="#a"/><linearGradient id="R" x1=".5" y1=".403" x2=".5" y2="1.379" xlink:href="#a"/><linearGradient id="T" x1=".488" y1="1" x2=".488" y2="0" xlink:href="#a"/><linearGradient id="U" x1=".464" y1="-.044" x2=".551" y2="1.265" xlink:href="#a"/><linearGradient id="V" x1=".5" y1=".403" x2=".5" y2="1.378" xlink:href="#a"/><linearGradient id="X" x1=".464" y1="-.044" x2=".551" y2="1.265" xlink:href="#a"/><linearGradient id="Y" x1=".5" y1=".403" x2=".5" y2="1.379" xlink:href="#a"/><linearGradient id="aa" x1=".5" y1="1" x2=".5" y2="0" xlink:href="#a"/><linearGradient id="ab" x1=".5" y1="1" x2=".5" y2="0" xlink:href="#a"/><linearGradient id="ac" x1=".488" y1="1" x2=".488" y2="0" xlink:href="#a"/><linearGradient id="ad" x1=".5" y1=".404" x2=".5" y2="1.379" xlink:href="#a"/><clipPath id="z"><path data-name="Path 854" d="M329.33 336.807l93.7-4.207v18c0 6.931-4.572 13.862-13.716 19.139-18.312 10.554-47.981 10.554-66.268 0-9.144-5.277-13.716-12.159-13.716-19.139z" transform="translate(-329.33 -332.6)" fill="none"/></clipPath><clipPath id="D"><path data-name="Path 858" d="M329.33 330.477l93.7-4.207v17.971c0 6.931-4.572 13.862-13.716 19.139-18.312 10.554-47.981 10.554-66.268 0-9.144-5.277-13.716-12.159-13.716-19.139z" transform="translate(-329.33 -326.27)" fill="none"/></clipPath><clipPath id="G"><path data-name="Path 862" d="M329.33 324.11l93.7-4.11v17.971c0 6.931-4.572 13.862-13.716 19.139-18.312 10.554-47.981 10.554-66.268 0-9.144-5.277-13.716-12.159-13.716-19.139z" transform="translate(-329.33 -320)" fill="none"/></clipPath><clipPath id="J"><path data-name="Path 867" d="M329.33 317.847l93.7-4.207v17.9c0 6.931-4.572 13.862-13.716 19.139-18.312 10.554-47.981 10.554-66.268 0-9.144-5.277-13.716-12.159-13.716-19.139z" transform="translate(-329.33 -313.64)" fill="none"/></clipPath><clipPath id="L"><path data-name="Path 870" d="M329.33 311.527l93.7-4.207v17.971c0 6.931-4.572 13.862-13.716 19.139-18.312 10.554-47.981 10.554-66.268 0-9.144-5.277-13.716-12.159-13.716-19.139z" transform="translate(-329.33 -307.32)" fill="none"/></clipPath><clipPath id="M"><path data-name="Path 874" d="M329.33 305.207l93.7-4.207v17.972c0 6.931-4.572 13.862-13.716 19.139-18.312 10.554-47.981 10.554-66.268 0-9.144-5.277-13.716-12.159-13.716-19.139z" transform="translate(-329.33 -301)" fill="none"/></clipPath><clipPath id="O"><path data-name="Path 879" d="M329.33 298.887l93.7-4.207v17.971c0 6.931-4.572 13.862-13.716 19.139-18.312 10.554-47.981 10.554-66.268 0-9.144-5.277-13.716-12.159-13.716-19.139z" transform="translate(-329.33 -294.68)" fill="none"/></clipPath><clipPath id="P"><path data-name="Path 883" d="M329.33 292.567l93.7-4.207v17.971c0 6.931-4.572 13.837-13.716 19.139-18.312 10.554-47.981 10.554-66.268 0-9.144-5.3-13.716-12.159-13.716-19.139z" transform="translate(-329.33 -288.36)" fill="none"/></clipPath><clipPath id="S"><path data-name="Path 888" d="M533.22 339.136l122.225-5.5v23.467c0 9.022-5.958 18.045-17.9 24.951-23.857 13.764-62.572 13.764-86.428 0-11.94-6.906-17.9-15.929-17.9-24.951z" transform="translate(-533.22 -333.64)" fill="none"/></clipPath><clipPath id="W"><path data-name="Path 891" d="M533.22 330.872l122.225-5.472v23.346c0 9.047-5.958 18.069-17.9 24.951-23.857 13.789-62.572 13.789-86.428 0-11.94-6.882-17.9-15.9-17.9-24.951z" transform="translate(-533.22 -325.4)" fill="none"/></clipPath><clipPath id="Z"><path data-name="Path 895" d="M533.22 322.646l122.225-5.5v23.467c0 9.022-5.958 18.044-17.9 24.951-23.857 13.764-62.572 13.764-86.428 0-11.94-6.906-17.9-15.929-17.9-24.951z" transform="translate(-533.22 -317.15)" fill="none"/></clipPath><clipPath id="ae"><path data-name="Path 899" d="M533.22 314.382l122.225-5.472v23.443c0 9.047-5.958 18.069-17.9 24.951-23.857 13.789-62.572 13.789-86.428 0-11.94-6.882-17.9-15.9-17.9-24.951z" transform="translate(-533.22 -308.91)" fill="none"/></clipPath><clipPath id="af"><path data-name="Path 903" d="M533.22 306.156l122.225-5.5v23.467c0 9.022-5.958 18.069-17.9 24.951-23.857 13.789-62.572 13.789-86.428 0-11.94-6.882-17.9-15.929-17.9-24.951z" transform="translate(-533.22 -300.66)" fill="none"/></clipPath><radialGradient id="b" cx=".523" cy=".473" r=".882" gradientTransform="matrix(.465 0 0 .798 -1.383 -.655)" gradientUnits="objectBoundingBox"><stop offset="0" stop-color="#2f3c9e"/><stop offset=".12" stop-color="#253184"/><stop offset=".3" stop-color="#192364"/><stop offset=".47" stop-color="#11194d"/><stop offset=".63" stop-color="#0c1340"/><stop offset=".78" stop-color="#0a113b"/><stop offset="1" stop-color="#000020"/></radialGradient><radialGradient id="Q" cx=".534" cy=".471" r=".882" gradientTransform="matrix(.465 0 0 .798 -1.618 -.653)" xlink:href="#b"/><radialGradient id="ag" cx=".553" cy=".499" r=".824" gradientTransform="matrix(.497 0 0 .857 -2.48 -.751)" xlink:href="#b"/><radialGradient id="ah" cx=".538" cy=".499" r=".825" gradientTransform="matrix(.496 0 0 .857 .444 -.687)" xlink:href="#b"/></defs><g data-name="3"><path data-name="Rectangle 722" fill="none" opacity=".937" d="M0 0h845v678H0z"/><g data-name="Group 847"><g data-name="Group 846"><path data-name="Path 829" d="M638.04 310.735l9.119-5.253V189.02l-9.119 5.253z" transform="translate(-424.458 18.77)" fill="url(#a)"/><path data-name="Path 830" d="M615.36 296.171l9.119-5.277V221.44l-9.119 5.253z" transform="translate(-456.933 65.191)" fill="url(#c)"/><path data-name="Path 831" d="M604.02 318.118l9.1-5.253V217.22l-9.1 5.253z" transform="translate(-473.17 59.148)" fill="url(#d)"/><path data-name="Path 832" d="M592.68 333.445l9.1-5.253V217.64l-9.1 5.277z" transform="translate(-489.407 59.75)" fill="url(#e)"/></g><path data-name="Path 833" d="M643.4 310.735l-9.1-5.253V189.02l9.1 5.253z" transform="translate(-429.813 18.77)" fill="url(#f)"/><path data-name="Path 834" d="M620.715 296.171l-9.1-5.277V221.44l9.1 5.253z" transform="translate(-462.287 65.191)" fill="url(#g)"/><path data-name="Path 835" d="M609.375 318.118l-9.095-5.253V217.22l9.095 5.253z" transform="translate(-478.525 59.149)" fill="url(#h)"/><path data-name="Path 836" d="M598.035 333.445l-9.095-5.253V217.64l9.095 5.277z" transform="translate(-494.762 59.75)" fill="url(#i)"/><path data-name="Path 837" d="M597.914 215.47l9.217 5.277-9.1 5.277-9.095-5.277z" transform="translate(-494.762 56.643)" fill="url(#j)"/><path data-name="Path 838" d="M609.253 215.06l9.217 5.277-9.1 5.253-9.095-5.253z" transform="translate(-478.525 56.056)" fill="url(#k)"/><path data-name="Path 839" d="M626.68 305.188l9.1-5.253V204.29l-9.1 5.277z" transform="translate(-440.723 40.635)" fill="url(#l)"/><path data-name="Path 840" d="M632.049 305.188l-9.119-5.253V204.29l9.119 5.277z" transform="translate(-446.093 40.635)" fill="url(#m)"/><path data-name="Path 841" d="M631.928 202.13l9.217 5.277-9.1 5.253-9.119-5.253z" transform="translate(-446.093 37.542)" fill="url(#n)"/><path data-name="Path 842" d="M643.3 186.85l9.217 5.277-9.117 5.273-9.1-5.277z" transform="translate(-429.813 15.663)" fill="url(#o)"/><path data-name="Path 843" d="M620.594 219.28l9.241 5.277-9.119 5.253-9.1-5.253z" transform="translate(-462.287 62.098)" fill="url(#p)"/></g><g data-name="Group 852"><g data-name="Group 848"><path data-name="Path 844" d="M540.334 195.73v67.07a3.677 3.677 0 010 1.265 6.857 6.857 0 01-3.769 4.645 20.306 20.306 0 01-18.409 0 6.883 6.883 0 01-3.745-4.645V195.73z" transform="translate(8.067 54.375)" fill="url(#q)"/><path data-name="Path 845" d="M536.6 205.926a20.306 20.306 0 01-18.409 0c-5.083-2.918-5.083-7.685 0-10.627a20.452 20.452 0 0118.409 0c5.086 2.942 5.086 7.709 0 10.627z" transform="translate(8.027 50.624)" fill="url(#r)"/></g><g data-name="Group 849"><path data-name="Path 847" d="M527 203.91h26.021v65.223a6.445 6.445 0 01-3.794 5.3 20.306 20.306 0 01-18.409 0 6.42 6.42 0 01-3.818-5.3z" transform="translate(26.094 66.088)" fill="url(#s)"/><path data-name="Path 848" d="M549.194 213.666a20.306 20.306 0 01-18.409 0c-5.083-2.918-5.083-7.685 0-10.627a20.452 20.452 0 0118.409 0c5.082 3.039 5.082 7.709 0 10.627z" transform="translate(26.055 61.707)" fill="url(#t)"/></g><g data-name="Group 850"><path data-name="Path 849" d="M539.55 219.74h26.021v44.625a6.274 6.274 0 01-3.769 5.666 20.451 20.451 0 01-18.409 0 6.3 6.3 0 01-3.794-5.666z" transform="translate(44.064 88.754)" fill="url(#u)"/><path data-name="Path 850" d="M561.774 229.366a20.306 20.306 0 01-18.409 0c-5.083-2.943-5.083-7.685 0-10.627a20.306 20.306 0 0118.409 0c5.082 2.942 5.082 7.685 0 10.627z" transform="translate(44.068 84.162)" fill="url(#v)"/></g><g data-name="Group 851"><path data-name="Path 851" d="M552.4 233.93h26.021v26.921a6.25 6.25 0 01-3.794 5.642 20.306 20.306 0 01-18.409 0 6.25 6.25 0 01-3.769-5.642z" transform="translate(62.463 109.073)" fill="url(#w)"/><path data-name="Path 852" d="M574.614 243.546a20.306 20.306 0 01-18.409 0c-5.083-2.918-5.083-7.685 0-10.627a20.452 20.452 0 0118.409 0c5.086 2.942 5.086 7.709 0 10.627z" transform="translate(62.453 104.491)" fill="url(#x)"/></g></g><g data-name="Group 886" transform="translate(26.572 453.776)"><ellipse data-name="Ellipse 32" cx="90.684" cy="42.144" rx="90.684" ry="42.144" transform="translate(0 113.565)" opacity=".1" fill="url(#b)" style="mix-blend-mode:multiply;isolation:isolate"/><g data-name="Group 885"><g data-name="Group 856"><g data-name="Group 855" transform="translate(45.792 107.583)"><path data-name="Path 853" d="M329.33 334.33l93.7.778v13.01c0 6.931-4.572 13.862-13.716 19.139-18.312 10.554-47.981 10.554-66.268 0-9.146-5.277-13.716-12.157-13.716-19.138z" transform="translate(-329.306 -308.528)" fill="url(#y)"/><g data-name="Group 854" transform="translate(.024 21.595)" clip-path="url(#z)"><g data-name="Group 853"><path data-name="Rectangle 499" fill="url(#u)" d="M0 0h1.556v44.017H0z" transform="translate(2.967 2.553)"/><path data-name="Rectangle 500" transform="translate(8.366 2.553)" fill="url(#u)" d="M0 0h1.556v44.017H0z"/><path data-name="Rectangle 501" transform="translate(13.74 2.553)" fill="url(#u)" d="M0 0h1.556v44.017H0z"/><path data-name="Rectangle 502" transform="translate(19.139 2.553)" fill="url(#u)" d="M0 0h1.556v44.017H0z"/><path data-name="Rectangle 503" transform="translate(24.513 2.553)" fill="url(#u)" d="M0 0h1.556v44.017H0z"/><path data-name="Rectangle 504" transform="translate(29.912 2.553)" fill="url(#A)" d="M0 0h1.556v44.017H0z"/><path data-name="Rectangle 505" transform="translate(35.286 2.553)" fill="url(#u)" d="M0 0h1.556v44.017H0z"/><path data-name="Rectangle 506" transform="translate(40.685 2.553)" fill="url(#u)" d="M0 0h1.556v44.017H0z"/><path data-name="Rectangle 507" transform="translate(46.06 2.553)" fill="url(#u)" d="M0 0h1.556v44.017H0z"/><path data-name="Rectangle 508" transform="translate(51.458 2.553)" fill="url(#u)" d="M0 0h1.556v44.017H0z"/><path data-name="Rectangle 509" transform="translate(56.833 2.553)" fill="url(#u)" d="M0 0h1.556v44.017H0z"/><path data-name="Rectangle 510" transform="translate(62.231 2.553)" fill="url(#u)" d="M0 0h1.556v44.017H0z"/><path data-name="Rectangle 511" transform="translate(67.606 2.553)" fill="url(#A)" d="M0 0h1.556v44.017H0z"/><path data-name="Rectangle 512" transform="translate(73.005 2.553)" fill="url(#u)" d="M0 0h1.556v44.017H0z"/><path data-name="Rectangle 513" transform="translate(78.379 2.553)" fill="url(#u)" d="M0 0h1.556v44.017H0z"/><path data-name="Rectangle 514" transform="translate(83.778 2.553)" fill="url(#u)" d="M0 0h1.556v44.017H0z"/><path data-name="Rectangle 515" transform="translate(89.152 2.553)" fill="url(#u)" d="M0 0h1.556v44.017H0z"/></g></g><ellipse data-name="Ellipse 33" cx="46.862" cy="27.042" rx="46.862" ry="27.042" fill="url(#B)"/><path data-name="Path 855" d="M75.801 42.509c-15.977 9.217-41.877 9.217-57.878 0s-15.977-24.2 0-33.414 41.9-9.241 57.878 0 15.978 24.173 0 33.414z" fill="none" stroke="#84e4a4" stroke-miterlimit="10" stroke-width=".64"/></g><path data-name="Path 856" d="M87.742 118.697l-5.934-3.4-5.4 3.137 5.4 3.113-5.423 3.137-5.4-3.137-5.423 3.137 5.423 3.137-5.423 3.113 27.091 15.661 5.423-3.137 5.423 3.137 5.423-3.137-5.423-3.113 5.423-3.137 5.423 3.137 5.423-3.137-5.909-3.429a4.256 4.256 0 00-.462-6.226 14.177 14.177 0 00-9.29-3.21c-.17-2.213-2.262-4.231-5.569-5.374a19.163 19.163 0 00-10.796-.272zm-11.357 12.159l13.57-7.806a5.934 5.934 0 015.423 0 1.654 1.654 0 010 3.113l-13.57 7.831zm29.839 1.581l-13.57 7.831-5.423-3.137 13.57-7.831a6.08 6.08 0 015.423 0 1.654 1.654 0 010 3.283z" fill="#fff"/></g><g data-name="Group 860"><g data-name="Group 859" transform="translate(45.792 92.213)"><path data-name="Path 857" d="M329.33 328l93.7.778v12.986c0 6.931-4.572 13.862-13.716 19.139-18.312 10.554-47.981 10.554-66.268 0-9.144-5.277-13.716-12.159-13.716-19.139z" transform="translate(-329.306 -302.222)" fill="url(#C)"/><g data-name="Group 858" transform="translate(.024 21.571)" clip-path="url(#D)"><g data-name="Group 857"><path data-name="Rectangle 516" fill="url(#u)" d="M0 0h1.556v44.017H0z" transform="translate(2.967 2.578)"/><path data-name="Rectangle 517" transform="translate(8.366 2.578)" fill="url(#u)" d="M0 0h1.556v44.017H0z"/><path data-name="Rectangle 518" transform="translate(13.74 2.578)" fill="url(#u)" d="M0 0h1.556v44.017H0z"/><path data-name="Rectangle 519" transform="translate(19.139 2.578)" fill="url(#u)" d="M0 0h1.556v44.017H0z"/><path data-name="Rectangle 520" transform="translate(24.513 2.578)" fill="url(#u)" d="M0 0h1.556v44.017H0z"/><path data-name="Rectangle 521" transform="translate(29.912 2.578)" fill="url(#A)" d="M0 0h1.556v44.017H0z"/><path data-name="Rectangle 522" transform="translate(35.286 2.578)" fill="url(#u)" d="M0 0h1.556v44.017H0z"/><path data-name="Rectangle 523" transform="translate(40.685 2.578)" fill="url(#u)" d="M0 0h1.556v44.017H0z"/><path data-name="Rectangle 524" transform="translate(46.06 2.578)" fill="url(#u)" d="M0 0h1.556v44.017H0z"/><path data-name="Rectangle 525" transform="translate(51.458 2.578)" fill="url(#u)" d="M0 0h1.556v44.017H0z"/><path data-name="Rectangle 526" transform="translate(56.833 2.578)" fill="url(#u)" d="M0 0h1.556v44.017H0z"/><path data-name="Rectangle 527" transform="translate(62.231 2.578)" fill="url(#u)" d="M0 0h1.556v44.017H0z"/><path data-name="Rectangle 528" transform="translate(67.606 2.578)" fill="url(#A)" d="M0 0h1.556v44.017H0z"/><path data-name="Rectangle 529" transform="translate(73.005 2.578)" fill="url(#u)" d="M0 0h1.556v44.017H0z"/><path data-name="Rectangle 530" transform="translate(78.379 2.578)" fill="url(#u)" d="M0 0h1.556v44.017H0z"/><path data-name="Rectangle 531" transform="translate(83.778 2.578)" fill="url(#u)" d="M0 0h1.556v44.017H0z"/><path data-name="Rectangle 532" transform="translate(89.152 2.578)" fill="url(#u)" d="M0 0h1.556v44.017H0z"/></g></g><ellipse data-name="Ellipse 34" cx="46.862" cy="27.042" rx="46.862" ry="27.042" fill="url(#E)"/><path data-name="Path 859" d="M75.801 42.509c-15.977 9.217-41.877 9.217-57.878 0s-15.977-24.2 0-33.414 41.9-9.241 57.878 0 15.978 24.173 0 33.414z" fill="none" stroke="#84e4a4" stroke-miterlimit="10" stroke-width=".64"/></g><path data-name="Path 860" d="M87.742 103.395l-5.934-3.4-5.4 3.137 5.4 3.113-5.423 3.137-5.4-3.137-5.423 3.137 5.423 3.137-5.423 3.04 27.091 15.661 5.423-3.137 5.423 3.137 5.423-3.137-5.423-3.113 5.423-3.137 5.423 3.137 5.423-3.137-5.909-3.429a4.256 4.256 0 00-.462-6.226 14.177 14.177 0 00-9.29-3.21c-.17-2.213-2.262-4.232-5.569-5.375a19.163 19.163 0 00-10.8-.195zm-11.357 12.159l13.57-7.806a5.934 5.934 0 015.423 0 1.654 1.654 0 010 3.113l-13.57 7.831zm29.839 1.581l-13.57 7.831-5.423-3.137 13.57-7.831a5.934 5.934 0 015.423 0 1.654 1.654 0 010 3.137z" fill="#fff"/></g><g data-name="Group 864"><g data-name="Group 863"><path data-name="Path 861" d="M329.33 321.69l93.7.778v12.986c0 6.931-4.572 13.862-13.716 19.139-18.312 10.554-47.981 10.554-66.268 0-9.144-5.277-13.716-12.159-13.716-19.139z" transform="translate(-283.514 -219.044)" fill="url(#F)"/><g data-name="Group 862" transform="translate(45.816 98.536)" clip-path="url(#G)"><g data-name="Group 861"><path data-name="Rectangle 533" fill="url(#u)" d="M0 0h1.556v44.017H0z" transform="translate(2.967 2.456)"/><path data-name="Rectangle 534" transform="translate(8.366 2.456)" fill="url(#u)" d="M0 0h1.556v44.017H0z"/><path data-name="Rectangle 535" transform="translate(13.74 2.456)" fill="url(#u)" d="M0 0h1.556v44.017H0z"/><path data-name="Rectangle 536" transform="translate(19.139 2.456)" fill="url(#u)" d="M0 0h1.556v44.017H0z"/><path data-name="Rectangle 537" transform="translate(24.513 2.456)" fill="url(#u)" d="M0 0h1.556v44.017H0z"/><path data-name="Rectangle 538" transform="translate(29.912 2.456)" fill="url(#A)" d="M0 0h1.556v44.017H0z"/><path data-name="Rectangle 539" transform="translate(35.286 2.456)" fill="url(#u)" d="M0 0h1.556v44.017H0z"/><path data-name="Rectangle 540" transform="translate(40.685 2.456)" fill="url(#u)" d="M0 0h1.556v44.017H0z"/><path data-name="Rectangle 541" transform="translate(46.06 2.456)" fill="url(#u)" d="M0 0h1.556v44.017H0z"/><path data-name="Rectangle 542" transform="translate(51.458 2.456)" fill="url(#u)" d="M0 0h1.556v44.017H0z"/><path data-name="Rectangle 543" transform="translate(56.833 2.456)" fill="url(#u)" d="M0 0h1.556v44.017H0z"/><path data-name="Rectangle 544" transform="translate(62.231 2.456)" fill="url(#u)" d="M0 0h1.556v44.017H0z"/><path data-name="Rectangle 545" transform="translate(67.606 2.456)" fill="url(#A)" d="M0 0h1.556v44.017H0z"/><path data-name="Rectangle 546" transform="translate(73.005 2.456)" fill="url(#u)" d="M0 0h1.556v44.017H0z"/><path data-name="Rectangle 547" transform="translate(78.379 2.456)" fill="url(#u)" d="M0 0h1.556v44.017H0z"/><path data-name="Rectangle 548" transform="translate(83.778 2.456)" fill="url(#u)" d="M0 0h1.556v44.017H0z"/><path data-name="Rectangle 549" transform="translate(89.152 2.456)" fill="url(#u)" d="M0 0h1.556v44.017H0z"/></g></g><path data-name="Path 863" d="M409.319 357.254c-18.312 10.579-47.981 10.579-66.268 0s-18.312-27.7 0-38.253 47.956-10.554 66.268 0 18.288 27.699 0 38.253z" transform="translate(-283.519 -234.229)" fill="url(#H)"/><path data-name="Path 864" d="M121.593 119.352c-15.977 9.217-41.877 9.217-57.878 0s-15.977-24.2 0-33.414 41.9-9.241 57.878 0 15.978 24.173 0 33.414z" fill="none" stroke="#84e4a4" stroke-miterlimit="10" stroke-width=".64"/></g><path data-name="Path 865" d="M87.742 87.958l-5.934-3.4-5.4 3.113 5.4 3.137-5.423 3.137-5.4-3.137-5.423 3.137 5.423 3.137-5.423 3.113 27.091 15.661 5.423-3.137 5.423 3.137 5.423-3.137-5.423-3.137 5.423-3.113 5.423 3.113 5.423-3.113-5.909-3.429a4.256 4.256 0 00-.462-6.225 14.178 14.178 0 00-9.284-3.142c-.17-2.213-2.262-4.231-5.569-5.374a19.161 19.161 0 00-10.8-.341zm-11.357 12.159l13.57-7.806a5.934 5.934 0 015.423 0 1.654 1.654 0 010 3.113l-13.57 7.977zm29.839 1.581l-13.57 7.806-5.423-3.113 13.57-7.831a5.934 5.934 0 015.423 0 1.654 1.654 0 010 3.21z" fill="#fff"/></g><g data-name="Group 868"><g data-name="Group 867" transform="translate(45.792 61.475)"><path data-name="Path 866" d="M329.33 315.37l93.7.778v12.913c0 6.931-4.572 13.862-13.716 19.139-18.312 10.554-47.981 10.554-66.268 0-9.144-5.277-13.716-12.159-13.716-19.139z" transform="translate(-329.306 -289.568)" fill="url(#I)"/><g data-name="Group 866" transform="translate(.024 21.595)" clip-path="url(#J)"><g data-name="Group 865"><path data-name="Rectangle 550" fill="url(#u)" d="M0 0h1.556v44.017H0z" transform="translate(2.967 2.553)"/><path data-name="Rectangle 551" transform="translate(8.366 2.553)" fill="url(#u)" d="M0 0h1.556v44.017H0z"/><path data-name="Rectangle 552" transform="translate(13.74 2.553)" fill="url(#u)" d="M0 0h1.556v44.017H0z"/><path data-name="Rectangle 553" transform="translate(19.139 2.553)" fill="url(#u)" d="M0 0h1.556v44.017H0z"/><path data-name="Rectangle 554" transform="translate(24.513 2.553)" fill="url(#u)" d="M0 0h1.556v44.017H0z"/><path data-name="Rectangle 555" transform="translate(29.912 2.553)" fill="url(#A)" d="M0 0h1.556v44.017H0z"/><path data-name="Rectangle 556" transform="translate(35.286 2.553)" fill="url(#u)" d="M0 0h1.556v44.017H0z"/><path data-name="Rectangle 557" transform="translate(40.685 2.553)" fill="url(#u)" d="M0 0h1.556v44.017H0z"/><path data-name="Rectangle 558" transform="translate(46.06 2.553)" fill="url(#u)" d="M0 0h1.556v44.017H0z"/><path data-name="Rectangle 559" transform="translate(51.458 2.553)" fill="url(#u)" d="M0 0h1.556v44.017H0z"/><path data-name="Rectangle 560" transform="translate(56.833 2.553)" fill="url(#u)" d="M0 0h1.556v44.017H0z"/><path data-name="Rectangle 561" transform="translate(62.231 2.553)" fill="url(#u)" d="M0 0h1.556v44.017H0z"/><path data-name="Rectangle 562" transform="translate(67.606 2.553)" fill="url(#A)" d="M0 0h1.556v44.017H0z"/><path data-name="Rectangle 563" transform="translate(73.005 2.553)" fill="url(#u)" d="M0 0h1.556v44.017H0z"/><path data-name="Rectangle 564" transform="translate(78.379 2.553)" fill="url(#u)" d="M0 0h1.556v44.017H0z"/><path data-name="Rectangle 565" transform="translate(83.778 2.553)" fill="url(#u)" d="M0 0h1.556v44.017H0z"/><path data-name="Rectangle 566" transform="translate(89.152 2.553)" fill="url(#u)" d="M0 0h1.556v44.017H0z"/></g></g><ellipse data-name="Ellipse 35" cx="46.862" cy="27.042" rx="46.862" ry="27.042" fill="url(#E)"/><ellipse data-name="Ellipse 36" cx="40.928" cy="23.638" rx="40.928" ry="23.638" transform="translate(5.934 2.164)" fill="none" stroke="#84e4a4" stroke-miterlimit="10" stroke-width=".64"/></g><path data-name="Path 868" d="M87.742 72.589l-5.934-3.4-5.4 3.113 5.4 3.137-5.423 3.137-5.4-3.137-5.423 3.137 5.423 3.137-5.423 3.113 27.091 15.661 5.423-3.137 5.423 3.137 5.423-3.137-5.423-3.137 5.423-3.113 5.423 3.113 5.423-3.113-5.909-3.429a4.255 4.255 0 00-.462-6.225 14.177 14.177 0 00-9.29-3.21c-.17-2.213-2.262-4.232-5.569-5.374a18.944 18.944 0 00-10.796-.273zM76.385 84.748l13.57-7.806a5.934 5.934 0 015.423 0 1.654 1.654 0 010 3.113l-13.57 7.831zm29.839 1.581l-13.57 7.806-5.423-3.113 13.57-7.831a5.934 5.934 0 015.423 0 1.654 1.654 0 010 3.186z" fill="#fff"/></g><g data-name="Group 872"><g data-name="Group 871" transform="translate(45.792 46.105)"><path data-name="Path 869" d="M329.33 309.05l93.7.778v12.986c0 6.931-4.572 13.862-13.716 19.139-18.312 10.554-47.981 10.554-66.268 0-9.144-5.277-13.716-12.159-13.716-19.139z" transform="translate(-329.306 -283.248)" fill="url(#K)"/><g data-name="Group 870" transform="translate(.024 21.595)" clip-path="url(#L)"><g data-name="Group 869"><path data-name="Rectangle 567" fill="url(#u)" d="M0 0h1.556v44.017H0z" transform="translate(2.967 2.553)"/><path data-name="Rectangle 568" transform="translate(8.366 2.553)" fill="url(#u)" d="M0 0h1.556v44.017H0z"/><path data-name="Rectangle 569" transform="translate(13.74 2.553)" fill="url(#u)" d="M0 0h1.556v44.017H0z"/><path data-name="Rectangle 570" transform="translate(19.139 2.553)" fill="url(#u)" d="M0 0h1.556v44.017H0z"/><path data-name="Rectangle 571" transform="translate(24.513 2.553)" fill="url(#u)" d="M0 0h1.556v44.017H0z"/><path data-name="Rectangle 572" transform="translate(29.912 2.553)" fill="url(#A)" d="M0 0h1.556v44.017H0z"/><path data-name="Rectangle 573" transform="translate(35.286 2.553)" fill="url(#u)" d="M0 0h1.556v44.017H0z"/><path data-name="Rectangle 574" transform="translate(40.685 2.553)" fill="url(#u)" d="M0 0h1.556v44.017H0z"/><path data-name="Rectangle 575" transform="translate(46.06 2.553)" fill="url(#u)" d="M0 0h1.556v44.017H0z"/><path data-name="Rectangle 576" transform="translate(51.458 2.553)" fill="url(#u)" d="M0 0h1.556v44.017H0z"/><path data-name="Rectangle 577" transform="translate(56.833 2.553)" fill="url(#u)" d="M0 0h1.556v44.017H0z"/><path data-name="Rectangle 578" transform="translate(62.231 2.553)" fill="url(#u)" d="M0 0h1.556v44.017H0z"/><path data-name="Rectangle 579" transform="translate(67.606 2.553)" fill="url(#A)" d="M0 0h1.556v44.017H0z"/><path data-name="Rectangle 580" transform="translate(73.005 2.553)" fill="url(#u)" d="M0 0h1.556v44.017H0z"/><path data-name="Rectangle 581" transform="translate(78.379 2.553)" fill="url(#u)" d="M0 0h1.556v44.017H0z"/><path data-name="Rectangle 582" transform="translate(83.778 2.553)" fill="url(#u)" d="M0 0h1.556v44.017H0z"/><path data-name="Rectangle 583" transform="translate(89.152 2.553)" fill="url(#u)" d="M0 0h1.556v44.017H0z"/></g></g><ellipse data-name="Ellipse 37" cx="46.862" cy="27.042" rx="46.862" ry="27.042" fill="url(#E)"/><path data-name="Path 871" d="M75.801 42.509c-15.977 9.217-41.877 9.217-57.878 0s-15.977-24.2 0-33.414 41.9-9.241 57.878 0 15.978 24.173 0 33.414z" fill="none" stroke="#84e4a4" stroke-miterlimit="10" stroke-width=".64"/></g><path data-name="Path 872" d="M87.742 57.19l-5.934-3.4-5.4 3.113 5.4 3.137-5.423 3.137-5.4-3.137-5.423 3.137 5.423 3.137-5.423 3.04 27.091 15.661 5.423-3.137 5.423 3.137 5.423-3.137-5.423-3.137 5.423-3.113 5.423 3.113 5.423-3.113-5.909-3.429a4.3 4.3 0 00-.462-6.25 14.3 14.3 0 00-9.29-3.186c-.17-2.213-2.262-4.231-5.569-5.374a18.943 18.943 0 00-10.8-.195zM76.385 69.349l13.57-7.806a5.934 5.934 0 015.423 0 1.654 1.654 0 010 3.113l-13.57 7.831zm29.839 1.581l-13.57 7.806-5.423-3.113 13.57-7.831a5.934 5.934 0 015.423 0 1.654 1.654 0 010 3.235z" fill="#fff"/></g><g data-name="Group 876"><g data-name="Group 875"><path data-name="Path 873" d="M329.33 302.73l93.7.778v12.986c0 6.931-4.572 13.862-13.716 19.139-18.312 10.554-47.981 10.554-66.268 0-9.144-5.277-13.716-12.159-13.716-19.139z" transform="translate(-283.514 -246.192)" fill="url(#K)"/><g data-name="Group 874" transform="translate(45.816 52.331)" clip-path="url(#M)"><g data-name="Group 873"><path data-name="Rectangle 584" fill="url(#u)" d="M0 0h1.556v44.017H0z" transform="translate(2.967 2.553)"/><path data-name="Rectangle 585" transform="translate(8.366 2.553)" fill="url(#u)" d="M0 0h1.556v44.017H0z"/><path data-name="Rectangle 586" transform="translate(13.74 2.553)" fill="url(#u)" d="M0 0h1.556v44.017H0z"/><path data-name="Rectangle 587" transform="translate(19.139 2.553)" fill="url(#u)" d="M0 0h1.556v44.017H0z"/><path data-name="Rectangle 588" transform="translate(24.513 2.553)" fill="url(#u)" d="M0 0h1.556v44.017H0z"/><path data-name="Rectangle 589" transform="translate(29.912 2.553)" fill="url(#A)" d="M0 0h1.556v44.017H0z"/><path data-name="Rectangle 590" transform="translate(35.286 2.553)" fill="url(#u)" d="M0 0h1.556v44.017H0z"/><path data-name="Rectangle 591" transform="translate(40.685 2.553)" fill="url(#u)" d="M0 0h1.556v44.017H0z"/><path data-name="Rectangle 592" transform="translate(46.06 2.553)" fill="url(#u)" d="M0 0h1.556v44.017H0z"/><path data-name="Rectangle 593" transform="translate(51.458 2.553)" fill="url(#u)" d="M0 0h1.556v44.017H0z"/><path data-name="Rectangle 594" transform="translate(56.833 2.553)" fill="url(#u)" d="M0 0h1.556v44.017H0z"/><path data-name="Rectangle 595" transform="translate(62.231 2.553)" fill="url(#u)" d="M0 0h1.556v44.017H0z"/><path data-name="Rectangle 596" transform="translate(67.606 2.553)" fill="url(#A)" d="M0 0h1.556v44.017H0z"/><path data-name="Rectangle 597" transform="translate(73.005 2.553)" fill="url(#u)" d="M0 0h1.556v44.017H0z"/><path data-name="Rectangle 598" transform="translate(78.379 2.553)" fill="url(#u)" d="M0 0h1.556v44.017H0z"/><path data-name="Rectangle 599" transform="translate(83.778 2.553)" fill="url(#u)" d="M0 0h1.556v44.017H0z"/><path data-name="Rectangle 600" transform="translate(89.152 2.553)" fill="url(#u)" d="M0 0h1.556v44.017H0z"/></g></g><path data-name="Path 875" d="M409.319 338.3c-18.312 10.554-47.981 10.554-66.268 0s-18.312-27.7 0-38.253 47.956-10.579 66.268 0 18.288 27.698 0 38.253z" transform="translate(-283.519 -261.382)" fill="url(#N)"/><path data-name="Path 876" d="M121.593 73.245c-15.977 9.217-41.877 9.217-57.878 0s-15.977-24.319 0-33.414 41.9-9.241 57.878 0 15.978 24.173 0 33.414z" fill="none" stroke="#84e4a4" stroke-miterlimit="10" stroke-width=".64"/></g><path data-name="Path 877" d="M87.742 41.85l-5.934-3.4-5.4 3.113 5.4 3.137-5.423 3.137-5.4-3.137-5.423 3.137 5.423 3.137-5.423 3.113 27.091 15.661 5.423-3.137 5.423 3.137 5.423-3.137-5.423-3.137 5.423-3.113 5.423 3.113 5.423-3.113-5.909-3.429a4.3 4.3 0 00-.462-6.25 14.3 14.3 0 00-9.29-3.21c-.17-2.213-2.262-4.231-5.569-5.374a18.944 18.944 0 00-10.8-.243zM76.385 54.009l13.57-7.831a6.08 6.08 0 015.423 0 1.654 1.654 0 010 3.137l-13.57 7.879zm29.839 1.581l-13.57 7.806-5.423-3.113 13.57-7.831a5.934 5.934 0 015.423 0 1.654 1.654 0 010 3.21z" fill="#fff"/></g><g data-name="Group 880"><g data-name="Group 879" transform="translate(45.792 15.366)"><path data-name="Path 878" d="M329.33 296.41l93.7.778v12.986c0 6.931-4.572 13.862-13.716 19.139-18.312 10.554-47.981 10.554-66.268 0-9.144-5.277-13.716-12.159-13.716-19.139z" transform="translate(-329.306 -270.608)" fill="url(#K)"/><g data-name="Group 878" transform="translate(.024 21.595)" clip-path="url(#O)"><g data-name="Group 877"><path data-name="Rectangle 601" fill="url(#u)" d="M0 0h1.556v44.017H0z" transform="translate(2.967 2.553)"/><path data-name="Rectangle 602" transform="translate(8.366 2.553)" fill="url(#u)" d="M0 0h1.556v44.017H0z"/><path data-name="Rectangle 603" transform="translate(13.74 2.553)" fill="url(#u)" d="M0 0h1.556v44.017H0z"/><path data-name="Rectangle 604" transform="translate(19.139 2.553)" fill="url(#u)" d="M0 0h1.556v44.017H0z"/><path data-name="Rectangle 605" transform="translate(24.513 2.553)" fill="url(#u)" d="M0 0h1.556v44.017H0z"/><path data-name="Rectangle 606" transform="translate(29.912 2.553)" fill="url(#A)" d="M0 0h1.556v44.017H0z"/><path data-name="Rectangle 607" transform="translate(35.286 2.553)" fill="url(#u)" d="M0 0h1.556v44.017H0z"/><path data-name="Rectangle 608" transform="translate(40.685 2.553)" fill="url(#u)" d="M0 0h1.556v44.017H0z"/><path data-name="Rectangle 609" transform="translate(46.06 2.553)" fill="url(#u)" d="M0 0h1.556v44.017H0z"/><path data-name="Rectangle 610" transform="translate(51.458 2.553)" fill="url(#u)" d="M0 0h1.556v44.017H0z"/><path data-name="Rectangle 611" transform="translate(56.833 2.553)" fill="url(#u)" d="M0 0h1.556v44.017H0z"/><path data-name="Rectangle 612" transform="translate(62.231 2.553)" fill="url(#u)" d="M0 0h1.556v44.017H0z"/><path data-name="Rectangle 613" transform="translate(67.606 2.553)" fill="url(#A)" d="M0 0h1.556v44.017H0z"/><path data-name="Rectangle 614" transform="translate(73.005 2.553)" fill="url(#u)" d="M0 0h1.556v44.017H0z"/><path data-name="Rectangle 615" transform="translate(78.379 2.553)" fill="url(#u)" d="M0 0h1.556v44.017H0z"/><path data-name="Rectangle 616" transform="translate(83.778 2.553)" fill="url(#u)" d="M0 0h1.556v44.017H0z"/><path data-name="Rectangle 617" transform="translate(89.152 2.553)" fill="url(#u)" d="M0 0h1.556v44.017H0z"/></g></g><ellipse data-name="Ellipse 38" cx="46.862" cy="27.042" rx="46.862" ry="27.042" fill="url(#E)"/><path data-name="Path 880" d="M75.801 42.509c-15.977 9.217-41.877 9.217-57.878 0s-15.977-24.2 0-33.414 41.9-9.241 57.878 0 15.978 24.173 0 33.414z" fill="none" stroke="#84e4a4" stroke-miterlimit="10" stroke-width=".64"/></g><path data-name="Path 881" d="M87.742 26.48l-5.934-3.4-5.4 3.113 5.4 3.137-5.423 3.137-5.4-3.137-5.423 3.137 5.423 3.137-5.423 3.113 27.091 15.661 5.423-3.137 5.423 3.137 5.423-3.137-5.423-3.137 5.423-3.113 5.423 3.113 5.423-3.113-5.909-3.429a4.3 4.3 0 00-.462-6.25 14.3 14.3 0 00-9.29-3.186c-.17-2.213-2.262-4.231-5.569-5.374a18.75 18.75 0 00-10.8-.267zM76.385 38.639l13.57-7.831a6.08 6.08 0 015.423 0 1.654 1.654 0 010 3.137l-13.57 7.831zm29.839 1.581l-13.57 7.806-5.423-2.991 13.57-7.831a5.934 5.934 0 015.423 0 1.654 1.654 0 010 3.089z" fill="#fff"/></g><g data-name="Group 884"><g data-name="Group 883"><path data-name="Path 882" d="M329.33 290.09l93.7.778v12.986c0 6.931-4.572 13.837-13.716 19.139-18.312 10.554-47.981 10.554-66.268 0-9.144-5.3-13.716-12.159-13.716-19.139z" transform="translate(-283.514 -264.291)" fill="url(#K)"/><g data-name="Group 882" transform="translate(45.816 21.592)" clip-path="url(#P)"><g data-name="Group 881"><path data-name="Rectangle 618" fill="url(#u)" d="M0 0h1.556v44.017H0z" transform="translate(2.967 2.553)"/><path data-name="Rectangle 619" transform="translate(8.366 2.553)" fill="url(#u)" d="M0 0h1.556v44.017H0z"/><path data-name="Rectangle 620" transform="translate(13.74 2.553)" fill="url(#u)" d="M0 0h1.556v44.017H0z"/><path data-name="Rectangle 621" transform="translate(19.139 2.553)" fill="url(#u)" d="M0 0h1.556v44.017H0z"/><path data-name="Rectangle 622" transform="translate(24.513 2.553)" fill="url(#u)" d="M0 0h1.556v44.017H0z"/><path data-name="Rectangle 623" transform="translate(29.912 2.553)" fill="url(#A)" d="M0 0h1.556v44.017H0z"/><path data-name="Rectangle 624" transform="translate(35.286 2.553)" fill="url(#u)" d="M0 0h1.556v44.017H0z"/><path data-name="Rectangle 625" transform="translate(40.685 2.553)" fill="url(#u)" d="M0 0h1.556v44.017H0z"/><path data-name="Rectangle 626" transform="translate(46.06 2.553)" fill="url(#u)" d="M0 0h1.556v44.017H0z"/><path data-name="Rectangle 627" transform="translate(51.458 2.553)" fill="url(#u)" d="M0 0h1.556v44.017H0z"/><path data-name="Rectangle 628" transform="translate(56.833 2.553)" fill="url(#u)" d="M0 0h1.556v44.017H0z"/><path data-name="Rectangle 629" transform="translate(62.231 2.553)" fill="url(#u)" d="M0 0h1.556v44.017H0z"/><path data-name="Rectangle 630" transform="translate(67.606 2.553)" fill="url(#A)" d="M0 0h1.556v44.017H0z"/><path data-name="Rectangle 631" transform="translate(73.005 2.553)" fill="url(#u)" d="M0 0h1.556v44.017H0z"/><path data-name="Rectangle 632" transform="translate(78.379 2.553)" fill="url(#u)" d="M0 0h1.556v44.017H0z"/><path data-name="Rectangle 633" transform="translate(83.778 2.553)" fill="url(#u)" d="M0 0h1.556v44.017H0z"/><path data-name="Rectangle 634" transform="translate(89.152 2.553)" fill="url(#u)" d="M0 0h1.556v44.017H0z"/></g></g><path data-name="Path 884" d="M409.319 325.659c-18.312 10.554-47.981 10.554-66.268 0s-18.312-27.7 0-38.253 47.956-10.579 66.268 0 18.288 27.699 0 38.253z" transform="translate(-283.519 -279.481)" fill="url(#N)"/><path data-name="Path 885" d="M121.593 42.603c-15.977 9.217-41.877 9.217-57.878 0s-15.977-24.2 0-33.414 41.9-9.241 57.878 0 15.978 24.076 0 33.414z" fill="none" stroke="#70bdac" stroke-miterlimit="10" stroke-width=".64"/></g><path data-name="Path 886" d="M87.742 11.111l-5.934-3.4-5.4 3.113 5.4 3.137-5.423 3.137-5.4-3.137-5.423 3.137 5.423 3.137-5.423 3.113 27.091 15.661 5.423-3.137 5.423 3.137 5.423-3.137-5.423-3.137 5.423-3.113 5.423 3.113 5.423-3.113-5.909-3.429a4.3 4.3 0 00-.462-6.25 14.3 14.3 0 00-9.284-3.187c-.17-2.213-2.262-4.231-5.569-5.374a18.75 18.75 0 00-10.8-.267zM76.385 23.27l13.57-7.831a6.08 6.08 0 015.423 0 1.654 1.654 0 010 3.137l-13.57 7.831zm29.839 1.581l-13.57 7.806-5.423-3.113 13.57-7.831a5.934 5.934 0 015.423 0 1.654 1.654 0 010 3.21z" fill="#84e4a4"/></g></g></g><g data-name="Group 908" transform="translate(535.998 477.143)"><ellipse data-name="Ellipse 39" cx="90.684" cy="42.144" rx="90.684" ry="42.144" transform="translate(0 109.799)" opacity=".1" fill="url(#Q)" style="mix-blend-mode:multiply;isolation:isolate"/><g data-name="Group 907"><g data-name="Group 890"><g data-name="Group 889" transform="translate(32.222 80.179)"><path data-name="Path 887" d="M533.22 335.9l122.225 1v17.02c0 9.022-5.958 18.044-17.9 24.951-23.857 13.764-62.572 13.764-86.428 0-11.94-6.906-17.9-15.929-17.9-24.951z" transform="translate(-533.22 -302.243)" fill="url(#R)"/><g data-name="Group 888" transform="translate(0 28.161)" clip-path="url(#S)"><g data-name="Group 887"><path data-name="Rectangle 635" fill="url(#u)" d="M0 0h2.043v57.416H0z" transform="translate(3.891 3.332)"/><path data-name="Rectangle 636" transform="translate(10.919 3.332)" fill="url(#u)" d="M0 0h2.043v57.416H0z"/><path data-name="Rectangle 637" transform="translate(17.947 3.332)" fill="url(#u)" d="M0 0h2.043v57.416H0z"/><path data-name="Rectangle 638" transform="translate(24.975 3.332)" fill="url(#u)" d="M0 0h2.043v57.416H0z"/><path data-name="Rectangle 639" transform="translate(31.979 3.332)" fill="url(#u)" d="M0 0h2.043v57.416H0z"/><path data-name="Rectangle 640" transform="translate(39.007 3.332)" fill="url(#u)" d="M0 0h2.043v57.416H0z"/><path data-name="Rectangle 641" transform="translate(46.035 3.332)" fill="url(#u)" d="M0 0h2.043v57.416H0z"/><path data-name="Rectangle 642" transform="translate(53.063 3.332)" fill="url(#u)" d="M0 0h2.043v57.416H0z"/><path data-name="Rectangle 643" transform="translate(60.091 3.332)" fill="url(#u)" d="M0 0h2.043v57.416H0z"/><path data-name="Rectangle 644" transform="translate(67.119 3.332)" fill="url(#u)" d="M0 0h2.043v57.416H0z"/><path data-name="Rectangle 645" transform="translate(74.148 3.332)" fill="url(#u)" d="M0 0h2.043v57.416H0z"/><path data-name="Rectangle 646" transform="translate(81.176 3.332)" fill="url(#u)" d="M0 0h2.043v57.416H0z"/><path data-name="Rectangle 647" transform="translate(88.204 3.332)" fill="url(#u)" d="M0 0h2.043v57.416H0z"/><path data-name="Rectangle 648" transform="translate(95.232 3.332)" fill="url(#A)" d="M0 0h2.043v57.416H0z"/><path data-name="Rectangle 649" transform="translate(102.26 3.332)" fill="url(#T)" d="M0 0h2.043v57.416H0z"/><path data-name="Rectangle 650" transform="translate(109.264 3.332)" fill="url(#u)" d="M0 0h2.043v57.416H0z"/><path data-name="Rectangle 651" transform="translate(116.292 3.332)" fill="url(#u)" d="M0 0h2.043v57.416H0z"/></g></g><ellipse data-name="Ellipse 40" cx="61.113" cy="35.286" rx="61.113" ry="35.286" fill="url(#U)"/><ellipse data-name="Ellipse 41" cx="53.379" cy="30.812" rx="53.379" ry="30.812" transform="translate(7.733 2.821)" fill="none" stroke="#84e4a4" stroke-miterlimit="10" stroke-width=".84"/></g><path data-name="Path 889" d="M86.915 94.625l-7.733-4.475-7.052 4.086 7.052 4.086-7.052 4.086-7.077-4.086-7.077 4.086 7.077 4.086-7.077 4.086 35.359 20.525 7.077-4.085 7.052 4.085 7.077-4.085-7.077-4.086 7.077-4.086 7.077 4.086 7.077-4.086-7.733-4.45a5.569 5.569 0 00-.583-8.147 18.725 18.725 0 00-12.159-4.183c-.219-2.87-2.918-5.5-7.3-6.979a24.634 24.634 0 00-14.007-.462zm-14.786 15.953l17.68-10.214a7.83 7.83 0 017.052 0c1.97 1.119 1.97 2.943 0 4.086l-17.68 10.214zm38.91 2.043l-17.68 10.189-7.077-4.086 17.68-10.189a7.734 7.734 0 017.077 0 2.164 2.164 0 01-.024 4.158z" fill="#fff"/></g><g data-name="Group 894"><g data-name="Group 893" transform="translate(32.222 60.14)"><path data-name="Path 890" d="M533.22 327.65l122.225 1.021v17.023c0 9.046-5.958 18.069-17.9 24.951-23.857 13.789-62.572 13.789-86.428 0-11.94-6.882-17.9-15.9-17.9-24.951z" transform="translate(-533.22 -294.017)" fill="url(#V)"/><g data-name="Group 892" transform="translate(0 28.161)" clip-path="url(#W)"><g data-name="Group 891"><path data-name="Rectangle 652" fill="url(#u)" d="M0 0h2.043v57.416H0z" transform="translate(3.891 3.332)"/><path data-name="Rectangle 653" transform="translate(10.919 3.332)" fill="url(#u)" d="M0 0h2.043v57.416H0z"/><path data-name="Rectangle 654" transform="translate(17.947 3.332)" fill="url(#u)" d="M0 0h2.043v57.416H0z"/><path data-name="Rectangle 655" transform="translate(24.975 3.332)" fill="url(#u)" d="M0 0h2.043v57.416H0z"/><path data-name="Rectangle 656" transform="translate(31.979 3.332)" fill="url(#u)" d="M0 0h2.043v57.416H0z"/><path data-name="Rectangle 657" transform="translate(39.007 3.332)" fill="url(#u)" d="M0 0h2.043v57.416H0z"/><path data-name="Rectangle 658" transform="translate(46.035 3.332)" fill="url(#u)" d="M0 0h2.043v57.416H0z"/><path data-name="Rectangle 659" transform="translate(53.063 3.332)" fill="url(#u)" d="M0 0h2.043v57.416H0z"/><path data-name="Rectangle 660" transform="translate(60.091 3.332)" fill="url(#u)" d="M0 0h2.043v57.416H0z"/><path data-name="Rectangle 661" transform="translate(67.119 3.332)" fill="url(#u)" d="M0 0h2.043v57.416H0z"/><path data-name="Rectangle 662" transform="translate(74.148 3.332)" fill="url(#u)" d="M0 0h2.043v57.416H0z"/><path data-name="Rectangle 663" transform="translate(81.176 3.332)" fill="url(#u)" d="M0 0h2.043v57.416H0z"/><path data-name="Rectangle 664" transform="translate(88.204 3.332)" fill="url(#u)" d="M0 0h2.043v57.416H0z"/><path data-name="Rectangle 665" transform="translate(95.232 3.332)" fill="url(#A)" d="M0 0h2.043v57.416H0z"/><path data-name="Rectangle 666" transform="translate(102.26 3.332)" fill="url(#T)" d="M0 0h2.043v57.416H0z"/><path data-name="Rectangle 667" transform="translate(109.264 3.332)" fill="url(#u)" d="M0 0h2.043v57.416H0z"/><path data-name="Rectangle 668" transform="translate(116.292 3.332)" fill="url(#u)" d="M0 0h2.043v57.416H0z"/></g></g><ellipse data-name="Ellipse 42" cx="61.113" cy="35.286" rx="61.113" ry="35.286" fill="url(#X)"/><path data-name="Path 892" d="M98.856 55.422c-20.841 12.038-54.644 12.038-75.388 0s-20.841-31.614 0-43.579 54.644-12.038 75.388 0 20.841 31.541 0 43.579z" fill="none" stroke="#84e4a4" stroke-miterlimit="10" stroke-width=".84"/></g><path data-name="Path 893" d="M86.914 74.634l-7.733-4.329-7.052 4.086 7.052 4.086-7.052 4.086-7.077-4.086-7.077 3.988 7.077 4.061-7.077 4.086 35.359 20.428 7.077-4.086 7.052 4.086 7.077-4.086-7.077-4.086 7.077-4.086 7.077 4.086 7.077-4.086-7.733-4.45a5.569 5.569 0 00-.583-8.147 18.605 18.605 0 00-12.16-4.183c-.219-2.894-2.918-5.52-7.3-7a24.829 24.829 0 00-14.004-.368zM72.128 90.587l17.68-10.189a7.684 7.684 0 017.052 0 2.14 2.14 0 010 4.061L79.18 94.673zm38.91 2.043l-17.68 10.214-7.077-4.086 17.68-10.214a7.879 7.879 0 017.077 0 2.164 2.164 0 01-.024 4.085z" fill="#fff"/></g><g data-name="Group 898"><g data-name="Group 897" transform="translate(32.222 40.077)"><path data-name="Path 894" d="M533.22 319.41l122.225 1.021v17.023c0 9.022-5.958 18.044-17.9 24.951-23.857 13.764-62.572 13.764-86.428 0-11.94-6.907-17.9-15.929-17.9-24.951z" transform="translate(-533.22 -285.753)" fill="url(#Y)"/><g data-name="Group 896" transform="translate(0 28.161)" clip-path="url(#Z)"><g data-name="Group 895"><path data-name="Rectangle 669" fill="url(#aa)" d="M0 0h2.043v57.416H0z" transform="translate(3.891 3.332)"/><path data-name="Rectangle 670" transform="translate(10.919 3.332)" fill="url(#aa)" d="M0 0h2.043v57.416H0z"/><path data-name="Rectangle 671" transform="translate(17.947 3.332)" fill="url(#aa)" d="M0 0h2.043v57.416H0z"/><path data-name="Rectangle 672" transform="translate(24.975 3.332)" fill="url(#aa)" d="M0 0h2.043v57.416H0z"/><path data-name="Rectangle 673" transform="translate(31.979 3.332)" fill="url(#aa)" d="M0 0h2.043v57.416H0z"/><path data-name="Rectangle 674" transform="translate(39.007 3.332)" fill="url(#aa)" d="M0 0h2.043v57.416H0z"/><path data-name="Rectangle 675" transform="translate(46.035 3.332)" fill="url(#aa)" d="M0 0h2.043v57.416H0z"/><path data-name="Rectangle 676" transform="translate(53.063 3.332)" fill="url(#aa)" d="M0 0h2.043v57.416H0z"/><path data-name="Rectangle 677" transform="translate(60.091 3.332)" fill="url(#aa)" d="M0 0h2.043v57.416H0z"/><path data-name="Rectangle 678" transform="translate(67.119 3.332)" fill="url(#aa)" d="M0 0h2.043v57.416H0z"/><path data-name="Rectangle 679" transform="translate(74.148 3.332)" fill="url(#aa)" d="M0 0h2.043v57.416H0z"/><path data-name="Rectangle 680" transform="translate(81.176 3.332)" fill="url(#aa)" d="M0 0h2.043v57.416H0z"/><path data-name="Rectangle 681" transform="translate(88.204 3.332)" fill="url(#aa)" d="M0 0h2.043v57.416H0z"/><path data-name="Rectangle 682" transform="translate(95.232 3.332)" fill="url(#ab)" d="M0 0h2.043v57.416H0z"/><path data-name="Rectangle 683" transform="translate(102.26 3.332)" fill="url(#ac)" d="M0 0h2.043v57.416H0z"/><path data-name="Rectangle 684" transform="translate(109.264 3.332)" fill="url(#aa)" d="M0 0h2.043v57.416H0z"/><path data-name="Rectangle 685" transform="translate(116.292 3.332)" fill="url(#aa)" d="M0 0h2.043v57.416H0z"/></g></g><ellipse data-name="Ellipse 43" cx="61.113" cy="35.286" rx="61.113" ry="35.286" fill="url(#U)"/><path data-name="Path 896" d="M98.856 55.447c-20.841 12.038-54.644 12.038-75.388 0s-20.841-31.614 0-43.579 54.644-12.038 75.388 0 20.841 31.541 0 43.579z" fill="none" stroke="#84e4a4" stroke-miterlimit="10" stroke-width=".84"/></g><path data-name="Path 897" d="M86.915 54.596l-7.733-4.475-7.052 4.086 7.052 4.086-7.052 4.086-7.077-4.086-7.077 4.086 7.077 4.086-7.077 4.086 35.359 20.4 7.077-4.086 7.052 4.086 7.077-4.086-7.077-4.061 7.077-4.086 7.077 4.086 7.077-4.086-7.733-4.475a5.545 5.545 0 00-.583-8.122 18.459 18.459 0 00-12.16-4.183c-.219-2.894-2.918-5.52-7.3-7a24.635 24.635 0 00-14.004-.342zM72.129 70.549l17.68-10.214a7.83 7.83 0 017.052 0c1.97 1.143 1.97 2.967 0 4.086l-17.68 10.214zm38.91 2.043l-17.68 10.214-7.077-4.086 17.68-10.214a7.879 7.879 0 017.077 0 2.164 2.164 0 01-.024 4.086z" fill="#fff"/></g><g data-name="Group 902"><g data-name="Group 901" transform="translate(32.222 20.039)"><path data-name="Path 898" d="M533.22 311.16l122.225 1.021V329.2c0 9.047-5.958 18.069-17.9 24.951-23.857 13.789-62.572 13.789-86.428 0-11.94-6.882-17.9-15.9-17.9-24.951z" transform="translate(-533.22 -277.527)" fill="url(#ad)"/><g data-name="Group 900" transform="translate(0 28.161)" clip-path="url(#ae)"><g data-name="Group 899"><path data-name="Rectangle 686" fill="url(#u)" d="M0 0h2.043v57.416H0z" transform="translate(3.891 3.332)"/><path data-name="Rectangle 687" transform="translate(10.919 3.332)" fill="url(#u)" d="M0 0h2.043v57.416H0z"/><path data-name="Rectangle 688" transform="translate(17.947 3.332)" fill="url(#u)" d="M0 0h2.043v57.416H0z"/><path data-name="Rectangle 689" transform="translate(24.975 3.332)" fill="url(#u)" d="M0 0h2.043v57.416H0z"/><path data-name="Rectangle 690" transform="translate(31.979 3.332)" fill="url(#u)" d="M0 0h2.043v57.416H0z"/><path data-name="Rectangle 691" transform="translate(39.007 3.332)" fill="url(#u)" d="M0 0h2.043v57.416H0z"/><path data-name="Rectangle 692" transform="translate(46.035 3.332)" fill="url(#u)" d="M0 0h2.043v57.416H0z"/><path data-name="Rectangle 693" transform="translate(53.063 3.332)" fill="url(#u)" d="M0 0h2.043v57.416H0z"/><path data-name="Rectangle 694" transform="translate(60.091 3.332)" fill="url(#u)" d="M0 0h2.043v57.416H0z"/><path data-name="Rectangle 695" transform="translate(67.119 3.332)" fill="url(#u)" d="M0 0h2.043v57.416H0z"/><path data-name="Rectangle 696" transform="translate(74.148 3.332)" fill="url(#u)" d="M0 0h2.043v57.416H0z"/><path data-name="Rectangle 697" transform="translate(81.176 3.332)" fill="url(#u)" d="M0 0h2.043v57.416H0z"/><path data-name="Rectangle 698" transform="translate(88.204 3.332)" fill="url(#u)" d="M0 0h2.043v57.416H0z"/><path data-name="Rectangle 699" transform="translate(95.232 3.332)" fill="url(#A)" d="M0 0h2.043v57.416H0z"/><path data-name="Rectangle 700" transform="translate(102.26 3.332)" fill="url(#T)" d="M0 0h2.043v57.416H0z"/><path data-name="Rectangle 701" transform="translate(109.264 3.332)" fill="url(#u)" d="M0 0h2.043v57.416H0z"/><path data-name="Rectangle 702" transform="translate(116.292 3.332)" fill="url(#u)" d="M0 0h2.043v57.416H0z"/></g></g><ellipse data-name="Ellipse 44" cx="61.113" cy="35.286" rx="61.113" ry="35.286" fill="url(#U)"/><path data-name="Path 900" d="M98.856 55.446c-20.841 12.013-54.644 12.013-75.388 0s-20.841-31.614 0-43.6 54.644-12.038 75.388 0 20.841 31.563 0 43.6z" fill="none" stroke="#84e4a4" stroke-miterlimit="10" stroke-width=".84"/></g><path data-name="Path 901" d="M86.915 34.533l-7.733-4.45-7.052 4.086 7.052 4.086-7.052 4.086-7.077-4.086-7.077 4.086 7.077 4.086-7.077 4.086 35.359 20.4 7.077-4.086 7.052 4.086 7.077-4.086-7.075-4.084 7.077-4.086 7.077 4.086 7.077-4.086-7.733-4.45a5.569 5.569 0 00-.583-8.147 18.6 18.6 0 00-12.159-4.183c-.219-2.87-2.918-5.52-7.3-6.979a24.634 24.634 0 00-14.007-.365zM72.129 50.51l17.68-10.214a7.685 7.685 0 017.052 0c1.97 1.119 1.97 2.943 0 4.086l-17.68 10.19zm38.91 2.018l-17.68 10.214-7.077-4.086 17.68-10.189a7.733 7.733 0 017.077 0 2.14 2.14 0 01-.024 4.061z" fill="#fff"/></g><g data-name="Group 906"><g data-name="Group 905" transform="translate(32.222)"><path data-name="Path 902" d="M533.22 302.92l122.225 1.021v17.023c0 9.022-5.958 18.069-17.9 24.951-23.857 13.789-62.572 13.789-86.428 0-11.94-6.882-17.9-15.929-17.9-24.951z" transform="translate(-533.22 -269.287)" fill="url(#V)"/><g data-name="Group 904" transform="translate(0 28.137)" clip-path="url(#af)"><g data-name="Group 903"><path data-name="Rectangle 703" fill="url(#u)" d="M0 0h2.043v57.416H0z" transform="translate(3.891 3.356)"/><path data-name="Rectangle 704" transform="translate(10.919 3.356)" fill="url(#u)" d="M0 0h2.043v57.416H0z"/><path data-name="Rectangle 705" transform="translate(17.947 3.356)" fill="url(#u)" d="M0 0h2.043v57.416H0z"/><path data-name="Rectangle 706" transform="translate(24.975 3.356)" fill="url(#u)" d="M0 0h2.043v57.416H0z"/><path data-name="Rectangle 707" transform="translate(31.979 3.356)" fill="url(#u)" d="M0 0h2.043v57.416H0z"/><path data-name="Rectangle 708" transform="translate(39.007 3.356)" fill="url(#u)" d="M0 0h2.043v57.416H0z"/><path data-name="Rectangle 709" transform="translate(46.035 3.356)" fill="url(#u)" d="M0 0h2.043v57.416H0z"/><path data-name="Rectangle 710" transform="translate(53.063 3.356)" fill="url(#u)" d="M0 0h2.043v57.416H0z"/><path data-name="Rectangle 711" transform="translate(60.091 3.356)" fill="url(#u)" d="M0 0h2.043v57.416H0z"/><path data-name="Rectangle 712" transform="translate(67.119 3.356)" fill="url(#u)" d="M0 0h2.043v57.416H0z"/><path data-name="Rectangle 713" transform="translate(74.148 3.356)" fill="url(#u)" d="M0 0h2.043v57.416H0z"/><path data-name="Rectangle 714" transform="translate(81.176 3.356)" fill="url(#u)" d="M0 0h2.043v57.416H0z"/><path data-name="Rectangle 715" transform="translate(88.204 3.356)" fill="url(#u)" d="M0 0h2.043v57.416H0z"/><path data-name="Rectangle 716" transform="translate(95.232 3.356)" fill="url(#A)" d="M0 0h2.043v57.416H0z"/><path data-name="Rectangle 717" transform="translate(102.26 3.356)" fill="url(#T)" d="M0 0h2.043v57.416H0z"/><path data-name="Rectangle 718" transform="translate(109.264 3.356)" fill="url(#u)" d="M0 0h2.043v57.416H0z"/><path data-name="Rectangle 719" transform="translate(116.292 3.356)" fill="url(#u)" d="M0 0h2.043v57.416H0z"/></g></g><ellipse data-name="Ellipse 45" cx="61.113" cy="35.286" rx="61.113" ry="35.286" fill="url(#X)"/><path data-name="Path 904" d="M98.856 55.422c-20.841 12.038-54.644 12.038-75.388 0s-20.841-31.614 0-43.579 54.644-12.038 75.388 0 20.841 31.54 0 43.579z" fill="none" stroke="#84e4a4" stroke-miterlimit="10" stroke-width=".83"/></g><path data-name="Path 905" d="M86.915 14.494l-7.733-4.45-7.052 4.086 7.052 4.061-7.052 4.086-7.077-4.086-7.077 4.086 7.077 4.086-7.077 4.086 35.359 20.428 7.077-4.086 7.052 4.086 7.077-4.086-7.075-4.087 7.077-4.086 7.077 4.086 7.077-4.086-7.733-4.45a5.569 5.569 0 00-.583-8.147 18.6 18.6 0 00-12.159-4.183c-.219-2.894-2.918-5.52-7.3-7a24.634 24.634 0 00-14.007-.344zM72.129 30.447l17.68-10.214a7.83 7.83 0 017.052 0c1.97 1.143 1.97 2.967 0 4.085l-17.68 10.214zm38.91 2.043l-17.68 10.214-7.1-4.013 17.68-10.214a7.879 7.879 0 017.077 0 2.164 2.164 0 010 4.013z" fill="#84e4a4"/></g></g></g><g data-name="Group 812" transform="translate(540.132 168.121)"><ellipse data-name="Ellipse 20" cx="58.389" cy="29.036" rx="58.389" ry="29.036" transform="translate(0 8.639)" opacity=".1" fill="url(#ag)" style="mix-blend-mode:multiply;isolation:isolate"/><g data-name="Group 811"><g data-name="Group 810" transform="translate(18.701)"><path data-name="Path 751" d="M75.655 21.479v10.506h0c0 5.593-3.7 11.187-11.089 15.442-14.786 8.536-38.764 8.536-53.5 0C3.766 43.171.001 37.578.001 31.985h0V20.847" fill="none" stroke="#84e4a4" stroke-miterlimit="10"/><path data-name="Path 752" d="M2.359 30.331v9.267a13.577 13.577 0 001.264 1.727V30.258z" fill="#84e4a4"/><path data-name="Path 753" d="M6.712 34.831v9.582c.389.34.8.681 1.24 1V34.782z" fill="#84e4a4"/><path data-name="Path 754" d="M11.065 37.7v9.727l1.24.657V37.627z" fill="#84e4a4"/><path data-name="Path 755" d="M15.394 39.962v9.727l1.265.535V40.035z" fill="#84e4a4"/><path data-name="Path 756" d="M19.747 41.299v9.727l1.265.389V41.299z" fill="#84e4a4"/><path data-name="Path 757" d="M24.1 42.466v9.877l1.265.268V42.393z" fill="#84e4a4"/><path data-name="Path 758" d="M29.593 43.463h-1.14v9.727l1.265.17v-9.849z" fill="#84e4a4"/><path data-name="Path 759" d="M32.806 43.463v10.165h1.265V43.366z" fill="#84e4a4"/><path data-name="Path 760" d="M37.159 43.463v10.36h1.26v-10.36z" fill="#84e4a4"/><path data-name="Path 761" d="M41.512 43.463v10.262h1.265V43.56z" fill="#84e4a4"/><path data-name="Path 762" d="M45.865 43.464v9.849l1.265-.17v-9.728z" fill="#84e4a4"/><path data-name="Path 763" d="M50.194 42.418v10.19l1.265-.268v-9.922z" fill="#84e4a4"/><path data-name="Path 764" d="M54.571 41.299v10.238l1.265-.389v-9.849z" fill="#84e4a4"/><path data-name="Path 765" d="M58.924 39.451v10.652l1.265-.535V39.451z" fill="#84e4a4"/><path data-name="Path 766" d="M63.277 37.773v10.335l1.265-.657v-9.727z" fill="#84e4a4"/><path data-name="Path 767" d="M67.63 34.806v10.6a24.04 24.04 0 001.265-1v-9.6z" fill="#84e4a4"/><path data-name="Path 768" d="M72.08 30.282v11.016a16.505 16.505 0 001.264-1.727v-9.313z" fill="#84e4a4"/><path data-name="Path 769" d="M64.566 37.31c-14.786 8.536-38.764 8.536-53.5 0s-14.761-22.373 0-30.909 38.764-8.536 53.5 0 14.81 22.374 0 30.909z" fill="none" stroke="#84e4a4" stroke-miterlimit="10"/><ellipse data-name="Ellipse 21" cx="33.073" cy="19.09" rx="33.073" ry="19.09" transform="translate(4.718 1.757)" fill="none" stroke="#84e4a4" stroke-miterlimit="10"/></g><path data-name="Path 770" d="M52.528 8.98l-4.866-2.748-4.377 2.432 4.377 2.432-4.377 2.432-4.377-2.432-4.377 2.432 4.377 2.432-4.377 2.432 21.887 12.646 4.377-2.432 4.4 2.432 4.377-2.432-4.377-2.432 4.377-2.432 4.377 2.432 4.377-2.432-4.864-2.772a3.429 3.429 0 00-.365-5.034 11.6 11.6 0 00-7.514-2.6c-.122-1.775-1.824-3.4-4.475-4.329a15.248 15.248 0 00-8.584-.024zm-9.168 9.9l10.943-6.323a4.864 4.864 0 014.377 0 1.338 1.338 0 010 2.432l-10.943 6.323zm24.1 1.265l-10.968 6.323-4.377-2.432 10.943-6.323a4.863 4.863 0 014.4 0 1.337 1.337 0 010 2.432z" fill="none" stroke="#84e4a4" stroke-miterlimit="10"/></g></g><g data-name="Group 815"><path data-name="Path 771" d="M438.153 206.964c-22.811 11.332-59.775 11.332-82.683 0s-22.787-29.717 0-41.05 59.775-11.332 82.683 0 22.786 29.718 0 41.05z" transform="translate(-244.05 -.487)" opacity=".1" fill="url(#ah)" style="mix-blend-mode:multiply;isolation:isolate"/><g data-name="Group 814"><g data-name="Group 813"><path data-name="Path 772" d="M191.307 170.094V180.6h0c0 5.593-3.7 11.187-11.089 15.442-14.786 8.536-38.764 8.536-53.5 0-7.3-4.256-11.089-9.849-11.089-15.442h0v-11.136" fill="none" stroke="#84e4a4" stroke-miterlimit="10"/><path data-name="Path 773" d="M118.01 178.948v9.265a16.16 16.16 0 001.24 1.727v-11.065z" fill="#84e4a4"/><path data-name="Path 774" d="M122.339 183.448v9.582l1.265 1v-10.631z" fill="#84e4a4"/><path data-name="Path 775" d="M126.692 186.317v9.727l1.265.657v-10.457z" fill="#84e4a4"/><path data-name="Path 776" d="M131.045 188.579v9.606l1.265.535v-10.19z" fill="#84e4a4"/><path data-name="Path 777" d="M135.398 189.965v9.727l1.265.389v-10.116z" fill="#84e4a4"/><path data-name="Path 778" d="M139.678 191.08v9.873l1.265.268V191.01z" fill="#84e4a4"/><path data-name="Path 779" d="M145.247 192.08h-1.143v9.73l1.265.17v-9.73z" fill="#84e4a4"/><path data-name="Path 780" d="M148.457 192.08v10.165h1.265v-10.262z" fill="#84e4a4"/><path data-name="Path 781" d="M152.81 192.08v10.36h1.265v-10.36z" fill="#84e4a4"/><path data-name="Path 782" d="M157.163 192.08v10.262h1.265v-10.165z" fill="#84e4a4"/><path data-name="Path 783" d="M161.565 192.08v9.73l1.265-.17v-9.73z" fill="#84e4a4"/><path data-name="Path 784" d="M165.869 191.035v10.19l1.265-.268v-9.922z" fill="#84e4a4"/><path data-name="Path 785" d="M170.222 189.965v10.238l1.265-.389v-9.727z" fill="#84e4a4"/><path data-name="Path 786" d="M174.575 188.068v10.652l1.265-.535v-10.117z" fill="#84e4a4"/><path data-name="Path 787" d="M178.928 186.39v10.335l1.265-.657v-9.727z" fill="#84e4a4"/><path data-name="Path 788" d="M183.281 183.423v10.6l1.265-1v-9.6z" fill="#84e4a4"/><path data-name="Path 789" d="M187.634 178.9v11.065a20.835 20.835 0 001.265-1.727v-9.314z" fill="#84e4a4"/><path data-name="Path 790" d="M180.218 185.928c-14.786 8.536-38.764 8.536-53.5 0s-14.786-22.373 0-30.909 38.764-8.536 53.5 0 14.785 22.374 0 30.909z" fill="none" stroke="#84e4a4" stroke-miterlimit="10"/><path data-name="Path 791" d="M176.837 182.958c-12.913 7.441-33.852 7.441-46.765 0s-12.913-19.455 0-26.994 33.925-7.344 46.765-.049 12.913 19.581 0 27.043z" fill="none" stroke="#84e4a4" stroke-miterlimit="10"/></g><path data-name="Path 792" d="M149.41 157.597l-4.864-2.748-4.377 2.432 4.377 2.432-4.377 2.432-4.377-2.432-4.377 2.432 4.377 2.432-4.377 2.432 21.887 12.646 4.377-2.432 4.377 2.432 4.4-2.432-4.4-2.432 4.4-2.432 4.377 2.432 4.377-2.432-4.864-2.772a3.429 3.429 0 00-.365-5.034 11.6 11.6 0 00-7.514-2.6c0-1.775-1.824-3.4-4.475-4.329a15.247 15.247 0 00-8.584-.024zm-9.168 9.9l10.943-6.323a4.864 4.864 0 014.377 0c1.216.681 1.216 1.824 0 2.432l-10.952 6.321zm24.068 1.262l-10.943 6.323-4.377-2.432 10.943-6.323a4.864 4.864 0 014.377 0c1.289.584 1.289 1.751.073 2.432z" fill="none" stroke="#84e4a4" stroke-miterlimit="10"/></g></g><path data-name="Rectangle 721" fill="none" opacity=".937" d="M0 0h845v678H0z"/></g></svg>