<svg height="1080" width="1920" xmlns="http://www.w3.org/2000/svg"><clipPath id="a"><path d="M0 0h1920v1080H0z"/></clipPath><g clip-path="url(#a)"><g opacity=".07"><path d="M870 56h80v80h-80z" fill="none"/><g fill="#0d6efd"><path d="M910.456 131.833a3 3 0 01-3-3 13.129 13.129 0 0113.114-13.114h20.228l-.472-39.984-19.756.471a7.122 7.122 0 00-7.114 7.114 3 3 0 01-6 0 13.129 13.129 0 0113.114-13.114h20.228a5.535 5.535 0 015.528 5.528v40.456a5.535 5.535 0 01-5.528 5.528H920.57a7.122 7.122 0 00-7.114 7.115 3 3 0 01-3 3z"/><path d="M910.455 131.833a3 3 0 01-3-3 7.122 7.122 0 00-7.114-7.114h-20.228a5.535 5.535 0 01-5.528-5.529V75.734a5.535 5.535 0 015.528-5.528h20.228a13.129 13.129 0 0113.114 13.114v45.513a3 3 0 01-3 3zm-10.114-16.114a13.037 13.037 0 017.114 2.1v-34.5a7.122 7.122 0 00-7.114-7.113h-20.228l.472 39.984z"/></g></g><g opacity=".07"><path d="M1779 919h92v92h-92z" fill="none"/><g fill="#0dcaf0"><path d="M1791 974a3 3 0 01-3-3v-29a3 3 0 013-3 3 3 0 013 3v29a3 3 0 01-3 3zm7.717 25.569a3 3 0 01-2.511-4.637 34.757 34.757 0 0158.257 0 3 3 0 01-5.028 3.273 28.757 28.757 0 00-48.2 0 3 3 0 01-2.518 1.364z"/><path d="M1825.334 927.185a3 3 0 01.949.154l34.635 11.546a3 3 0 010 5.692l-34.635 11.544a3 3 0 01-1.9 0l-34.633-11.545a3 3 0 010-5.692l34.635-11.545a3 3 0 01.949-.154zm25.148 14.545l-25.148-8.383-25.148 8.383 25.148 8.383z"/><path d="M1825.33 985.184a23.249 23.249 0 01-17.124-38.9 3 3 0 014.424 4.044 17.2 17.2 0 1025.4 0 3 3 0 114.429-4.048 23.249 23.249 0 01-17.129 38.904z"/></g></g><g opacity=".07"><path d="M265 777h88v88h-88z" fill="none"/><g fill="#d63384"><path d="M325 819h-21a3 3 0 01-3-3 3 3 0 013-3h21a3 3 0 013 3 3 3 0 01-3 3zm0 10h-21a3 3 0 01-3-3 3 3 0 013-3h21a3 3 0 013 3 3 3 0 01-3 3z"/><path d="M287 788h44a11.012 11.012 0 0111 11v44a11.012 11.012 0 01-11 11h-44a11.012 11.012 0 01-11-11v-44a11.012 11.012 0 0111-11zm44 60a5.006 5.006 0 005-5v-44a5.006 5.006 0 00-5-5h-44a5.006 5.006 0 00-5 5v44a5.006 5.006 0 005 5z"/><path d="M293 854a3 3 0 01-3-3v-60a3 3 0 013-3 3 3 0 013 3v60a3 3 0 01-3 3z"/></g></g><g opacity=".07"><path d="M431 294h80v80h-80z" fill="none"/><g fill="#198754"><path d="M470.723 347.002a3 3 0 01-1.412-.353l-37.5-20a3 3 0 010-5.294l37.5-20a3 3 0 012.824 0l37.5 20a3 3 0 010 5.294l-37.5 20a3 3 0 01-1.412.353zm-31.125-23l31.125 16.6 31.123-16.6-31.123-16.6z"/><path d="M489.472 372.001a3 3 0 01-3-3v-33.2l-17.161-9.153a3 3 0 012.824-5.294l18.75 10a3 3 0 011.587 2.647v35a3 3 0 01-3 3z"/><path d="M470.722 363.25c-18.506 0-28.139-10.9-30.651-14.247a5.523 5.523 0 01-1.1-3.3v-17.036a3 3 0 116 0v17.037c1.984 2.474 10.024 11.545 25.749 11.545s23.765-9.071 25.854-11.852l-.101-16.73a3 3 0 116 0v17.037a5.516 5.516 0 01-1.1 3.295c-2.512 3.346-12.145 14.251-30.651 14.251z"/></g></g><g opacity=".07"><path d="M1641 277h87v87h-87z" fill="none"/><g fill="#ffc107"><path d="M1714.102 339.594a3 3 0 01-3-3v-35.123a2.406 2.406 0 00-2.4-2.4h-48.634a2.406 2.406 0 00-2.4 2.4v35.12a3 3 0 01-6 0v-35.12a8.413 8.413 0 018.4-8.4h48.631a8.413 8.413 0 018.4 8.4v35.12a3 3 0 01-2.997 3.003z"/><path d="M1649.265 333.594h70.24a3 3 0 013 3v5.4a8.413 8.413 0 01-8.4 8.4h-59.44a8.413 8.413 0 01-8.4-8.4v-5.4a3 3 0 013-3zm67.24 6h-64.24v2.4a2.406 2.406 0 002.4 2.4h59.437a2.406 2.406 0 002.4-2.4zM1689 310h-10a3 3 0 01-3-3 3 3 0 013-3h10a3 3 0 013 3 3 3 0 01-3 3z"/></g></g></g></svg>