<svg height="1012" width="1176.252" xmlns="http://www.w3.org/2000/svg"><g fill="#fff"><path d="M899.241 241.683c106.955 79.991 253.456 103.36 274.127 168.97 21.571 64.712-83.586 169.869-124.93 295.7-41.344 124.93-18.874 271.431-73.7 284.014-55.723 11.683-186.945-108.753-298.394-137.514-110.55-27.862-201.327 35.052-311.876 40.445-110.55 6.291-241.771-46.736-310.079-145.6-67.408-98.866-72.8-244.468-12.583-349.625 59.32-106.058 185.146-171.669 298.395-249.863C452.552 70.915 554.11-18.963 639.494 3.507 723.98 26.875 792.287 161.69 899.241 241.683z"/><path d="M487.99 887.29s112.439-25.839 157.012-20.4 165.04 77.854 189.351 86.493 122.82 61.12 37.593 58.524-373.826-73.316-395.251-89.515 11.295-35.102 11.295-35.102z"/></g></svg>