<svg viewBox="0 0 424.24 600" xmlns="http://www.w3.org/2000/svg"><path d="m0 0h424.24v600h-424.24z" fill="#fff"/><circle cx="378.03" cy="493.56" fill="none" r="24.69" stroke="#ffc107" stroke-linecap="round" stroke-linejoin="round" stroke-width="2.5"/><path d="m288.54 43.49a10.15 10.15 0 0 1 2.86-.15 9.63 9.63 0 0 1 7.74 6 11.79 11.79 0 0 1 -.83 10c-1.31 2.28-3.31 4.18-4.31 6.66-1.36 3.31-1.06 7.7-.46 11.18.79 4.58 7.31 13 1.59 16.57-7.94 4.94-12.67-9.31-17.91-12.27-3.35-1.9-7.48-1.41-11.33-1.46-4.13-.06-9.91-1.39-10-6.39-.22-9.1 15.42-14.4 20.57-20.28 3.39-3.88 5.29-7.8 10.6-9.45.48-.18.94-.31 1.48-.41z" fill="none" stroke="#ffc107" stroke-linecap="round" stroke-linejoin="round" stroke-width="2.5"/><path d="m126.17 545a10.2 10.2 0 0 1 2.86-.16c6.94.68 9.95 8.4 7.06 14.31-3.59 7.35-16 5.48-17.71-2.52a9.71 9.71 0 0 1 6.31-11.26 12.81 12.81 0 0 1 1.48-.37z" fill="none" stroke="#ffc107" stroke-linecap="round" stroke-linejoin="round" stroke-width="2.5"/><path d="m341.35 23.9v14.01" fill="none" stroke="#ffc107" stroke-linecap="round" stroke-linejoin="round" stroke-width="2.5"/><path d="m348.35 30.9h-14.01" fill="none" stroke="#ffc107" stroke-linecap="round" stroke-linejoin="round" stroke-width="2.5"/><path d="m86.83 256.25 11.56 20.02 11.56-20.02 11.56 20.02 11.56-20.02" fill="none" stroke="#ffc107" stroke-linecap="round" stroke-linejoin="round" stroke-width="2.5"/><path d="m35.53 33.15a7.73 7.73 0 0 1 15.45 0" fill="none" stroke="#ffc107" stroke-linecap="round" stroke-linejoin="round" stroke-width="2.5"/><path d="m66.44 33.15a7.73 7.73 0 1 1 -15.46 0" fill="none" stroke="#ffc107" stroke-linecap="round" stroke-linejoin="round" stroke-width="2.5"/><path d="m66.44 33.15a7.73 7.73 0 0 1 15.45 0" fill="none" stroke="#ffc107" stroke-linecap="round" stroke-linejoin="round" stroke-width="2.5"/><path d="m97.35 33.15a7.73 7.73 0 1 1 -15.46 0" fill="none" stroke="#ffc107" stroke-linecap="round" stroke-linejoin="round" stroke-width="2.5"/><path d="m97.35 33.15a7.73 7.73 0 0 1 15.45 0" fill="none" stroke="#ffc107" stroke-linecap="round" stroke-linejoin="round" stroke-width="2.5"/><path d="m258.87 575.78a11.1 11.1 0 0 1 -11.08-11.09v-25.51a2.05 2.05 0 0 0 -.61-1.45 2 2 0 0 0 -1.45-.6 2.05 2.05 0 0 0 -2 2v25.51a11.09 11.09 0 1 1 -22.17 0v-25.46a2.06 2.06 0 0 0 -4.11-.09v25.6a11.09 11.09 0 1 1 -22.17 0v-25.51a2.06 2.06 0 0 0 -2.06-2 2.15 2.15 0 0 1 0-4.3 6.37 6.37 0 0 1 6.36 6.18v25.68a6.79 6.79 0 0 0 13.57 0v-25.41c0-.05 0-.1 0-.15a6.36 6.36 0 0 1 12.72 0v25.51a6.79 6.79 0 0 0 13.57 0v-25.51a6.36 6.36 0 0 1 12.71 0v25.51a6.79 6.79 0 0 0 13.57 0 2.15 2.15 0 1 1 4.3 0 11.11 11.11 0 0 1 -11.15 11.09z" fill="none" stroke="#ffc107" stroke-linecap="round" stroke-linejoin="round" stroke-width="2.5"/><path d="m376.66 564.08v16.71" fill="none" stroke="#ffc107" stroke-linecap="round" stroke-linejoin="round" stroke-width="2.5"/><path d="m385.01 572.44h-16.7" fill="none" stroke="#ffc107" stroke-linecap="round" stroke-linejoin="round" stroke-width="2.5"/><path d="m261.33 495.12 33.3-29.08 2.55 33.28z" fill="none" stroke="#ffc107" stroke-linecap="round" stroke-linejoin="round" stroke-width="2.5"/><path d="m294.63 466.04 26.72 54.45-24.17-21.17z" fill="none" stroke="#ffc107" stroke-linecap="round" stroke-linejoin="round" stroke-width="2.5"/><path d="m261.33 495.12 60.02 25.37-24.17-21.17z" fill="none" stroke="#ffc107" stroke-linecap="round" stroke-linejoin="round" stroke-width="2.5"/><path d="m396.22 292.11a2.86 2.86 0 1 1 2.86 2.86 2.87 2.87 0 0 1 -2.86-2.86z" fill="none" stroke="#ffc107" stroke-linecap="round" stroke-linejoin="round" stroke-width="2.5"/><path d="m396.22 301.14a2.86 2.86 0 1 1 2.86 2.87 2.86 2.86 0 0 1 -2.86-2.87z" fill="none" stroke="#ffc107" stroke-linecap="round" stroke-linejoin="round" stroke-width="2.5"/><path d="m394.61 281.54a4.47 4.47 0 1 1 4.47 4.47 4.47 4.47 0 0 1 -4.47-4.47z" fill="none" stroke="#ffc107" stroke-linecap="round" stroke-linejoin="round" stroke-width="2.5"/><circle cx="291.34" cy="406.8" fill="none" r="13.47" stroke="#ffc107" stroke-linecap="round" stroke-linejoin="round" stroke-width="2.5"/><path d="m65.31 475.59 12.85-22.25 20.12-2.78z" fill="none" stroke="#ffc107" stroke-linecap="round" stroke-linejoin="round" stroke-width="2.5"/><path d="m78.16 453.34 24.92 24.91-4.8-27.69z" fill="none" stroke="#ffc107" stroke-linecap="round" stroke-linejoin="round" stroke-width="2.5"/><path d="m65.31 475.59 37.77 2.66-4.8-27.69z" fill="none" stroke="#ffc107" stroke-linecap="round" stroke-linejoin="round" stroke-width="2.5"/><path d="m50.23 356.89 9.89-9.89v-6.72l-15.74 15.74 15.74-15.74v-6.72l-20.52 20.52 20.52-20.52v-6.72l-24.55 24.55 24.55-24.55v-3.36h-3.36l-24.55 24.55 24.55-24.55h-6.72l-20.52 20.52 20.52-20.52h-6.72l-15.74 15.74 15.74-15.74h-6.72l-9.89 9.89 9.89-9.89h-19.78v43.3h43.3v-19.78z" fill="none" stroke="#ffc107" stroke-linecap="round" stroke-linejoin="round" stroke-width="2.5"/><path d="m392.74 65.94h2.11v2.11h-2.11z" transform="matrix(0 1 -1 0 460.8 -326.8)"/><path d="m392.74 70.17h2.11v2.11h-2.11z" transform="matrix(0 1 -1 0 465.02 -322.58)"/><path d="m392.74 74.39h2.11v2.11h-2.11z" transform="matrix(0 1 -1 0 469.25 -318.35)"/><path d="m392.74 78.62h2.11v2.11h-2.11z" transform="matrix(0 1 -1 0 473.47 -314.13)"/><path d="m392.74 82.84h2.11v2.11h-2.11z" transform="matrix(0 1 -1 0 477.7 -309.9)"/><g fill="none" stroke="#ffc107" stroke-linecap="round" stroke-linejoin="round" stroke-width="2.5"><path d="m340.93 308.52a3.24 3.24 0 0 1 -3.25-3.25 5.79 5.79 0 0 0 -11.58 0 3.25 3.25 0 0 1 -6.5 0 12.29 12.29 0 0 1 24.58 0 3.25 3.25 0 0 1 -3.25 3.25z"/><path d="m366.88 400 17.34 5.98v-34.89z"/><path d="m397.22 401.24-13-30.15v34.89z"/><path d="m236.75 213.82-12.52-3.72 12.16-24.98z"/><path d="m236.39 185.12 8.2 24.98-7.84 3.72z"/><circle cx="187.73" cy="111.11" r="3.25"/><path d="m200 102.07a3.25 3.25 0 1 1 -3.25-3.25 3.24 3.24 0 0 1 3.25 3.25z"/><path d="m196.77 105.32a5.8 5.8 0 0 0 -5.79 5.79 3.25 3.25 0 0 1 -6.5 0 12.3 12.3 0 0 1 12.29-12.29 3.25 3.25 0 1 1 0 6.5z"/><path d="m343.64 150.1-19.48 10.99-19.48-10.99 19.48-10.99z"/><path d="m324.19 183.47-19.48-11-.03-22.37 19.48 10.99z"/><path d="m324.19 183.47 19.42-11 .03-22.37-19.48 10.99z"/><path d="m78.46 150.72 10.99 19.48-10.99 19.49-11-19.49z"/><path d="m143.81 170.17-11 19.48-54.35.04 10.99-19.49z"/><path d="m143.81 170.17-11-19.42-54.35-.03 10.99 19.48z"/><ellipse cx="241.76" cy="307.48" rx="8.07" ry="3.41"/><path d="m249.83 307.48-8.07-24-8.07 24c0-1.89 3.62-3.41 8.07-3.41s8.07 1.52 8.07 3.41z"/><path d="m188.23 446.53a23.15 23.15 0 0 0 .66 2.64 26 26 0 0 0 5.91 10.25c.41.44.85.84 1.29 1.25l17.14-18.67z"/><path d="m196.09 466.29 17.14-18.63v-5.62l-17.14 18.63z"/><path d="m196.09 466.29c-.44-.41-.88-.81-1.29-1.25a26 26 0 0 1 -5.91-10.25 23.15 23.15 0 0 1 -.66-2.64s-.65-3.74 0-5.62a23.15 23.15 0 0 0 .66 2.64 26 26 0 0 0 5.91 10.25c.41.44.85.84 1.29 1.25z"/><path d="m403.25 206a23.52 23.52 0 0 1 -23.52-23.52"/><path d="m403.25 206.02 9.89-9.89v-6.72l-15.74 15.74 15.74-15.74v-6.72l-20.52 20.52 20.52-20.52v-6.72l-24.55 24.55 24.55-24.55v-3.36h-3.36l-24.55 24.55 24.55-24.55h-6.72l-20.52 20.52 20.52-20.52h-6.72l-15.74 15.74 15.74-15.74h-6.72l-9.89 9.89 9.89-9.89h-19.78v43.3h43.3v-19.78z"/><path d="m18.56 88.16h43.3v43.3h-43.3z"/><path d="m31.94 122.06 20.51-20.51a14.48 14.48 0 0 0 -3.3-3.42l-20.63 20.63a14.67 14.67 0 0 0 3.42 3.3z"/><path d="m36.62 124.1 17.87-17.87a14.55 14.55 0 0 0 -2-4.68l-20.55 20.51a14.55 14.55 0 0 0 4.68 2.04z"/><path d="m40.21 124.59a15 15 0 0 0 2.94-.3l11.54-11.54a15 15 0 0 0 .29-2.94 14.58 14.58 0 0 0 -.49-3.58l-17.87 17.87a14.6 14.6 0 0 0 3.59.49z"/><path d="m54.69 112.75-11.54 11.54a14.8 14.8 0 0 0 11.54-11.54z"/><path d="m26.21 114.35a14.86 14.86 0 0 0 2.31 4.41l20.63-20.63a14.52 14.52 0 0 0 -4.41-2.31z"/><path d="m25.59 108.26 13.06-13.07a14.69 14.69 0 0 0 -13.06 13.07z"/><path d="m40.21 95c-.54 0-1 .1-1.56.15l-13.06 13.11a13.12 13.12 0 0 0 -.16 1.55 14.86 14.86 0 0 0 .78 4.54l18.53-18.53a14.5 14.5 0 0 0 -4.53-.82z"/><path d="m179.18 23.19-18.8 18.81"/><path d="m163.5 45.01 18.69-18.7"/><path d="m182.19 26.31-18.69 18.7"/><path d="m167.76 46.87 16.29-16.29"/><path d="m184.05 30.58-16.29 16.29"/><path d="m173.71 47.04 10.52-10.51"/><path d="m184.23 36.53-10.52 10.51"/><path d="m175.16 21.09-16.88 16.89"/><path d="m160.38 42 18.8-18.81"/><path d="m157.71 32.43 11.9-11.91"/><path d="m158.28 37.98 16.88-16.89"/><path d="m169.61 20.52-11.9 11.91"/><path d="m149.07 362.92v18.26"/><path d="m158.2 372.05h-18.26"/><path d="m128.12 350.49h43.13v43.13"/></g><path d="m54.21 540.72a3.2 3.2 0 1 1 -3.2 3.2 3.2 3.2 0 0 1 3.2-3.2z"/><path d="m38.92 541a3.31 3.31 0 1 1 -3.31 3.31 3.31 3.31 0 0 1 3.31-3.31z"/><path d="m22.55 540.86a3.31 3.31 0 1 1 -3.31 3.31 3.31 3.31 0 0 1 3.31-3.31z"/></svg>