<svg height="512" width="512" xmlns="http://www.w3.org/2000/svg"><path d="M330.819 504.5H181.185a9.483 9.483 0 01-9.483-9.483V472.46h168.6v22.557a9.483 9.483 0 01-9.483 9.483z" fill="#8dcafc"/><path d="M340.302 472.46v22.56c0 5.23-4.25 9.48-9.48 9.48h-30.04c5.24 0 9.49-4.25 9.49-9.48v-22.56z" fill="#64b9fc"/><path d="M344.725 475.805h-177.45a9.482 9.482 0 01-9.421-8.404l-32.269-281.655h260.832l-32.269 281.655a9.485 9.485 0 01-9.423 8.404z" fill="#d9ecfd"/><path d="M125.584 185.746l3.538 30.882h199.494c9.558 0 16.984 8.325 15.896 17.821L317.822 467.4c-.54 4.79-4.6 8.4-9.42 8.4h36.32c4.82 0 8.88-3.61 9.42-8.4l32.27-281.65z" fill="#b5dbfd"/><path d="M131.929 241.124l25.924 226.277a9.484 9.484 0 009.421 8.404h177.451a9.482 9.482 0 009.421-8.404l25.924-226.277z" fill="#fddd45"/><path d="M343.748 241.124L317.822 467.4c-.54 4.79-4.6 8.4-9.42 8.4h36.32c4.82 0 8.88-3.61 9.42-8.4l25.926-226.276z" fill="#f8c52d"/><path d="M271.762 12.5v157.67h-31.53V12.5a5 5 0 015-5h21.53a5 5 0 015 5z" fill="#fc5a95"/><path d="M256.002 43.91c-5.31 0-10.57.3-15.77.89v18.11c5.19-.67 10.46-1 15.77-1s10.57.33 15.76 1V44.8c-5.2-.59-10.46-.89-15.76-.89z" fill="#fb1466"/><path d="M397.176 191.516H114.824a9.231 9.231 0 01-9.231-9.231v-15.146a9.231 9.231 0 019.231-9.231h282.351a9.231 9.231 0 019.231 9.231v15.146a9.23 9.23 0 01-9.23 9.231z" fill="#eaf6ff"/><path d="M406.411 167.139v15.148c0 5.096-4.135 9.231-9.231 9.231h-30.675c5.095 0 9.231-4.135 9.231-9.231v-15.148c0-5.096-4.136-9.231-9.231-9.231h30.675c5.095 0 9.231 4.136 9.231 9.231z" fill="#c5e2ff"/><path d="M311.172 447.603c2.809 2.809 2.553 7.405-.503 9.944-31.167 25.898-77.511 24.237-106.731-4.983S173.057 377 198.955 345.833c2.539-3.056 7.135-3.312 9.944-.503z" fill="#fde784"/><path d="M296.565 432.996c-20.175 20.175-52.885 20.175-73.059 0-20.175-20.175-20.175-52.885 0-73.059z" fill="#fef5c8"/><path d="M397.176 150.408h-3.566c-4.53-32.121-20.184-61.651-44.42-83.57a138.607 138.607 0 00-69.925-33.915V12.5c0-6.893-5.607-12.5-12.5-12.5h-21.529c-6.893 0-12.5 5.607-12.5 12.5v20.423a138.6 138.6 0 00-69.925 33.915c-24.236 21.919-39.89 51.449-44.42 83.57h-3.566c-9.226 0-16.731 7.505-16.731 16.731v15.146c0 9.226 7.505 16.731 16.731 16.731h4.731l30.846 269.24c.864 7.539 6.57 13.444 13.8 14.768v11.994c0 9.364 7.619 16.983 16.983 16.983h149.634c9.364 0 16.983-7.619 16.983-16.983v-11.995c7.228-1.324 12.932-7.23 13.796-14.767l30.846-269.239h4.731c9.226 0 16.731-7.505 16.731-16.731V167.14c.001-9.227-7.505-16.732-16.73-16.732zm-58.048-72.445c21.096 19.079 34.905 44.612 39.318 72.445h-99.182V48.161a123.638 123.638 0 0159.864 29.802zM247.735 15h16.529v16.219c-2.744-.162-5.499-.253-8.265-.253s-5.521.091-8.265.253V15zm-74.863 62.963a123.638 123.638 0 0159.864-29.802v27.562a7.5 7.5 0 0015 0v-29.48c2.742-.182 5.498-.277 8.265-.277s5.522.095 8.265.277v104.165h-16.529v-38.395a7.5 7.5 0 00-15 0v38.395h-99.182c4.411-27.833 18.221-53.366 39.317-72.445zM330.819 497H181.185a1.986 1.986 0 01-1.983-1.983v-11.712h153.6v11.712c0 1.093-.89 1.983-1.983 1.983zm-25.566-44.709c-13.604 11.049-30.734 16.708-48.354 15.941-17.989-.781-34.915-8.229-47.657-20.971s-20.19-29.668-20.971-47.657c-.765-17.611 4.892-34.75 15.941-48.354l9.036 9.036c-17.955 23.186-16.314 56.746 4.955 78.015 11.533 11.534 26.683 17.3 41.833 17.3 12.789 0 25.569-4.126 36.182-12.345zm41.443 14.256a1.982 1.982 0 01-1.97 1.757h-35.91a87.002 87.002 0 006.647-4.989 14.328 14.328 0 005.151-10.335 14.21 14.21 0 00-4.139-10.68l-38.46-38.46a7.5 7.5 0 00-10.606 0 7.5 7.5 0 000 10.606l18.091 18.091c-17.227 12.173-41.28 10.566-56.69-4.843-15.41-15.41-17.017-39.464-4.843-56.69l17.782 17.782a7.5 7.5 0 0010.606 0 7.5 7.5 0 000-10.606l-38.152-38.152a14.22 14.22 0 00-10.68-4.138 14.332 14.332 0 00-10.336 5.151c-13.772 16.574-20.84 37.604-19.902 59.214.944 21.749 9.947 42.21 25.351 57.613a87.2 87.2 0 0012.612 10.438h-43.973a1.982 1.982 0 01-1.97-1.757l-24.967-217.924h231.326zm52.211-284.262c0 .955-.776 1.731-1.731 1.731h-68.42a7.5 7.5 0 000 15h48.591l-3.965 34.608H138.618l-3.965-34.608h157.813a7.5 7.5 0 000-15H114.824a1.732 1.732 0 01-1.731-1.731v-15.146c0-.955.776-1.731 1.731-1.731h282.352c.955 0 1.731.776 1.731 1.731z"/><path d="M234.671 395.858l-1.732.733a7.5 7.5 0 005.846 13.814l1.732-.733a7.5 7.5 0 00-5.846-13.814zM256.659 412a7.502 7.502 0 00-9.83 3.984l-.733 1.732a7.5 7.5 0 0013.814 5.846l.733-1.732a7.5 7.5 0 00-3.984-9.83zm44.295-128.676h-.104a7.5 7.5 0 000 15h.104a7.5 7.5 0 000-15zm-29.102 12.496h-.14a7.5 7.5 0 00-.034 15h.14a7.5 7.5 0 00.034-15zm27.99 55.625h-.14a7.5 7.5 0 00-.034 15h.14a7.5 7.5 0 00.034-15z"/></svg>