<svg viewBox="0 0 512 512" xmlns="http://www.w3.org/2000/svg"><path d="M66.839 386.525h378.318v38.282H66.839z" fill="#ef2929"/><path d="M415.8 386.525h29.36v38.282H415.8z" fill="#d31a1a"/><path d="M437.282 504.494H74.718c-15.575 0-28.201-12.626-28.201-28.201v-42.314a9.123 9.123 0 019.123-9.123h400.721a9.123 9.123 0 019.123 9.123v42.314c-.001 15.575-12.627 28.201-28.202 28.201z" fill="#ff9017"/><path d="M465.486 433.981v42.316c0 15.573-12.631 28.194-28.204 28.194h-27.023c15.573 0 28.204-12.621 28.204-28.194v-42.316a9.124 9.124 0 00-9.128-9.128h27.023a9.125 9.125 0 019.128 9.128z" fill="#ef7d0a"/><path d="M453.92 386.572H58.08c-14.355 0-25.993-11.637-25.993-25.993v-19.911c0-14.355 11.637-25.993 25.993-25.993h395.84c14.355 0 25.993 11.637 25.993 25.993v19.911c0 14.357-11.638 25.993-25.993 25.993z" fill="#b7623f"/><path d="M479.908 340.673v19.907c0 14.352-11.63 25.992-25.992 25.992h-27.113c14.352 0 25.992-11.64 25.992-25.992v-19.907c0-14.362-11.64-25.992-25.992-25.992h27.113c14.362 0 25.992 11.63 25.992 25.992z" fill="#a55235"/><path d="M436.831 337.125l-16.872-11.4a5.34 5.34 0 00-6.101.085l-20.678 14.826a5.339 5.339 0 01-6.223 0l-20.587-14.762a5.342 5.342 0 00-6.223 0l-20.589 14.762a5.342 5.342 0 01-6.223 0l-20.589-14.761a5.34 5.34 0 00-6.223 0l-20.584 14.761a5.339 5.339 0 01-6.223 0l-20.587-14.761a5.339 5.339 0 00-6.223 0l-20.588 14.761a5.342 5.342 0 01-6.223 0l-20.591-14.762a5.34 5.34 0 00-6.222 0l-20.592 14.762a5.34 5.34 0 01-6.222 0l-20.592-14.762a5.34 5.34 0 00-6.222 0l-20.593 14.763a5.34 5.34 0 01-6.222 0l-20.687-14.828a5.34 5.34 0 00-6.1-.084l-16.875 11.402c-3.546 2.396-8.329-.145-8.329-4.425V274h378.321v58.701c-.008 4.279-4.791 6.82-8.338 4.424z" fill="#1bcf92"/><path d="M445.159 273.997v58.699c0 4.284-4.784 6.826-8.327 4.434l-16.874-11.41a5.38 5.38 0 00-4.153-.781v-50.943h29.354z" fill="#11ba7d"/><path d="M441.024 330.899l.009.006-.009-.006z"/><path d="M446.644 221.597H65.356c-10.599 0-19.191-8.592-19.191-19.191 0-107.64 87.259-194.899 194.899-194.899h29.872c107.64 0 194.899 87.259 194.899 194.899 0 10.598-8.592 19.191-19.191 19.191z" fill="#ff9017"/><path d="M257.252 7.502h13.684c107.64 0 194.904 87.264 194.904 194.904 0 5.3-2.152 10.098-5.622 13.566a19.13 19.13 0 01-13.576 5.622h-16.32l.511-11.52c.461-10.384.189-20.696-1.046-31.033a193.566 193.566 0 00-14.805-54.534 194.43 194.43 0 00-12.885-24.565 195.513 195.513 0 00-16.125-22.348 195.949 195.949 0 00-40.72-36.799 194.861 194.861 0 00-23.973-13.827 193.79 193.79 0 00-25.967-10.363c-12.511-3.968-25.379-6.035-38.06-9.103z" fill="#ef7d0a"/><path d="M66.839 221.597h378.318v38.282H66.839z" fill="#ef2929"/><path d="M415.8 221.597h29.36v38.282H415.8z" fill="#d31a1a"/><path d="M66.839 259.445v42.591c0 14.227 11.533 25.76 25.76 25.76 14.227 0 25.76-11.533 25.76-25.76v-4.143a5.34 5.34 0 015.339-5.34h152.86a5.34 5.34 0 015.339 5.34v42.452c0 14.894 12.073 26.967 26.967 26.967 14.894 0 26.967-12.073 26.967-26.967v-42.452a5.34 5.34 0 015.339-5.34h103.99v-33.111z" fill="#fcc927"/><path d="M415.8 259.438h29.36v33.108H415.8z" fill="#efad0a"/><path d="M453.92 307.171h-1.253V228.41c11.829-2.739 20.674-13.354 20.674-26.004C473.341 90.798 382.542 0 270.936 0h-29.872C178.406 0 120.289 28.327 81.615 77.717a7.506 7.506 0 1011.82 9.256c35.809-45.731 89.618-71.961 147.629-71.961h29.872c103.329 0 187.393 84.065 187.393 187.393 0 6.442-5.241 11.684-11.684 11.684H65.356c-6.443 0-11.684-5.241-11.684-11.685 0-26.819 5.544-52.71 16.477-76.955a7.506 7.506 0 00-13.685-6.172c-11.814 26.198-17.805 54.166-17.805 83.127 0 12.649 8.845 23.265 20.674 26.003v78.761H58.08c-18.472 0-33.499 15.028-33.499 33.499v19.912c0 18.472 16.115 33.499 34.586 33.499v23.273h-3.529c-9.169 0-16.628 7.459-16.628 16.628v42.314C39.01 495.982 55.027 512 74.717 512H292.53a7.507 7.507 0 000-15.012H74.718c-11.411 0-20.694-9.283-20.694-20.694V433.98c0-.891.725-1.615 1.615-1.615h400.722c.891 0 1.615.725 1.615 1.615v42.314c0 11.411-9.283 20.694-20.694 20.694H339.32a7.507 7.507 0 000 15.012h97.962c19.689 0 35.707-16.017 35.707-35.707v-42.314c0-9.169-7.459-16.628-16.628-16.628h-3.735l-.127-23.272c18.472 0 34.92-15.028 34.92-33.499v-19.912c0-18.471-15.027-33.497-33.499-33.497zM74.346 229.103h363.309v22.833l-363.309.004zm0 55.797v-17.513h363.309v17.66h-96.483c-7.084 0-12.846 5.763-12.846 12.846v42.452c0 10.73-8.73 19.46-19.46 19.46s-19.46-8.73-19.46-19.46v-42.452c0-7.084-5.763-12.846-12.846-12.846H123.7c-7.084 0-12.846 5.763-12.846 12.846v4.143c0 10.064-8.189 18.253-18.253 18.253s-18.253-8.189-18.253-18.253V284.9zm363.308 15.16v28.562l-13.493-9.117c-4.432-2.995-10.33-2.911-14.676.205l-19.416 13.922-19.326-13.857a12.842 12.842 0 00-14.971 0l-12.433 8.915v-28.629zm-163.262 0v27.525l-10.892-7.811a12.84 12.84 0 00-14.971 0l-19.326 13.857-19.329-13.858a12.838 12.838 0 00-14.97 0l-19.33 13.858-19.329-13.858a12.838 12.838 0 00-14.97 0l-19.331 13.859-8.236-5.903c7.419-6.106 12.158-15.356 12.158-25.692v-1.978zM74.346 417.309v-23.23h363.309v23.23zm398.061-56.728c0 10.194-8.293 18.487-18.487 18.487h-7.967a7.666 7.666 0 00-.793-.042H66.839a7.71 7.71 0 00-.793.042H58.08c-10.194 0-18.487-8.293-18.487-18.487v-19.912c0-10.194 8.293-18.487 18.487-18.487h1.253v10.519c0 4.763 2.613 9.111 6.82 11.345s9.272 1.966 13.218-.701l11.952-8.075c.424.016 4.854-.117 6.584-.396l16.552 11.864c2.238 1.605 4.861 2.407 7.484 2.407s5.246-.803 7.484-2.407l19.331-13.859 19.329 13.858a12.838 12.838 0 0014.97 0l19.33-13.858 19.329 13.858a12.84 12.84 0 0014.971 0l19.326-13.857 18.931 13.574c2.893 16.103 16.997 28.364 33.92 28.364 16.526 0 30.368-11.692 33.702-27.236.466-.252.924-.53 1.363-.845l19.327-13.857 19.326 13.857a12.838 12.838 0 0014.971 0l19.453-13.948 15.622 10.555a12.822 12.822 0 0013.219.701 12.82 12.82 0 006.82-11.345v-10.517h1.253c10.194 0 18.487 8.293 18.487 18.487v19.91z"/><circle cx="328.106" cy="69.729" r="8.507"/><circle cx="275.392" cy="87.604" r="8.507"/><circle cx="290.835" cy="49.966" r="8.507"/><circle cx="245.547" cy="41.455" r="8.507"/><circle cx="243.395" cy="78.236" r="8.507"/><circle cx="183.895" cy="79.097" r="8.507"/><circle cx="212.999" cy="49.966" r="8.507"/></svg>