<svg viewBox="0 0 512 512" xmlns="http://www.w3.org/2000/svg"><circle cx="199.071" cy="50.48" fill="#ef2929" r="42.964"/><path d="M242.029 50.473c0 23.727-19.23 42.966-42.956 42.966-18.088 0-33.572-11.187-39.901-27.012a42.8 42.8 0 0021.874 5.979c23.727 0 42.956-19.24 42.956-42.966a42.791 42.791 0 00-3.055-15.945c12.619 7.482 21.082 21.243 21.082 36.978z" fill="#d31a1a"/><path d="M228.903 77.461S297.05 60.974 338.945 20.8c11.659-11.18 31.05-2.774 31.05 13.38v43.895z" fill="#b7623f"/><path d="M369.997 34.177v43.898l-25.039-.11V34.177c0-5.599-2.334-10.276-5.869-13.511 11.668-10.976 30.908-2.584 30.908 13.511z" fill="#a55235"/><path d="M448.218 254.321H63.784v-54.174c0-18.816 15.254-34.07 34.07-34.07h316.295c18.816 0 34.07 15.254 34.07 34.07v54.174zm-47.77-88.346H110.713v-54.174c0-18.816 15.254-34.07 34.07-34.07h221.595c18.816 0 34.07 15.254 34.07 34.07z" fill="#b7623f"/><path d="M400.444 111.797v54.174h-32.56v-54.174c0-18.809-15.254-34.063-34.073-34.063h32.57c18.81.001 34.063 15.254 34.063 34.063zm47.774 88.343v54.174h-32.56V200.14c0-18.809-15.254-34.063-34.073-34.063h32.57c18.81.001 34.063 15.254 34.063 34.063z" fill="#a55235"/><path d="M450.386 339.601H61.616c-10.333 0-18.71-8.377-18.71-18.71v-47.858c0-10.333 8.377-18.71 18.71-18.71h388.771c10.333 0 18.71 8.377 18.71 18.71v47.858c0 10.333-8.377 18.71-18.711 18.71z" fill="#e59770"/><path d="M469.1 273.036v47.854c0 10.336-8.383 18.709-18.709 18.709h-35.254c10.336 0 18.719-8.373 18.719-18.709v-47.854c0-10.336-8.383-18.719-18.719-18.719h35.254c10.326 0 18.709 8.383 18.709 18.719z" fill="#ba8368"/><path d="M78.15 339.601l31.192 143.391c2.729 12.548 13.835 21.497 26.676 21.497h239.966c12.841 0 23.946-8.949 26.676-21.497l31.192-143.391z" fill="#f9e8d4"/><path d="M433.856 339.599l-31.198 143.389c-2.73 12.547-13.835 21.496-26.676 21.496h-12.329l35.865-164.885z" fill="#e8d0ba"/><path d="M152.345 339.601l24.795 164.887h51.779l-10.454-164.887zm207.312 0l-24.795 164.887h-51.779l10.454-164.887z" fill="#e59770"/><path d="M455.73 247.359v-47.211c0-22.928-18.653-41.582-41.581-41.582h-6.188v-46.765c0-19.074-12.914-35.178-30.454-40.057V34.18c0-10.575-6.052-19.727-15.796-23.883-9.676-4.126-20.392-2.18-27.965 5.082-26.009 24.94-63.131 40.574-86.009 48.483a50.24 50.24 0 001.81-13.386C249.546 22.643 226.902 0 199.07 0s-50.476 22.643-50.476 50.476a50.123 50.123 0 004.038 19.744h-7.85c-18.268 0-34.215 11.703-39.68 29.121a7.51 7.51 0 004.919 9.415 7.507 7.507 0 009.416-4.918c3.49-11.123 13.675-18.596 25.346-18.596h146.25l78.929.343h.032c.165 0 .327-.014.49-.024 12.702 1.98 22.452 12.992 22.452 26.24v46.662H118.225V146.33a7.512 7.512 0 00-15.024 0v12.235h-5.348c-22.928 0-41.581 18.653-41.581 41.582v47.211c-11.905 2.474-20.879 13.045-20.879 25.673v47.859c0 14.459 11.763 26.222 26.222 26.222h10.481l29.906 137.476C105.458 500.471 119.763 512 136.018 512h239.966c16.255 0 30.56-11.529 34.016-27.412l29.905-137.476h10.48c14.459 0 26.222-11.763 26.222-26.222v-47.859c.001-12.628-8.972-23.198-20.877-25.672zM228.806 69.728c-1.028.274-1.613.419-1.672.434-.068.017-.133.04-.201.059h-57.277a35.211 35.211 0 01-6.039-19.744c0-19.548 15.903-35.452 35.452-35.452s35.452 15.904 35.452 35.452a35.194 35.194 0 01-5.715 19.251zm133.677.492h-71.426l-17.449-.076c22.424-9.42 49.48-23.731 70.535-43.922 3.202-3.071 7.565-3.858 11.672-2.107 4.175 1.781 6.667 5.544 6.667 10.065v36.04zM71.296 200.148c0-14.645 11.914-26.559 26.558-26.559h316.295c14.644 0 26.558 11.914 26.558 26.559v46.662H71.296zm64.722 296.829c-9.24 0-17.372-6.553-19.336-15.582L87.471 347.112h58.407l22.536 149.864zm47.588 0L161.07 347.113h50.344l9.502 149.864zm144.79 0h-37.311l4.009-63.225a7.513 7.513 0 00-7.022-7.972 7.503 7.503 0 00-7.972 7.021l-4.069 64.175h-40.062l-9.502-149.864h59.066l-2.514 39.645a7.513 7.513 0 007.022 7.972 7.486 7.486 0 007.972-7.021l2.573-40.595h50.344zm66.925-15.582c-1.965 9.029-10.097 15.582-19.337 15.582h-32.396l22.536-149.864h58.407zm66.264-160.505c0 6.175-5.023 11.199-11.199 11.199H61.616c-6.176 0-11.199-5.024-11.199-11.199v-47.859c0-6.175 5.023-11.198 11.199-11.198h388.771c6.176 0 11.199 5.024 11.199 11.198z"/></svg>