<svg viewBox="0 0 512 512" xmlns="http://www.w3.org/2000/svg"><circle cx="114.422" cy="314.753" fill="#ef2929" r="64.323"/><path d="M178.732 315.868c-.609 35.517-29.914 63.814-65.432 63.194a64.805 64.805 0 01-9.818-.919c29.864-5.114 52.837-30.873 53.376-62.275.559-32.171-22.593-59.239-53.366-64.513a63.915 63.915 0 0112.046-.919c35.527.62 63.814 29.915 63.194 65.432z" fill="#d31a1a"/><circle cx="114.422" cy="314.753" fill="#f45c4d" r="24.041"/><path d="M300.923 96.855L153.871 324.929h308.034L314.851 96.855c-3.263-5.061-10.665-5.061-13.928 0z" fill="#fcc927"/><path d="M461.903 324.927H422.45l-134.289-208.29 12.765-19.786c3.256-5.054 10.667-5.054 13.923 0z" fill="#efad0a"/><path d="M363.951 173.015c-4.02 4.284-9.2 8.589-15.081 9.409-4.769.664-11.658-.254-12.638 5.523-.573 3.379.002 7.317.002 10.759 0 8.317-6.392 15.473-14.7 15.862-8.867.414-16.183-6.659-16.183-15.435 0-7.164 2.54-16.533-8.141-14.456-2.52.49-5.042 2.162-7.341 3.254-13.594 6.451-30.373 1.024-42.688-7.716l53.746-83.36c3.256-5.064 10.667-5.064 13.923 0z" fill="#ef2929"/><circle cx="256.003" cy="223.152" r="8.57"/><circle cx="292.779" cy="284.978" r="8.57"/><circle cx="389.093" cy="287.785" r="8.57"/><circle cx="359.129" cy="250.42" r="8.57"/><circle cx="233.5" cy="258.989" r="8.57"/><path d="M363.951 173.019c-4.025 4.285-9.199 8.59-15.082 9.409-4.764.659-11.656-.26-12.635 5.523a20.37 20.37 0 00-.25 2.857l-47.813-74.161 12.755-19.786v-.01c.13-.2.27-.4.42-.589.03-.05.07-.1.12-.14.14-.19.31-.38.479-.549.2-.21.41-.41.629-.589.18-.16.37-.3.569-.439.04-.03.08-.06.13-.09.23-.15.449-.29.689-.41.24-.13.489-.25.739-.35.26-.11.519-.2.779-.28a8.411 8.411 0 014.814 0c.26.08.519.17.779.28.25.1.499.22.739.35a6.941 6.941 0 01.819.5c.2.14.39.28.569.439.22.18.43.38.629.589.17.17.34.36.479.549.05.04.09.09.12.14.15.19.29.39.42.589v.01z" fill="#d31a1a"/><path d="M423.014 418.941H88.985c-6.429 0-11.641-5.212-11.641-11.641v-27.034h357.311V407.3c0 6.429-5.212 11.641-11.641 11.641z" fill="#caedff"/><path d="M434.656 380.271v27.028c0 6.432-5.214 11.646-11.646 11.646h-23.302c6.432 0 11.646-5.214 11.646-11.646v-27.028z" fill="#aae8f2"/><path d="M290.874 324.085H12.543c-3.685 0-6.127 3.82-4.579 7.164l16.606 35.883a22.644 22.644 0 0020.549 13.133h421.757a22.643 22.643 0 0020.549-13.133l16.606-35.883c1.547-3.344-.895-7.164-4.579-7.164z" fill="#caedff"/><path d="M504.033 331.25l-16.6 35.887a22.66 22.66 0 01-20.555 13.134h-23.971c8.829 0 16.85-5.134 20.555-13.134l16.6-35.887c1.548-3.346-.889-7.161-4.574-7.161h23.971c3.685-.001 6.122 3.815 4.574 7.161z" fill="#aae8f2"/><path d="M510.019 322.378a12.479 12.479 0 00-10.562-5.784h-34.012L408.65 228.51a7.492 7.492 0 00-12.592 8.12l51.559 79.966H168.158l81.29-126.078c15.16 8.533 31.054 10.155 43.633 4.183a57.7 57.7 0 002.294-1.174c.903-.479 1.983-1.054 2.746-1.338-.011 1.001-.072 2.128-.117 2.961-.07 1.291-.144 2.627-.144 3.984a23.05 23.05 0 007.106 16.602c4.309 4.113 9.886 6.341 15.809 6.341.368 0 .738-.009 1.109-.025 12.247-.574 21.841-10.829 21.841-23.346 0-1.329-.069-2.643-.136-3.915-.08-1.512-.161-3.061-.097-4.354.89-.131 2.082-.212 2.905-.269 1.138-.078 2.312-.158 3.508-.325 4.226-.589 8.362-2.376 12.503-5.406l8.908 13.816a7.493 7.493 0 0012.592-8.12l-62.761-97.338a15.86 15.86 0 00-3.081-3.506c-.067-.057-.132-.118-.2-.174-.063-.052-.13-.099-.194-.149a15.71 15.71 0 00-9.784-3.4 15.697 15.697 0 00-11.359 4.826c-.018.019-.038.036-.056.056l-.054.061a15.94 15.94 0 00-1.791 2.286L175.661 277.309c-12.408-20.23-34.553-33.923-59.99-34.367-12.331-.202-24.584 2.763-35.385 8.608-3.64 1.97-4.992 6.514-3.022 10.153s6.516 4.994 10.153 3.022c8.539-4.619 18.231-6.967 27.993-6.804 22.795.397 42.241 14.24 50.948 33.815l-16.027 24.856h-4.448c.026-.431.054-.863.062-1.297a31.418 31.418 0 00-2.671-13.287l8.419-7.529a7.49 7.49 0 00.591-10.577 7.49 7.49 0 00-10.577-.591l-7.61 6.805c-5.417-4.344-12.073-6.771-19.127-6.894-7.079-.102-13.798 2.078-19.357 6.226l-7.369-7.066a7.488 7.488 0 00-10.591.223 7.488 7.488 0 00.223 10.591l8.153 7.818a31.425 31.425 0 00-3.131 13.186c-.014.804.016 1.601.064 2.394H57.628c-.033-.94-.049-1.884-.033-2.836a56.633 56.633 0 013.711-19.282 7.492 7.492 0 00-13.997-5.343 71.603 71.603 0 00-4.693 24.365 69.34 69.34 0 00.025 3.096H12.543a12.479 12.479 0 00-10.562 5.784 12.484 12.484 0 00-.814 12.018l16.606 35.883c4.915 10.617 15.649 17.478 27.348 17.478h24.733V407.3c0 10.549 8.583 19.131 19.131 19.131h334.03c10.549 0 19.131-8.583 19.131-19.131v-19.543h24.733c11.7 0 22.435-6.861 27.348-17.478l16.606-35.884a12.485 12.485 0 00-.814-12.017zM347.837 175.004c-.674.095-1.542.153-2.462.217-4.416.303-14.754 1.01-16.529 11.472-.523 3.085-.362 6.166-.219 8.883.06 1.128.115 2.192.115 3.129 0 4.426-3.392 8.184-7.559 8.38a7.862 7.862 0 01-5.874-2.186 7.896 7.896 0 01-2.468-5.764c0-.951.059-2.029.121-3.17.27-4.948.638-11.725-4.336-16.058-2.3-2.003-5.211-3.008-8.687-3.008-1.307 0-2.695.143-4.159.427-2.909.564-5.42 1.899-7.436 2.971-.575.306-1.139.607-1.688.869-8.975 4.259-20.027 1.532-29.052-3.292l49.624-76.966a.795.795 0 01.191-.214.762.762 0 01.469-.143c.215 0 .364.065.468.143s.163.17.197.223l45.715 70.905c-2.349 1.847-4.502 2.913-6.431 3.182zM102.926 302.847a16.431 16.431 0 0111.783-4.641c4.42.077 8.544 1.87 11.614 5.05a16.432 16.432 0 014.533 13.341H97.988a15.898 15.898 0 01-.111-2.133 16.44 16.44 0 015.049-11.617zm324.238 104.454a4.153 4.153 0 01-4.149 4.149H88.985a4.153 4.153 0 01-4.149-4.149v-19.543h342.328zm53.466-43.314a15.199 15.199 0 01-13.752 8.788H45.12c-5.883 0-11.28-3.45-13.752-8.789l-14.998-32.41h479.258z"/></svg>