<svg viewBox="0 0 512 512" xmlns="http://www.w3.org/2000/svg"><circle cx="256" cy="256" fill="#f9e8d4" r="248.48"/><circle cx="256" cy="256" fill="#ff9017" r="218.07"/><path d="M474.076 256c0 120.442-97.635 218.077-218.077 218.077-62.894 0-119.559-26.618-159.355-69.212 35.965 26.146 80.214 41.561 128.074 41.561 120.442 0 218.077-97.635 218.077-218.077 0-57.548-22.295-109.891-58.721-148.865C438.623 119.12 474.076 183.418 474.076 256z" fill="#ef7d0a"/><circle cx="147.62" cy="168.16" fill="#ef2929" r="41.724"/><path d="M164.725 206.208c-21.021 9.448-45.713.07-55.171-20.941a40.505 40.505 0 01-1.494-3.821c11.363 6.97 25.865 8.365 38.934 2.487 19.758-8.886 29.225-31.251 22.416-51.35 6.92 4.222 12.677 10.511 16.257 18.454 9.446 21.022.069 45.714-20.942 55.171z" fill="#d31a1a"/><path d="M147.621 217.409c-27.154 0-49.246-22.091-49.246-49.246s22.091-49.246 49.246-49.246 49.246 22.091 49.246 49.246-22.092 49.246-49.246 49.246zm0-83.447c-18.859 0-34.202 15.343-34.202 34.202s15.343 34.202 34.202 34.202 34.202-15.343 34.202-34.202-15.343-34.202-34.202-34.202z"/><path d="M147.621 158.859a7.522 7.522 0 01-7.522-7.522v-5.238a7.522 7.522 0 0115.044 0v5.238a7.522 7.522 0 01-7.522 7.522zm0 38.892a7.522 7.522 0 01-7.522-7.522v-5.238a7.522 7.522 0 0115.044 0v5.238a7.522 7.522 0 01-7.522 7.522zm22.065-22.066h-5.238a7.522 7.522 0 010-15.044h5.238a7.522 7.522 0 010 15.044zm-38.892 0h-5.238a7.522 7.522 0 010-15.044h5.238a7.522 7.522 0 010 15.044z"/><circle cx="368.81" cy="180.46" fill="#ef2929" r="41.724"/><path d="M385.922 218.51c-21.021 9.448-45.713.07-55.171-20.941a40.505 40.505 0 01-1.494-3.821c11.363 6.97 25.865 8.365 38.934 2.487 19.758-8.886 29.225-31.251 22.416-51.35 6.92 4.222 12.677 10.511 16.257 18.454 9.446 21.021.069 45.713-20.942 55.171z" fill="#d31a1a"/><path d="M368.711 229.721c-9.674 0-19.129-2.859-27.342-8.371-22.546-15.133-28.578-45.787-13.445-68.334 7.331-10.922 18.476-18.336 31.383-20.875 12.905-2.539 26.029.099 36.952 7.43 10.922 7.331 18.336 18.476 20.875 31.382 2.54 12.907-.099 26.03-7.43 36.952s-18.476 18.336-31.383 20.875c-3.202.63-6.418.941-9.61.941zm.174-83.473c-2.217 0-4.451.216-6.674.654-8.965 1.764-16.705 6.913-21.796 14.498-10.51 15.659-6.321 36.949 9.338 47.458 7.586 5.092 16.705 6.923 25.663 5.161 8.965-1.764 16.705-6.913 21.796-14.498 5.091-7.585 6.924-16.699 5.161-25.663-1.764-8.964-6.913-16.704-14.498-21.795-5.704-3.829-12.272-5.815-18.99-5.815z"/><path d="M378.185 174.012a7.523 7.523 0 01-6.239-11.715l2.919-4.35a7.522 7.522 0 0112.492 8.383l-2.919 4.35a7.516 7.516 0 01-6.253 3.332zm-21.675 32.293a7.477 7.477 0 01-4.184-1.277 7.522 7.522 0 01-2.055-10.438l2.919-4.35a7.522 7.522 0 0112.492 8.383l-2.919 4.35a7.516 7.516 0 01-6.253 3.332zm30.618-6.025a7.49 7.49 0 01-4.185-1.277l-4.35-2.919a7.522 7.522 0 118.384-12.492l4.35 2.919a7.522 7.522 0 01-4.199 13.769zm-32.293-21.674a7.49 7.49 0 01-4.185-1.277l-4.35-2.919a7.522 7.522 0 118.384-12.492l4.35 2.919a7.522 7.522 0 01-4.199 13.769z"/><circle cx="346.85" cy="346.72" fill="#ef2929" r="41.724"/><path d="M363.965 384.776c-21.021 9.448-45.713.07-55.171-20.941a40.505 40.505 0 01-1.494-3.821c11.363 6.97 25.865 8.365 38.934 2.487 19.758-8.886 29.225-31.251 22.416-51.35 6.92 4.222 12.677 10.511 16.257 18.454 9.447 21.021.069 45.713-20.942 55.171z" fill="#d31a1a"/><path d="M346.924 395.964c-18.802 0-36.788-10.817-44.986-29.046-11.137-24.766-.05-53.974 24.715-65.111 24.768-11.136 53.974-.048 65.111 24.715 5.396 11.997 5.796 25.377 1.128 37.674-4.668 12.298-13.846 22.042-25.843 27.437a48.969 48.969 0 01-20.125 4.331zm-.123-83.444c-4.683 0-9.437.966-13.977 3.008-17.2 7.734-24.899 28.02-17.165 45.221 7.734 17.198 28.017 24.9 45.221 17.164 17.2-7.735 24.9-28.021 17.165-45.22-5.694-12.659-18.187-20.173-31.244-20.173z"/><path d="M339.954 338.898a7.523 7.523 0 01-6.864-4.438l-2.149-4.778a7.522 7.522 0 013.775-9.946 7.522 7.522 0 019.945 3.774l2.149 4.778a7.522 7.522 0 01-3.775 9.946 7.502 7.502 0 01-3.081.664zm15.952 35.47a7.523 7.523 0 01-6.864-4.438l-2.149-4.778a7.522 7.522 0 013.775-9.946 7.521 7.521 0 019.945 3.774l2.149 4.778a7.522 7.522 0 01-3.775 9.946 7.486 7.486 0 01-3.081.664zm6.296-27.025a7.522 7.522 0 01-3.089-14.384l4.778-2.148a7.521 7.521 0 019.945 3.776 7.522 7.522 0 01-3.775 9.945l-4.778 2.148a7.514 7.514 0 01-3.081.663zm-35.47 15.951a7.522 7.522 0 01-3.089-14.384l4.778-2.148a7.522 7.522 0 016.17 13.721l-4.778 2.148a7.504 7.504 0 01-3.081.663z"/><path d="M94.488 283.11l12.267 8.649 11.975 8.443 12.267 8.649c3.765 2.655 9.017 1.746 11.672-2.019l7.642-10.838c2.655-3.765 1.746-9.017-2.019-11.672l-5.99-4.223 8.043-11.406c2.434-3.452 1.601-8.269-1.851-10.703l-11.975-8.443c-3.452-2.434-8.269-1.601-10.703 1.851l-8.043 11.406-5.99-4.223c-3.765-2.655-9.017-1.746-11.672 2.019l-7.642 10.838c-2.654 3.765-1.746 9.017 2.019 11.672z" fill="#b7623f"/><path d="M135.776 317.899c-3.25 0-6.411-.995-9.115-2.901l-36.507-25.742c-3.463-2.442-5.77-6.094-6.495-10.285s.221-8.406 2.663-11.869l7.642-10.838c2.442-3.463 6.094-5.769 10.285-6.494a15.78 15.78 0 0111.71 2.552l3.709-5.259a15.098 15.098 0 019.835-6.211 15.101 15.101 0 0111.35 2.546l11.974 8.443c6.851 4.83 8.495 14.333 3.665 21.184l-3.71 5.261c3.376 2.44 5.623 6.045 6.337 10.173a15.787 15.787 0 01-2.663 11.869l-7.642 10.838c-2.442 3.463-6.094 5.769-10.285 6.494-.918.161-1.839.239-2.753.239zm-28.808-53.319a.868.868 0 00-.709.354l-7.642 10.838a.84.84 0 00-.134.636c.028.164.11.392.339.553h.001l36.508 25.742c.23.162.472.161.636.134a.835.835 0 00.554-.339l7.642-10.838a.84.84 0 00.134-.636.833.833 0 00-.339-.553l-5.99-4.224a7.518 7.518 0 01-1.813-10.481l8.043-11.407c.04-.057.019-.181-.039-.221l-11.974-8.444c-.061-.043-.178-.023-.221.038l-8.043 11.406a7.518 7.518 0 01-10.481 1.813l-5.99-4.223a.843.843 0 00-.482-.148z"/><path d="M284.88 93.441l-14.69 3.079-14.34 3.005-14.69 3.079c-4.509.945-7.425 5.407-6.48 9.916l2.72 12.98c.945 4.509 5.407 7.425 9.916 6.48l7.173-1.503 2.863 13.66c.866 4.135 4.958 6.808 9.093 5.942l14.34-3.005c4.135-.866 6.808-4.958 5.942-9.093l-2.863-13.66 7.173-1.503c4.509-.945 7.425-5.407 6.48-9.916l-2.72-12.98c-.946-4.51-5.408-7.426-9.917-6.481z" fill="#b7623f"/><path d="M264.851 157.766c-2.921 0-5.785-.848-8.294-2.488a15.103 15.103 0 01-6.568-9.6l-1.32-6.3a15.786 15.786 0 01-11.762-2.299 15.795 15.795 0 01-6.869-10.039l-2.72-12.979c-1.798-8.58 3.719-17.022 12.299-18.821l43.721-9.162c8.585-1.795 17.022 3.72 18.821 12.299l2.721 12.98c1.784 8.517-3.641 16.898-12.111 18.78l1.32 6.299c1.718 8.206-3.558 16.278-11.762 17.997l-14.341 3.005c-1.043.22-2.093.328-3.135.328zm-10.363-34.813c1.451 0 2.882.42 4.115 1.225a7.528 7.528 0 013.247 4.754l2.863 13.66c.016.073.12.138.187.123l14.342-3.005c.069-.015.137-.12.122-.189l-2.863-13.659a7.522 7.522 0 015.82-8.905l7.173-1.503a.878.878 0 00.66-1.012l-2.721-12.978a.878.878 0 00-1.011-.661l-43.721 9.162a.876.876 0 00-.66 1.011l2.72 12.979a.844.844 0 00.374.532.847.847 0 00.637.129l7.173-1.503a7.528 7.528 0 011.543-.16z"/><path d="M229.417 400.422l-10.619-10.607-10.366-10.355-10.619-10.607c-3.259-3.256-8.59-3.253-11.845.007l-9.372 9.383c-3.256 3.259-3.253 8.59.007 11.845l5.185 5.179-9.863 9.875c-2.985 2.989-2.983 7.877.006 10.862l10.366 10.355c2.989 2.985 7.877 2.983 10.862-.006l9.863-9.875 5.185 5.179c3.259 3.256 8.59 3.253 11.845-.007l9.372-9.383c3.256-3.259 3.253-8.589-.007-11.845z" fill="#b7623f"/><path d="M187.724 436.118a15.096 15.096 0 01-10.744-4.438l-10.366-10.354a15.101 15.101 0 01-4.45-10.747 15.098 15.098 0 014.438-10.753l4.548-4.553c-6.065-6.206-6.026-16.189.123-22.345l9.373-9.383c6.194-6.201 16.279-6.207 22.482-.014l31.605 31.57c2.998 2.995 4.65 6.986 4.653 11.239.002 4.253-1.645 8.246-4.64 11.244l-9.372 9.383c-2.994 2.998-6.986 4.65-11.239 4.653h-.009c-4.185 0-8.117-1.598-11.097-4.504l-4.548 4.554a15.096 15.096 0 01-10.747 4.449l-.01-.001zm4.169-62.184a.851.851 0 00-.604.241l-9.372 9.383a.878.878 0 000 1.208l5.185 5.179a7.521 7.521 0 01.007 10.638l-9.863 9.875c-.053.053-.053.172 0 .225l10.366 10.354c.052.052.171.053.225 0l9.863-9.875a7.522 7.522 0 0110.638-.006l5.185 5.179a.84.84 0 00.604.24.837.837 0 00.603-.24l9.373-9.383c.198-.198.239-.438.239-.604s-.042-.405-.24-.603l-31.605-31.569a.848.848 0 00-.604-.242z"/><path d="M476.755 126.294c-22.379-38.008-54.374-69.791-92.527-91.912a7.521 7.521 0 00-10.28 2.735 7.52 7.52 0 002.735 10.28 241.766 241.766 0 0144.091 32.815L410.043 91.2c-40.102-37.546-91.612-58.871-146.52-60.658v-15.37c24.599.753 48.722 5.187 71.811 13.235a7.523 7.523 0 004.952-14.206C313.251 4.778 284.893 0 256 0 187.62 0 123.333 26.629 74.981 74.981S0 187.62 0 256s26.629 132.667 74.981 181.019S187.619 512 256 512s132.668-26.629 181.02-74.981S512 324.38 512 256c0-45.693-12.188-90.545-35.245-129.706zM431.61 420.972l-10.867-10.867c37.582-40.111 58.928-91.646 60.716-146.583h15.369c-1.799 59.04-24.742 114.43-65.218 157.45zM15.172 263.522h15.371c.423 12.827 1.911 25.6 4.471 38.067a7.519 7.519 0 008.881 5.855 7.52 7.52 0 005.855-8.88A212.122 212.122 0 0145.447 256C45.447 139.901 139.9 45.447 256 45.447c113.581 0 206.428 90.403 210.404 203.031h-79.269a7.522 7.522 0 100 15.044h79.269c-3.888 110.13-92.752 198.994-202.882 202.882v-111.02a7.522 7.522 0 10-15.044 0v111.033c-51.421-1.832-99.454-22.377-135.948-56.309l80.339-80.339a7.522 7.522 0 00-10.637-10.637l-80.346 80.346a210.32 210.32 0 01-38.64-58.619 7.523 7.523 0 00-13.766 6.07 225.341 225.341 0 0041.763 63.193l-10.853 10.85c-40.476-43.02-63.419-98.41-65.218-157.45zM80.39 91.028l10.867 10.867c-37.582 40.11-58.928 91.646-60.717 146.583H15.172c1.799-59.04 24.742-114.431 65.218-157.45zm21.505.23L91.028 80.39c43.02-40.476 98.41-63.419 157.45-65.218v15.369c-54.937 1.788-106.473 23.135-146.583 60.717zm-.01 329.494c39.276 36.693 91.11 58.869 146.593 60.713v15.362c-59.04-1.799-114.431-24.742-157.45-65.218zm161.637 60.707c54.937-1.788 106.472-23.135 146.583-60.716l10.867 10.867c-43.02 40.475-98.411 63.419-157.451 65.218v-15.369zm233.313-232.981h-15.376c-1.789-54.965-23.156-106.526-60.775-146.646l10.742-11a241.788 241.788 0 0132.364 43.095c20.432 34.699 31.789 74.153 33.045 114.551z"/><path d="M214.932 263.522h25.917l-11.666 11.666a7.521 7.521 0 005.319 12.841c1.925 0 3.85-.735 5.319-2.203l8.658-8.657v29.612a7.522 7.522 0 0015.044 0v-43.258h33.545a7.522 7.522 0 100-15.044h-33.545V205.22a7.522 7.522 0 10-15.044 0v43.258h-33.546a7.522 7.522 0 00-.001 15.044zm123.95-143.728a7.518 7.518 0 01-6.454-3.649l-11.421-19.008a7.522 7.522 0 012.574-10.322 7.521 7.521 0 0110.321 2.573l11.421 19.008a7.522 7.522 0 01-2.574 10.322 7.47 7.47 0 01-3.867 1.076zm-142.378-11.09a7.49 7.49 0 01-2.892-.582 7.521 7.521 0 01-4.047-9.837l8.536-20.466a7.522 7.522 0 0113.885 5.791l-8.536 20.466a7.526 7.526 0 01-6.946 4.628zm8.644 113.911a7.523 7.523 0 01-3.537-14.166l19.581-10.409a7.523 7.523 0 017.062 13.284l-19.581 10.409a7.493 7.493 0 01-3.525.882zm119.82 210.897a7.49 7.49 0 01-3.343-.788l-19.856-9.872a7.522 7.522 0 016.697-13.471l19.856 9.872a7.522 7.522 0 01-3.354 14.259zm85.251-129.013a7.523 7.523 0 01-1.613-14.869l21.654-4.776a7.522 7.522 0 113.24 14.692l-21.654 4.776a7.645 7.645 0 01-1.627.177zm-77.847-28.984a7.523 7.523 0 01-6.089-11.931l12.996-17.967a7.523 7.523 0 0112.19 8.816L338.473 272.4a7.513 7.513 0 01-6.101 3.115zM89.321 227.323a7.482 7.482 0 01-4.261-1.329L66.8 213.413a7.523 7.523 0 018.535-12.389l18.26 12.582a7.523 7.523 0 01-4.274 13.717zm31.749 118.922c-.175 0-.352-.006-.529-.019l-30.33-2.105a7.521 7.521 0 111.042-15.008l30.33 2.105a7.521 7.521 0 016.983 8.025 7.522 7.522 0 01-7.496 7.002z"/></svg>