<svg xmlns="http://www.w3.org/2000/svg" width="899.969" height="855.487"><g data-name="Group 764"><g data-name="Group 262"><g data-name="Group 2"><g data-name="Group 1"><path data-name="Path 1" d="M899.525 855.488a4.033 4.033 0 10-7.265 0z" fill="#FFF"/></g></g><g data-name="Group 4"><g data-name="Group 3"><path data-name="Path 2" d="M899.543 855.488a4.037 4.037 0 10-7.265 0z" fill="#FFF"/></g></g><g data-name="Group 6"><g data-name="Group 5"><path data-name="Path 3" d="M685.283 855.488a4.033 4.033 0 10-7.265 0z" fill="#FFF"/></g></g><g data-name="Group 8"><g data-name="Group 7"><path data-name="Path 4" d="M685.302 855.488a4.037 4.037 0 10-7.265 0z" fill="#FFF"/></g></g><g data-name="Group 10"><g data-name="Group 9"><path data-name="Path 5" d="M471.04 855.488a4.034 4.034 0 10-7.265 0z" fill="#FFF"/></g></g><g data-name="Group 12"><g data-name="Group 11"><path data-name="Path 6" d="M471.06 855.488a4.037 4.037 0 10-7.265 0z" fill="#FFF"/></g></g><g data-name="Group 14"><g data-name="Group 13"><path data-name="Path 7" d="M256.796 855.488a4.033 4.033 0 10-7.265 0z" fill="#FFF"/></g></g><g data-name="Group 18"><g data-name="Group 15"><path data-name="Path 8" d="M895.903 729.494a.539.539 0 01.536.538v123.705a.537.537 0 01-1.074 0V730.032a.539.539 0 01.538-.538z" fill="#FFF"/></g><g data-name="Group 16"><path data-name="Path 9" d="M891.857 730.032a4.044 4.044 0 114.045 4.042 4.044 4.044 0 01-4.045-4.042z" fill="#FFF"/></g><g data-name="Group 17"><path data-name="Path 10" d="M899.532 855.487a3.991 3.991 0 00.415-1.749 4.044 4.044 0 00-8.087 0 3.99 3.99 0 00.415 1.749z" fill="#FFF"/></g></g><g data-name="Group 20"><g data-name="Group 19"><path data-name="Path 11" d="M899.548 855.488a4.033 4.033 0 10-7.265 0z" fill="#FFF"/></g></g><g data-name="Group 24"><g data-name="Group 21"><path data-name="Path 12" d="M895.926 729.494a.539.539 0 01.536.538v123.706a.537.537 0 01-1.074 0V730.032a.539.539 0 01.538-.538z" fill="#FFF"/></g><g data-name="Group 22"><path data-name="Path 13" d="M891.881 730.032a4.044 4.044 0 114.042 4.042 4.042 4.042 0 01-4.042-4.042z" fill="#FFF"/></g><g data-name="Group 23"><path data-name="Path 14" d="M899.554 855.487a3.989 3.989 0 00.415-1.749 4.044 4.044 0 00-8.087 0 3.991 3.991 0 00.415 1.749z" fill="#FFF"/></g></g><g data-name="Group 28"><g data-name="Group 25"><path data-name="Path 15" d="M788.792 667.64a.522.522 0 01.268.074l107.134 61.851a.538.538 0 01-.539.932l-107.131-61.851a.539.539 0 01.268-1.006z" fill="#FFF"/></g><g data-name="Group 26"><path data-name="Path 16" d="M897.945 726.531a4.043 4.043 0 11-5.524 1.479 4.041 4.041 0 015.524-1.479z" fill="#FFF"/></g><g data-name="Group 27"><path data-name="Path 17" d="M790.815 664.676a4.043 4.043 0 101.479 5.524 4.045 4.045 0 00-1.479-5.524z" fill="#FFF"/></g></g><g data-name="Group 32"><g data-name="Group 29"><path data-name="Path 18" d="M788.792 667.64a.539.539 0 01.268 1.006l-107.131 61.851a.538.538 0 11-.538-.932l107.134-61.851a.521.521 0 01.267-.074z" fill="#FFF"/></g><g data-name="Group 30"><path data-name="Path 19" d="M786.771 664.676a4.043 4.043 0 11-1.479 5.524 4.045 4.045 0 011.479-5.524z" fill="#FFF"/></g><g data-name="Group 31"><path data-name="Path 20" d="M679.638 726.531a4.043 4.043 0 105.525 1.479 4.042 4.042 0 00-5.525-1.479z" fill="#FFF"/></g></g><g data-name="Group 36"><g data-name="Group 33"><path data-name="Path 21" d="M681.66 729.494a.539.539 0 01.539.538v123.706a.538.538 0 01-1.077 0V730.032a.539.539 0 01.538-.538z" fill="#FFF"/></g><g data-name="Group 34"><path data-name="Path 22" d="M677.615 730.032a4.044 4.044 0 114.045 4.042 4.042 4.042 0 01-4.045-4.042z" fill="#FFF"/></g><g data-name="Group 35"><path data-name="Path 23" d="M685.29 855.487a3.988 3.988 0 00.412-1.749 4.043 4.043 0 00-8.085 0 3.99 3.99 0 00.415 1.749z" fill="#FFF"/></g></g><g data-name="Group 38"><g data-name="Group 37"><path data-name="Path 24" d="M685.306 855.488a4.034 4.034 0 10-7.265 0z" fill="#FFF"/></g></g><g data-name="Group 40"><g data-name="Group 39"><path data-name="Path 25" d="M899.563 855.488a4.037 4.037 0 10-7.265 0z" fill="#FFF"/></g></g><g data-name="Group 44"><g data-name="Group 41"><path data-name="Path 26" d="M681.681 729.494a.539.539 0 01.538.538v123.706a.538.538 0 01-1.077 0V730.032a.539.539 0 01.539-.538z" fill="#FFF"/></g><g data-name="Group 42"><path data-name="Path 27" d="M677.639 730.032a4.042 4.042 0 114.042 4.042 4.042 4.042 0 01-4.042-4.042z" fill="#FFF"/></g><g data-name="Group 43"><path data-name="Path 28" d="M685.311 855.487a3.989 3.989 0 00.412-1.749 4.043 4.043 0 00-8.085 0 3.99 3.99 0 00.415 1.749z" fill="#FFF"/></g></g><g data-name="Group 48"><g data-name="Group 45"><path data-name="Path 29" d="M574.55 667.64a.522.522 0 01.268.074l107.134 61.851a.538.538 0 01-.538.932l-107.135-61.851a.539.539 0 01.271-1.006z" fill="#FFF"/></g><g data-name="Group 46"><path data-name="Path 30" d="M683.703 726.531a4.043 4.043 0 11-5.526 1.479 4.041 4.041 0 015.526-1.479z" fill="#FFF"/></g><g data-name="Group 47"><path data-name="Path 31" d="M576.57 664.676a4.043 4.043 0 101.481 5.524 4.042 4.042 0 00-1.481-5.524z" fill="#FFF"/></g></g><g data-name="Group 52"><g data-name="Group 49"><path data-name="Path 32" d="M574.55 667.64a.539.539 0 01.268 1.006l-107.132 61.851a.538.538 0 01-.538-.932l107.132-61.851a.538.538 0 01.27-.074z" fill="#FFF"/></g><g data-name="Group 50"><path data-name="Path 33" d="M572.528 664.676a4.043 4.043 0 11-1.479 5.524 4.045 4.045 0 011.479-5.524z" fill="#FFF"/></g><g data-name="Group 51"><path data-name="Path 34" d="M465.395 726.531a4.043 4.043 0 105.521 1.479 4.04 4.04 0 00-5.521-1.479z" fill="#FFF"/></g></g><g data-name="Group 56"><g data-name="Group 53"><path data-name="Path 35" d="M467.415 729.494a.539.539 0 01.538.538v123.705a.538.538 0 01-1.077 0V730.032a.539.539 0 01.539-.538z" fill="#FFF"/></g><g data-name="Group 54"><path data-name="Path 36" d="M463.373 730.032a4.042 4.042 0 114.042 4.042 4.042 4.042 0 01-4.042-4.042z" fill="#FFF"/></g><g data-name="Group 55"><path data-name="Path 37" d="M471.046 855.487a3.99 3.99 0 00.415-1.749 4.043 4.043 0 00-8.085 0 3.988 3.988 0 00.412 1.749z" fill="#FFF"/></g></g><g data-name="Group 58"><g data-name="Group 57"><path data-name="Path 38" d="M471.062 855.488a4.033 4.033 0 10-7.265 0z" fill="#FFF"/></g></g><g data-name="Group 60"><g data-name="Group 59"><path data-name="Path 39" d="M685.325 855.488a4.037 4.037 0 10-7.265 0z" fill="#FFF"/></g></g><g data-name="Group 64"><g data-name="Group 61"><path data-name="Path 40" d="M467.439 729.494a.539.539 0 01.538.538v123.706a.538.538 0 01-1.077 0V730.032a.539.539 0 01.539-.538z" fill="#FFF"/></g><g data-name="Group 62"><path data-name="Path 41" d="M463.402 730.032a4.042 4.042 0 114.042 4.042 4.042 4.042 0 01-4.042-4.042z" fill="#FFF"/></g><g data-name="Group 63"><path data-name="Path 42" d="M471.069 855.487a3.988 3.988 0 00.412-1.749 4.043 4.043 0 00-8.085 0 3.988 3.988 0 00.412 1.749z" fill="#FFF"/></g></g><g data-name="Group 68"><g data-name="Group 65"><path data-name="Path 43" d="M360.305 667.64a.538.538 0 01.271.074l107.131 61.851a.538.538 0 01-.538.932l-107.132-61.851a.539.539 0 01.268-1.006z" fill="#FFF"/></g><g data-name="Group 66"><path data-name="Path 44" d="M469.462 726.531a4.043 4.043 0 11-5.524 1.479 4.041 4.041 0 015.524-1.479z" fill="#FFF"/></g><g data-name="Group 67"><path data-name="Path 45" d="M362.327 664.676a4.043 4.043 0 101.481 5.524 4.045 4.045 0 00-1.481-5.524z" fill="#FFF"/></g></g><g data-name="Group 72"><g data-name="Group 69"><path data-name="Path 46" d="M360.305 667.64a.539.539 0 01.271 1.006l-107.134 61.851a.538.538 0 01-.536-.932l107.132-61.851a.522.522 0 01.267-.074z" fill="#FFF"/></g><g data-name="Group 70"><path data-name="Path 47" d="M358.285 664.676a4.043 4.043 0 11-1.481 5.524 4.046 4.046 0 011.481-5.524z" fill="#FFF"/></g><g data-name="Group 71"><path data-name="Path 48" d="M251.152 726.531a4.043 4.043 0 105.524 1.479 4.041 4.041 0 00-5.524-1.479z" fill="#FFF"/></g></g><g data-name="Group 76"><g data-name="Group 73"><path data-name="Path 49" d="M253.173 729.494a.539.539 0 01.538.538v123.706a.537.537 0 01-1.074 0V730.033a.539.539 0 01.536-.539z" fill="#FFF"/></g><g data-name="Group 74"><path data-name="Path 50" d="M249.131 730.032a4.042 4.042 0 114.042 4.042 4.042 4.042 0 01-4.042-4.042z" fill="#FFF"/></g><g data-name="Group 75"><path data-name="Path 51" d="M256.803 855.487a3.99 3.99 0 00.415-1.749 4.044 4.044 0 00-8.087 0 3.99 3.99 0 00.415 1.749z" fill="#FFF"/></g></g><g data-name="Group 78"><g data-name="Group 77"><path data-name="Path 52" d="M256.82 855.488a4.033 4.033 0 10-7.265 0z" fill="#FFF"/></g></g><g data-name="Group 80"><g data-name="Group 79"><path data-name="Path 53" d="M471.083 855.488a4.038 4.038 0 10-7.265 0z" fill="#FFF"/></g></g><g data-name="Group 84"><g data-name="Group 81"><path data-name="Path 54" d="M788.792 667.64a.522.522 0 01.268.074l107.11 61.851a.538.538 0 01-.539.932l-107.107-61.851a.539.539 0 01.268-1.006z" fill="#FFF"/></g><g data-name="Group 82"><path data-name="Path 55" d="M786.77 671.679a4.043 4.043 0 115.524-1.479 4.041 4.041 0 01-5.524 1.479z" fill="#FFF"/></g><g data-name="Group 83"><path data-name="Path 56" d="M893.88 733.533a4.043 4.043 0 10-1.479-5.524 4.045 4.045 0 001.479 5.524z" fill="#FFF"/></g></g><g data-name="Group 88"><g data-name="Group 85"><path data-name="Path 58" d="M681.66 482.082a.539.539 0 01.268 1.006l-107.132 61.851a.538.538 0 11-.538-.932l107.131-61.851a.538.538 0 01.271-.074z" fill="#FFF"/></g><g data-name="Group 86"><path data-name="Path 59" d="M679.637 479.12a4.043 4.043 0 11-1.481 5.524 4.044 4.044 0 011.481-5.524z" fill="#FFF"/></g><g data-name="Group 87"><path data-name="Path 60" d="M572.504 540.97a4.043 4.043 0 105.524 1.481 4.044 4.044 0 00-5.524-1.481z" fill="#FFF"/></g></g><g data-name="Group 92"><g data-name="Group 89"><path data-name="Path 61" d="M574.526 543.937a.539.539 0 01.538.538v123.7a.538.538 0 11-1.077 0v-123.7a.539.539 0 01.539-.538z" fill="#FFF"/></g><g data-name="Group 90"><path data-name="Path 62" d="M570.484 544.475a4.042 4.042 0 114.042 4.042 4.045 4.045 0 01-4.042-4.042z" fill="#FFF"/></g><g data-name="Group 91"><path data-name="Path 63" d="M570.484 668.177a4.044 4.044 0 104.042-4.042 4.047 4.047 0 00-4.042 4.042z" fill="#FFF"/></g></g><g data-name="Group 96"><g data-name="Group 93"><path data-name="Path 64" d="M574.55 667.64a.522.522 0 01.268.074l107.11 61.851a.538.538 0 11-.538.932l-107.111-61.851a.539.539 0 01.271-1.006z" fill="#FFF"/></g><g data-name="Group 94"><path data-name="Path 65" d="M572.528 671.679a4.043 4.043 0 115.524-1.479 4.041 4.041 0 01-5.524 1.479z" fill="#FFF"/></g><g data-name="Group 95"><path data-name="Path 66" d="M679.637 733.533a4.043 4.043 0 10-1.474-5.523 4.041 4.041 0 001.474 5.523z" fill="#FFF"/></g></g><g data-name="Group 100"><g data-name="Group 97"><path data-name="Path 67" d="M788.792 667.64a.539.539 0 01.268 1.006l-107.131 61.851a.538.538 0 11-.538-.932l107.134-61.851a.521.521 0 01.267-.074z" fill="#FFF"/></g><g data-name="Group 98"><path data-name="Path 68" d="M683.68 733.533a4.043 4.043 0 111.483-5.523 4.043 4.043 0 01-1.483 5.523z" fill="#FFF"/></g><g data-name="Group 99"><path data-name="Path 69" d="M790.816 671.679a4.043 4.043 0 10-5.524-1.479 4.041 4.041 0 005.524 1.479z" fill="#FFF"/></g></g><g data-name="Group 104"><g data-name="Group 101"><path data-name="Path 70" d="M574.549 543.937a.539.539 0 01.538.538v123.707a.538.538 0 01-1.077 0v-123.7a.539.539 0 01.539-.545z" fill="#FFF"/></g><g data-name="Group 102"><path data-name="Path 71" d="M570.507 544.472a4.042 4.042 0 114.042 4.045 4.044 4.044 0 01-4.042-4.045z" fill="#FFF"/></g><g data-name="Group 103"><path data-name="Path 72" d="M570.507 668.177a4.042 4.042 0 104.042-4.042 4.044 4.044 0 00-4.042 4.042z" fill="#FFF"/></g></g><g data-name="Group 108"><g data-name="Group 105"><path data-name="Path 73" d="M467.416 482.082a.538.538 0 01.271.074l107.131 61.851a.538.538 0 01-.539.932l-107.131-61.851a.539.539 0 01.268-1.006z" fill="#FFF"/></g><g data-name="Group 106"><path data-name="Path 74" d="M576.57 540.97a4.043 4.043 0 11-5.521 1.481 4.045 4.045 0 015.521-1.481z" fill="#FFF"/></g><g data-name="Group 107"><path data-name="Path 75" d="M469.438 479.12a4.043 4.043 0 101.479 5.524 4.044 4.044 0 00-1.479-5.524z" fill="#FFF"/></g></g><g data-name="Group 112"><g data-name="Group 109"><path data-name="Path 76" d="M467.413 482.082a.539.539 0 01.271 1.006l-107.132 61.851a.538.538 0 01-.538-.932l107.134-61.851a.522.522 0 01.265-.074z" fill="#FFF"/></g><g data-name="Group 110"><path data-name="Path 77" d="M465.395 479.12a4.043 4.043 0 11-1.481 5.524 4.041 4.041 0 011.481-5.524z" fill="#FFF"/></g><g data-name="Group 111"><path data-name="Path 78" d="M358.262 540.97a4.043 4.043 0 105.524 1.481 4.044 4.044 0 00-5.524-1.481z" fill="#FFF"/></g></g><g data-name="Group 116"><g data-name="Group 113"><path data-name="Path 79" d="M360.284 543.937a.539.539 0 01.538.538v123.707a.537.537 0 11-1.074 0v-123.7a.539.539 0 01.536-.545z" fill="#FFF"/></g><g data-name="Group 114"><path data-name="Path 80" d="M356.243 544.475a4.042 4.042 0 114.042 4.042 4.044 4.044 0 01-4.042-4.042z" fill="#FFF"/></g><g data-name="Group 115"><path data-name="Path 81" d="M356.243 668.177a4.042 4.042 0 104.042-4.042 4.044 4.044 0 00-4.042 4.042z" fill="#FFF"/></g></g><g data-name="Group 120"><g data-name="Group 117"><path data-name="Path 82" d="M360.305 667.64a.538.538 0 01.271.074l107.111 61.851a.538.538 0 01-.538.932l-107.112-61.851a.539.539 0 01.268-1.006z" fill="#FFF"/></g><g data-name="Group 118"><path data-name="Path 83" d="M358.285 671.679a4.043 4.043 0 115.521-1.479 4.042 4.042 0 01-5.521 1.479z" fill="#FFF"/></g><g data-name="Group 119"><path data-name="Path 84" d="M465.394 733.533a4.043 4.043 0 10-1.479-5.524 4.044 4.044 0 001.479 5.524z" fill="#FFF"/></g></g><g data-name="Group 124"><g data-name="Group 121"><path data-name="Path 85" d="M574.55 667.64a.539.539 0 01.268 1.006l-107.132 61.851a.538.538 0 01-.538-.932l107.132-61.851a.538.538 0 01.27-.074z" fill="#FFF"/></g><g data-name="Group 122"><path data-name="Path 86" d="M469.438 733.533a4.043 4.043 0 111.479-5.524 4.043 4.043 0 01-1.479 5.524z" fill="#FFF"/></g><g data-name="Group 123"><path data-name="Path 87" d="M576.57 671.679a4.043 4.043 0 10-5.521-1.479 4.042 4.042 0 005.521 1.479z" fill="#FFF"/></g></g><g data-name="Group 128"><g data-name="Group 125"><path data-name="Path 88" d="M360.306 543.937a.539.539 0 01.538.538v123.707a.537.537 0 11-1.074 0v-123.7a.537.537 0 01.536-.545z" fill="#FFF"/></g><g data-name="Group 126"><path data-name="Path 89" d="M356.263 544.472a4.044 4.044 0 114.042 4.045 4.044 4.044 0 01-4.042-4.045z" fill="#FFF"/></g><g data-name="Group 127"><path data-name="Path 90" d="M356.263 668.177a4.044 4.044 0 104.042-4.042 4.044 4.044 0 00-4.042 4.042z" fill="#FFF"/></g></g><g data-name="Group 132"><g data-name="Group 129"><path data-name="Path 91" d="M253.174 482.082a.522.522 0 01.268.074l107.134 61.851a.538.538 0 11-.538.932l-107.132-61.851a.539.539 0 01.268-1.006z" fill="#FFF"/></g><g data-name="Group 130"><path data-name="Path 92" d="M362.328 540.97a4.043 4.043 0 11-5.524 1.481 4.045 4.045 0 015.524-1.481z" fill="#FFF"/></g><g data-name="Group 131"><path data-name="Path 93" d="M255.197 479.12a4.043 4.043 0 101.479 5.524 4.044 4.044 0 00-1.479-5.524z" fill="#FFF"/></g></g><g data-name="Group 136"><g data-name="Group 133"><path data-name="Path 94" d="M253.173 482.082a.539.539 0 01.268 1.006L146.31 544.939a.538.538 0 11-.538-.932l107.133-61.851a.522.522 0 01.268-.074z" fill="#FFF"/></g><g data-name="Group 134"><path data-name="Path 95" d="M251.152 479.12a4.043 4.043 0 11-1.479 5.524 4.044 4.044 0 011.479-5.524z" fill="#FFF"/></g><g data-name="Group 135"><path data-name="Path 96" d="M144.019 540.97a4.043 4.043 0 105.524 1.481 4.042 4.042 0 00-5.524-1.481z" fill="#FFF"/></g></g><g data-name="Group 140"><g data-name="Group 137"><path data-name="Path 97" d="M146.042 543.937a.537.537 0 01.536.538v123.7a.538.538 0 01-1.077 0v-123.7a.539.539 0 01.541-.538z" fill="#FFF"/></g><g data-name="Group 138"><circle data-name="Ellipse 1" cx="4.043" cy="4.043" r="4.043" transform="rotate(-45 727.4 102.852)" fill="#FFF"/></g><g data-name="Group 139"><path data-name="Path 98" d="M142 668.178a4.042 4.042 0 104.042-4.042 4.044 4.044 0 00-4.042 4.042z" fill="#FFF"/></g></g><g data-name="Group 144"><g data-name="Group 141"><path data-name="Path 99" d="M146.063 667.64a.538.538 0 01.271.074l107.108 61.851a.538.538 0 01-.536.932l-107.111-61.851a.539.539 0 01.268-1.006z" fill="#FFF"/></g><g data-name="Group 142"><path data-name="Path 100" d="M144.041 671.679a4.043 4.043 0 115.524-1.479 4.041 4.041 0 01-5.524 1.479z" fill="#FFF"/></g><g data-name="Group 143"><path data-name="Path 101" d="M251.152 733.533a4.043 4.043 0 10-1.479-5.524 4.045 4.045 0 001.479 5.524z" fill="#FFF"/></g></g><g data-name="Group 148"><g data-name="Group 145"><path data-name="Path 102" d="M360.305 667.64a.539.539 0 01.271 1.006l-107.134 61.851a.538.538 0 01-.536-.932l107.132-61.851a.522.522 0 01.267-.074z" fill="#FFF"/></g><g data-name="Group 146"><path data-name="Path 103" d="M255.197 733.533a4.043 4.043 0 111.479-5.524 4.042 4.042 0 01-1.479 5.524z" fill="#FFF"/></g><g data-name="Group 147"><path data-name="Path 104" d="M362.328 671.679a4.043 4.043 0 10-5.524-1.479 4.042 4.042 0 005.524 1.479z" fill="#FFF"/></g></g><g data-name="Group 152"><g data-name="Group 149"><path data-name="Path 108" d="M574.55 296.524a.539.539 0 01.268 1.006l-107.132 61.854a.538.538 0 01-.538-.932l107.132-61.854a.538.538 0 01.27-.074z" fill="#FFF"/></g><g data-name="Group 150"><path data-name="Path 109" d="M572.528 293.564a4.043 4.043 0 11-1.479 5.521 4.044 4.044 0 011.479-5.521z" fill="#FFF"/></g><g data-name="Group 151"><path data-name="Path 110" d="M465.395 355.415a4.043 4.043 0 105.521 1.479 4.043 4.043 0 00-5.521-1.479z" fill="#FFF"/></g></g><g data-name="Group 156"><g data-name="Group 153"><path data-name="Path 111" d="M467.415 358.377a.539.539 0 01.538.538V482.62a.538.538 0 01-1.077 0V358.915a.539.539 0 01.539-.538z" fill="#FFF"/></g><g data-name="Group 154"><path data-name="Path 112" d="M463.373 358.915a4.042 4.042 0 114.042 4.042 4.042 4.042 0 01-4.042-4.042z" fill="#FFF"/></g><g data-name="Group 155"><path data-name="Path 113" d="M463.376 482.62a4.042 4.042 0 104.042-4.042 4.042 4.042 0 00-4.042 4.042z" fill="#FFF"/></g></g><g data-name="Group 160"><g data-name="Group 157"><path data-name="Path 114" d="M467.44 482.082a.522.522 0 01.268.074l107.111 61.851a.538.538 0 01-.538.932l-107.109-61.851a.539.539 0 01.271-1.006z" fill="#FFF"/></g><g data-name="Group 158"><path data-name="Path 115" d="M465.418 486.122a4.043 4.043 0 115.524-1.479 4.044 4.044 0 01-5.524 1.479z" fill="#FFF"/></g><g data-name="Group 159"><path data-name="Path 116" d="M572.529 547.974a4.042 4.042 0 10-1.479-5.521 4.044 4.044 0 001.479 5.521z" fill="#FFF"/></g></g><g data-name="Group 164"><g data-name="Group 161"><path data-name="Path 117" d="M681.681 482.082a.539.539 0 01.271 1.006l-107.134 61.851a.538.538 0 01-.539-.932l107.134-61.851a.522.522 0 01.268-.074z" fill="#FFF"/></g><g data-name="Group 162"><path data-name="Path 118" d="M576.57 547.973a4.043 4.043 0 111.481-5.521 4.041 4.041 0 01-1.481 5.521z" fill="#FFF"/></g><g data-name="Group 163"><path data-name="Path 119" d="M683.703 486.122a4.043 4.043 0 10-5.526-1.478 4.044 4.044 0 005.526 1.478z" fill="#FFF"/></g></g><g data-name="Group 168"><g data-name="Group 165"><path data-name="Path 120" d="M467.439 358.377a.539.539 0 01.538.538v123.706a.538.538 0 11-1.077 0V358.915a.539.539 0 01.539-.538z" fill="#FFF"/></g><g data-name="Group 166"><path data-name="Path 121" d="M463.402 358.915a4.042 4.042 0 114.042 4.042 4.042 4.042 0 01-4.042-4.042z" fill="#FFF"/></g><g data-name="Group 167"><path data-name="Path 122" d="M463.402 482.62a4.042 4.042 0 104.042-4.042 4.042 4.042 0 00-4.042 4.042z" fill="#FFF"/></g></g><g data-name="Group 172"><g data-name="Group 169"><path data-name="Path 123" d="M360.305 296.524a.538.538 0 01.271.074l107.131 61.854a.538.538 0 01-.538.932L360.037 297.53a.539.539 0 01.268-1.006z" fill="#FFF"/></g><g data-name="Group 170"><path data-name="Path 124" d="M469.462 355.415a4.043 4.043 0 11-5.524 1.479 4.044 4.044 0 015.524-1.479z" fill="#FFF"/></g><g data-name="Group 171"><path data-name="Path 125" d="M362.327 293.564a4.043 4.043 0 101.481 5.521 4.044 4.044 0 00-1.481-5.521z" fill="#FFF"/></g></g><g data-name="Group 176"><g data-name="Group 173"><path data-name="Path 126" d="M360.305 296.524a.539.539 0 01.271 1.006l-107.134 61.854a.538.538 0 01-.536-.932l107.132-61.854a.522.522 0 01.267-.074z" fill="#FFF"/></g><g data-name="Group 174"><path data-name="Path 127" d="M358.285 293.564a4.043 4.043 0 11-1.481 5.521 4.045 4.045 0 011.481-5.521z" fill="#FFF"/></g><g data-name="Group 175"><path data-name="Path 128" d="M251.152 355.415a4.043 4.043 0 105.524 1.479 4.044 4.044 0 00-5.524-1.479z" fill="#FFF"/></g></g><g data-name="Group 180"><g data-name="Group 177"><path data-name="Path 129" d="M253.173 358.377a.539.539 0 01.538.538v123.706a.537.537 0 11-1.074 0V358.916a.539.539 0 01.536-.539z" fill="#FFF"/></g><g data-name="Group 178"><path data-name="Path 130" d="M249.131 358.915a4.042 4.042 0 114.042 4.042 4.042 4.042 0 01-4.042-4.042z" fill="#FFF"/></g><g data-name="Group 179"><path data-name="Path 131" d="M249.131 482.62a4.044 4.044 0 104.045-4.042 4.044 4.044 0 00-4.045 4.042z" fill="#FFF"/></g></g><g data-name="Group 184"><g data-name="Group 181"><path data-name="Path 132" d="M253.197 482.082a.522.522 0 01.268.074l107.111 61.851a.538.538 0 01-.538.932L252.93 483.088a.539.539 0 01.268-1.006z" fill="#FFF"/></g><g data-name="Group 182"><path data-name="Path 133" d="M251.176 486.122a4.043 4.043 0 115.524-1.479 4.044 4.044 0 01-5.524 1.479z" fill="#FFF"/></g><g data-name="Group 183"><path data-name="Path 134" d="M358.287 547.974a4.042 4.042 0 10-1.479-5.521 4.041 4.041 0 001.479 5.521z" fill="#FFF"/></g></g><g data-name="Group 188"><g data-name="Group 185"><path data-name="Path 135" d="M467.439 482.082a.539.539 0 01.268 1.006l-107.131 61.851a.538.538 0 01-.538-.932l107.131-61.851a.538.538 0 01.27-.074z" fill="#FFF"/></g><g data-name="Group 186"><path data-name="Path 136" d="M362.327 547.973a4.043 4.043 0 111.481-5.521 4.044 4.044 0 01-1.481 5.521z" fill="#FFF"/></g><g data-name="Group 187"><path data-name="Path 137" d="M469.462 486.122a4.043 4.043 0 10-5.524-1.479 4.044 4.044 0 005.524 1.479z" fill="#FFF"/></g></g><g data-name="Group 192"><g data-name="Group 189"><path data-name="Path 138" d="M574.526 172.821a.539.539 0 01.538.538v123.7a.538.538 0 11-1.077 0v-123.7a.539.539 0 01.539-.538z" fill="#FFF"/></g><g data-name="Group 190"><path data-name="Path 139" d="M570.484 173.359a4.042 4.042 0 114.042 4.042 4.045 4.045 0 01-4.042-4.042z" fill="#FFF"/></g><g data-name="Group 191"><path data-name="Path 140" d="M570.484 297.064a4.044 4.044 0 104.042-4.045 4.045 4.045 0 00-4.042 4.045z" fill="#FFF"/></g></g><g data-name="Group 196"><g data-name="Group 193"><path data-name="Path 141" d="M574.549 172.821a.539.539 0 01.538.538v123.7a.538.538 0 01-1.077 0V173.357a.539.539 0 01.539-.536z" fill="#FFF"/></g><g data-name="Group 194"><path data-name="Path 142" d="M570.507 173.359a4.042 4.042 0 114.042 4.042 4.044 4.044 0 01-4.042-4.042z" fill="#FFF"/></g><g data-name="Group 195"><path data-name="Path 143" d="M570.507 297.064a4.042 4.042 0 104.042-4.045 4.042 4.042 0 00-4.042 4.045z" fill="#FFF"/></g></g><g data-name="Group 200"><g data-name="Group 197"><path data-name="Path 144" d="M467.416 110.966a.538.538 0 01.271.074l107.131 61.851a.538.538 0 01-.539.932l-107.131-61.854a.538.538 0 01.268-1z" fill="#FFF"/></g><g data-name="Group 198"><path data-name="Path 145" d="M576.57 169.858a4.043 4.043 0 11-5.521 1.479 4.042 4.042 0 015.521-1.479z" fill="#FFF"/></g><g data-name="Group 199"><path data-name="Path 146" d="M469.438 108.003a4.043 4.043 0 101.479 5.524 4.043 4.043 0 00-1.479-5.524z" fill="#FFF"/></g></g><g data-name="Group 204"><g data-name="Group 201"><path data-name="Path 147" d="M467.413 110.966a.538.538 0 01.271 1l-107.132 61.857a.538.538 0 01-.538-.932l107.134-61.851a.522.522 0 01.265-.074z" fill="#FFF"/></g><g data-name="Group 202"><path data-name="Path 148" d="M465.395 108.003a4.043 4.043 0 11-1.481 5.524 4.04 4.04 0 011.481-5.524z" fill="#FFF"/></g><g data-name="Group 203"><path data-name="Path 149" d="M358.262 169.858a4.043 4.043 0 105.524 1.479 4.041 4.041 0 00-5.524-1.479z" fill="#FFF"/></g></g><g data-name="Group 208"><g data-name="Group 205"><path data-name="Path 150" d="M360.284 172.821a.539.539 0 01.538.538v123.7a.537.537 0 11-1.074 0v-123.7a.539.539 0 01.536-.538z" fill="#FFF"/></g><g data-name="Group 206"><path data-name="Path 151" d="M356.243 173.359a4.042 4.042 0 114.042 4.042 4.044 4.044 0 01-4.042-4.042z" fill="#FFF"/></g><g data-name="Group 207"><path data-name="Path 152" d="M356.243 297.064a4.042 4.042 0 104.042-4.045 4.042 4.042 0 00-4.042 4.045z" fill="#FFF"/></g></g><g data-name="Group 212"><g data-name="Group 209"><path data-name="Path 153" d="M360.305 296.524a.538.538 0 01.271.074l107.111 61.854a.538.538 0 01-.538.932L360.037 297.53a.539.539 0 01.268-1.006z" fill="#FFF"/></g><g data-name="Group 210"><path data-name="Path 154" d="M358.285 300.566a4.043 4.043 0 115.521-1.481 4.045 4.045 0 01-5.521 1.481z" fill="#FFF"/></g><g data-name="Group 211"><path data-name="Path 155" d="M465.394 362.417a4.043 4.043 0 10-1.479-5.524 4.044 4.044 0 001.479 5.524z" fill="#FFF"/></g></g><g data-name="Group 216"><g data-name="Group 213"><path data-name="Path 156" d="M574.55 296.524a.539.539 0 01.268 1.006l-107.132 61.854a.538.538 0 01-.538-.932l107.132-61.854a.538.538 0 01.27-.074z" fill="#FFF"/></g><g data-name="Group 214"><path data-name="Path 157" d="M469.438 362.417a4.043 4.043 0 111.479-5.524 4.044 4.044 0 01-1.479 5.524z" fill="#FFF"/></g><g data-name="Group 215"><path data-name="Path 158" d="M576.57 300.566a4.043 4.043 0 10-5.521-1.481 4.045 4.045 0 005.521 1.481z" fill="#FFF"/></g></g><g data-name="Group 220"><g data-name="Group 217"><path data-name="Path 159" d="M360.306 172.821a.539.539 0 01.538.538v123.7a.537.537 0 11-1.074 0V173.357a.537.537 0 01.536-.536z" fill="#FFF"/></g><g data-name="Group 218"><path data-name="Path 160" d="M356.263 173.359a4.044 4.044 0 114.042 4.042 4.044 4.044 0 01-4.042-4.042z" fill="#FFF"/></g><g data-name="Group 219"><path data-name="Path 161" d="M356.263 297.064a4.044 4.044 0 104.042-4.045 4.042 4.042 0 00-4.042 4.045z" fill="#FFF"/></g></g><g data-name="Group 224"><g data-name="Group 221"><path data-name="Path 162" d="M253.174 110.966a.522.522 0 01.268.074l107.134 61.851a.538.538 0 11-.538.932l-107.132-61.854a.538.538 0 01.268-1z" fill="#FFF"/></g><g data-name="Group 222"><path data-name="Path 163" d="M362.328 169.858a4.043 4.043 0 11-5.524 1.479 4.042 4.042 0 015.524-1.479z" fill="#FFF"/></g><g data-name="Group 223"><path data-name="Path 164" d="M255.197 108.003a4.043 4.043 0 101.479 5.524 4.042 4.042 0 00-1.479-5.524z" fill="#FFF"/></g></g><g data-name="Group 228"><g data-name="Group 225"><path data-name="Path 165" d="M253.173 110.966a.538.538 0 01.268 1L146.31 173.823a.538.538 0 01-.538-.932l107.133-61.851a.522.522 0 01.268-.074z" fill="#FFF"/></g><g data-name="Group 226"><path data-name="Path 166" d="M251.152 108.003a4.043 4.043 0 11-1.479 5.524 4.042 4.042 0 011.479-5.524z" fill="#FFF"/></g><g data-name="Group 227"><path data-name="Path 167" d="M144.019 169.858a4.043 4.043 0 105.524 1.479 4.039 4.039 0 00-5.524-1.479z" fill="#FFF"/></g></g><g data-name="Group 232"><g data-name="Group 229"><path data-name="Path 168" d="M146.042 172.821a.537.537 0 01.536.538v123.7a.538.538 0 01-1.077 0V173.357a.539.539 0 01.541-.536z" fill="#FFF"/></g><g data-name="Group 230"><path data-name="Path 169" d="M141.997 173.359a4.044 4.044 0 114.045 4.042 4.044 4.044 0 01-4.045-4.042z" fill="#FFF"/></g><g data-name="Group 231"><path data-name="Path 170" d="M142 297.064a4.042 4.042 0 104.042-4.045 4.042 4.042 0 00-4.042 4.045z" fill="#FFF"/></g></g><g data-name="Group 236"><g data-name="Group 233"><path data-name="Path 171" d="M146.063 296.524a.538.538 0 01.271.074l107.108 61.854a.538.538 0 01-.536.932L145.795 297.53a.539.539 0 01.268-1.006z" fill="#FFF"/></g><g data-name="Group 234"><path data-name="Path 172" d="M144.041 300.566a4.043 4.043 0 115.524-1.481 4.044 4.044 0 01-5.524 1.481z" fill="#FFF"/></g><g data-name="Group 235"><path data-name="Path 173" d="M251.152 362.417a4.043 4.043 0 10-1.479-5.524 4.044 4.044 0 001.479 5.524z" fill="#FFF"/></g></g><g data-name="Group 240"><g data-name="Group 237"><path data-name="Path 174" d="M360.305 296.524a.539.539 0 01.271 1.006l-107.134 61.854a.538.538 0 01-.536-.932l107.132-61.854a.522.522 0 01.267-.074z" fill="#FFF"/></g><g data-name="Group 238"><path data-name="Path 175" d="M255.197 362.417a4.043 4.043 0 111.479-5.524 4.044 4.044 0 01-1.479 5.524z" fill="#FFF"/></g><g data-name="Group 239"><path data-name="Path 176" d="M362.328 300.566a4.043 4.043 0 10-5.524-1.481 4.045 4.045 0 005.524 1.481z" fill="#FFF"/></g></g><g data-name="Group 243"><g data-name="Group 241"><path data-name="Path 177" d="M466.88 0v111.5a.538.538 0 101.077 0V0z" fill="#FFF"/></g><g data-name="Group 242"><path data-name="Path 178" d="M463.376 111.504a4.042 4.042 0 104.042-4.042 4.042 4.042 0 00-4.042 4.042z" fill="#FFF"/></g></g><g data-name="Group 247"><g data-name="Group 244"><path data-name="Path 179" d="M467.44 110.966a.522.522 0 01.268.074l107.11 61.851a.538.538 0 01-.538.932l-107.108-61.854a.538.538 0 01.271-1z" fill="#FFF"/></g><g data-name="Group 245"><path data-name="Path 180" d="M465.418 115.006a4.043 4.043 0 115.524-1.479 4.044 4.044 0 01-5.524 1.479z" fill="#FFF"/></g><g data-name="Group 246"><path data-name="Path 181" d="M572.529 176.86a4.043 4.043 0 10-1.479-5.524 4.043 4.043 0 001.479 5.524z" fill="#FFF"/></g></g><g data-name="Group 250"><g data-name="Group 248"><path data-name="Path 182" d="M466.901 0v111.5a.538.538 0 101.077 0V0z" fill="#FFF"/></g><g data-name="Group 249"><path data-name="Path 183" d="M463.402 111.504a4.042 4.042 0 104.042-4.042 4.042 4.042 0 00-4.042 4.042z" fill="#FFF"/></g></g><g data-name="Group 253"><g data-name="Group 251"><path data-name="Path 184" d="M252.635 0v111.5a.537.537 0 101.074 0V0z" fill="#FFF"/></g><g data-name="Group 252"><path data-name="Path 185" d="M249.131 111.504a4.044 4.044 0 104.045-4.042 4.044 4.044 0 00-4.045 4.042z" fill="#FFF"/></g></g><g data-name="Group 257"><g data-name="Group 254"><path data-name="Path 186" d="M253.197 110.966a.522.522 0 01.268.074l107.111 61.851a.538.538 0 01-.538.932L252.93 111.969a.538.538 0 01.268-1z" fill="#FFF"/></g><g data-name="Group 255"><path data-name="Path 187" d="M251.176 115.006a4.043 4.043 0 115.524-1.479 4.044 4.044 0 01-5.524 1.479z" fill="#FFF"/></g><g data-name="Group 256"><path data-name="Path 188" d="M358.287 176.86a4.043 4.043 0 10-1.479-5.524 4.04 4.04 0 001.479 5.524z" fill="#FFF"/></g></g><g data-name="Group 261"><g data-name="Group 258"><path data-name="Path 189" d="M467.439 110.966a.538.538 0 01.268 1l-107.131 61.857a.538.538 0 01-.538-.932l107.131-61.851a.538.538 0 01.27-.074z" fill="#FFF"/></g><g data-name="Group 259"><path data-name="Path 190" d="M362.327 176.86a4.043 4.043 0 111.481-5.524 4.045 4.045 0 01-1.481 5.524z" fill="#FFF"/></g><g data-name="Group 260"><path data-name="Path 191" d="M469.462 115.005a4.043 4.043 0 10-5.524-1.479 4.041 4.041 0 005.524 1.479z" fill="#FFF"/></g></g></g><g data-name="Group 295"><g data-name="Group 263"><path data-name="Path 192" d="M11.229 0H9.075l84.868 49a.538.538 0 10.538-.932z" fill="#FFF"/></g><g data-name="Group 264"><path data-name="Path 193" d="M0 222.928l94.5-54.56a.538.538 0 10-.538-.932L0 221.686z" fill="#FFF"/></g><g data-name="Group 265"><path data-name="Path 194" d="M94.232 47.993a.539.539 0 01.538.538V167.9a.538.538 0 11-1.077 0V48.531a.539.539 0 01.539-.538z" fill="#FFF"/></g><g data-name="Group 266"><path data-name="Path 195" d="M11.244 0H9.093l84.85 49a.538.538 0 10.538-.932z" fill="#FFF"/></g><g data-name="Group 267"><path data-name="Path 196" d="M94.211 47.993a.539.539 0 01.538.538V167.9a.538.538 0 11-1.077 0V48.531a.539.539 0 01.539-.538z" fill="#FFF"/></g><g data-name="Group 268"><path data-name="Path 197" d="M94.212 167.362a.538.538 0 01.271.074l103.378 59.684a.538.538 0 01-.538.932L93.94 168.368a.539.539 0 01.268-1.006z" fill="#FFF"/></g><g data-name="Group 269"><path data-name="Path 198" d="M0 352.869l93.943 54.237a.538.538 0 10.538-.932L-.001 351.627z" fill="#FFF"/></g><g data-name="Group 270"><path data-name="Path 199" d="M197.59 346.418a.537.537 0 01.271 1L94.482 407.106a.538.538 0 11-.538-.932l103.378-59.684a.545.545 0 01.268-.072z" fill="#FFF"/></g><g data-name="Group 271"><path data-name="Path 200" d="M197.589 227.049a.537.537 0 01.538.536v119.371a.537.537 0 01-1.074 0V227.584a.537.537 0 01.536-.535z" fill="#FFF"/></g><g data-name="Group 272"><path data-name="Path 201" d="M94.212 167.362a.538.538 0 01.271.074L197.84 227.12a.538.538 0 01-.538.932L93.94 168.368a.539.539 0 01.268-1.006z" fill="#FFF"/></g><g data-name="Group 273"><path data-name="Path 202" d="M0 222.915l94.482-54.547a.539.539 0 00-.271-1.006.522.522 0 00-.268.074L0 221.676z" fill="#FFF"/></g><g data-name="Group 274"><path data-name="Path 203" d="M197.568 227.049a.537.537 0 01.538.536v119.371a.538.538 0 01-1.077 0V227.585a.537.537 0 01.539-.536z" fill="#FFF"/></g><g data-name="Group 275"><path data-name="Path 204" d="M0 581.038l94.5-54.563a.537.537 0 10-.538-.93l-93.964 54.25z" fill="#FFF"/></g><g data-name="Group 276"><path data-name="Path 205" d="M94.232 406.103a.539.539 0 01.538.538V526.01a.538.538 0 01-1.077 0V406.641a.539.539 0 01.539-.538z" fill="#FFF"/></g><g data-name="Group 277"><path data-name="Path 206" d="M0 352.859l93.943 54.247a.538.538 0 10.538-.932l-94.482-54.56z" fill="#FFF"/></g><g data-name="Group 278"><path data-name="Path 207" d="M94.211 406.103a.539.539 0 01.538.538V526.01a.538.538 0 01-1.077 0V406.641a.539.539 0 01.539-.538z" fill="#FFF"/></g><g data-name="Group 279"><path data-name="Path 208" d="M94.212 525.472a.538.538 0 01.271.074l103.378 59.684a.538.538 0 11-.538.932L93.94 526.475a.538.538 0 01.268-1z" fill="#FFF"/></g><g data-name="Group 280"><path data-name="Path 209" d="M197.59 346.418a.537.537 0 01.271 1L94.482 407.106a.538.538 0 11-.538-.932l103.378-59.684a.545.545 0 01.268-.072z" fill="#FFF"/></g><g data-name="Group 281"><path data-name="Path 210" d="M0 710.978l93.943 54.237a.538.538 0 10.538-.932L-.001 709.736z" fill="#FFF"/></g><g data-name="Group 282"><path data-name="Path 211" d="M197.59 704.533a.537.537 0 01.271 1L94.482 765.216a.538.538 0 11-.538-.932L197.322 704.6a.519.519 0 01.268-.067z" fill="#FFF"/></g><g data-name="Group 283"><path data-name="Path 212" d="M197.589 585.156a.539.539 0 01.538.538v119.369a.537.537 0 11-1.074 0V585.694a.539.539 0 01.536-.538z" fill="#FFF"/></g><g data-name="Group 284"><path data-name="Path 213" d="M94.212 525.472a.538.538 0 01.271.074L197.84 585.23a.538.538 0 11-.538.932L93.94 526.475a.538.538 0 01.268-1z" fill="#FFF"/></g><g data-name="Group 285"><path data-name="Path 214" d="M0 581.025l94.482-54.549a.538.538 0 00-.271-1 .522.522 0 00-.268.074L0 579.787z" fill="#FFF"/></g><g data-name="Group 286"><path data-name="Path 215" d="M197.568 585.156a.539.539 0 01.538.538v119.369a.538.538 0 11-1.077 0V585.694a.539.539 0 01.539-.538z" fill="#FFF"/></g><g data-name="Group 287"><path data-name="Path 216" d="M197.569 704.533a.519.519 0 01.268.071l103.381 59.679a.538.538 0 01-.538.932l-103.382-59.682a.539.539 0 01-.194-.735.532.532 0 01.465-.265z" fill="#FFF"/></g><g data-name="Group 288"><path data-name="Path 217" d="M94.771 855.487V764.75a.538.538 0 00-1.077 0v90.736z" fill="#FFF"/></g><g data-name="Group 289"><path data-name="Path 218" d="M0 710.965l93.943 54.25a.538.538 0 10.538-.932l-94.482-54.56z" fill="#FFF"/></g><g data-name="Group 290"><path data-name="Path 219" d="M94.75 855.487V764.75a.538.538 0 00-1.077 0v90.736z" fill="#FFF"/></g><g data-name="Group 291"><path data-name="Path 220" d="M301.506 855.487V764.75a.538.538 0 00-1.077 0v90.736z" fill="#FFF"/></g><g data-name="Group 292"><path data-name="Path 221" d="M197.59 704.533a.535.535 0 01.271.071l103.357 59.679a.538.538 0 01-.538.932l-103.358-59.682a.537.537 0 01.268-1z" fill="#FFF"/></g><g data-name="Group 293"><path data-name="Path 222" d="M197.59 704.533a.537.537 0 01.271 1L94.482 765.216a.538.538 0 11-.538-.932L197.322 704.6a.519.519 0 01.268-.067z" fill="#FFF"/></g><g data-name="Group 294"><path data-name="Path 223" d="M301.485 855.487V764.75a.538.538 0 00-1.077 0v90.736z" fill="#FFF"/></g></g><g data-name="Group 763"><g data-name="Group 303"><g data-name="Group 298"><g data-name="Group 296"><path data-name="Path 224" d="M0 35.251l19.495 11.255a.543.543 0 00.734-.197.536.536 0 00-.2-.733L0 34.009z" fill="#FFF"/></g><g data-name="Group 297"><path data-name="Path 225" d="M17.742 49.54a4.041 4.041 0 005.521-1.476 4.044 4.044 0 00-1.478-5.524 4.043 4.043 0 00-5.522 1.481 4.04 4.04 0 001.479 5.519z" fill="#FFF"/></g></g><g data-name="Group 302"><g data-name="Group 299"><path data-name="Path 226" d="M83.271 8.836a.539.539 0 01.468.271.54.54 0 01-.2.735L20.035 46.504a.542.542 0 01-.735-.2.536.536 0 01.2-.733L83.003 8.91a.536.536 0 01.268-.074z" fill="#FFF"/></g><g data-name="Group 300"><path data-name="Path 227" d="M21.785 49.54a4.044 4.044 0 01-5.522-1.476 4.043 4.043 0 011.479-5.524 4.04 4.04 0 015.521 1.481 4.041 4.041 0 01-1.478 5.519z" fill="#FFF"/></g><g data-name="Group 301"><path data-name="Path 228" d="M85.294 12.875a4.039 4.039 0 001.479-5.521 4.042 4.042 0 00-5.521-1.481 4.042 4.042 0 00-1.479 5.524 4.041 4.041 0 005.521 1.478z" fill="#FFF"/></g></g></g><g data-name="Group 308"><g data-name="Group 307"><g data-name="Group 304"><path data-name="Path 229" d="M83.257 8.836a.538.538 0 01.271.074l63.51 36.667a.537.537 0 11-.538.93L82.99 9.842a.54.54 0 01-.2-.735.538.538 0 01.467-.271z" fill="#FFF"/></g><g data-name="Group 305"><path data-name="Path 230" d="M81.238 12.875a4.042 4.042 0 01-1.481-5.521 4.045 4.045 0 015.528-1.481 4.044 4.044 0 011.479 5.524 4.041 4.041 0 01-5.526 1.478z" fill="#FFF"/></g><g data-name="Group 306"><path data-name="Path 231" d="M144.748 49.54a4.044 4.044 0 005.524-1.479 4.045 4.045 0 00-1.482-5.521 4.04 4.04 0 00-5.521 1.481 4.041 4.041 0 001.479 5.519z" fill="#FFF"/></g></g></g><g data-name="Group 319"><g data-name="Group 311"><g data-name="Group 309"><path data-name="Path 232" d="M0 131.413l20.046-11.573a.537.537 0 00-.271-1 .553.553 0 00-.268.071L0 130.171z" fill="#FFF"/></g><g data-name="Group 310"><path data-name="Path 233" d="M21.799 122.877a4.044 4.044 0 001.474-5.522 4.041 4.041 0 00-5.521-1.479 4.045 4.045 0 00-1.479 5.52 4.045 4.045 0 005.526 1.481z" fill="#FFF"/></g></g><g data-name="Group 315"><g data-name="Group 312"><path data-name="Path 234" d="M19.776 45.503a.539.539 0 01.538.538v73.335a.539.539 0 01-.538.538.537.537 0 01-.536-.538V46.041a.537.537 0 01.536-.538z" fill="#FFF"/></g><g data-name="Group 313"><path data-name="Path 235" d="M23.82 119.376a4.044 4.044 0 01-4.042 4.042 4.043 4.043 0 01-4.045-4.042 4.044 4.044 0 014.039-4.045 4.047 4.047 0 014.048 4.045z" fill="#FFF"/></g><g data-name="Group 314"><path data-name="Path 236" d="M23.818 46.041a4.042 4.042 0 00-4.046-4.042 4.042 4.042 0 00-4.039 4.042 4.042 4.042 0 004.039 4.043 4.042 4.042 0 004.046-4.043z" fill="#FFF"/></g></g><g data-name="Group 318"><g data-name="Group 316"><path data-name="Path 237" d="M0 35.251l19.495 11.255a.543.543 0 00.734-.197.536.536 0 00-.2-.733L-.004 34.006z" fill="#FFF"/></g><g data-name="Group 317"><path data-name="Path 238" d="M21.785 42.54a4.044 4.044 0 011.478 5.524 4.041 4.041 0 01-5.521 1.476 4.042 4.042 0 01-1.479-5.521 4.044 4.044 0 015.522-1.479z" fill="#FFF"/></g></g></g><g data-name="Group 344"><g data-name="Group 323"><g data-name="Group 320"><path data-name="Path 239" d="M19.763 45.503a.539.539 0 01.538.538v73.335a.539.539 0 01-.538.538.537.537 0 01-.536-.538V46.041a.537.537 0 01.536-.538z" fill="#FFF"/></g><g data-name="Group 321"><path data-name="Path 240" d="M23.805 119.376a4.042 4.042 0 01-4.041 4.042 4.042 4.042 0 01-4.042-4.042 4.044 4.044 0 014.042-4.045 4.044 4.044 0 014.041 4.045z" fill="#FFF"/></g><g data-name="Group 322"><path data-name="Path 241" d="M23.805 46.041a4.042 4.042 0 00-4.041-4.042 4.042 4.042 0 00-4.044 4.042 4.042 4.042 0 004.044 4.043 4.042 4.042 0 004.041-4.043z" fill="#FFF"/></g></g><g data-name="Group 327"><g data-name="Group 324"><path data-name="Path 242" d="M19.762 118.838a.563.563 0 01.271.071l63.509 36.667a.538.538 0 01-.538.932l-63.51-36.667a.539.539 0 01-.2-.735.541.541 0 01.468-.268z" fill="#FFF"/></g><g data-name="Group 325"><path data-name="Path 243" d="M17.742 122.878a4.043 4.043 0 01-1.479-5.522 4.044 4.044 0 015.522-1.48 4.041 4.041 0 011.478 5.521 4.042 4.042 0 01-5.521 1.481z" fill="#FFF"/></g><g data-name="Group 326"><path data-name="Path 244" d="M81.251 159.543a4.043 4.043 0 10-1.479-5.521 4.041 4.041 0 001.479 5.521z" fill="#FFF"/></g></g><g data-name="Group 331"><g data-name="Group 328"><path data-name="Path 245" d="M146.783 118.838a.537.537 0 01.268 1l-63.509 36.671a.538.538 0 01-.538-.932l63.508-36.668a.563.563 0 01.271-.071z" fill="#FFF"/></g><g data-name="Group 329"><path data-name="Path 246" d="M85.294 159.543a4.043 4.043 0 111.479-5.521 4.041 4.041 0 01-1.479 5.521z" fill="#FFF"/></g><g data-name="Group 330"><path data-name="Path 247" d="M148.803 122.878a4.043 4.043 0 10-5.521-1.481 4.045 4.045 0 005.521 1.481z" fill="#FFF"/></g></g><g data-name="Group 335"><g data-name="Group 332"><path data-name="Path 248" d="M146.783 45.503a.537.537 0 01.536.538v73.335a.537.537 0 11-1.074 0V46.041a.539.539 0 01.538-.538z" fill="#FFF"/></g><g data-name="Group 333"><path data-name="Path 249" d="M150.824 119.376a4.044 4.044 0 11-4.042-4.045 4.042 4.042 0 014.042 4.045z" fill="#FFF"/></g><g data-name="Group 334"><path data-name="Path 250" d="M150.824 46.041a4.042 4.042 0 00-4.042-4.042 4.042 4.042 0 00-4.044 4.042 4.042 4.042 0 004.042 4.043 4.042 4.042 0 004.044-4.043z" fill="#FFF"/></g></g><g data-name="Group 339"><g data-name="Group 336"><path data-name="Path 251" d="M83.271 8.836a.538.538 0 01.271.074l63.5 36.667a.537.537 0 11-.538.93l-63.5-36.665a.54.54 0 01-.2-.735.538.538 0 01.467-.271z" fill="#FFF"/></g><g data-name="Group 337"><path data-name="Path 252" d="M148.79 42.541a4.045 4.045 0 011.481 5.524 4.044 4.044 0 01-5.523 1.476 4.044 4.044 0 01-1.479-5.524 4.041 4.041 0 015.521-1.476z" fill="#FFF"/></g><g data-name="Group 338"><path data-name="Path 253" d="M85.294 5.873a4.042 4.042 0 00-5.521 1.481 4.039 4.039 0 001.479 5.521 4.041 4.041 0 005.521-1.479 4.043 4.043 0 00-1.479-5.523z" fill="#FFF"/></g></g><g data-name="Group 343"><g data-name="Group 340"><path data-name="Path 254" d="M83.271 8.836a.539.539 0 01.468.271.54.54 0 01-.2.735L20.035 46.504a.542.542 0 01-.735-.2.536.536 0 01.2-.733L83.003 8.91a.536.536 0 01.268-.074z" fill="#FFF"/></g><g data-name="Group 341"><path data-name="Path 255" d="M81.251 5.873a4.042 4.042 0 015.521 1.481 4.039 4.039 0 01-1.478 5.521 4.041 4.041 0 01-5.521-1.479 4.042 4.042 0 011.478-5.523z" fill="#FFF"/></g><g data-name="Group 342"><path data-name="Path 256" d="M17.742 42.54a4.043 4.043 0 00-1.479 5.524 4.044 4.044 0 005.522 1.476 4.041 4.041 0 001.478-5.519 4.04 4.04 0 00-5.521-1.481z" fill="#FFF"/></g></g></g><g data-name="Group 353"><g data-name="Group 348"><g data-name="Group 345"><path data-name="Path 257" d="M146.77 45.503a.537.537 0 01.536.538v73.335a.537.537 0 11-1.074 0V46.041a.539.539 0 01.538-.538z" fill="#FFF"/></g><g data-name="Group 346"><path data-name="Path 258" d="M150.816 119.376a4.044 4.044 0 11-4.042-4.045 4.042 4.042 0 014.042 4.045z" fill="#FFF"/></g><g data-name="Group 347"><path data-name="Path 259" d="M150.816 46.041a4.042 4.042 0 00-4.042-4.042 4.043 4.043 0 00-4.049 4.042 4.043 4.043 0 004.045 4.043 4.042 4.042 0 004.046-4.043z" fill="#FFF"/></g></g><g data-name="Group 352"><g data-name="Group 349"><path data-name="Path 260" d="M146.77 118.838a.56.56 0 01.268.071l63.509 36.667a.538.538 0 01-.538.932l-63.51-36.667a.537.537 0 01.271-1z" fill="#FFF"/></g><g data-name="Group 350"><path data-name="Path 261" d="M144.748 122.878a4.043 4.043 0 115.524-1.481 4.044 4.044 0 01-5.524 1.481z" fill="#FFF"/></g><g data-name="Group 351"><path data-name="Path 262" d="M208.257 159.543a4.043 4.043 0 10-1.479-5.521 4.044 4.044 0 001.479 5.521z" fill="#FFF"/></g></g></g><g data-name="Group 365"><g data-name="Group 357"><g data-name="Group 354"><path data-name="Path 263" d="M83.271 155.503a.539.539 0 01.538.538v73.335a.537.537 0 11-1.074 0v-73.335a.539.539 0 01.536-.538z" fill="#FFF"/></g><g data-name="Group 355"><path data-name="Path 264" d="M87.316 229.377a4.044 4.044 0 11-4.045-4.042 4.044 4.044 0 014.045 4.042z" fill="#FFF"/></g><g data-name="Group 356"><path data-name="Path 265" d="M87.314 156.041a4.042 4.042 0 10-4.042 4.045 4.042 4.042 0 004.042-4.045z" fill="#FFF"/></g></g><g data-name="Group 361"><g data-name="Group 358"><path data-name="Path 266" d="M19.762 118.838a.563.563 0 01.271.071l63.5 36.667a.538.538 0 01-.538.932l-63.5-36.667a.539.539 0 01-.2-.735.541.541 0 01.467-.268z" fill="#FFF"/></g><g data-name="Group 359"><path data-name="Path 267" d="M85.285 152.54a4.043 4.043 0 11-5.524 1.481 4.045 4.045 0 015.524-1.481z" fill="#FFF"/></g><g data-name="Group 360"><path data-name="Path 268" d="M21.785 115.876a4.044 4.044 0 00-5.522 1.48 4.043 4.043 0 001.481 5.524 4.042 4.042 0 005.519-1.483 4.041 4.041 0 00-1.478-5.521z" fill="#FFF"/></g></g><g data-name="Group 364"><g data-name="Group 362"><path data-name="Path 269" d="M0 131.406l20.029-11.565a.537.537 0 00-.271-1 .545.545 0 00-.268.071L0 130.164z" fill="#FFF"/></g><g data-name="Group 363"><path data-name="Path 270" d="M17.742 115.876a4.041 4.041 0 015.521 1.48 4.044 4.044 0 01-1.479 5.524 4.045 4.045 0 01-5.521-1.483 4.04 4.04 0 011.479-5.521z" fill="#FFF"/></g></g></g><g data-name="Group 390"><g data-name="Group 369"><g data-name="Group 366"><path data-name="Path 271" d="M83.258 155.503a.539.539 0 01.538.538v73.335a.537.537 0 11-1.074 0v-73.335a.539.539 0 01.536-.538z" fill="#FFF"/></g><g data-name="Group 367"><path data-name="Path 272" d="M87.303 229.377a4.044 4.044 0 11-4.045-4.042 4.044 4.044 0 014.045 4.042z" fill="#FFF"/></g><g data-name="Group 368"><path data-name="Path 273" d="M87.303 156.041a4.044 4.044 0 10-4.045 4.045 4.044 4.044 0 004.045-4.045z" fill="#FFF"/></g></g><g data-name="Group 373"><g data-name="Group 370"><path data-name="Path 274" d="M83.257 228.838a.538.538 0 01.271.074l63.51 36.664a.538.538 0 11-.538.932l-63.51-36.667a.538.538 0 01.268-1z" fill="#FFF"/></g><g data-name="Group 371"><path data-name="Path 275" d="M81.238 232.877a4.043 4.043 0 115.521-1.479 4.045 4.045 0 01-5.521 1.479z" fill="#FFF"/></g><g data-name="Group 372"><path data-name="Path 276" d="M144.748 269.545a4.043 4.043 0 10-1.479-5.524 4.045 4.045 0 001.479 5.524z" fill="#FFF"/></g></g><g data-name="Group 377"><g data-name="Group 374"><path data-name="Path 277" d="M210.279 228.838a.538.538 0 01.268 1l-63.509 36.671a.538.538 0 01-.538-.932l63.509-36.665a.538.538 0 01.27-.074z" fill="#FFF"/></g><g data-name="Group 375"><path data-name="Path 278" d="M148.79 269.545a4.043 4.043 0 111.481-5.524 4.042 4.042 0 01-1.481 5.524z" fill="#FFF"/></g><g data-name="Group 376"><path data-name="Path 279" d="M212.299 232.877a4.043 4.043 0 10-5.521-1.479 4.045 4.045 0 005.521 1.479z" fill="#FFF"/></g></g><g data-name="Group 381"><g data-name="Group 378"><path data-name="Path 280" d="M210.278 155.503a.539.539 0 01.538.538v73.335a.538.538 0 11-1.077 0v-73.335a.539.539 0 01.539-.538z" fill="#FFF"/></g><g data-name="Group 379"><path data-name="Path 281" d="M214.321 229.377a4.042 4.042 0 11-4.042-4.042 4.042 4.042 0 014.042 4.042z" fill="#FFF"/></g><g data-name="Group 380"><circle data-name="Ellipse 2" cx="4.043" cy="4.043" r="4.043" fill="#FFF" transform="translate(206.234 152)"/></g></g><g data-name="Group 385"><g data-name="Group 382"><path data-name="Path 282" d="M146.77 118.838a.56.56 0 01.268.071l63.5 36.667a.538.538 0 11-.538.932l-63.5-36.667a.537.537 0 01.271-1z" fill="#FFF"/></g><g data-name="Group 383"><path data-name="Path 283" d="M212.286 152.54a4.043 4.043 0 11-5.521 1.481 4.043 4.043 0 015.521-1.481z" fill="#FFF"/></g><g data-name="Group 384"><path data-name="Path 284" d="M148.79 115.876a4.043 4.043 0 101.479 5.521 4.041 4.041 0 00-1.479-5.521z" fill="#FFF"/></g></g><g data-name="Group 389"><g data-name="Group 386"><path data-name="Path 285" d="M146.77 118.838a.537.537 0 01.268 1l-63.509 36.671a.538.538 0 11-.538-.932l63.508-36.668a.563.563 0 01.271-.071z" fill="#FFF"/></g><g data-name="Group 387"><path data-name="Path 286" d="M144.748 115.876a4.043 4.043 0 11-1.479 5.521 4.044 4.044 0 011.479-5.521z" fill="#FFF"/></g><g data-name="Group 388"><path data-name="Path 287" d="M81.238 152.54a4.043 4.043 0 105.521 1.481 4.045 4.045 0 00-5.521-1.481z" fill="#FFF"/></g></g></g><g data-name="Group 399"><g data-name="Group 394"><g data-name="Group 391"><path data-name="Path 288" d="M210.265 155.503a.539.539 0 01.538.538v73.335a.538.538 0 11-1.077 0v-73.335a.539.539 0 01.539-.538z" fill="#FFF"/></g><g data-name="Group 392"><path data-name="Path 289" d="M214.307 229.377a4.044 4.044 0 11-4.042-4.042 4.042 4.042 0 014.042 4.042z" fill="#FFF"/></g><g data-name="Group 393"><path data-name="Path 290" d="M214.307 156.041a4.044 4.044 0 10-4.042 4.045 4.042 4.042 0 004.042-4.045z" fill="#FFF"/></g></g><g data-name="Group 398"><g data-name="Group 395"><path data-name="Path 291" d="M210.265 228.838a.522.522 0 01.268.074l63.509 36.665a.538.538 0 11-.538.932l-63.51-36.668a.538.538 0 01.271-1z" fill="#FFF"/></g><g data-name="Group 396"><path data-name="Path 292" d="M208.238 232.877a4.043 4.043 0 115.524-1.479 4.044 4.044 0 01-5.524 1.479z" fill="#FFF"/></g><g data-name="Group 397"><path data-name="Path 293" d="M271.752 269.545a4.043 4.043 0 10-1.484-5.523 4.045 4.045 0 001.484 5.523z" fill="#FFF"/></g></g></g><g data-name="Group 416"><g data-name="Group 403"><g data-name="Group 400"><path data-name="Path 294" d="M19.762 338.838a.538.538 0 01.271.074l63.509 36.667a.538.538 0 01-.538.932l-63.509-36.67a.537.537 0 01-.2-.733.538.538 0 01.467-.27z" fill="#FFF"/></g><g data-name="Group 401"><path data-name="Path 295" d="M17.742 342.877a4.04 4.04 0 01-1.479-5.521 4.043 4.043 0 015.524-1.481 4.044 4.044 0 011.476 5.522 4.041 4.041 0 01-5.521 1.48z" fill="#FFF"/></g><g data-name="Group 402"><path data-name="Path 296" d="M81.251 379.545a4.043 4.043 0 10-1.479-5.524 4.041 4.041 0 001.479 5.524z" fill="#FFF"/></g></g><g data-name="Group 407"><g data-name="Group 404"><path data-name="Path 297" d="M146.783 338.838a.538.538 0 01.268 1l-63.509 36.67a.538.538 0 01-.538-.932l63.509-36.667a.538.538 0 01.27-.071z" fill="#FFF"/></g><g data-name="Group 405"><path data-name="Path 298" d="M85.294 379.545a4.043 4.043 0 111.479-5.524 4.041 4.041 0 01-1.479 5.524z" fill="#FFF"/></g><g data-name="Group 406"><path data-name="Path 299" d="M148.803 342.877a4.043 4.043 0 10-5.521-1.479 4.042 4.042 0 005.521 1.479z" fill="#FFF"/></g></g><g data-name="Group 411"><g data-name="Group 408"><path data-name="Path 300" d="M146.783 265.506a.537.537 0 01.536.538v73.332a.537.537 0 11-1.074 0v-73.332a.539.539 0 01.538-.538z" fill="#FFF"/></g><g data-name="Group 409"><path data-name="Path 301" d="M150.824 339.376a4.044 4.044 0 11-4.042-4.042 4.042 4.042 0 014.042 4.042z" fill="#FFF"/></g><g data-name="Group 410"><path data-name="Path 302" d="M150.824 266.044a4.042 4.042 0 10-4.044 4.039 4.044 4.044 0 004.044-4.039z" fill="#FFF"/></g></g><g data-name="Group 415"><g data-name="Group 412"><path data-name="Path 303" d="M83.271 228.838a.538.538 0 01.271.074l63.5 36.665a.538.538 0 11-.538.932l-63.5-36.667a.538.538 0 01.268-1z" fill="#FFF"/></g><g data-name="Group 413"><path data-name="Path 304" d="M148.79 262.543a4.043 4.043 0 11-5.521 1.479 4.042 4.042 0 015.521-1.479z" fill="#FFF"/></g><g data-name="Group 414"><path data-name="Path 305" d="M85.294 225.877a4.043 4.043 0 101.479 5.524 4.041 4.041 0 00-1.479-5.524z" fill="#FFF"/></g></g></g><g data-name="Group 441"><g data-name="Group 420"><g data-name="Group 417"><path data-name="Path 306" d="M146.77 265.506a.537.537 0 01.536.538v73.332a.537.537 0 11-1.074 0v-73.332a.539.539 0 01.538-.538z" fill="#FFF"/></g><g data-name="Group 418"><path data-name="Path 307" d="M150.816 339.376a4.044 4.044 0 11-4.042-4.042 4.042 4.042 0 014.042 4.042z" fill="#FFF"/></g><g data-name="Group 419"><path data-name="Path 308" d="M150.816 266.044a4.044 4.044 0 10-4.046 4.039 4.044 4.044 0 004.046-4.039z" fill="#FFF"/></g></g><g data-name="Group 424"><g data-name="Group 421"><path data-name="Path 309" d="M146.77 338.838a.536.536 0 01.268.074l63.509 36.667a.538.538 0 01-.538.932l-63.509-36.67a.538.538 0 01.271-1z" fill="#FFF"/></g><g data-name="Group 422"><path data-name="Path 310" d="M144.748 342.877a4.043 4.043 0 115.524-1.479 4.041 4.041 0 01-5.524 1.479z" fill="#FFF"/></g><g data-name="Group 423"><path data-name="Path 311" d="M208.257 379.545a4.043 4.043 0 10-1.479-5.524 4.044 4.044 0 001.479 5.524z" fill="#FFF"/></g></g><g data-name="Group 428"><g data-name="Group 425"><path data-name="Path 312" d="M273.788 338.838a.538.538 0 01.271 1l-63.512 36.673a.538.538 0 01-.538-.932l63.508-36.667a.522.522 0 01.271-.074z" fill="#FFF"/></g><g data-name="Group 426"><path data-name="Path 313" d="M212.299 379.545a4.043 4.043 0 111.481-5.524 4.041 4.041 0 01-1.481 5.524z" fill="#FFF"/></g><g data-name="Group 427"><path data-name="Path 314" d="M275.811 342.877a4.043 4.043 0 10-5.524-1.48 4.041 4.041 0 005.524 1.48z" fill="#FFF"/></g></g><g data-name="Group 432"><g data-name="Group 429"><path data-name="Path 315" d="M273.788 265.506a.539.539 0 01.538.538v73.332a.538.538 0 01-1.077 0v-73.332a.539.539 0 01.539-.538z" fill="#FFF"/></g><g data-name="Group 430"><path data-name="Path 316" d="M277.831 339.376a4.042 4.042 0 11-4.042-4.042 4.042 4.042 0 014.042 4.042z" fill="#FFF"/></g><g data-name="Group 431"><path data-name="Path 317" d="M277.83 266.044a4.044 4.044 0 10-4.042 4.039 4.044 4.044 0 004.042-4.039z" fill="#FFF"/></g></g><g data-name="Group 436"><g data-name="Group 433"><path data-name="Path 318" d="M210.279 228.838a.522.522 0 01.268.074l63.5 36.665a.538.538 0 11-.538.932l-63.5-36.667a.538.538 0 01.271-1z" fill="#FFF"/></g><g data-name="Group 434"><path data-name="Path 319" d="M275.795 262.543a4.043 4.043 0 11-5.526 1.479 4.04 4.04 0 015.526-1.479z" fill="#FFF"/></g><g data-name="Group 435"><path data-name="Path 320" d="M212.302 225.877a4.043 4.043 0 101.479 5.524 4.044 4.044 0 00-1.479-5.524z" fill="#FFF"/></g></g><g data-name="Group 440"><g data-name="Group 437"><path data-name="Path 321" d="M210.279 228.838a.538.538 0 01.268 1l-63.509 36.671a.538.538 0 01-.538-.932l63.509-36.665a.538.538 0 01.27-.074z" fill="#FFF"/></g><g data-name="Group 438"><path data-name="Path 322" d="M208.257 225.877a4.043 4.043 0 11-1.479 5.524 4.044 4.044 0 011.479-5.524z" fill="#FFF"/></g><g data-name="Group 439"><path data-name="Path 323" d="M144.748 262.543a4.043 4.043 0 105.524 1.479 4.041 4.041 0 00-5.524-1.479z" fill="#FFF"/></g></g></g><g data-name="Group 446"><g data-name="Group 445"><g data-name="Group 442"><path data-name="Path 324" d="M273.774 265.506a.539.539 0 01.538.538v73.332a.538.538 0 01-1.077 0v-73.332a.539.539 0 01.539-.538z" fill="#FFF"/></g><g data-name="Group 443"><path data-name="Path 325" d="M277.817 339.376a4.042 4.042 0 11-4.042-4.042 4.042 4.042 0 014.042 4.042z" fill="#FFF"/></g><g data-name="Group 444"><path data-name="Path 326" d="M277.817 266.044a4.042 4.042 0 10-4.043 4.039 4.044 4.044 0 004.043-4.039z" fill="#FFF"/></g></g></g><g data-name="Group 459"><g data-name="Group 450"><g data-name="Group 447"><path data-name="Path 327" d="M83.271 448.837a.539.539 0 01.271 1.006L20.035 486.51a.545.545 0 01-.735-.2.54.54 0 01.2-.735l63.509-36.667a.536.536 0 01.262-.071z" fill="#FFF"/></g><g data-name="Group 448"><path data-name="Path 328" d="M21.785 489.543a4.044 4.044 0 01-5.522-1.478 4.043 4.043 0 011.481-5.524 4.04 4.04 0 015.519 1.483 4.041 4.041 0 01-1.478 5.519z" fill="#FFF"/></g><g data-name="Group 449"><path data-name="Path 329" d="M85.294 452.879a4.044 4.044 0 10-5.521-1.481 4.042 4.042 0 005.521 1.481z" fill="#FFF"/></g></g><g data-name="Group 454"><g data-name="Group 451"><path data-name="Path 330" d="M83.271 375.505a.539.539 0 01.538.538v73.332a.537.537 0 11-1.074 0v-73.332a.539.539 0 01.536-.538z" fill="#FFF"/></g><g data-name="Group 452"><path data-name="Path 331" d="M87.316 449.375a4.044 4.044 0 11-4.045-4.042 4.047 4.047 0 014.045 4.042z" fill="#FFF"/></g><g data-name="Group 453"><path data-name="Path 332" d="M87.314 376.043a4.042 4.042 0 10-4.042 4.042 4.042 4.042 0 004.042-4.042z" fill="#FFF"/></g></g><g data-name="Group 458"><g data-name="Group 455"><path data-name="Path 333" d="M19.762 338.837a.538.538 0 01.271.074l63.5 36.667a.538.538 0 01-.538.932l-63.5-36.67a.537.537 0 01-.2-.733.538.538 0 01.467-.27z" fill="#FFF"/></g><g data-name="Group 456"><path data-name="Path 334" d="M85.285 372.542a4.043 4.043 0 11-5.524 1.479 4.044 4.044 0 015.524-1.479z" fill="#FFF"/></g><g data-name="Group 457"><path data-name="Path 335" d="M21.785 335.875a4.044 4.044 0 00-5.522 1.479 4.042 4.042 0 001.481 5.524 4.041 4.041 0 005.519-1.481 4.044 4.044 0 00-1.478-5.522z" fill="#FFF"/></g></g></g><g data-name="Group 484"><g data-name="Group 463"><g data-name="Group 460"><path data-name="Path 336" d="M83.258 375.505a.539.539 0 01.538.538v73.332a.537.537 0 11-1.074 0v-73.332a.539.539 0 01.536-.538z" fill="#FFF"/></g><g data-name="Group 461"><path data-name="Path 337" d="M87.303 449.375a4.044 4.044 0 11-4.045-4.042 4.047 4.047 0 014.045 4.042z" fill="#FFF"/></g><g data-name="Group 462"><path data-name="Path 338" d="M87.303 376.043a4.044 4.044 0 10-4.045 4.042 4.044 4.044 0 004.045-4.042z" fill="#FFF"/></g></g><g data-name="Group 467"><g data-name="Group 464"><path data-name="Path 339" d="M83.257 448.837a.538.538 0 01.271.074l63.51 36.667a.538.538 0 01-.538.932l-63.51-36.667a.539.539 0 01.268-1.006z" fill="#FFF"/></g><g data-name="Group 465"><path data-name="Path 340" d="M81.238 452.879a4.044 4.044 0 115.521-1.481 4.045 4.045 0 01-5.521 1.481z" fill="#FFF"/></g><g data-name="Group 466"><path data-name="Path 341" d="M144.748 489.543a4.043 4.043 0 10-1.479-5.519 4.044 4.044 0 001.479 5.519z" fill="#FFF"/></g></g><g data-name="Group 471"><g data-name="Group 468"><path data-name="Path 342" d="M210.279 448.837a.539.539 0 01.268 1.006l-63.509 36.667a.538.538 0 01-.538-.932l63.509-36.667a.538.538 0 01.27-.074z" fill="#FFF"/></g><g data-name="Group 469"><path data-name="Path 343" d="M148.79 489.543a4.043 4.043 0 111.481-5.519 4.041 4.041 0 01-1.481 5.519z" fill="#FFF"/></g><g data-name="Group 470"><path data-name="Path 344" d="M212.299 452.879a4.044 4.044 0 10-5.521-1.481 4.045 4.045 0 005.521 1.481z" fill="#FFF"/></g></g><g data-name="Group 475"><g data-name="Group 472"><path data-name="Path 345" d="M210.278 375.505a.539.539 0 01.538.538v73.332a.538.538 0 11-1.077 0v-73.332a.539.539 0 01.539-.538z" fill="#FFF"/></g><g data-name="Group 473"><path data-name="Path 346" d="M214.321 449.375a4.042 4.042 0 11-4.042-4.042 4.044 4.044 0 014.042 4.042z" fill="#FFF"/></g><g data-name="Group 474"><path data-name="Path 347" d="M214.32 376.043a4.044 4.044 0 10-4.045 4.042 4.044 4.044 0 004.045-4.042z" fill="#FFF"/></g></g><g data-name="Group 479"><g data-name="Group 476"><path data-name="Path 348" d="M146.77 338.837a.536.536 0 01.268.074l63.5 36.667a.538.538 0 11-.538.932l-63.5-36.67a.538.538 0 01.271-1z" fill="#FFF"/></g><g data-name="Group 477"><path data-name="Path 349" d="M212.286 372.542a4.043 4.043 0 11-5.521 1.479 4.042 4.042 0 015.521-1.479z" fill="#FFF"/></g><g data-name="Group 478"><path data-name="Path 350" d="M148.79 335.875a4.043 4.043 0 101.479 5.524 4.041 4.041 0 00-1.479-5.524z" fill="#FFF"/></g></g><g data-name="Group 483"><g data-name="Group 480"><path data-name="Path 351" d="M146.77 338.837a.538.538 0 01.268 1l-63.509 36.67a.538.538 0 01-.538-.932l63.509-36.667a.538.538 0 01.27-.071z" fill="#FFF"/></g><g data-name="Group 481"><path data-name="Path 352" d="M144.748 335.874a4.043 4.043 0 11-1.479 5.524 4.043 4.043 0 011.479-5.524z" fill="#FFF"/></g><g data-name="Group 482"><path data-name="Path 353" d="M81.238 372.542a4.043 4.043 0 105.521 1.479 4.045 4.045 0 00-5.521-1.479z" fill="#FFF"/></g></g></g><g data-name="Group 497"><g data-name="Group 488"><g data-name="Group 485"><path data-name="Path 354" d="M210.265 375.505a.539.539 0 01.538.538v73.332a.538.538 0 11-1.077 0v-73.332a.539.539 0 01.539-.538z" fill="#FFF"/></g><g data-name="Group 486"><path data-name="Path 355" d="M214.307 449.375a4.044 4.044 0 11-4.042-4.042 4.044 4.044 0 014.042 4.042z" fill="#FFF"/></g><g data-name="Group 487"><path data-name="Path 356" d="M214.307 376.043a4.044 4.044 0 10-4.042 4.042 4.042 4.042 0 004.042-4.042z" fill="#FFF"/></g></g><g data-name="Group 492"><g data-name="Group 489"><path data-name="Path 357" d="M210.265 448.837a.522.522 0 01.268.074l63.509 36.667a.538.538 0 01.2.735.545.545 0 01-.735.2l-63.513-36.67a.539.539 0 01.271-1.006z" fill="#FFF"/></g><g data-name="Group 490"><path data-name="Path 358" d="M208.238 452.879a4.044 4.044 0 115.524-1.481 4.044 4.044 0 01-5.524 1.481z" fill="#FFF"/></g><g data-name="Group 491"><path data-name="Path 359" d="M271.752 489.543a4.043 4.043 0 10-1.484-5.519 4.044 4.044 0 001.484 5.519z" fill="#FFF"/></g></g><g data-name="Group 496"><g data-name="Group 493"><path data-name="Path 360" d="M273.774 338.837a.538.538 0 01.268 1l-63.509 36.67a.538.538 0 01-.538-.932l63.513-36.664a.538.538 0 01.266-.074z" fill="#FFF"/></g><g data-name="Group 494"><path data-name="Path 361" d="M271.752 335.874a4.043 4.043 0 11-1.484 5.522 4.043 4.043 0 011.484-5.522z" fill="#FFF"/></g><g data-name="Group 495"><path data-name="Path 362" d="M208.238 372.542a4.043 4.043 0 105.524 1.479 4.044 4.044 0 00-5.524-1.479z" fill="#FFF"/></g></g></g><g data-name="Group 505"><g data-name="Group 500"><g data-name="Group 498"><path data-name="Path 363" d="M0 571.416l20.046-11.573a.537.537 0 00-.271-1 .553.553 0 00-.268.071L-.001 570.177z" fill="#FFF"/></g><g data-name="Group 499"><path data-name="Path 364" d="M21.799 562.879a4.044 4.044 0 001.474-5.523 4.041 4.041 0 00-5.521-1.479 4.044 4.044 0 00-1.479 5.521 4.045 4.045 0 005.526 1.481z" fill="#FFF"/></g></g><g data-name="Group 504"><g data-name="Group 501"><path data-name="Path 365" d="M19.776 485.508a.537.537 0 01.538.536v73.335a.539.539 0 01-.538.538.537.537 0 01-.536-.538v-73.335a.535.535 0 01.536-.536z" fill="#FFF"/></g><g data-name="Group 502"><path data-name="Path 366" d="M23.82 559.378a4.044 4.044 0 01-4.042 4.042 4.043 4.043 0 01-4.045-4.042 4.042 4.042 0 014.039-4.042 4.044 4.044 0 014.048 4.042z" fill="#FFF"/></g><g data-name="Group 503"><path data-name="Path 367" d="M23.818 486.043a4.042 4.042 0 00-4.046-4.042 4.042 4.042 0 00-4.042 4.042 4.044 4.044 0 004.042 4.045 4.046 4.046 0 004.046-4.045z" fill="#FFF"/></g></g></g><g data-name="Group 530"><g data-name="Group 509"><g data-name="Group 506"><path data-name="Path 368" d="M19.763 485.508a.537.537 0 01.538.536v73.335a.539.539 0 01-.538.538.537.537 0 01-.536-.538v-73.335a.535.535 0 01.536-.536z" fill="#FFF"/></g><g data-name="Group 507"><path data-name="Path 369" d="M23.805 559.378a4.042 4.042 0 01-4.041 4.043 4.042 4.042 0 01-4.042-4.042 4.042 4.042 0 014.042-4.043 4.042 4.042 0 014.041 4.042z" fill="#FFF"/></g><g data-name="Group 508"><path data-name="Path 370" d="M23.805 486.043a4.042 4.042 0 00-4.041-4.042 4.042 4.042 0 00-4.042 4.042 4.044 4.044 0 004.042 4.045 4.044 4.044 0 004.041-4.045z" fill="#FFF"/></g></g><g data-name="Group 513"><g data-name="Group 510"><path data-name="Path 371" d="M19.762 558.84a.563.563 0 01.271.071l63.509 36.668a.538.538 0 11-.538.932l-63.509-36.667a.539.539 0 01-.2-.735.541.541 0 01.467-.269z" fill="#FFF"/></g><g data-name="Group 511"><path data-name="Path 372" d="M17.742 562.879a4.043 4.043 0 01-1.479-5.523 4.044 4.044 0 015.524-1.479 4.041 4.041 0 011.476 5.521 4.042 4.042 0 01-5.521 1.481z" fill="#FFF"/></g><g data-name="Group 512"><path data-name="Path 373" d="M81.251 599.548a4.044 4.044 0 10-1.479-5.524 4.044 4.044 0 001.479 5.524z" fill="#FFF"/></g></g><g data-name="Group 517"><g data-name="Group 514"><path data-name="Path 374" d="M146.783 558.84a.537.537 0 01.268 1l-63.509 36.671a.538.538 0 11-.538-.932l63.508-36.668a.563.563 0 01.271-.071z" fill="#FFF"/></g><g data-name="Group 515"><path data-name="Path 375" d="M85.294 599.548a4.044 4.044 0 111.479-5.524 4.044 4.044 0 01-1.479 5.524z" fill="#FFF"/></g><g data-name="Group 516"><path data-name="Path 376" d="M148.803 562.879a4.043 4.043 0 10-5.521-1.481 4.045 4.045 0 005.521 1.481z" fill="#FFF"/></g></g><g data-name="Group 521"><g data-name="Group 518"><path data-name="Path 377" d="M146.783 485.508a.535.535 0 01.536.536v73.335a.537.537 0 11-1.074 0v-73.335a.537.537 0 01.538-.536z" fill="#FFF"/></g><g data-name="Group 519"><path data-name="Path 378" d="M150.824 559.378a4.044 4.044 0 11-4.042-4.042 4.042 4.042 0 014.042 4.042z" fill="#FFF"/></g><g data-name="Group 520"><path data-name="Path 379" d="M150.824 486.043a4.042 4.042 0 10-4.042 4.045 4.042 4.042 0 004.042-4.045z" fill="#FFF"/></g></g><g data-name="Group 525"><g data-name="Group 522"><path data-name="Path 380" d="M83.271 448.838a.538.538 0 01.271.074l63.5 36.667a.538.538 0 01-.538.932l-63.5-36.668a.539.539 0 01.268-1.006z" fill="#FFF"/></g><g data-name="Group 523"><path data-name="Path 381" d="M148.79 482.542a4.043 4.043 0 11-5.521 1.483 4.045 4.045 0 015.521-1.483z" fill="#FFF"/></g><g data-name="Group 524"><path data-name="Path 382" d="M85.294 445.874a4.043 4.043 0 101.479 5.524 4.042 4.042 0 00-1.479-5.524z" fill="#FFF"/></g></g><g data-name="Group 529"><g data-name="Group 526"><path data-name="Path 383" d="M83.271 448.838a.539.539 0 01.271 1.006l-63.507 36.667a.545.545 0 01-.735-.2.54.54 0 01.2-.735l63.509-36.667a.536.536 0 01.262-.071z" fill="#FFF"/></g><g data-name="Group 527"><path data-name="Path 384" d="M81.251 445.874a4.044 4.044 0 11-1.479 5.524 4.042 4.042 0 011.479-5.524z" fill="#FFF"/></g><g data-name="Group 528"><path data-name="Path 385" d="M17.742 482.542a4.043 4.043 0 00-1.479 5.524 4.044 4.044 0 005.524 1.479 4.041 4.041 0 001.476-5.52 4.04 4.04 0 00-5.521-1.483z" fill="#FFF"/></g></g></g><g data-name="Group 555"><g data-name="Group 534"><g data-name="Group 531"><path data-name="Path 386" d="M146.77 485.508a.535.535 0 01.536.536v73.335a.537.537 0 11-1.074 0v-73.335a.537.537 0 01.538-.536z" fill="#FFF"/></g><g data-name="Group 532"><path data-name="Path 387" d="M150.816 559.378a4.044 4.044 0 11-4.042-4.042 4.042 4.042 0 014.042 4.042z" fill="#FFF"/></g><g data-name="Group 533"><path data-name="Path 388" d="M150.816 486.043a4.044 4.044 0 10-4.042 4.045 4.042 4.042 0 004.042-4.045z" fill="#FFF"/></g></g><g data-name="Group 538"><g data-name="Group 535"><path data-name="Path 389" d="M146.77 558.84a.561.561 0 01.268.071l63.509 36.668a.538.538 0 11-.538.932l-63.51-36.668a.537.537 0 01.271-1z" fill="#FFF"/></g><g data-name="Group 536"><path data-name="Path 390" d="M144.748 562.879a4.043 4.043 0 115.524-1.481 4.044 4.044 0 01-5.524 1.481z" fill="#FFF"/></g><g data-name="Group 537"><path data-name="Path 391" d="M208.257 599.548a4.044 4.044 0 10-1.479-5.524 4.048 4.048 0 001.479 5.524z" fill="#FFF"/></g></g><g data-name="Group 542"><g data-name="Group 539"><path data-name="Path 392" d="M273.788 558.84a.537.537 0 01.271 1l-63.512 36.671a.538.538 0 11-.538-.932l63.508-36.668a.546.546 0 01.271-.071z" fill="#FFF"/></g><g data-name="Group 540"><path data-name="Path 393" d="M212.299 599.548a4.044 4.044 0 111.481-5.524 4.044 4.044 0 01-1.481 5.524z" fill="#FFF"/></g><g data-name="Group 541"><path data-name="Path 394" d="M275.811 562.879a4.043 4.043 0 10-5.524-1.481 4.044 4.044 0 005.524 1.481z" fill="#FFF"/></g></g><g data-name="Group 546"><g data-name="Group 543"><path data-name="Path 395" d="M273.788 485.508a.537.537 0 01.538.536v73.335a.538.538 0 01-1.077 0v-73.335a.537.537 0 01.539-.536z" fill="#FFF"/></g><g data-name="Group 544"><path data-name="Path 396" d="M277.831 559.378a4.042 4.042 0 11-4.042-4.042 4.042 4.042 0 014.042 4.042z" fill="#FFF"/></g><g data-name="Group 545"><path data-name="Path 397" d="M277.83 486.043a4.044 4.044 0 10-4.042 4.045 4.042 4.042 0 004.042-4.045z" fill="#FFF"/></g></g><g data-name="Group 550"><g data-name="Group 547"><path data-name="Path 398" d="M210.279 448.838a.522.522 0 01.268.074l63.5 36.667a.538.538 0 01.2.735.545.545 0 01-.735.2l-63.5-36.668a.539.539 0 01.271-1.006z" fill="#FFF"/></g><g data-name="Group 548"><path data-name="Path 399" d="M275.795 482.542a4.043 4.043 0 11-5.526 1.483 4.043 4.043 0 015.526-1.483z" fill="#FFF"/></g><g data-name="Group 549"><path data-name="Path 400" d="M212.302 445.874a4.043 4.043 0 101.479 5.524 4.045 4.045 0 00-1.479-5.524z" fill="#FFF"/></g></g><g data-name="Group 554"><g data-name="Group 551"><path data-name="Path 401" d="M210.279 448.838a.539.539 0 01.268 1.006l-63.509 36.667a.538.538 0 01-.538-.932l63.509-36.667a.538.538 0 01.27-.074z" fill="#FFF"/></g><g data-name="Group 552"><path data-name="Path 402" d="M208.257 445.874a4.044 4.044 0 11-1.479 5.524 4.045 4.045 0 011.479-5.524z" fill="#FFF"/></g><g data-name="Group 553"><path data-name="Path 403" d="M144.748 482.542a4.043 4.043 0 105.523 1.483 4.044 4.044 0 00-5.523-1.483z" fill="#FFF"/></g></g></g><g data-name="Group 564"><g data-name="Group 559"><g data-name="Group 556"><path data-name="Path 404" d="M273.773 485.508a.537.537 0 01.538.536v73.335a.538.538 0 11-1.077 0v-73.335a.537.537 0 01.539-.536z" fill="#FFF"/></g><g data-name="Group 557"><path data-name="Path 405" d="M277.816 559.378a4.042 4.042 0 11-4.042-4.042 4.042 4.042 0 014.042 4.042z" fill="#FFF"/></g><g data-name="Group 558"><path data-name="Path 406" d="M277.816 486.043a4.042 4.042 0 10-4.042 4.045 4.042 4.042 0 004.042-4.045z" fill="#FFF"/></g></g><g data-name="Group 563"><g data-name="Group 560"><path data-name="Path 407" d="M273.774 558.84a.546.546 0 01.268.071l63.509 36.668a.538.538 0 11-.538.932l-63.51-36.668a.537.537 0 01.271-1z" fill="#FFF"/></g><g data-name="Group 561"><path data-name="Path 408" d="M271.752 562.879a4.043 4.043 0 115.524-1.481 4.044 4.044 0 01-5.524 1.481z" fill="#FFF"/></g><g data-name="Group 562"><path data-name="Path 409" d="M335.261 599.548a4.045 4.045 0 10-1.479-5.524 4.048 4.048 0 001.479 5.524z" fill="#FFF"/></g></g></g><g data-name="Group 572"><g data-name="Group 568"><g data-name="Group 565"><path data-name="Path 410" d="M19.762 558.84a.563.563 0 01.271.071l63.5 36.668a.538.538 0 11-.538.932l-63.5-36.667a.539.539 0 01-.2-.735.541.541 0 01.467-.269z" fill="#FFF"/></g><g data-name="Group 566"><path data-name="Path 411" d="M85.285 592.543a4.044 4.044 0 11-5.524 1.481 4.045 4.045 0 015.524-1.481z" fill="#FFF"/></g><g data-name="Group 567"><path data-name="Path 412" d="M21.785 555.877a4.044 4.044 0 00-5.522 1.479 4.043 4.043 0 001.481 5.524 4.04 4.04 0 005.519-1.482 4.041 4.041 0 00-1.478-5.521z" fill="#FFF"/></g></g><g data-name="Group 571"><g data-name="Group 569"><path data-name="Path 413" d="M0 571.411l20.029-11.568a.537.537 0 00-.271-1 .546.546 0 00-.268.071L-.005 570.169z" fill="#FFF"/></g><g data-name="Group 570"><path data-name="Path 414" d="M17.742 555.877a4.041 4.041 0 015.521 1.479 4.044 4.044 0 01-1.479 5.524 4.045 4.045 0 01-5.521-1.482 4.04 4.04 0 011.479-5.521z" fill="#FFF"/></g></g></g><g data-name="Group 589"><g data-name="Group 576"><g data-name="Group 573"><path data-name="Path 415" d="M210.279 668.84a.538.538 0 01.268 1l-63.509 36.671a.538.538 0 11-.538-.932l63.509-36.665a.538.538 0 01.27-.074z" fill="#FFF"/></g><g data-name="Group 574"><path data-name="Path 416" d="M148.79 709.547a4.043 4.043 0 111.481-5.524 4.04 4.04 0 01-1.481 5.524z" fill="#FFF"/></g><g data-name="Group 575"><path data-name="Path 417" d="M212.299 672.88a4.043 4.043 0 10-5.521-1.479 4.045 4.045 0 005.521 1.479z" fill="#FFF"/></g></g><g data-name="Group 580"><g data-name="Group 577"><path data-name="Path 418" d="M210.278 595.505a.539.539 0 01.538.538v73.335a.538.538 0 11-1.077 0v-73.335a.539.539 0 01.539-.538z" fill="#FFF"/></g><g data-name="Group 578"><path data-name="Path 419" d="M214.321 669.378a4.042 4.042 0 11-4.042-4.042 4.042 4.042 0 014.042 4.042z" fill="#FFF"/></g><g data-name="Group 579"><circle data-name="Ellipse 3" cx="4.043" cy="4.043" r="4.043" fill="#FFF" transform="translate(206.234 592.002)"/></g></g><g data-name="Group 584"><g data-name="Group 581"><path data-name="Path 420" d="M146.77 558.84a.561.561 0 01.268.071l63.5 36.668a.538.538 0 11-.538.932l-63.5-36.667a.537.537 0 01.271-1z" fill="#FFF"/></g><g data-name="Group 582"><path data-name="Path 421" d="M212.286 592.543a4.044 4.044 0 11-5.521 1.481 4.043 4.043 0 015.521-1.481z" fill="#FFF"/></g><g data-name="Group 583"><path data-name="Path 422" d="M148.79 555.877a4.043 4.043 0 101.479 5.521 4.041 4.041 0 00-1.479-5.521z" fill="#FFF"/></g></g><g data-name="Group 588"><g data-name="Group 585"><path data-name="Path 423" d="M146.77 558.84a.537.537 0 01.268 1l-63.509 36.671a.538.538 0 11-.538-.932l63.508-36.668a.563.563 0 01.271-.071z" fill="#FFF"/></g><g data-name="Group 586"><path data-name="Path 424" d="M144.748 555.877a4.043 4.043 0 11-1.479 5.521 4.044 4.044 0 011.479-5.521z" fill="#FFF"/></g><g data-name="Group 587"><path data-name="Path 425" d="M81.238 592.543a4.044 4.044 0 105.521 1.481 4.045 4.045 0 00-5.521-1.481z" fill="#FFF"/></g></g></g><g data-name="Group 614"><g data-name="Group 593"><g data-name="Group 590"><path data-name="Path 426" d="M210.265 595.504a.539.539 0 01.538.538v73.335a.538.538 0 11-1.077 0v-73.335a.539.539 0 01.539-.538z" fill="#FFF"/></g><g data-name="Group 591"><path data-name="Path 427" d="M214.307 669.377a4.044 4.044 0 11-4.042-4.042 4.042 4.042 0 014.042 4.042z" fill="#FFF"/></g><g data-name="Group 592"><path data-name="Path 428" d="M214.307 596.046a4.044 4.044 0 10-4.042 4.042 4.043 4.043 0 004.042-4.042z" fill="#FFF"/></g></g><g data-name="Group 597"><g data-name="Group 594"><path data-name="Path 429" d="M210.265 668.839a.522.522 0 01.268.074l63.509 36.665a.538.538 0 11-.538.932l-63.51-36.668a.538.538 0 01.271-1z" fill="#FFF"/></g><g data-name="Group 595"><path data-name="Path 430" d="M208.238 672.879a4.043 4.043 0 115.524-1.479 4.044 4.044 0 01-5.524 1.479z" fill="#FFF"/></g><g data-name="Group 596"><path data-name="Path 431" d="M271.752 709.546a4.043 4.043 0 10-1.479-5.524 4.043 4.043 0 001.479 5.524z" fill="#FFF"/></g></g><g data-name="Group 601"><g data-name="Group 598"><path data-name="Path 432" d="M337.283 668.839a.538.538 0 01.268 1l-63.513 36.671a.538.538 0 11-.538-.932l63.509-36.665a.538.538 0 01.274-.074z" fill="#FFF"/></g><g data-name="Group 599"><path data-name="Path 433" d="M275.794 709.546a4.043 4.043 0 111.481-5.524 4.04 4.04 0 01-1.481 5.524z" fill="#FFF"/></g><g data-name="Group 600"><path data-name="Path 434" d="M339.306 672.879a4.043 4.043 0 10-5.524-1.479 4.044 4.044 0 005.524 1.479z" fill="#FFF"/></g></g><g data-name="Group 605"><g data-name="Group 602"><path data-name="Path 435" d="M337.283 595.504a.539.539 0 01.538.538v73.335a.538.538 0 11-1.077 0v-73.335a.539.539 0 01.539-.538z" fill="#FFF"/></g><g data-name="Group 603"><path data-name="Path 436" d="M341.326 669.377a4.042 4.042 0 11-4.042-4.042 4.042 4.042 0 014.042 4.042z" fill="#FFF"/></g><g data-name="Group 604"><path data-name="Path 437" d="M341.325 596.046a4.044 4.044 0 10-4.042 4.042 4.044 4.044 0 004.042-4.042z" fill="#FFF"/></g></g><g data-name="Group 609"><g data-name="Group 606"><path data-name="Path 438" d="M273.774 558.839a.546.546 0 01.268.071l63.5 36.668a.538.538 0 11-.538.932l-63.5-36.667a.537.537 0 01.271-1z" fill="#FFF"/></g><g data-name="Group 607"><path data-name="Path 439" d="M339.29 592.542a4.045 4.045 0 11-5.524 1.481 4.045 4.045 0 015.524-1.481z" fill="#FFF"/></g><g data-name="Group 608"><circle data-name="Ellipse 4" cx="4.043" cy="4.043" r="4.043" transform="rotate(-89.25 420.195 145.056)" fill="#FFF"/></g></g><g data-name="Group 613"><g data-name="Group 610"><path data-name="Path 440" d="M273.774 558.839a.537.537 0 01.268 1l-63.509 36.671a.538.538 0 11-.538-.932l63.513-36.668a.563.563 0 01.266-.071z" fill="#FFF"/></g><g data-name="Group 611"><path data-name="Path 441" d="M271.752 555.876a4.043 4.043 0 11-1.479 5.521 4.044 4.044 0 011.479-5.521z" fill="#FFF"/></g><g data-name="Group 612"><path data-name="Path 442" d="M208.238 592.542a4.044 4.044 0 105.524 1.481 4.044 4.044 0 00-5.524-1.481z" fill="#FFF"/></g></g></g><g data-name="Group 631"><g data-name="Group 618"><g data-name="Group 615"><path data-name="Path 443" d="M337.269 595.505a.539.539 0 01.538.538v73.335a.538.538 0 01-1.077 0v-73.335a.539.539 0 01.539-.538z" fill="#FFF"/></g><g data-name="Group 616"><path data-name="Path 444" d="M341.312 669.378a4.042 4.042 0 11-4.042-4.042 4.042 4.042 0 014.042 4.042z" fill="#FFF"/></g><g data-name="Group 617"><path data-name="Path 445" d="M341.312 596.047a4.042 4.042 0 10-4.042 4.042 4.043 4.043 0 004.042-4.042z" fill="#FFF"/></g></g><g data-name="Group 622"><g data-name="Group 619"><path data-name="Path 446" d="M337.27 668.84a.522.522 0 01.268.074l63.509 36.665a.538.538 0 01-.536.932L337 669.844a.538.538 0 01.271-1z" fill="#FFF"/></g><g data-name="Group 620"><path data-name="Path 447" d="M335.248 672.88a4.043 4.043 0 115.524-1.479 4.044 4.044 0 01-5.524 1.479z" fill="#FFF"/></g><g data-name="Group 621"><path data-name="Path 448" d="M398.757 709.547a4.043 4.043 0 10-1.479-5.524 4.042 4.042 0 001.479 5.524z" fill="#FFF"/></g></g><g data-name="Group 626"><g data-name="Group 623"><path data-name="Path 449" d="M464.291 668.84a.538.538 0 01.268 1l-63.511 36.667a.538.538 0 01-.536-.932l63.509-36.665a.538.538 0 01.27-.07z" fill="#FFF"/></g><g data-name="Group 624"><path data-name="Path 450" d="M402.802 709.547a4.043 4.043 0 111.479-5.524 4.042 4.042 0 01-1.479 5.524z" fill="#FFF"/></g><g data-name="Group 625"><path data-name="Path 451" d="M466.309 672.88a4.043 4.043 0 10-5.524-1.479 4.044 4.044 0 005.524 1.479z" fill="#FFF"/></g></g><g data-name="Group 630"><g data-name="Group 627"><path data-name="Path 452" d="M464.287 595.505a.539.539 0 01.538.538v73.335a.537.537 0 11-1.074 0v-73.335a.539.539 0 01.536-.538z" fill="#FFF"/></g><g data-name="Group 628"><path data-name="Path 453" d="M468.332 669.378a4.044 4.044 0 11-4.045-4.042 4.045 4.045 0 014.045 4.042z" fill="#FFF"/></g><g data-name="Group 629"><path data-name="Path 454" d="M468.33 596.047a4.042 4.042 0 10-4.042 4.042 4.043 4.043 0 004.042-4.042z" fill="#FFF"/></g></g></g><g data-name="Group 640"><g data-name="Group 635"><g data-name="Group 632"><path data-name="Path 455" d="M464.274 595.505a.539.539 0 01.538.538v73.335a.538.538 0 01-1.077 0v-73.335a.539.539 0 01.539-.538z" fill="#FFF"/></g><g data-name="Group 633"><path data-name="Path 456" d="M468.317 669.378a4.042 4.042 0 11-4.042-4.042 4.042 4.042 0 014.042 4.042z" fill="#FFF"/></g><g data-name="Group 634"><path data-name="Path 457" d="M468.317 596.047a4.042 4.042 0 10-4.042 4.042 4.043 4.043 0 004.042-4.042z" fill="#FFF"/></g></g><g data-name="Group 639"><g data-name="Group 636"><path data-name="Path 458" d="M464.275 668.84a.538.538 0 01.271.074l63.509 36.665a.538.538 0 11-.538.932l-63.509-36.667a.538.538 0 01.268-1z" fill="#FFF"/></g><g data-name="Group 637"><path data-name="Path 459" d="M462.253 672.88a4.043 4.043 0 115.524-1.479 4.044 4.044 0 01-5.524 1.479z" fill="#FFF"/></g><g data-name="Group 638"><path data-name="Path 460" d="M525.763 709.547a4.043 4.043 0 10-1.481-5.524 4.04 4.04 0 001.481 5.524z" fill="#FFF"/></g></g></g><g data-name="Group 653"><g data-name="Group 644"><g data-name="Group 641"><path data-name="Path 461" d="M273.787 705.507a.539.539 0 01.538.538v73.332a.538.538 0 01-1.077 0v-73.332a.539.539 0 01.539-.538z" fill="#FFF"/></g><g data-name="Group 642"><path data-name="Path 462" d="M277.83 779.382a4.042 4.042 0 11-4.042-4.042 4.042 4.042 0 014.042 4.042z" fill="#FFF"/></g><g data-name="Group 643"><path data-name="Path 463" d="M277.829 706.045a4.044 4.044 0 10-4.042 4.042 4.042 4.042 0 004.042-4.042z" fill="#FFF"/></g></g><g data-name="Group 648"><g data-name="Group 645"><path data-name="Path 464" d="M210.279 668.839a.522.522 0 01.268.074l63.5 36.665a.538.538 0 11-.538.932l-63.5-36.667a.538.538 0 01.271-1z" fill="#FFF"/></g><g data-name="Group 646"><path data-name="Path 465" d="M275.795 702.544a4.043 4.043 0 11-5.521 1.479 4.04 4.04 0 015.521-1.479z" fill="#FFF"/></g><g data-name="Group 647"><path data-name="Path 466" d="M212.302 665.877a4.043 4.043 0 101.479 5.524 4.044 4.044 0 00-1.479-5.524z" fill="#FFF"/></g></g><g data-name="Group 652"><g data-name="Group 649"><path data-name="Path 467" d="M210.279 668.839a.538.538 0 01.268 1l-63.509 36.671a.538.538 0 11-.538-.932l63.509-36.665a.538.538 0 01.27-.074z" fill="#FFF"/></g><g data-name="Group 650"><path data-name="Path 468" d="M208.257 665.877a4.043 4.043 0 11-1.479 5.524 4.044 4.044 0 011.479-5.524z" fill="#FFF"/></g><g data-name="Group 651"><path data-name="Path 469" d="M144.748 702.544a4.043 4.043 0 105.524 1.479 4.041 4.041 0 00-5.524-1.479z" fill="#FFF"/></g></g></g><g data-name="Group 678"><g data-name="Group 657"><g data-name="Group 654"><path data-name="Path 470" d="M273.773 705.507a.539.539 0 01.538.538v73.332a.538.538 0 11-1.077 0v-73.332a.539.539 0 01.539-.538z" fill="#FFF"/></g><g data-name="Group 655"><path data-name="Path 471" d="M277.816 779.382a4.042 4.042 0 11-4.042-4.042 4.042 4.042 0 014.042 4.042z" fill="#FFF"/></g><g data-name="Group 656"><path data-name="Path 472" d="M277.816 706.045a4.042 4.042 0 10-4.042 4.042 4.042 4.042 0 004.042-4.042z" fill="#FFF"/></g></g><g data-name="Group 661"><g data-name="Group 658"><path data-name="Path 473" d="M273.774 778.842a.546.546 0 01.268.071l63.509 36.667a.537.537 0 11-.538.93l-63.51-36.665a.537.537 0 01.271-1z" fill="#FFF"/></g><g data-name="Group 659"><path data-name="Path 474" d="M271.752 782.882a4.043 4.043 0 115.524-1.479 4.041 4.041 0 01-5.524 1.479z" fill="#FFF"/></g><g data-name="Group 660"><path data-name="Path 475" d="M335.261 819.546a4.043 4.043 0 10-1.479-5.524 4.044 4.044 0 001.479 5.524z" fill="#FFF"/></g></g><g data-name="Group 665"><g data-name="Group 662"><path data-name="Path 476" d="M400.792 778.842a.537.537 0 01.271 1l-63.511 36.665a.537.537 0 11-.538-.93l63.511-36.667a.546.546 0 01.267-.068z" fill="#FFF"/></g><g data-name="Group 663"><path data-name="Path 477" d="M339.306 819.546a4.043 4.043 0 111.479-5.524 4.044 4.044 0 01-1.479 5.524z" fill="#FFF"/></g><g data-name="Group 664"><path data-name="Path 478" d="M402.813 782.882a4.043 4.043 0 10-5.524-1.479 4.041 4.041 0 005.524 1.479z" fill="#FFF"/></g></g><g data-name="Group 669"><g data-name="Group 666"><path data-name="Path 479" d="M400.791 705.507a.539.539 0 01.538.538v73.332a.538.538 0 01-1.077 0v-73.332a.539.539 0 01.539-.538z" fill="#FFF"/></g><g data-name="Group 667"><path data-name="Path 480" d="M404.834 779.382a4.042 4.042 0 11-4.042-4.042 4.042 4.042 0 014.042 4.042z" fill="#FFF"/></g><g data-name="Group 668"><path data-name="Path 481" d="M404.834 706.045a4.042 4.042 0 10-4.042 4.042 4.042 4.042 0 004.042-4.042z" fill="#FFF"/></g></g><g data-name="Group 673"><g data-name="Group 670"><path data-name="Path 482" d="M337.283 668.839a.522.522 0 01.268.074l63.5 36.665a.538.538 0 01-.536.932l-63.5-36.667a.538.538 0 01.271-1z" fill="#FFF"/></g><g data-name="Group 671"><path data-name="Path 483" d="M402.802 702.544a4.043 4.043 0 11-5.524 1.479 4.041 4.041 0 015.524-1.479z" fill="#FFF"/></g><g data-name="Group 672"><path data-name="Path 484" d="M339.306 665.877a4.043 4.043 0 101.479 5.524 4.045 4.045 0 00-1.479-5.524z" fill="#FFF"/></g></g><g data-name="Group 677"><g data-name="Group 674"><path data-name="Path 485" d="M337.283 668.839a.538.538 0 01.268 1l-63.513 36.671a.538.538 0 11-.538-.932l63.509-36.665a.538.538 0 01.274-.074z" fill="#FFF"/></g><g data-name="Group 675"><path data-name="Path 486" d="M335.261 665.877a4.043 4.043 0 11-1.479 5.524 4.044 4.044 0 011.479-5.524z" fill="#FFF"/></g><g data-name="Group 676"><path data-name="Path 487" d="M271.752 702.544a4.043 4.043 0 105.524 1.479 4.041 4.041 0 00-5.524-1.479z" fill="#FFF"/></g></g></g><g data-name="Group 703"><g data-name="Group 682"><g data-name="Group 679"><path data-name="Path 488" d="M400.778 705.507a.539.539 0 01.538.538v73.332a.538.538 0 01-1.077 0v-73.332a.539.539 0 01.539-.538z" fill="#FFF"/></g><g data-name="Group 680"><path data-name="Path 489" d="M404.82 779.382a4.042 4.042 0 11-4.042-4.042 4.042 4.042 0 014.042 4.042z" fill="#FFF"/></g><g data-name="Group 681"><path data-name="Path 490" d="M404.82 706.045a4.042 4.042 0 10-4.042 4.042 4.042 4.042 0 004.042-4.042z" fill="#FFF"/></g></g><g data-name="Group 686"><g data-name="Group 683"><path data-name="Path 491" d="M400.779 778.842a.546.546 0 01.268.071l63.511 36.667a.537.537 0 11-.538.93l-63.509-36.665a.537.537 0 01.268-1z" fill="#FFF"/></g><g data-name="Group 684"><path data-name="Path 492" d="M398.757 782.882a4.043 4.043 0 115.524-1.479 4.041 4.041 0 01-5.524 1.479z" fill="#FFF"/></g><g data-name="Group 685"><path data-name="Path 493" d="M462.267 819.546a4.043 4.043 0 10-1.481-5.524 4.041 4.041 0 001.481 5.524z" fill="#FFF"/></g></g><g data-name="Group 690"><g data-name="Group 687"><path data-name="Path 494" d="M527.799 778.842a.537.537 0 01.268 1l-63.509 36.665a.537.537 0 11-.538-.93l63.509-36.667a.563.563 0 01.27-.068z" fill="#FFF"/></g><g data-name="Group 688"><path data-name="Path 495" d="M466.309 819.546a4.043 4.043 0 111.479-5.524 4.044 4.044 0 01-1.479 5.524z" fill="#FFF"/></g><g data-name="Group 689"><path data-name="Path 496" d="M529.819 782.882a4.043 4.043 0 10-5.524-1.479 4.042 4.042 0 005.524 1.479z" fill="#FFF"/></g></g><g data-name="Group 694"><g data-name="Group 691"><path data-name="Path 497" d="M527.796 705.507a.539.539 0 01.538.538v73.332a.538.538 0 01-1.077 0v-73.332a.539.539 0 01.539-.538z" fill="#FFF"/></g><g data-name="Group 692"><path data-name="Path 498" d="M531.841 779.382a4.044 4.044 0 11-4.042-4.042 4.042 4.042 0 014.042 4.042z" fill="#FFF"/></g><g data-name="Group 693"><path data-name="Path 499" d="M531.839 706.045a4.042 4.042 0 10-4.042 4.042 4.042 4.042 0 004.042-4.042z" fill="#FFF"/></g></g><g data-name="Group 698"><g data-name="Group 695"><path data-name="Path 500" d="M464.29 668.839a.522.522 0 01.268.074l63.5 36.665a.538.538 0 11-.538.932l-63.5-36.667a.538.538 0 01.271-1z" fill="#FFF"/></g><g data-name="Group 696"><path data-name="Path 501" d="M529.805 702.544a4.043 4.043 0 11-5.524 1.479 4.041 4.041 0 015.524-1.479z" fill="#FFF"/></g><g data-name="Group 697"><path data-name="Path 502" d="M466.31 665.877a4.043 4.043 0 101.479 5.524 4.044 4.044 0 00-1.479-5.524z" fill="#FFF"/></g></g><g data-name="Group 702"><g data-name="Group 699"><path data-name="Path 503" d="M464.291 668.839a.538.538 0 01.268 1l-63.511 36.667a.538.538 0 01-.536-.932l63.509-36.665a.538.538 0 01.27-.07z" fill="#FFF"/></g><g data-name="Group 700"><path data-name="Path 504" d="M462.267 665.877a4.043 4.043 0 11-1.481 5.524 4.041 4.041 0 011.481-5.524z" fill="#FFF"/></g><g data-name="Group 701"><path data-name="Path 505" d="M398.757 702.544a4.043 4.043 0 105.524 1.479 4.041 4.041 0 00-5.524-1.479z" fill="#FFF"/></g></g></g><g data-name="Group 716"><g data-name="Group 707"><g data-name="Group 704"><path data-name="Path 506" d="M527.783 705.507a.539.539 0 01.538.538v73.332a.538.538 0 01-1.077 0v-73.332a.539.539 0 01.539-.538z" fill="#FFF"/></g><g data-name="Group 705"><path data-name="Path 507" d="M531.828 779.382a4.044 4.044 0 11-4.045-4.042 4.044 4.044 0 014.045 4.042z" fill="#FFF"/></g><g data-name="Group 706"><path data-name="Path 508" d="M531.828 706.045a4.044 4.044 0 10-4.045 4.042 4.045 4.045 0 004.045-4.042z" fill="#FFF"/></g></g><g data-name="Group 711"><g data-name="Group 708"><path data-name="Path 509" d="M527.783 778.842a.563.563 0 01.271.071l63.509 36.667a.537.537 0 11-.538.93l-63.509-36.665a.537.537 0 01.268-1z" fill="#FFF"/></g><g data-name="Group 709"><path data-name="Path 510" d="M525.763 782.882a4.043 4.043 0 115.521-1.479 4.042 4.042 0 01-5.521 1.479z" fill="#FFF"/></g><g data-name="Group 710"><path data-name="Path 511" d="M589.272 819.546a4.043 4.043 0 10-1.479-5.524 4.044 4.044 0 001.479 5.524z" fill="#FFF"/></g></g><g data-name="Group 715"><g data-name="Group 712"><path data-name="Path 512" d="M654.804 778.842a.537.537 0 01.268 1l-63.509 36.668a.537.537 0 11-.538-.93l63.509-36.667a.563.563 0 01.27-.071z" fill="#FFF"/></g><g data-name="Group 713"><path data-name="Path 513" d="M593.315 819.546a4.043 4.043 0 111.481-5.524 4.041 4.041 0 01-1.481 5.524z" fill="#FFF"/></g><g data-name="Group 714"><path data-name="Path 514" d="M656.824 782.882a4.043 4.043 0 10-5.521-1.479 4.04 4.04 0 005.521 1.479z" fill="#FFF"/></g></g></g><g data-name="Group 724"><g data-name="Group 719"><g data-name="Group 717"><path data-name="Path 515" d="M337.822 855.487v-39.442a.538.538 0 10-1.077 0v39.441z" fill="#FFF"/></g><g data-name="Group 718"><path data-name="Path 516" d="M341.325 816.045a4.044 4.044 0 10-4.042 4.042 4.044 4.044 0 004.042-4.042z" fill="#FFF"/></g></g><g data-name="Group 723"><g data-name="Group 720"><path data-name="Path 517" d="M273.774 778.842a.546.546 0 01.268.071l63.5 36.667a.537.537 0 11-.538.93l-63.5-36.665a.537.537 0 01.271-1z" fill="#FFF"/></g><g data-name="Group 721"><path data-name="Path 518" d="M339.29 812.544a4.043 4.043 0 11-5.524 1.479 4.044 4.044 0 015.524-1.479z" fill="#FFF"/></g><g data-name="Group 722"><path data-name="Path 519" d="M275.794 775.877a4.043 4.043 0 101.481 5.524 4.04 4.04 0 00-1.481-5.524z" fill="#FFF"/></g></g></g><g data-name="Group 739"><g data-name="Group 727"><g data-name="Group 725"><path data-name="Path 520" d="M337.808 855.487v-39.442a.538.538 0 00-1.077 0v39.441z" fill="#FFF"/></g><g data-name="Group 726"><path data-name="Path 521" d="M341.312 816.045a4.042 4.042 0 10-4.042 4.042 4.042 4.042 0 004.042-4.042z" fill="#FFF"/></g></g><g data-name="Group 730"><g data-name="Group 728"><path data-name="Path 522" d="M464.826 855.487v-39.442a.538.538 0 10-1.077 0v39.441z" fill="#FFF"/></g><g data-name="Group 729"><path data-name="Path 523" d="M468.33 816.045a4.042 4.042 0 10-4.042 4.042 4.042 4.042 0 004.042-4.042z" fill="#FFF"/></g></g><g data-name="Group 734"><g data-name="Group 731"><path data-name="Path 524" d="M400.779 778.842a.546.546 0 01.268.071l63.5 36.667a.537.537 0 11-.538.93l-63.5-36.665a.537.537 0 01.268-1z" fill="#FFF"/></g><g data-name="Group 732"><path data-name="Path 525" d="M466.298 812.544a4.043 4.043 0 11-5.524 1.479 4.044 4.044 0 015.524-1.479z" fill="#FFF"/></g><g data-name="Group 733"><path data-name="Path 526" d="M402.802 775.877a4.043 4.043 0 101.479 5.524 4.043 4.043 0 00-1.479-5.524z" fill="#FFF"/></g></g><g data-name="Group 738"><g data-name="Group 735"><path data-name="Path 527" d="M400.779 778.842a.537.537 0 01.268 1l-63.509 36.665a.537.537 0 11-.538-.93l63.511-36.667a.546.546 0 01.268-.068z" fill="#FFF"/></g><g data-name="Group 736"><path data-name="Path 528" d="M398.757 775.877a4.043 4.043 0 11-1.479 5.524 4.042 4.042 0 011.479-5.524z" fill="#FFF"/></g><g data-name="Group 737"><path data-name="Path 529" d="M335.248 812.544a4.043 4.043 0 105.524 1.479 4.044 4.044 0 00-5.524-1.479z" fill="#FFF"/></g></g></g><g data-name="Group 754"><g data-name="Group 742"><g data-name="Group 740"><path data-name="Path 530" d="M464.812 855.487v-39.442a.538.538 0 00-1.077 0v39.441z" fill="#FFF"/></g><g data-name="Group 741"><path data-name="Path 531" d="M468.317 816.045a4.042 4.042 0 10-4.042 4.042 4.042 4.042 0 004.042-4.042z" fill="#FFF"/></g></g><g data-name="Group 745"><g data-name="Group 743"><path data-name="Path 532" d="M591.831 855.487v-39.442a.538.538 0 00-1.077 0v39.441z" fill="#FFF"/></g><g data-name="Group 744"><path data-name="Path 533" d="M595.337 816.045a4.044 4.044 0 10-4.045 4.042 4.046 4.046 0 004.045-4.042z" fill="#FFF"/></g></g><g data-name="Group 749"><g data-name="Group 746"><path data-name="Path 534" d="M527.783 778.842a.563.563 0 01.271.071l63.5 36.667a.537.537 0 11-.538.93l-63.5-36.665a.537.537 0 01.268-1z" fill="#FFF"/></g><g data-name="Group 747"><path data-name="Path 535" d="M593.301 812.544a4.043 4.043 0 11-5.524 1.479 4.044 4.044 0 015.524-1.479z" fill="#FFF"/></g><g data-name="Group 748"><path data-name="Path 536" d="M529.805 775.877a4.043 4.043 0 101.479 5.524 4.043 4.043 0 00-1.479-5.524z" fill="#FFF"/></g></g><g data-name="Group 753"><g data-name="Group 750"><path data-name="Path 537" d="M527.784 778.842a.537.537 0 01.271 1l-63.509 36.665a.537.537 0 11-.538-.93l63.505-36.664a.546.546 0 01.271-.071z" fill="#FFF"/></g><g data-name="Group 751"><path data-name="Path 538" d="M525.763 775.877a4.043 4.043 0 11-1.481 5.524 4.04 4.04 0 011.481-5.524z" fill="#FFF"/></g><g data-name="Group 752"><path data-name="Path 539" d="M462.253 812.544a4.043 4.043 0 105.524 1.479 4.044 4.044 0 00-5.524-1.479z" fill="#FFF"/></g></g></g><g data-name="Group 762"><g data-name="Group 757"><g data-name="Group 755"><path data-name="Path 540" d="M591.818 855.487v-39.442a.538.538 0 00-1.077 0v39.441z" fill="#FFF"/></g><g data-name="Group 756"><path data-name="Path 541" d="M595.324 816.045a4.044 4.044 0 10-4.045 4.042 4.044 4.044 0 004.045-4.042z" fill="#FFF"/></g></g><g data-name="Group 761"><g data-name="Group 758"><path data-name="Path 542" d="M654.79 778.842a.537.537 0 01.268 1l-63.509 36.665a.537.537 0 11-.538-.93l63.509-36.667a.563.563 0 01.27-.068z" fill="#FFF"/></g><g data-name="Group 759"><path data-name="Path 543" d="M652.769 775.877a4.043 4.043 0 11-1.479 5.524 4.043 4.043 0 011.479-5.524z" fill="#FFF"/></g><g data-name="Group 760"><path data-name="Path 544" d="M589.259 812.544a4.043 4.043 0 105.521 1.479 4.045 4.045 0 00-5.521-1.479z" fill="#FFF"/></g></g></g></g></g></svg>