<svg xmlns="http://www.w3.org/2000/svg" viewBox="0 0 442.13 448.73"><defs><style>.cls-2{fill:#d3f2fe}.cls-12,.cls-24{fill:#fff}.cls-20,.cls-8{stroke-miterlimit:10;fill:none}.cls-5{fill:#afd7fe}.cls-7{fill:#2f7d54}.cls-8{stroke:#2f7d54}.cls-9{fill:#84b063}.cls-10{fill:#e2e2e2;mix-blend-mode:multiply}.cls-14{fill:#5799e6}.cls-16{fill:#ffc0ad}.cls-17{fill:#2a3141}.cls-18{fill:#ed6a66}.cls-20{stroke:gray}.cls-21{fill:gray}.cls-22{fill:#59b3eb}.cls-23{fill:#a8d18a}.cls-24{font-size:21.06px;font-family:Rubik-Bold,Rubik;font-weight:700}.cls-28{fill:#f7bcb2}.cls-30{fill:#53c1c1}</style></defs><g style="isolation:isolate"><g id="OBJECTS"><path class="cls-2" d="M452.47 96.36h-69a2.09 2.09 0 00-2.09 2.09v60.21a2.1 2.1 0 003.5 1.55l10.26-9.33a2.1 2.1 0 011.41-.55h55.94a2.1 2.1 0 002.09-2.09V98.45a2.09 2.09 0 00-2.11-2.09z" transform="translate(-35.9 -28.23)"/><path d="M359 55h58.26a1.76 1.76 0 011.74 1.72v50.83a1.77 1.77 0 01-3 1.31l-8.64-7.86a1.74 1.74 0 00-1.19-.46H359a1.77 1.77 0 01-1.77-1.77v-42A1.76 1.76 0 01359 55z" transform="translate(-35.9 -28.23)" stroke-miterlimit="10" stroke="#d3f2fe" fill="#fff"/><path stroke="#59b3eb" fill="none" stroke-miterlimit="10" d="M15.58 383.73H412.3"/><path class="cls-5" d="M81.7 99.25l-2-1.75a.39.39 0 01-.11-.42c.11-.39.22-.78.3-1.19a12.73 12.73 0 00.25-2.28.39.39 0 01.27-.37l2.11-.72a1.64 1.64 0 001-2.09l-1.69-5a1.65 1.65 0 00-2.09-1l-2.31.78a.39.39 0 01-.42-.12 12.59 12.59 0 00-2.87-2.47.4.4 0 01-.19-.41l.38-1.86a1.65 1.65 0 00-1.29-1.94l-5.19-1A1.65 1.65 0 0066 78.62l-.37 1.86a.39.39 0 01-.33.31 12.74 12.74 0 00-4.06 1.42.39.39 0 01-.45 0l-1-.9a1.65 1.65 0 00-2.32.15l-3.5 4a1.66 1.66 0 00.15 2.33l1.17 1a.42.42 0 01.11.44 13.16 13.16 0 00-.48 1.69 12.13 12.13 0 00-.23 2.8.4.4 0 01-.27.39l-1.13.38a1.65 1.65 0 00-1 2.09l1.69 5a1.65 1.65 0 002.09 1l1.68-.57a.41.41 0 01.42.1 12.56 12.56 0 003.4 2.59.39.39 0 01.21.43l-.3 1.53a1.64 1.64 0 001.29 1.94l5.18 1a1.65 1.65 0 001.94-1.29l.46-2.29a.42.42 0 01.29-.31 12.63 12.63 0 003.36-1.42.39.39 0 01.47 0l1.53 1.4a1.65 1.65 0 002.33-.15l3.49-4a1.65 1.65 0 00-.12-2.29zm-15.06.36a6.26 6.26 0 117.36-4.9 6.26 6.26 0 01-7.36 4.9zM116 143.74l-3.08-2.74a.61.61 0 01-.18-.65 18.74 18.74 0 00.47-1.86 19.92 19.92 0 00.4-3.57.59.59 0 01.41-.58l3.31-1.12A2.58 2.58 0 00119 130l-2.64-7.83a2.58 2.58 0 00-3.36-1.67l-3.61 1.22a.61.61 0 01-.66-.19 20.28 20.28 0 00-4.49-3.86.62.62 0 01-.24-.67l.59-2.91a2.59 2.59 0 00-2-3l-8.11-1.63a2.59 2.59 0 00-3 2l-.58 2.91a.62.62 0 01-.51.49 19.84 19.84 0 00-6.39 2.23.64.64 0 01-.72-.07l-1.6-1.41a2.58 2.58 0 00-3.64.23l-5.46 6.21a2.58 2.58 0 00.23 3.64l1.83 1.6a.62.62 0 01.17.68 21.19 21.19 0 00-.75 2.65 19.83 19.83 0 00-.36 4.38.63.63 0 01-.42.61l-1.76.6a2.58 2.58 0 00-1.62 3.27l2.64 7.83a2.59 2.59 0 003.27 1.62l2.63-.89a.61.61 0 01.65.17 19.86 19.86 0 005.33 4 .63.63 0 01.33.68l-.48 2.38a2.58 2.58 0 002 3l8.1 1.73a2.58 2.58 0 003-2l.72-3.59a.63.63 0 01.46-.47 19.93 19.93 0 005.42-2.28.62.62 0 01.73.06l2.43 2.14a2.58 2.58 0 003.64-.23l5.47-6.21a2.58 2.58 0 00-.24-3.68zm-23.55.57a9.79 9.79 0 1111.55-7.67 9.78 9.78 0 01-11.52 7.67z" transform="translate(-35.9 -28.23)"/><path d="M49.2 239.1h41.05a9.72 9.72 0 000-19.43h-.24A19.86 19.86 0 0052.58 214a12.6 12.6 0 00-3.38-.47 12.81 12.81 0 000 25.61zm342.59 106.35h41a9.71 9.71 0 100-19.42h-.24a19.86 19.86 0 00-37.43-5.73 13 13 0 00-3.38-.46 12.8 12.8 0 100 25.6z" transform="translate(-35.9 -28.23)" stroke-miterlimit="10" fill="none" stroke="#d3f2fe"/><path class="cls-2" d="M146.23 53.77h29a6.86 6.86 0 000-13.71H175a14 14 0 00-26.41-4 8.94 8.94 0 00-2.38-.33 9 9 0 000 18.07z" transform="translate(-35.9 -28.23)"/><path class="cls-5" d="M418.82 228h-2.31v-4.63a11.69 11.69 0 00-.84-4.37c-.13-.34-.29-.66-.45-1v-.06a11 11 0 00-5.23-5h-.09a11.22 11.22 0 00-1.91-.62h-.23c-.24-.05-.5-.09-.75-.12h-.28c-.33 0-.66-.05-1-.05h-2.56c-.34 0-.67 0-1 .05h-.27c-.26 0-.51.07-.76.12h-.22a11.22 11.22 0 00-1.91.62h-.1a11 11 0 00-5.22 5v.06c-.17.32-.32.64-.46 1a11.5 11.5 0 00-.85 4.37V228H390a4 4 0 00-4 4v25a4 4 0 004 4h28.78a4 4 0 004-4v-25a4 4 0 00-3.96-4zm-23.57-4.63a8.89 8.89 0 01.68-3.4c.12-.29.26-.56.4-.83l.18-.32c.16-.26.33-.51.52-.76l.25-.29c.14-.17.29-.34.45-.5l.3-.29a7.81 7.81 0 01.71-.58l.24-.16c.21-.14.42-.26.64-.38l.29-.15a7.89 7.89 0 01.91-.37h.13a8.25 8.25 0 01.89-.21h.26a7.2 7.2 0 011-.08h2.56a7.42 7.42 0 011.05.08h.26a8.86 8.86 0 01.89.21h.12a6.66 6.66 0 01.91.37l.3.15c.21.12.43.24.63.38l.25.16a7.81 7.81 0 01.71.58l.3.29.45.5.25.29c.18.25.35.5.51.76s.12.21.18.32a8 8 0 01.41.83 8.89 8.89 0 01.68 3.4V228h-18.31zm10.84 23.18v3.09a1.4 1.4 0 01-2.8 0v-3.09a3.11 3.11 0 112.8 0z" transform="translate(-35.9 -28.23)"/><path class="cls-7" d="M84.81 376.71s17-37.82 13.64-53c0-.02-13.33 28.16-13.64 53z" transform="translate(-35.9 -28.23)"/><path class="cls-8" d="M88.69 364.32s-8 19.05-10.12 35.2m-3.7-41.07s8.92 19.78 8.2 41" transform="translate(-35.9 -28.23)"/><path class="cls-8" d="M47.01 325l-1.45 46.78"/><path class="cls-7" d="M82.91 358.53s2.41-59.07-10.13-77.4c0 0-2.65 44.37 10.13 77.4z" transform="translate(-35.9 -28.23)"/><path class="cls-9" d="M83.08 367.23s14.24-57.38 5.64-77.85c0 0-11.52 42.92-5.64 77.85zm-3.36 8.27s-8.18-58.56-23.79-74.35c0 0 5.32 44.13 23.79 74.35z" transform="translate(-35.9 -28.23)"/><path class="cls-5" d="M35.83 355.25h19.92l-2.31 27.97H38.15l-2.32-27.97z"/><path class="cls-10" d="M155.29 411.5c0 2.86 40.6 5.18 90.69 5.18s90.68-2.32 90.68-5.18-40.6-5.18-90.68-5.18-90.69 2.32-90.69 5.18z" transform="translate(-35.9 -28.23)"/><rect x="125.47" y="57.33" width="167.48" height="326.71" rx="7.1" fill="#083685"/><path class="cls-12" d="M313.43 91.09h-46.61a9.31 9.31 0 00-8.41 5.12 13.77 13.77 0 01-24.94 0 9.29 9.29 0 00-8.41-5.12h-48.29a10.39 10.39 0 00-10.25 10.53v276.8A10.39 10.39 0 00176.77 389h136.66a10.38 10.38 0 0010.25-10.53V101.62a10.38 10.38 0 00-10.25-10.53zm-47.75 313.16h-40.34a4.7 4.7 0 01-4.7-4.71 4.7 4.7 0 014.7-4.7h40.34a4.7 4.7 0 014.7 4.7 4.7 4.7 0 01-4.7 4.71z" transform="translate(-35.9 -28.23)"/><path class="cls-14" d="M171.92 94.08h48.3a9.3 9.3 0 018.4 5.13 13.91 13.91 0 0012.47 7.93 13.65 13.65 0 009.44-3.82 13.72 13.72 0 01-4.59.82 13.91 13.91 0 01-12.47-7.93 9.29 9.29 0 00-8.41-5.12h-48.29a10.09 10.09 0 00-7.49 3.36 10 10 0 012.64-.37zm141.51-2.99h-46.61a9.43 9.43 0 00-7.19 3.29 9.62 9.62 0 012.34-.3h46.62a10.4 10.4 0 0110.25 10.53v276.81a10.6 10.6 0 01-2.76 7.16 10.47 10.47 0 007.6-10.16v-276.8a10.38 10.38 0 00-10.25-10.53z" transform="translate(-35.9 -28.23)" opacity=".12"/><path class="cls-12" d="M249.52 94.08a3.58 3.58 0 11-3.58-3.57 3.58 3.58 0 013.58 3.57z" transform="translate(-35.9 -28.23)"/><path class="cls-5" transform="rotate(180 235.14 130.935)" d="M208.92 140.81h88.34v8.48h-88.34z"/><path class="cls-5" transform="rotate(180 235.14 147.285)" d="M208.92 157.16h88.34v8.48h-88.34z"/><path class="cls-5" transform="rotate(180 235.14 163.635)" d="M208.92 173.51h88.34v8.48h-88.34z"/><path class="cls-5" d="M182.83 127.31a1.33 1.33 0 01.27-.85 3 3 0 01.78-.67l12-8.08a.92.92 0 01.24-.09h.16a.75.75 0 01.76.76V120a1.32 1.32 0 01-.38.94 3.91 3.91 0 01-.78.66l-9.56 6.48 9.56 6.48a3.85 3.85 0 01.78.65 1.34 1.34 0 01.38.94v1.63a.75.75 0 01-.76.76.47.47 0 01-.16 0 .92.92 0 01-.24-.09l-12-8.07a3.15 3.15 0 01-.78-.67 1.33 1.33 0 01-.27-.85z" transform="translate(-35.9 -28.23)"/><path transform="rotate(180 165.495 242.445)" stroke="#59b3eb" stroke-miterlimit="10" fill="#fff" d="M139.6 220.13h87.68V293H139.6z"/><path class="cls-5" transform="rotate(180 165.025 224.775)" d="M148.58 235.59h68.78v6.6h-68.78z"/><path class="cls-5" transform="rotate(180 165.025 237.505)" d="M148.58 248.32h68.78v6.6h-68.78z"/><path class="cls-5" transform="rotate(180 171.02 250.24)" d="M160.57 261.05h56.79v6.6h-56.79z"/><path class="cls-5" transform="rotate(180 171.02 262.97)" d="M160.57 273.78h56.79v6.6h-56.79z"/><path class="cls-10" d="M109.25 449.14c0 3 17.06 5.4 38.1 5.4s38.1-2.41 38.1-5.4-17.06-5.4-38.1-5.4-38.1 2.42-38.1 5.4z" transform="translate(-35.9 -28.23)"/><path class="cls-16" d="M120.65 429.39l-1.91 11.34 8.65 3.76 4.68-14.83a64.83 64.83 0 01-11.42-.27z" transform="translate(-35.9 -28.23)"/><path class="cls-17" d="M170.93 431.33l6.82-58.58v-85.48l-39.83-4.61 22.16 89.47-.48 58.69a39.43 39.43 0 0011.33.51z" transform="translate(-35.9 -28.23)"/><path class="cls-16" d="M123.68 402.59l.49 11.83 8.36 1.73 2.51-13.05"/><path class="cls-17" d="M157.86 289.21l-23.2 1.66-1.09 13.74-4.09 71-8.83 53.79a64.83 64.83 0 0011.42.27l16.62-56.1zm-38.77 149.66s2.66 4.12 9.69.52c0 0-.17 1.09 3.85 5.1 0 0 9.59 2.45 12 6.47 0 0-14.94 1.9-28.88-.78.04 0 .96-7.11 3.34-11.31zm40.97 1.13s6.36 3 9.26-.11c0 0 1.45 1.23 4.46 3.9 0 0 9 2.9 11.49 6.92a94.16 94.16 0 01-27.55 1.45s-.04-7.93 2.34-12.16z" transform="translate(-35.9 -28.23)"/><path class="cls-16" d="M127.68 255.88c-2.34 6.06-4.18 11.17-5 13.6a3 3 0 00.42 2.68c4.22 5.81 23.22 17.28 29.9 21.43l4.44-6.87s-20.47-16-21.07-18.55a42.19 42.19 0 013.18-9.37" transform="translate(-35.9 -28.23)"/><path class="cls-18" d="M142.29 261.57c2.65-5.17 4.65-13.44 7.25-21.92a14.81 14.81 0 00-1.64-12.21c-2.33-3.4-5-1.52-5-1.52-4.74 5.17-11.87 21.14-15.27 30" transform="translate(-35.9 -28.23)"/><path class="cls-16" d="M180.14 261.26c1.36 6.05 4 13 4.7 15.29a2.79 2.79 0 001.68 1.88c6.08 2.26 26 .86 33 .46l-.22-7.85s-23-2.05-24.79-3.75c0 0-.81-6-1.36-10.51" transform="translate(-35.9 -28.23)"/><path class="cls-18" d="M193.85 257a114.21 114.21 0 00-4.34-19.07c-1.22-4.11-7.45-10.7-11.51-11.46-3.66-.68-1.71 4.09-1.71 4.09 1.13 8 1.86 21.93 3.85 30.74" transform="translate(-35.9 -28.23)"/><path class="cls-16" d="M179.84 200.88l2.6 4.4a.85.85 0 01-.4 1.13l-2 1zm-6.36 24.61l-.17-.07c-1.67-.68-2.32-13.36-.86-16.67l-13.57-17.92a140.08 140.08 0 01-.53 24.72 12.26 12.26 0 01-5.23 8" transform="translate(-35.9 -28.23)"/><path class="cls-16" d="M180.11 215a1.75 1.75 0 01-1.28 1.7c-8.56 2.09-22.69-11-22.7-20 0-4.52 4.68-6.64 9.22-7.75 7-1.72 12.35-2.71 14.75 10.08.02.15.01 15.97.01 15.97z" transform="translate(-35.9 -28.23)"/><path class="cls-17" d="M178.17 192.46l.73-.71a2.08 2.08 0 00-.13-3.07c-11.62-10-25.44 2.4-24.62 7.56 2.33 14.68 4.57 16.84 4.57 16.84s6.08 4.83 5.84-7.76c5.52 3.24 6-9.5 6-9.5-.05-1.98 4.9-2.31 7.61-3.36z" transform="translate(-35.9 -28.23)"/><path class="cls-16" d="M163.57 206.55c.91 1.64 2.67 2.45 3.94 1.81s1.55-2.49.64-4.13-2.67-2.46-3.93-1.82-1.55 2.5-.65 4.14z" transform="translate(-35.9 -28.23)"/><path class="cls-18" d="M184.59 241.35c-.76-7.3-3.23-13.8-4.79-14.23a80.72 80.72 0 00-7.46-3.61s-13.31.88-16.23-2.63c0 0-12.82 3.92-13.16 5-5 16.73-3.77 21-3.77 21l-1.84 22.81-3.56 25.62c5.31 2.46 32.52 5.73 44.71 3.33 0 0-1.25-23.85-1.08-27.8 0 .07 7.84-23.1 7.18-29.49z" transform="translate(-35.9 -28.23)"/><path class="cls-16" d="M216.77 271.57s1.36-4.33 3.18-5.2 5.12-3 6-2.21-1.64 3.47-4.64 4.07z" transform="translate(-35.9 -28.23)"/><path class="cls-16" d="M219.19 268.46s7.64-1.72 8.91-1.72a1.58 1.58 0 011.32 2.58c-.43.55 1.35 1.08.35 2.91-.62 1.14.34 1.08.09 2.17-.2.86-1.63 1.23-1.45 2.1.33 1.61-1.32 1.72-2.33 2.3s-5.36 1.31-9.33-.61c-5.18-2.5 2.44-9.73 2.44-9.73z" transform="translate(-35.9 -28.23)"/><path class="cls-17" d="M168.09 203.26s4.94 4.1 7.53 4.1h4.43s1.84 9.33 1.26 9.75-9.37 2.26-13.47-2.43.16-9.91.25-11.42z" transform="translate(-35.9 -28.23)"/><path d="M102.08 231.41l.51-18.23m42.82 5.52l-.95 13.88" stroke="#2a3141" stroke-miterlimit="10" fill="none"/><path class="cls-20" d="M116.36 312.1l-5.8-18.07"/><rect class="cls-21" x="158.6" y="428.25" width="13.42" height="5.95" rx="1.74" transform="rotate(2.9 704.956 -292.19)"/><rect class="cls-21" x="119.67" y="426.8" width="13.42" height="5.95" rx="1.74" transform="rotate(6.81 345.625 113.863)"/><path class="cls-22" d="M281.33 395.89v7.08l51.77 2.87 45.2-1.46v-6.94l-96.97-1.55z"/><path class="cls-14" d="M281.33 402.97l51.77 2.87v-6.93l-23.23-2.56-28.54-.46v7.08z"/><path class="cls-5" d="M378.3 397.44l-45.2 1.47-51.77-2.88 45.21-1.46 51.76 2.87z"/><path class="cls-9" d="M299.73 388.42v7.07l51.77 2.87 45.2-1.46v-6.93l-96.97-1.55z"/><path class="cls-7" d="M299.73 395.49l51.77 2.87v-6.93l-23.23-2.56-28.54-.45v7.07z"/><path class="cls-23" d="M396.7 389.97l-45.2 1.46-51.77-2.87 45.21-1.46 51.76 2.87z"/><path class="cls-22" d="M281.33 379.65v7.07l51.77 2.88 45.2-1.47v-6.93l-96.97-1.55z"/><path class="cls-14" d="M281.33 386.72l51.77 2.88v-6.94l-23.23-2.55-28.54-.46v7.07z"/><path class="cls-5" d="M378.3 381.2l-45.2 1.46-51.77-2.87 45.21-1.46 51.76 2.87z"/><path class="cls-9" d="M442.13 403.14l-20.03-46.23h-50.02l-2.88 4.03 20.03 46.23h50.02l2.88-4.03z"/><path class="cls-23" d="M442.13 403.14h-50.02l-20.03-46.23h50.02l20.03 46.23z"/><text class="cls-24" transform="matrix(.88 0 .47 .88 392.27 385.7)">C++</text><path class="cls-7" d="M392.11 403.14l-2.88 4.03-20.03-46.23 2.88-4.03 20.03 46.23z"/><path class="cls-10" d="M367.25 418.07l-3.42 6.84-47.14-18.93 7.01-15.84 43.55 27.93z"/><path class="cls-18" d="M407.5 394.79l-40.59-29.85-43.21 25.2-.46 4.93 40.59 29.84 43.21-25.2.46-4.92z"/><path fill="#ff957a" d="M407.5 394.79l-43.21 25.2-40.59-29.85 43.21-25.2 40.59 29.85z"/><text transform="matrix(.76 -.44 .85 .53 361.16 403.46)" font-size="21.06" font-family="Rubik-Bold,Rubik" font-weight="700" fill="#fff">JS</text><path fill="#cf5959" d="M364.29 419.99l-.46 4.92-40.59-29.84.46-4.93 40.59 29.85z"/><path class="cls-28" d="M307.48 254.64s31.3 6.42 32.14 7.77-11.83 7.37-11.83 7.37-19.05-2.57-25.15-6.84 4.84-8.3 4.84-8.3z" transform="translate(-35.9 -28.23)"/><path class="cls-28" d="M311.13 256.77c-2.55-6.13-9.36-22.22-9.36-22.22L297 235s.83 22.34 3.93 26.57 12.12-.2 10.2-4.8z" transform="translate(-35.9 -28.23)"/><path class="cls-10" d="M342.14 471.77c0 2.87-16.36 5.19-36.54 5.19s-36.53-2.32-36.53-5.19 16.35-5.18 36.53-5.18 36.54 2.32 36.54 5.18z" transform="translate(-35.9 -28.23)"/><path class="cls-17" d="M326.52 451.81l-11-60.95-6.38-75.39 31.15-5.22-7.9 78.64 5 61.56a38 38 0 01-10.87 1.36z" transform="translate(-35.9 -28.23)"/><path class="cls-16" d="M301.44 422.22l.46 11.34-7.86 2.31-3.41-12.29"/><path class="cls-17" d="M337.59 459.29s-5.84 3.37-8.86.61c0 0-1.29 1.29-4 4.08 0 0-8.41 3.47-10.44 7.5a90.26 90.26 0 0026.45-.75s-.54-7.62-3.15-11.44z" transform="translate(-35.9 -28.23)"/><rect class="cls-21" x="325.46" y="448.42" width="12.87" height="5.7" rx="1.74" transform="rotate(172.45 314.884 435.971)"/><path class="cls-17" d="M302.86 315.33l21.35 5.57-.74 4.35c-1.55 9.1 6.48 6.07 3.13 14.68l-28.92 48.72 1.67 71.1a69.14 69.14 0 01-11.1-4.54L279.18 387z" transform="translate(-35.9 -28.23)"/><path class="cls-16" d="M299.29 451.77l1 12-9.37 3.2-3.63-15.93a68.37 68.37 0 0012 .73z" transform="translate(-35.9 -28.23)"/><path class="cls-17" d="M300.1 461.83s-3.14 4.07-10.18-.29c0 0 .08 1.15-4.46 5 0 0-10.25 1.74-13.16 5.73 0 0 15.47 3.27 30.29 1.66 0 .01-.35-7.51-2.49-12.1z" transform="translate(-35.9 -28.23)"/><rect class="cls-21" x="286.21" y="448.55" width="14.09" height="6.25" rx="1.74" transform="rotate(177.87 275.555 437.237)"/><path d="M300.59 317.61s24.47 10.65 34.09-7.41z" transform="translate(-35.9 -28.23)" style="mix-blend-mode:multiply" fill="#947fad" opacity=".3"/><path class="cls-28" d="M328.86 261.47s-1.11-10.12-.64-11 7.47-8.35 7.2-14.6-6.95-12.11-15.16-10.52-10.07 6-10.44 10.37c-.1 1.23.92 2.83.25 6.19-1.08 5.46.65 7.57 2.89 12.85a1.27 1.27 0 001.09.6c1.38.16 4 0 5.39-1.39l-1.3 5.4s5.86 3.63 10.72 2.1z" transform="translate(-35.9 -28.23)"/><path class="cls-17" d="M312 231.51a29.47 29.47 0 008.53 10.74s2.92-2.86 4-.09c1.45 3.62-3.5 5.34-3.5 5.34l7 3.35s7.62-6.5 8-12.84-3.45-13.01-11.39-14.41c-9-1.54-17.22 5.67-14.67 10.93.03 0 .03-1.34 2.03-3.02z" transform="translate(-35.9 -28.23)"/><path class="cls-28" d="M311.08 239.26l-3 4.7c-.71 1.1 1.81 2.4 2.62 2.24s.38-6.94.38-6.94z" transform="translate(-35.9 -28.23)"/><path class="cls-30" d="M339.26 262.22c-2.73-2.11-6.48-1.21-10.68-4.37l-10.3-.07a17.94 17.94 0 01-9.8 2.76c-4.61 0-6.71 8.73-6.71 8.73-.32 1.18.35 37.54.35 37.54l-1.53 10.8c21.49 9.57 39.67-7.36 39.67-7.36l-6.46-11.72 5.2-22.59c1.87-3.53 3.48-11.24.26-13.72z" transform="translate(-35.9 -28.23)"/><path class="cls-17" d="M328.16 228.09a8.08 8.08 0 017.68-6.48 7.58 7.58 0 016.48 3.36c2.68 4.27 0 11.42-4.56 12.48s-10.44-4.11-9.6-9.36z" transform="translate(-35.9 -28.23)"/><path class="cls-20" d="M277.8 333.66l12.37-21.96"/><path class="cls-17" d="M340.26 310.25s3.44 17.44-3.22 30.58z" transform="translate(-35.9 -28.23)"/><path class="cls-22" d="M274.83 225.55l-24.99-43.74-49.72 5.5-2.41 4.32 24.99 43.74 49.72-5.5 2.41-4.32z"/><path class="cls-5" d="M274.83 225.55l-49.72 5.51-24.99-43.75 49.72-5.5 24.99 43.74z"/><text class="cls-24" transform="matrix(.88 -.1 .56 .83 223.37 213.65)">PH<tspan x="29.86" y="0" letter-spacing="-.02em">P</tspan></text><path class="cls-14" d="M225.11 231.06l-2.41 4.31-24.99-43.74 2.41-4.32 24.99 43.75z"/><path class="cls-28" d="M278.12 272.49s28.92-12.62 30.36-11.95-5.07 13.54-5.07 13.54-17.37 8.25-24.81 8-.48-9.59-.48-9.59zM261.51 256s-.67-4.37-2.22-4.82c-3.34-1-4.37-3.16-4.5-2.22-.28 2 1.11 3.19 3.39 3.85z" transform="translate(-35.9 -28.23)"/><path class="cls-28" d="M259.78 253.06s-5.81-1.85-6.78-1.9c-1.44-.07-1.56 1.6-1.14 2.28.3.51-1.09.92-.4 2.61.43 1.06-.31 1-.17 2 .12.78 1.2 1.17 1 2-.32 1.43.94 1.59 1.7 2.15s4.07 1.4 7.22-.18c4.13-2.15-1.43-8.96-1.43-8.96z" transform="translate(-35.9 -28.23)"/><path class="cls-28" d="M282.35 272.28c-5.49-3.75-20-13.5-20-13.5l-3.78 3s12.9 18.26 17.81 20.11 10.09-6.81 5.97-9.61z" transform="translate(-35.9 -28.23)"/><path class="cls-30" d="M308.84 260.55s-8.7.09-20.46 7.23c0 0 .84 10.35 1.8 12.51 0 0 33.3-7.02 18.66-19.74z" transform="translate(-35.9 -28.23)"/><path class="cls-28" d="M301.66 234.18s-1.42-4-2.07-5.61-5.84-2.55-7.58-3.52-.08 3.09 3.59 4c0 0 1.3 7.95 6.51 6.76" transform="translate(-35.9 -28.23)"/></g></g></svg>