<svg xmlns="http://www.w3.org/2000/svg" width="402.248" height="302.026"><g data-name="Group 95" fill="#083685"><path data-name="Path 227" d="M7.873 92.364l-3.227.57L.306 68.36l3.226-.57 2.01 11.383 8.1-13.169 4.216-.744-9.29 14.476 13.63 10.097-4.29.758-11.977-9.22zm17.766-23.213l.557 3.152a6.875 6.875 0 015.733-4.597 7.46 7.46 0 015.77 1.198 8.363 8.363 0 013.247 5.734l2.036 11.524-3.191.564-1.942-10.993a6.434 6.434 0 00-2.208-4.221 5.167 5.167 0 00-4.188-.833 5.225 5.225 0 00-3.67 2.221 6.383 6.383 0 00-.647 4.722l1.942 10.996-3.227.57-3.439-19.467zm30.365 12.297a6.632 6.632 0 004.386-2.806 7.395 7.395 0 001.042-5.795 7.527 7.527 0 00-2.873-5.087 6.386 6.386 0 00-5.007-1.127 6.155 6.155 0 00-4.248 2.762 7.727 7.727 0 00-.882 5.769 7.919 7.919 0 002.734 5.13 5.91 5.91 0 004.848 1.154zm-6.933 1.115a10.203 10.203 0 01-3.944-6.799 9.972 9.972 0 011.514-7.784 10.403 10.403 0 0114.042-2.48 9.95 9.95 0 014.086 6.774 9.724 9.724 0 01-1.642 7.786 10.133 10.133 0 01-6.653 4.046 9.377 9.377 0 01-7.403-1.543zm40.325-24.675l3.259-.576-2.692 20.551-3.333.589-7.13-14.688-1.664 16.241-3.37.595-9.608-18.377 3.333-.59 7.372 15.446L77.27 60.03l3.333-.588 7.201 15.511zm20.212-3.57l.557 3.152a6.875 6.875 0 015.734-4.597 7.844 7.844 0 014.23.37 6.877 6.877 0 013.284 2.656 8.082 8.082 0 012.342-3.613 7.945 7.945 0 013.97-1.853 7.55 7.55 0 015.84 1.18 8.363 8.363 0 013.247 5.735l2.036 11.526-3.188.563-1.941-10.992a6.383 6.383 0 00-2.226-4.215 5.886 5.886 0 00-7.836 1.385 6.383 6.383 0 00-.647 4.721l1.942 10.993-3.192.564-1.942-10.993a6.434 6.434 0 00-2.207-4.217 5.167 5.167 0 00-4.188-.833 5.225 5.225 0 00-3.67 2.22 6.383 6.383 0 00-.648 4.723l1.942 10.992-3.227.57-3.438-19.467zm44.266 9.842a6.632 6.632 0 004.386-2.807 7.395 7.395 0 001.042-5.795 7.527 7.527 0 00-2.873-5.087 6.386 6.386 0 00-5.008-1.126 6.155 6.155 0 00-4.247 2.761 7.727 7.727 0 00-.883 5.769 7.919 7.919 0 002.735 5.13 5.91 5.91 0 004.848 1.155zm-6.934 1.115a10.203 10.203 0 01-3.943-6.8 9.972 9.972 0 011.514-7.784 10.403 10.403 0 0114.042-2.48 9.95 9.95 0 014.085 6.774 9.724 9.724 0 01-1.641 7.786 10.134 10.134 0 01-6.654 4.046 9.377 9.377 0 01-7.403-1.542zm21.248-21.306l.583 3.298a6.158 6.158 0 015.283-4.663l.595 3.369-.851.15a5.201 5.201 0 00-3.548 1.962q-1.066 1.523-.502 4.714l1.88 10.638-3.228.57-3.439-19.468zm21.474 16.611a9.102 9.102 0 01-7.297-1.563 10.334 10.334 0 01-3.915-6.841 10.19 10.19 0 011.372-7.759 10.268 10.268 0 0113.68-2.563 9.212 9.212 0 013.746 6.195 12.325 12.325 0 01.196 1.94l-15.496 2.737a6.796 6.796 0 002.638 4.27 5.924 5.924 0 004.606.923 6.119 6.119 0 003.192-1.478 5.348 5.348 0 001.59-2.695l3.477-.614a9.073 9.073 0 01-2.428 4.78 9.392 9.392 0 01-5.361 2.668zm4.142-12.36a6.169 6.169 0 00-2.565-4.172 6.455 6.455 0 00-8.588 1.48 6.702 6.702 0 00-1.08 4.853zm32.393 1.006a7.326 7.326 0 001.017-5.628 7.364 7.364 0 00-2.866-4.942 6.347 6.347 0 00-4.996-1.165 6.462 6.462 0 00-4.307 2.735 7.116 7.116 0 00-1.015 5.555 7.578 7.578 0 002.896 5.01 6.402 6.402 0 009.271-1.565zm-4.373 5.673a8.824 8.824 0 01-7.136-1.685 10.45 10.45 0 01-3.95-6.835 10.103 10.103 0 011.37-7.665 8.971 8.971 0 016.164-3.923 8.113 8.113 0 014.553.404 7.79 7.79 0 013.358 2.556l-.689-3.9 3.263-.577 3.438 19.464-3.264.576-.702-3.971a7.852 7.852 0 01-2.27 3.6 8.022 8.022 0 01-4.135 1.956zm25.043-7.276a6.289 6.289 0 004.302-2.863 7.579 7.579 0 00.983-5.695 7.14 7.14 0 00-2.856-4.889 6.462 6.462 0 00-4.984-1.094 6.347 6.347 0 00-4.294 2.806 7.34 7.34 0 00-1.003 5.607 7.402 7.402 0 002.866 4.943 6.302 6.302 0 004.986 1.185zm-2.424-17.449a8.971 8.971 0 017.134 1.574 10.103 10.103 0 013.913 6.731 10.45 10.45 0 01-1.369 7.775 8.824 8.824 0 01-6.126 4.028 8.022 8.022 0 01-4.554-.42 8.12 8.12 0 01-3.405-2.599l.7 3.966-3.226.57-4.635-26.24 3.226-.57 1.887 10.677a8.036 8.036 0 016.453-5.492zM269.155 43.8a6.632 6.632 0 004.386-2.806 7.395 7.395 0 001.042-5.797 7.527 7.527 0 00-2.873-5.087 6.386 6.386 0 00-5.008-1.127 6.155 6.155 0 00-4.247 2.762 7.727 7.727 0 00-.883 5.769 7.919 7.919 0 002.735 5.13 5.91 5.91 0 004.847 1.152zm-6.933 1.115a10.203 10.203 0 01-3.944-6.799 9.972 9.972 0 011.514-7.784 10.403 10.403 0 0114.042-2.48 9.95 9.95 0 014.085 6.774 9.724 9.724 0 01-1.641 7.786 10.134 10.134 0 01-6.654 4.046 9.377 9.377 0 01-7.4-1.547zm31.744-23.159l3.226-.57 3.439 19.464-3.227.57-.551-3.12a6.84 6.84 0 01-5.74 4.56 7.46 7.46 0 01-5.769-1.193 8.312 8.312 0 01-3.241-5.699l-2.042-11.56 3.191-.564 1.949 11.032a6.395 6.395 0 002.222 4.197 5.837 5.837 0 007.837-1.384 6.395 6.395 0 00.65-4.704zm17.904 14.206l2.66-.47.462 2.62-3.262.577q-5.071.896-5.954-4.104l-2.092-11.844-2.518.445-.464-2.624 2.518-.445-.853-4.826 3.263-.577.852 4.827 5.04-.89.463 2.624-5.035.89 2.092 11.843a2.6 2.6 0 00.858 1.75 2.667 2.667 0 001.969.2zm25.19-4.157a6.632 6.632 0 004.387-2.806 7.395 7.395 0 001.045-5.8 7.527 7.527 0 00-2.873-5.087 6.386 6.386 0 00-5.007-1.127 6.155 6.155 0 00-4.248 2.762 7.727 7.727 0 00-.882 5.769 7.919 7.919 0 002.734 5.13 5.91 5.91 0 004.844 1.155zm-6.933 1.115a10.203 10.203 0 01-3.943-6.8 9.972 9.972 0 011.514-7.783 10.403 10.403 0 0114.042-2.481 9.95 9.95 0 014.085 6.774 9.724 9.724 0 01-1.641 7.787 10.134 10.134 0 01-6.654 4.045 9.377 9.377 0 01-7.403-1.546zm31.745-23.16l3.226-.57 3.439 19.464-3.227.57-.551-3.12a6.84 6.84 0 01-5.74 4.56 7.46 7.46 0 01-5.77-1.193 8.312 8.312 0 01-3.24-5.698l-2.042-11.56 3.191-.564 1.949 11.032a6.395 6.395 0 002.223 4.192 5.837 5.837 0 007.837-1.384 6.395 6.395 0 00.65-4.704zm11.772-2.08l.583 3.299a6.158 6.158 0 015.283-4.663l.595 3.368-.851.15a5.201 5.201 0 00-3.548 1.962q-1.066 1.523-.502 4.714l1.878 10.634-3.226.57-3.44-19.467zM20.307 127.564a5.248 5.248 0 011.31-4.491 8.148 8.148 0 014.985-2.618 7.476 7.476 0 015.38.75 6.408 6.408 0 012.82 4.164l-3.333.589a3.776 3.776 0 00-1.563-2.43 4.001 4.001 0 00-3.032-.488 4.43 4.43 0 00-2.719 1.376 2.816 2.816 0 00-.651 2.419 2.392 2.392 0 001.563 1.903 8.64 8.64 0 003.064.577q1.744.039 3.506.185a6.178 6.178 0 013.167 1.159 4.858 4.858 0 011.805 3.258 4.683 4.683 0 01-1.37 4.155 8.685 8.685 0 01-5.028 2.479 8.058 8.058 0 01-5.518-.707 6.142 6.142 0 01-2.944-4.12l3.333-.59a3.614 3.614 0 001.613 2.404 4.352 4.352 0 003.15.449 4.921 4.921 0 002.835-1.342 2.534 2.534 0 00.717-2.266 2.567 2.567 0 00-1.205-1.853 4.793 4.793 0 00-2.309-.653q-1.33-.057-2.903-.182t-2.933-.345a4.59 4.59 0 01-2.4-1.166 4.452 4.452 0 01-1.34-2.616zm29.714 6.745a6.632 6.632 0 004.385-2.806 7.395 7.395 0 001.043-5.795 7.527 7.527 0 00-2.873-5.087 6.386 6.386 0 00-5.008-1.127 6.155 6.155 0 00-4.248 2.761 7.727 7.727 0 00-.882 5.77 7.919 7.919 0 002.735 5.13 5.91 5.91 0 004.848 1.154zm-6.934 1.115a10.203 10.203 0 01-3.944-6.8 9.972 9.972 0 011.514-7.783 10.403 10.403 0 0114.042-2.48 9.95 9.95 0 014.086 6.774 9.724 9.724 0 01-1.642 7.786 10.134 10.134 0 01-6.653 4.046 9.377 9.377 0 01-7.403-1.543zm26.035-22.15l.464 2.623-4.078.72 2.975 16.844-3.262.576-2.976-16.843-2.517.444-.464-2.624 2.518-.444-.288-1.631q-.564-3.192.881-4.946t5.098-2.4l.463 2.624a4.337 4.337 0 00-2.82 1.32 3.65 3.65 0 00-.36 2.825l.288 1.631zm13.046 15.064l2.66-.47.463 2.624-3.262.576q-5.071.896-5.954-4.104l-2.092-11.844-2.518.445-.464-2.624 2.518-.445-.852-4.826 3.262-.576.852 4.826 5.036-.89.463 2.625-5.035.89 2.092 11.843a2.6 2.6 0 00.858 1.75 2.667 2.667 0 001.973.2zm25.535-21.88l3.262-.576-2.696 20.55-3.333.59-7.133-14.688-1.661 16.241-3.369.595-9.609-18.377 3.333-.59 7.373 15.446 1.705-17.049 3.333-.589 7.202 15.512zm22.23 11.577a8.286 8.286 0 00-1.85-10.57 6.347 6.347 0 00-4.996-1.165 6.462 6.462 0 00-4.307 2.735 7.116 7.116 0 00-1.011 5.554 7.578 7.578 0 002.896 5.01 6.402 6.402 0 009.271-1.565zm-4.374 5.673a8.824 8.824 0 01-7.135-1.686 10.45 10.45 0 01-3.95-6.835 10.103 10.103 0 011.372-7.665 8.971 8.971 0 016.163-3.923 8.113 8.113 0 014.55.403 7.79 7.79 0 013.36 2.556l-.69-3.9 3.262-.577 3.439 19.465-3.264.577-.702-3.971a7.852 7.852 0 01-2.27 3.6 8.022 8.022 0 01-4.135 1.956zm15.476-23.138l.582 3.297a6.158 6.158 0 015.283-4.663l.595 3.37-.85.15a5.201 5.201 0 00-3.548 1.96q-1.066 1.524-.502 4.715l1.879 10.638-3.227.57-3.439-19.467zm21.473 16.61a9.102 9.102 0 01-7.296-1.563 10.334 10.334 0 01-3.915-6.84 10.19 10.19 0 011.372-7.76 10.268 10.268 0 0113.68-2.563 9.212 9.212 0 013.746 6.195 12.327 12.327 0 01.196 1.94l-15.496 2.737a6.796 6.796 0 002.637 4.27 5.924 5.924 0 004.606.923 6.119 6.119 0 003.193-1.478 5.348 5.348 0 001.59-2.694l3.475-.614a9.073 9.073 0 01-2.428 4.78 9.392 9.392 0 01-5.36 2.667zm4.143-12.36a6.169 6.169 0 00-2.565-4.172 6.455 6.455 0 00-8.588 1.48 6.702 6.702 0 00-1.08 4.854zm32.389 1.007a8.286 8.286 0 00-1.849-10.57 6.347 6.347 0 00-4.996-1.165 6.462 6.462 0 00-4.303 2.735 7.116 7.116 0 00-1.012 5.554 7.578 7.578 0 002.896 5.01 6.402 6.402 0 009.272-1.565zm-4.373 5.673a8.824 8.824 0 01-7.136-1.685 10.45 10.45 0 01-3.95-6.835 10.103 10.103 0 011.37-7.665 8.971 8.971 0 016.164-3.923 8.113 8.113 0 014.55.403 7.79 7.79 0 013.359 2.555l-.69-3.9 3.27-.578 3.44 19.466-3.263.576-.701-3.972a7.852 7.852 0 01-2.271 3.601 8.022 8.022 0 01-4.138 1.956zm25.042-7.276a6.289 6.289 0 004.303-2.863 7.579 7.579 0 00.987-5.696 7.14 7.14 0 00-2.857-4.889 6.462 6.462 0 00-4.983-1.094 6.347 6.347 0 00-4.295 2.806 8.291 8.291 0 001.864 10.55 6.302 6.302 0 004.985 1.185zm-2.424-17.449a8.971 8.971 0 017.134 1.574 10.103 10.103 0 013.914 6.731 10.45 10.45 0 01-1.37 7.775 8.824 8.824 0 01-6.126 4.028 8.022 8.022 0 01-4.553-.42 8.119 8.119 0 01-3.405-2.599l2.33 13.185-3.218.569-5.067-28.688 3.226-.57.69 3.905a8.036 8.036 0 016.453-5.491zm26.183 13.252a6.289 6.289 0 004.302-2.863 7.579 7.579 0 00.987-5.696 7.14 7.14 0 00-2.856-4.889 6.462 6.462 0 00-4.984-1.094 6.347 6.347 0 00-4.294 2.807 8.291 8.291 0 001.863 10.549 6.302 6.302 0 004.986 1.185zm-2.425-17.449a8.971 8.971 0 017.135 1.574 10.103 10.103 0 013.913 6.732 10.45 10.45 0 01-1.37 7.774 8.824 8.824 0 01-6.126 4.028 8.022 8.022 0 01-4.553-.42 8.119 8.119 0 01-3.405-2.599l2.33 13.185-3.228.57-5.067-28.687 3.227-.57.69 3.905a8.036 8.036 0 016.452-5.491zm16.832 17.427l-4.635-26.24 3.226-.57 4.636 26.24zm7.634-25.3a2.156 2.156 0 01-1.447.914 2.1 2.1 0 01-1.655-.366 2.187 2.187 0 01-.897-1.45 2.215 2.215 0 114 .902zm.912 23.79l-3.44-19.467 3.228-.57 3.439 19.467zm16.758-2.63a9.102 9.102 0 01-7.297-1.564 10.309 10.309 0 01-3.912-6.826 10.309 10.309 0 011.337-7.752 9.102 9.102 0 016.32-3.969 9.564 9.564 0 016.014.62 8.682 8.682 0 013.924 4.097l-3.48.615a5.167 5.167 0 00-2.42-2.315 5.926 5.926 0 00-3.573-.356 5.701 5.701 0 00-4.109 2.718 8.176 8.176 0 00-.72 5.759 8.176 8.176 0 002.65 5.163 5.701 5.701 0 004.791 1.146q4.15-.733 4.716-4.562l3.475-.614a8.964 8.964 0 01-2.33 5.128 9.314 9.314 0 01-5.386 2.711zm25.507-9.407a8.286 8.286 0 00-1.849-10.57 6.347 6.347 0 00-4.996-1.165 6.462 6.462 0 00-4.309 2.736 7.116 7.116 0 00-1.011 5.554 7.578 7.578 0 002.896 5.01 6.402 6.402 0 009.271-1.565zm-4.373 5.673a8.824 8.824 0 01-7.136-1.685 10.45 10.45 0 01-3.95-6.835 10.103 10.103 0 011.37-7.665 8.971 8.971 0 016.164-3.923 8.113 8.113 0 014.55.403 7.79 7.79 0 013.359 2.555l-.689-3.9 3.262-.577 3.439 19.466-3.259.576-.701-3.972a7.852 7.852 0 01-2.271 3.6 8.022 8.022 0 01-4.138 1.957zm21.607-6.852l2.66-.47.463 2.624-3.262.576q-5.07.896-5.954-4.104l-2.092-11.843-2.518.444-.464-2.624 2.518-.444-.852-4.827 3.262-.576.852 4.826 5.036-.89.463 2.625-5.035.89 2.092 11.843a2.6 2.6 0 00.858 1.75 2.667 2.667 0 001.973.2zm5.758-22.262a2.156 2.156 0 01-1.448.914 2.1 2.1 0 01-1.655-.366 2.187 2.187 0 01-.896-1.45 2.215 2.215 0 113.999.902zm.911 23.79l-3.439-19.468 3.227-.57 3.439 19.468zm16.43-5.316a6.632 6.632 0 004.386-2.806 7.395 7.395 0 001.042-5.797 7.527 7.527 0 00-2.873-5.087 6.386 6.386 0 00-5.008-1.127 6.155 6.155 0 00-4.247 2.761 7.727 7.727 0 00-.883 5.77 7.919 7.919 0 002.735 5.13 5.91 5.91 0 004.848 1.156zm-6.933 1.115a10.203 10.203 0 01-3.944-6.8 9.972 9.972 0 011.514-7.783 10.403 10.403 0 0114.042-2.48 9.95 9.95 0 014.086 6.774 9.724 9.724 0 01-1.642 7.786 10.134 10.134 0 01-6.653 4.045 9.377 9.377 0 01-7.403-1.542zM363.334 61.3l.556 3.152a6.875 6.875 0 015.734-4.597 7.46 7.46 0 015.769 1.194 8.363 8.363 0 013.247 5.734l2.037 11.528-3.192.564-1.941-10.993a6.434 6.434 0 00-2.208-4.217 5.167 5.167 0 00-4.188-.833 5.225 5.225 0 00-3.67 2.22 6.383 6.383 0 00-.647 4.723l1.942 10.992-3.227.57-3.44-19.467zm-236.456 93.572l3.262-.576-2.696 20.551-3.333.589-7.129-14.688-1.663 16.241-3.369.595-9.609-18.378 3.334-.588 7.372 15.445 1.705-17.049 3.334-.589 7.2 15.512zm8.874-5.444a2.156 2.156 0 01-1.447.914 2.1 2.1 0 01-1.655-.366 2.187 2.187 0 01-.896-1.45 2.215 2.215 0 113.998.902zm.912 23.79l-3.439-19.467 3.227-.57 3.439 19.467zm14.465-5.26l2.66-.47.463 2.623-3.262.577q-5.071.896-5.954-4.104l-2.092-11.844-2.518.445-.464-2.624 2.518-.445-.853-4.827 3.263-.576.852 4.827 5.036-.89.463 2.624-5.035.89 2.092 11.843a2.6 2.6 0 00.858 1.75 2.667 2.667 0 001.973.2zm5.259-25.283l1.754 9.929a6.875 6.875 0 015.733-4.597 7.46 7.46 0 015.769 1.194 8.363 8.363 0 013.247 5.734l2.036 11.524-3.191.564-1.942-10.993a6.434 6.434 0 00-2.208-4.217 5.167 5.167 0 00-4.187-.833 5.225 5.225 0 00-3.671 2.221 6.383 6.383 0 00-.647 4.722l1.942 10.992-3.227.57-4.635-26.24zm42.527 19.876a9.102 9.102 0 01-7.297-1.563 10.334 10.334 0 01-3.914-6.842 10.19 10.19 0 011.372-7.758 10.268 10.268 0 0113.68-2.563 9.212 9.212 0 013.745 6.194 12.325 12.325 0 01.197 1.94l-15.494 2.737a6.796 6.796 0 002.637 4.27 5.924 5.924 0 004.606.923 6.119 6.119 0 003.192-1.478 5.348 5.348 0 001.59-2.694l3.476-.614a9.073 9.073 0 01-2.429 4.78 9.392 9.392 0 01-5.359 2.668zm4.143-12.36a6.169 6.169 0 00-2.566-4.173 6.455 6.455 0 00-8.587 1.48 6.702 6.702 0 00-1.08 4.854zm19.737-12.263l-4.56 10.825 7.963 8.65-3.652.644-5.888-6.42-3.01 7.992-3.51.62 4.572-10.753-8.012-8.714 3.653-.645 5.929 6.448 3.042-8.033zm15.879 14.747a6.289 6.289 0 004.303-2.862 7.579 7.579 0 00.986-5.696 7.14 7.14 0 00-2.856-4.89 6.462 6.462 0 00-4.984-1.093 6.347 6.347 0 00-4.294 2.806 8.291 8.291 0 001.863 10.55 6.302 6.302 0 004.984 1.185zm-2.424-17.448a8.971 8.971 0 017.134 1.573 10.103 10.103 0 013.913 6.732 10.45 10.45 0 01-1.369 7.775 8.824 8.824 0 01-6.126 4.027 8.022 8.022 0 01-4.554-.42 8.119 8.119 0 01-3.405-2.598l2.33 13.185-3.227.57-5.068-28.687 3.227-.57.689 3.9a8.036 8.036 0 016.453-5.491zm25.04 16.31a9.102 9.102 0 01-7.297-1.564 10.334 10.334 0 01-3.914-6.841 10.19 10.19 0 011.372-7.759 10.268 10.268 0 0113.68-2.563 9.212 9.212 0 013.745 6.195 12.328 12.328 0 01.197 1.94l-15.494 2.737a6.796 6.796 0 002.637 4.27 5.924 5.924 0 004.606.923 6.119 6.119 0 003.192-1.479 5.347 5.347 0 001.59-2.694l3.475-.614a9.073 9.073 0 01-2.428 4.78 9.392 9.392 0 01-5.36 2.664zm4.143-12.36a6.169 6.169 0 00-2.566-4.173 6.455 6.455 0 00-8.587 1.48 6.702 6.702 0 00-1.081 4.854zm9.099-10.384l.582 3.298a6.158 6.158 0 015.283-4.663l.595 3.369-.85.15a5.201 5.201 0 00-3.549 1.961q-1.065 1.523-.501 4.715l1.878 10.634-3.227.57-3.439-19.468zm19.18 13.981l2.66-.47.463 2.62-3.26.576q-5.071.896-5.955-4.104l-2.092-11.844-2.517.445-.464-2.624 2.518-.445-.853-4.826 3.262-.576.853 4.826 5.035-.89.464 2.625-5.035.89 2.092 11.843a2.6 2.6 0 00.857 1.75 2.667 2.667 0 001.974.2zm3.492-12.318a5.248 5.248 0 011.31-4.491 8.148 8.148 0 014.985-2.618 7.476 7.476 0 015.38.75 6.408 6.408 0 012.82 4.164l-3.331.588a3.776 3.776 0 00-1.563-2.43 4.001 4.001 0 00-3.032-.488 4.43 4.43 0 00-2.719 1.376 2.816 2.816 0 00-.651 2.42 2.392 2.392 0 001.56 1.9 8.64 8.64 0 003.064.575q1.744.04 3.507.185a6.178 6.178 0 013.166 1.16 4.858 4.858 0 011.802 3.265 4.683 4.683 0 01-1.369 4.154 8.685 8.685 0 01-5.028 2.48 8.058 8.058 0 01-5.519-.708 6.142 6.142 0 01-2.94-4.124l3.333-.59a3.614 3.614 0 001.612 2.404 4.353 4.353 0 003.151.449 4.921 4.921 0 002.835-1.342 2.534 2.534 0 00.717-2.266 2.567 2.567 0 00-1.205-1.853 4.793 4.793 0 00-2.31-.653q-1.33-.057-2.902-.182t-2.93-.341a4.59 4.59 0 01-2.4-1.167 4.452 4.452 0 01-1.341-2.621z"/><path data-name="Path 226" d="M232.717 236.186c3.547 1.217 6.782 2.723 10.184 3.388a41.025 41.025 0 0011.5.866 7.716 7.716 0 007.13-7.899c.085-4.341-2.565-7.525-7.234-8.434-6.03-1.176-11.768.089-17.333 2.4-1.36.563-2.674 1.232-3.93 1.817-8.26-4.475-8.861-7.71-5.315-28.32-3.24-1.188-4.686.893-5.876 3.255-3.984 7.92-2.317 20.52 3.54 27.114.592.667 1.217 1.307 1.95 2.088-.635 1.1-1.22 2.02-1.708 2.992-3.52 7.007-2.618 14.56 3.204 19.811a46.531 46.531 0 0011.58 7.394c7.125 3.299 14.882 4.553 22.68 4.894 9.42.412 18.862.369 28.294.534 1.412.025 2.823.118 4.66.196a80.279 80.279 0 00-5.168 6.957c-.523.88-.448 3.134.056 3.394 1.083.553 2.622.258 3.972.214.303-.01.594-.41.884-.64 4.609-3.673 9.162-7.416 13.84-11 4.13-3.164 4.441-4.496 1.313-8.59-3.589-4.696-8.419-7.725-13.82-9.895-1.746-.7-3.647-1.128-4.773 1.59 2.32 4.742 8.18 5.733 11.912 10.182-2.03.212-3.398.48-4.765.48-11.836-.003-23.689.32-35.501-.24a87.941 87.941 0 01-19.045-3.426 31.966 31.966 0 01-10.707-5.613c-5.283-4.09-5.652-9.41-1.524-15.51zm7.577-3.161l.066-1.464a21.112 21.112 0 0110.463-2.207c3.409.144 5.2 1.283 4.822 3.151-.54 2.664-2.84 2.697-4.79 2.451-3.546-.445-7.046-1.267-10.562-1.93z"/></g></svg>