<svg xmlns="http://www.w3.org/2000/svg" height="40" viewBox="0 -960 960 960" width="40"><path d="M516.923-413.025h33.846v-123.898h123.898v-33.846H550.769v-123.898h-33.846v123.898H393.025v33.846h123.898v123.898Zm-210.77 145.333q-24.577 0-41.519-16.942-16.942-16.942-16.942-41.519v-455.386q0-24.577 16.942-41.519Q281.576-840 306.153-840h455.386q24.577 0 41.519 16.942Q820-806.116 820-781.539v455.386q0 24.577-16.942 41.519-16.942 16.942-41.519 16.942H306.153Zm0-33.846h455.386q9.231 0 16.923-7.692 7.692-7.692 7.692-16.923v-455.386q0-9.231-7.692-16.923-7.692-7.692-16.923-7.692H306.153q-9.231 0-16.923 7.692-7.692 7.692-7.692 16.923v455.386q0 9.231 7.692 16.923 7.692 7.692 16.923 7.692ZM198.461-160q-24.577 0-41.519-16.942Q140-193.884 140-218.461v-489.232h33.846v489.232q0 9.231 7.692 16.923 7.692 7.692 16.923 7.692h489.232V-160H198.461Zm83.077-646.154V-301.538-806.154Z"/></svg>