<svg width="96" height="26" xmlns="http://www.w3.org/2000/svg" xmlns:xlink="http://www.w3.org/1999/xlink"><defs><path id="a" d="M10.955.265v14.698H.131V.265h10.824z"/><path id="c" d="M12.841.135H.243V15.15H12.84V.135z"/><path id="e" d="M12.598.135H0V15.15h12.598V.135z"/></defs><g fill="none" fill-rule="evenodd"><path d="M52.826 20.27c-4.947 3.64-12.12 5.576-18.296 5.576-8.657 0-16.452-3.19-22.35-8.5-.463-.417-.05-.986.506-.663 6.365 3.692 14.235 5.915 22.363 5.915 5.484 0 11.511-1.135 17.058-3.48.836-.354 1.537.55.72 1.153" fill="#CCC"/><path d="M54.885 17.927c-.633-.807-4.183-.382-5.778-.192-.483.058-.558-.363-.122-.668 2.832-1.983 7.472-1.41 8.011-.746.543.67-.143 5.307-2.796 7.52-.408.34-.797.16-.616-.29.597-1.487 1.935-4.815 1.3-5.624M49.22 3.06V1.131a.477.477 0 01.49-.487l8.662-.001c.277 0 .5.2.5.486v1.652c-.003.278-.237.639-.652 1.213l-4.488 6.387c1.666-.039 3.428.21 4.941 1.058.342.191.433.474.46.752v2.056c0 .283-.312.611-.638.44-2.667-1.392-6.205-1.544-9.153.018-.301.16-.617-.164-.617-.448v-1.954c0-.313.006-.847.323-1.324l5.199-7.435H49.72a.481.481 0 01-.5-.486m-31.6 12.035h-2.635a.496.496 0 01-.471-.444l.002-13.484c0-.27.227-.485.508-.485h2.454a.495.495 0 01.48.452v1.76h.05C18.645 1.19 19.851.395 21.474.395c1.648 0 2.682.795 3.42 2.497.64-1.702 2.091-2.497 3.64-2.497 1.108 0 2.313.454 3.051 1.476.837 1.135.665 2.78.665 4.228l-.002 8.51a.497.497 0 01-.509.484h-2.632a.493.493 0 01-.473-.484V7.461c0-.567.049-1.986-.075-2.525-.196-.909-.787-1.164-1.549-1.164-.64 0-1.304.425-1.575 1.106-.27.682-.246 1.816-.246 2.583v7.147c0 .27-.227.485-.508.485H22.05a.494.494 0 01-.474-.484l-.002-7.148c0-1.504.246-3.717-1.624-3.717-1.894 0-1.82 2.156-1.82 3.717l-.001 7.147c0 .27-.228.485-.509.485M66.353 3.148c-1.943 0-2.066 2.638-2.066 4.284s-.024 5.165 2.042 5.165c2.043 0 2.14-2.838 2.14-4.568 0-1.135-.049-2.498-.393-3.576-.296-.936-.887-1.305-1.723-1.305M66.33.395c3.912 0 6.027 3.35 6.027 7.605 0 4.114-2.336 7.378-6.027 7.378-3.837 0-5.929-3.35-5.929-7.52 0-4.2 2.116-7.463 5.93-7.463" fill="#CCC"/><g transform="translate(74.195 .13)"><mask id="b" fill="#fff"><use xlink:href="#a"/></mask><path d="M3.234 14.963H.608a.494.494 0 01-.473-.484L.131.989A.498.498 0 01.637.55h2.445a.5.5 0 01.468.377V2.99h.05C4.338 1.144 5.37.265 7.19.265c1.18 0 2.337.425 3.075 1.59.69 1.077.69 2.893.69 4.199v8.485a.5.5 0 01-.506.424H7.808a.496.496 0 01-.469-.424V7.217c0-1.475.173-3.632-1.648-3.632-.64 0-1.23.425-1.525 1.078-.37.823-.419 1.645-.419 2.554v7.26a.503.503 0 01-.513.486" fill="#CCC" mask="url(#b)"/></g><g transform="translate(34.305 .13)"><mask id="d" fill="#fff"><use xlink:href="#c"/></mask><path d="M10.665 14.93a.545.545 0 01-.622.06c-.875-.725-1.032-1.06-1.51-1.75-1.447 1.469-2.471 1.91-4.346 1.91-2.218 0-3.944-1.366-3.944-4.095 0-2.133 1.159-3.583 2.81-4.294 1.43-.626 3.427-.74 4.956-.91v-.342c0-.626.05-1.364-.32-1.905-.321-.484-.938-.683-1.48-.683-1.005 0-1.898.514-2.118 1.578-.046.237-.22.471-.458.483l-2.555-.276c-.215-.048-.455-.22-.393-.55.588-3.087 3.386-4.02 5.893-4.02 1.283 0 2.96.34 3.97 1.308 1.282 1.194 1.159 2.787 1.159 4.522v4.092c0 1.232.513 1.772.994 2.435.169.24.207.523-.008.698a114.85 114.85 0 00-2.021 1.745l-.007-.006zM8.01 8.523c0 1.024.024 1.876-.494 2.787-.418.739-1.084 1.194-1.824 1.194-1.01 0-1.602-.768-1.602-1.906 0-2.237 2.013-2.644 3.92-2.644v.569z" fill="#CCC" mask="url(#d)"/></g><g transform="translate(0 .13)"><mask id="f" fill="#fff"><use xlink:href="#e"/></mask><path d="M10.423 14.93a.546.546 0 01-.623.06c-.876-.725-1.032-1.06-1.51-1.75-1.447 1.469-2.472 1.91-4.345 1.91C1.725 15.15 0 13.784 0 11.055 0 8.922 1.16 7.472 2.81 6.76c1.43-.626 3.428-.74 4.956-.91v-.342c0-.626.049-1.364-.32-1.905-.321-.484-.938-.683-1.48-.683-1.005 0-1.899.514-2.118 1.578-.046.237-.219.471-.458.483L.836 4.706c-.216-.048-.456-.22-.394-.55C1.03 1.069 3.827.136 6.336.136c1.282 0 2.958.34 3.97 1.308 1.28 1.194 1.158 2.787 1.158 4.522v4.092c0 1.232.513 1.772.994 2.435.168.24.207.523-.008.698-.538.45-1.495 1.278-2.021 1.745l-.006-.006zM7.766 8.523c0 1.024.024 1.876-.493 2.787-.419.739-1.085 1.194-1.825 1.194-1.01 0-1.602-.768-1.602-1.906 0-2.237 2.014-2.644 3.92-2.644v.569z" fill="#CCC" mask="url(#f)"/></g></g></svg>