<svg width="119" height="30" xmlns="http://www.w3.org/2000/svg" xmlns:xlink="http://www.w3.org/1999/xlink"><defs><path id="a" d="M15.056 0h14.999v30H.056V0z"/></defs><g fill="none" fill-rule="evenodd"><path fill="#BBB" d="M0 4.437v21.126h13.195v-4.27H4.627V4.437zm17.463-.314a2.578 2.578 0 110 5.158 2.578 2.578 0 110-5.158zM15.24 25.558h4.448V11.24H15.24v14.317zM38.28 4.437h4.446v12.625l5.038-5.829h5.45l-5.832 6.629 5.71 7.702h-5.588l-4.72-7.079h-.058v7.079H38.28zm-16.133 6.806h4.27V13.2h.06c.592-1.126 2.044-2.312 4.21-2.312 4.507 0 5.337 2.966 5.337 6.82v7.85h-4.448v-6.961c0-1.66-.03-3.794-2.314-3.794-2.312 0-2.667 1.807-2.667 3.676v7.079h-4.448V11.244z"/><path d="M66.343 23.078c-1.426 1.81-3.767 2.848-6.08 2.848-4.447 0-8.005-2.966-8.005-7.562 0-4.595 3.558-7.561 8.006-7.561 4.153 0 6.759 2.966 6.759 7.56v1.394H56.705c.354 1.69 1.632 2.787 3.35 2.787 1.454 0 2.431-.74 3.173-1.748l3.115 2.282zm-3.767-6.343c.028-1.484-1.127-2.728-2.73-2.728-1.955 0-3.022 1.334-3.14 2.728h5.87zm21.366 8.82h-4.094v-1.9h-.058c-.685 1.04-2.403 2.255-4.419 2.255-4.271 0-7.088-3.082-7.088-7.44 0-4.006 2.492-7.68 6.583-7.68 1.84 0 3.559.502 4.568 1.895h.057V4.437h4.451v21.118zM76.29 14.703c-2.223 0-3.559 1.483-3.559 3.646 0 2.166 1.336 3.648 3.559 3.648 2.226 0 3.559-1.482 3.559-3.648 0-2.163-1.333-3.646-3.56-3.646z" fill="#BBB"/><g transform="translate(88.333)"><mask id="b" fill="#fff"><use xlink:href="#a"/></mask><path d="M27.836 0H2.27C1.049 0 .056.968.056 2.163v25.672C.056 29.03 1.05 30 2.27 30h25.567c1.224 0 2.22-.97 2.22-2.165V2.163C30.055.968 29.06 0 27.835 0" fill="#BBB" mask="url(#b)"/></g><path d="M95.063 4.13a2.58 2.58 0 11-.004 5.162 2.58 2.58 0 01.004-5.162zm-2.228 21.433h4.453V11.247h-4.453v14.316zm7.245-14.316h4.265v1.957h.06c.594-1.126 2.046-2.312 4.211-2.312 4.505 0 5.337 2.964 5.337 6.82v7.851h-4.447v-6.962c0-1.66-.03-3.796-2.314-3.796-2.315 0-2.668 1.81-2.668 3.678v7.08h-4.444V11.247z" fill="#FEFEFE"/></g></svg>