<svg width="140" height="42" xmlns="http://www.w3.org/2000/svg" xmlns:xlink="http://www.w3.org/1999/xlink"><defs><path id="a" d="M0 41.208h139.272V.29H0z"/></defs><g fill="none" fill-rule="evenodd"><path d="M.502 41.71H29.06V.793H.502V41.71zm4.116-4.12h20.31V4.913H4.619V37.59z" fill="#BBB"/><g transform="translate(.502 .503)"><path d="M47.526 18.648h-1.767c-2.32-3.278-4.622-6.535-6.92-10.216h-.017v10.216H36.87V4.404h1.769c2.32 3.256 4.617 6.49 6.895 10.15h.041V4.405h1.952v14.244zM53.1 4.405l-4.92 14.243h2.116l1.237-3.888h4.297l1.118 3.888h2.728l-4.54-14.243h-2.035zm-.933 8.606c.568-1.873 1.138-3.602 1.647-5.801h.041c.569 2.199 1.079 3.928 1.607 5.8h-3.295zm9.806 5.637V6.314h-3.745v-1.91h9.929v1.91h-3.743v12.334z" fill="#BBB"/><mask id="b" fill="#fff"><use xlink:href="#a"/></mask><path fill="#BBB" mask="url(#b)" d="M68.949 18.648h2.425V4.404h-2.425zm9.953.241c3.722 0 6.04-3.315 6.04-7.57 0-3.987-2.56-7.16-6.04-7.16-3.478 0-6.05 3.173-6.05 7.16 0 4.255 2.324 7.57 6.05 7.57m0-2.034c-2.546 0-3.441-2.808-3.441-5.536 0-2.623 1.017-5.126 3.44-5.126 2.422 0 3.435 2.503 3.435 5.126 0 2.728-.893 5.536-3.434 5.536m18.188 1.793h-1.77C93 15.37 90.7 12.113 88.403 8.432h-.02v10.216h-1.95V4.404H88.2c2.319 3.256 4.618 6.49 6.893 10.15h.042V4.405h1.955v14.244zm5.576-14.243l-4.924 14.243h2.118l1.238-3.888h4.293l1.122 3.888h2.725l-4.539-14.243h-2.033zm-.938 8.606c.571-1.873 1.138-3.602 1.65-5.801h.04c.57 2.199 1.078 3.928 1.606 5.8h-3.296zm8.219-8.606h2.425v12.33h4.82v1.913h-7.245zM46.025 30.561v5.88c-1.303.509-2.667.874-4.047.874-4.192 0-6.837-3.257-6.837-7.448 0-3.888 2.645-7.284 6.917-7.284 1.32 0 2.644.491 3.458 1.099l-.794 1.689c-.65-.404-1.67-.75-2.604-.75-2.602 0-4.375 2.055-4.375 5.291 0 3.375 2.037 5.368 4.132 5.368.648 0 1.2-.077 1.712-.344V30.56h2.438zm8.732-5.817h-4.074v3.904h3.989v1.913h-3.989v4.596h4.803v1.915H48.24V22.828h6.517zm7.528 12.571c3.721 0 6.04-3.316 6.04-7.57 0-3.986-2.563-7.163-6.04-7.163-3.484 0-6.045 3.177-6.045 7.163 0 4.254 2.316 7.57 6.045 7.57m0-2.035c-2.546 0-3.442-2.805-3.442-5.535 0-2.621 1.017-5.124 3.442-5.124 2.42 0 3.434 2.503 3.434 5.124 0 2.73-.896 5.535-3.434 5.535m17.757-4.719v5.88c-1.304.509-2.663.874-4.048.874-4.19 0-6.837-3.257-6.837-7.448 0-3.888 2.647-7.284 6.92-7.284 1.323 0 2.644.491 3.456 1.099l-.795 1.689c-.65-.404-1.66-.75-2.6-.75-2.607 0-4.378 2.055-4.378 5.291 0 3.375 2.037 5.368 4.133 5.368.653 0 1.2-.077 1.71-.344V30.56h2.44zm10.868 6.511l-2.873-5.898c1.566-.832 2.466-2.526 2.466-4.235 0-2.77-1.69-4.111-4.42-4.111H82.28v14.244h2.447v-5.371h1.098l2.296 5.371h2.79zm-6.183-12.328h1.076c1.441 0 2.256.83 2.256 2.298 0 1.91-1.157 2.764-2.317 2.825-.245.025-.817.045-1.015.063v-5.186zm11.146-1.916l-4.925 14.244h2.116l1.242-3.888h4.295l1.114 3.888h2.731l-4.54-14.244h-2.033zm-.935 8.608c.568-1.875 1.136-3.603 1.648-5.8h.04c.57 2.197 1.078 3.925 1.608 5.8h-3.296zm11.742-1.569c-.254.023-.852.042-1.02.059v-5.182h1.095c1.424 0 2.241.83 2.241 2.297 0 1.912-1.156 2.765-2.317 2.826m.343-7.04h-3.805v14.245h2.442V31.7h1.096c2.912 0 4.684-2.36 4.684-4.761 0-2.77-1.69-4.111-4.417-4.111m15.728 14.244h-2.441v-6.854h-5.071v6.854h-2.414V22.828h2.414v5.474h5.07v-5.434h2.442zm2.337.001h2.427V22.828h-2.427zm13.41-11.659c-.592-.367-1.564-.793-2.505-.793-2.485 0-4.29 2.055-4.29 5.291 0 3.375 1.992 5.367 4.354 5.367a4.6 4.6 0 002.44-.713l.674 1.772c-.737.508-2.036.977-3.213.977-4.193 0-6.84-3.257-6.84-7.448 0-3.888 2.624-7.284 6.875-7.284 1.265 0 2.441.532 3.28 1.099l-.775 1.732z"/></g></g></svg>