<svg width="112" height="29" xmlns="http://www.w3.org/2000/svg" xmlns:xlink="http://www.w3.org/1999/xlink"><defs><path id="a" d="M28.91 28.604H0V.002h28.91z"/></defs><g fill="none" fill-rule="evenodd"><path fill="#FEFEFE" d="M2.039 25.532h25.814V2.408H2.039z"/><g transform="translate(.424 .02)"><mask id="b" fill="#fff"><use xlink:href="#a"/></mask><path d="M5.536 20.035c2.236-2.278 10.283-9.626 10.283-9.626-4.186.968-8.557 2.28-10.118 2.985l-2.349 2.388c1.963-.414 2.596-.495 4.032-.704l-1.848 4.957zM20.47 8.568s-7.102 7.058-8.215 8.071c2.16-.772 6.584-1.691 9.394-1.857.326-.984.672-1.698.672-1.698l3.758-.371s-2.856-2.285-5.61-4.145zM4.317 23.408c.807-.353 8.459-2.872 15.494-3.289.151-.586.922-2.554 1.064-3.089-7.299.515-13.234 2.672-15.619 3.764l-.939 2.613zM15.74 5.484c-1.262.58-4.894 3.356-6.85 4.813 2.38-.785 8.102-2.04 11.033-2.108-.916-.639-3.488-2.37-4.183-2.705zM0 28.605h28.91V.001H0v28.602z" fill="#BBB" mask="url(#b)"/></g><path d="M50.09 25.003l1.065-3.34h-6.93c-.83 0-1.745.007-1.745.007s.323-.592.768-1.324l7.83-13.554v-2.96h-12.32l-.919 3.4h6.338c1.244 0 1.695.036 1.695.036s-.303.725-.866 1.662l-7.77 13.202v2.87H50.09zm5.767-14.905a2.438 2.438 0 002.456-2.432c0-1.348-1.065-2.432-2.4-2.432-1.36 0-2.485 1.084-2.485 2.432a2.432 2.432 0 002.429 2.432m-1.985 14.936h3.969l-.008-14.069-3.954.877zm7.871-.041l-.029-20.762 4.058-.908.028 21.67zm7.885 0L69.6 4.231l4.06-.908.027 21.67zm38.092.01l4.322-15h-4.086l-1.154 5.362c-.415 1.904-.74 4.248-.83 4.893 0 0-.443-2.52-1.124-5.303l-1.215-4.952h-3.732l-1.42 5.04c-.711 2.548-1.098 5.215-1.098 5.215s-.472-2.93-.856-4.66l-1.21-5.597h-4.05l4.221 15.002h3.703l.77-3.076c.354-1.405 1.007-3.984 1.303-5.274.236-1.083.265-1.288.355-1.933.09.586.12.79.238 1.494.176.996.532 2.432.858 3.634l1.362 5.155h3.643zm-19.217-1.757c1.304-1.465 1.896-3.223 1.896-5.801 0-2.432-.533-4.072-1.748-5.479-1.302-1.524-2.99-2.256-5.153-2.256-4.086 0-6.81 3.135-6.81 7.853 0 4.716 2.694 7.762 6.81 7.762 2.34 0 3.85-.79 5.005-2.079m-3.227-9.845c.533.674.799 1.993.799 4.015 0 3.546-.741 5.07-2.459 5.07-.769 0-1.658-.412-2.013-1.232-.325-.762-.503-2.052-.503-3.78 0-1.495.15-2.55.415-3.34.325-.937 1.094-1.523 2.044-1.523.71 0 1.332.293 1.717.79" fill="#BBB"/></g></svg>