<svg xmlns="http://www.w3.org/2000/svg" width="1920" height="1280" preserveAspectRatio="none"><g mask="url(&quot;#SvgjsMask1008&quot;)" fill="none"><path fill="#0e2a47" d="M0 0h1920v1280H0z"/><path d="M960 1652.69c274.21 16.35 552.87-71.33 746.74-265.95 193.56-194.27 273.7-472.73 262.07-746.74-11.15-262.45-138.68-498.64-322.93-685.88C1459.9-234.85 1225.13-387.85 960-385.03c-262.96 2.79-502.15 152.39-671.43 353.6C132.81 153.66 95.96 398.09 97.52 640c1.57 239.87 44.2 480.15 199.72 662.76 168.37 197.71 403.54 334.49 662.76 349.93" fill="#1c538e" style="animation:float1 5s infinite"/><path d="M960 1295.27c177.43 10.58 357.74-46.16 483.19-172.08 125.24-125.71 177.1-305.89 169.57-483.19-7.21-169.82-89.74-322.65-208.95-443.81C1283.47 73.92 1131.56-25.08 960-23.26c-170.15 1.81-324.92 98.61-434.46 228.8C424.76 325.31 400.91 483.47 401.93 640c1.01 155.21 28.6 310.68 129.22 428.85C640.1 1196.78 792.27 1285.28 960 1295.27" fill="#2774c6" style="animation:float2 4s infinite"/><path d="M960 937.85c80.65 4.81 162.61-20.98 219.63-78.22 56.93-57.14 80.5-139.04 77.08-219.63-3.28-77.19-40.79-146.66-94.98-201.73-54.7-55.58-123.75-100.58-201.73-99.75-77.34.82-147.69 44.82-197.48 104-45.81 54.44-56.65 126.33-56.19 197.48.46 70.55 13 141.22 58.74 194.93 49.52 58.15 118.69 98.38 194.93 102.92" fill="#488fdb" style="animation:float3 6s infinite"/></g><defs><style>@keyframes float1{0%{transform:translate(0,0)}50%{transform:translate(-10px,0)}}@keyframes float2{0%{transform:translate(0,0)}50%{transform:translate(-5px,-5px)}}@keyframes float3{0%{transform:translate(0,0)}50%{transform:translate(0,-10px)}}</style><mask id="SvgjsMask1008"><path fill="#fff" d="M0 0h1920v1280H0z"/></mask></defs></svg>