<svg xmlns="http://www.w3.org/2000/svg" width="1440" height="560" preserveAspectRatio="none"><g mask="url(&quot;#SvgjsMask3272&quot;)" fill="none"><path fill="#0e2a47" d="M0 0h1440v560H0z"/><circle r="46.667" cx="212.34" cy="278.61" fill="#d3b714"/><path d="M561.52 621.08l-33.57 8.78 33.499 12.324z" fill="#e73635"/><path clip-path="url(&quot;#SvgjsClipPath3273&quot;)" fill="url(#SvgjsPattern3274)" transform="rotate(6.07 555.73 156.57)" d="M433.33 34.17h244.8v244.8h-244.8z"/><path d="M592.59 479.26a5.6 5.6 0 10-2.85 10.83 5.6 5.6 0 102.85-10.83zm-4.08 15.47a5.6 5.6 0 10-2.85 10.83 5.6 5.6 0 102.85-10.83zm-4.07 15.47a5.6 5.6 0 10-2.85 10.83 5.6 5.6 0 102.85-10.83zm-4.07 15.47a5.6 5.6 0 10-2.85 10.84 5.6 5.6 0 102.85-10.84zm4.89-81.43a5.6 5.6 0 10-2.85 10.83 5.6 5.6 0 102.85-10.83zm-4.07 15.47a5.6 5.6 0 10-2.85 10.83 5.6 5.6 0 102.85-10.83zm-4.07 15.47a5.6 5.6 0 10-2.86 10.83 5.6 5.6 0 102.86-10.83zm-4.08 15.48a5.6 5.6 0 10-2.85 10.83 5.6 5.6 0 102.85-10.83z" stroke="#037b0b" stroke-dasharray="2, 2"/><path clip-path="url(&quot;#SvgjsClipPath3275&quot;)" fill="url(#SvgjsPattern3276)" transform="rotate(228.88 247.12 377.21)" d="M163.12 293.21h168v168h-168z"/><path d="M58.35 422a5.6 5.6 0 10-9.44-6.03 5.6 5.6 0 109.44 6.03zm-13.48-8.61a5.6 5.6 0 10-9.45-6.03 5.6 5.6 0 109.45 6.03zm-13.49-8.61a5.6 5.6 0 10-9.44-6.03 5.6 5.6 0 109.44 6.03zm-13.49-8.61a5.6 5.6 0 10-9.44-6.02 5.6 5.6 0 109.44 6.02z" fill="#037b0b"/><path d="M1140.86 207.7a5.6 5.6 0 107.63 8.2 5.6 5.6 0 10-7.63-8.2zm10.9 11.71a5.6 5.6 0 107.63 8.2 5.6 5.6 0 10-7.63-8.2zm10.9 11.72a5.6 5.6 0 107.63 8.2 5.6 5.6 0 10-7.63-8.2zm10.9 11.71a5.6 5.6 0 107.63 8.2 5.6 5.6 0 10-7.63-8.2zm-66.21-47.67a5.6 5.6 0 107.63 8.2 5.6 5.6 0 10-7.63-8.2zm10.9 11.72a5.6 5.6 0 107.63 8.2 5.6 5.6 0 10-7.63-8.2zm10.9 11.71a5.6 5.6 0 107.63 8.2 5.6 5.6 0 10-7.63-8.2zm10.9 11.71a5.6 5.6 0 107.63 8.2 5.6 5.6 0 10-7.63-8.2z" stroke="#e73635"/><path d="M426.02 501.67a5.6 5.6 0 107.42 8.4 5.6 5.6 0 10-7.42-8.4zm10.6 11.99a5.6 5.6 0 107.41 8.4 5.6 5.6 0 10-7.41-8.4zm10.59 11.99a5.6 5.6 0 107.41 8.4 5.6 5.6 0 10-7.41-8.4zm10.59 12a5.6 5.6 0 107.42 8.39 5.6 5.6 0 10-7.42-8.39zm-64.96-49.36a5.6 5.6 0 107.42 8.39 5.6 5.6 0 10-7.42-8.39zm10.6 11.99a5.6 5.6 0 107.41 8.39 5.6 5.6 0 10-7.41-8.39zm10.59 11.99a5.6 5.6 0 107.42 8.39 5.6 5.6 0 10-7.42-8.39zm10.6 11.99a5.6 5.6 0 107.41 8.39 5.6 5.6 0 10-7.41-8.39zm-64.96-49.36a5.6 5.6 0 107.41 8.39 5.6 5.6 0 10-7.41-8.39zm10.59 11.99a5.6 5.6 0 107.42 8.39 5.6 5.6 0 10-7.42-8.39zm10.59 11.99a5.6 5.6 0 107.42 8.39 5.6 5.6 0 10-7.42-8.39zm10.6 11.99a5.6 5.6 0 107.41 8.39 5.6 5.6 0 10-7.41-8.39z" stroke="#d3b714" stroke-width="2.5" stroke-dasharray="3, 3"/><circle r="87.813" cx="979.94" cy="431.33" fill="#037b0b"/><circle r="46.667" cx="278.38" cy="19.74" fill="#e73635"/><path clip-path="url(&quot;#SvgjsClipPath3277&quot;)" fill="url(#SvgjsPattern3278)" transform="rotate(62.45 580.27 519.9)" d="M526.65 466.28h107.24v107.24H526.65z"/><path d="M1067.91 233.22l-2.73-12.51 11.61-5.41-2.72-12.51 11.6-5.41-2.72-12.51 11.61-5.41m-19.48 57.31l-2.73-12.51 11.61-5.41-2.73-12.51 11.61-5.41-2.72-12.51 11.61-5.4" stroke="#037b0b" stroke-width="2.29" stroke-dasharray="2, 2"/></g><defs><clipPath id="SvgjsClipPath3273"><circle r="61.2" cx="555.73" cy="156.57"/></clipPath><clipPath id="SvgjsClipPath3275"><circle r="42" cx="247.12" cy="377.21"/></clipPath><clipPath id="SvgjsClipPath3277"><circle r="26.81" cx="580.27" cy="519.9"/></clipPath><pattern x="0" y="0" width="10.2" height="10.2" patternUnits="userSpaceOnUse" id="SvgjsPattern3274"><path d="M5.1 1v8.2M1 5.1h8.2" stroke="#d3b714" fill="none" stroke-width="3.25"/></pattern><pattern x="0" y="0" width="168" height="6" patternUnits="userSpaceOnUse" id="SvgjsPattern3276"><path fill="#d3b714" d="M0 0h168v3H0z"/><path fill="rgba(0, 0, 0, 0)" d="M0 3h168v3H0z"/></pattern><pattern x="0" y="0" width="7.66" height="7.66" patternUnits="userSpaceOnUse" id="SvgjsPattern3278"><path d="M0 7.66L3.83 0l3.83 7.66" stroke="#e73635" fill="none"/></pattern><mask id="SvgjsMask3272"><path fill="#fff" d="M0 0h1440v560H0z"/></mask></defs></svg>