<svg xmlns="http://www.w3.org/2000/svg" width="1440" height="560" preserveAspectRatio="none"><g mask="url(&quot;#SvgjsMask1000&quot;)" fill="none"><path fill="#0e2a47" d="M0 0h1440v560H0z"/><path d="M338.94 56.95h52.14V75.5h-52.14z" stroke="#d3b714"/><path d="M1004.19 198.96h.6v.6h-.6z" fill="#037b0b"/><path d="M143.12 76.89a14.01 14.01 0 10-24.4-13.77zm157.14 409.33h35.36v35.36h-35.36z" stroke="#e73635"/><path d="M900.99 512.23h15.77v31.71h-15.77zM749.66 23.12h34.42v34.42h-34.42zM570.73 240.27h34.95v34.95h-34.95z" stroke="#037b0b"/><path d="M120.11-41.49a43.82 43.82 0 10-25.6 83.82z" stroke="#e73635"/><path d="M960 41.37a40.71 40.71 0 1081.42 0 40.71 40.71 0 10-81.42 0z" fill="#d3b714"/><path d="M622.99 351.18a18.22 18.22 0 1036.44 0 18.22 18.22 0 10-36.44 0z" stroke="#037b0b"/><path d="M972.34 22.51a26.29 26.29 0 1052.58 0 26.29 26.29 0 10-52.58 0zm332.07 273.88h32.17v32.17h-32.17z" fill="#e73635"/><path d="M984.94 489.82a8.11 8.11 0 1016.22 0 8.11 8.11 0 10-16.22 0z" stroke="#d3b714"/><path d="M508.77 365.59a50.33 50.33 0 10100.66 0 50.33 50.33 0 10-100.66 0z" stroke="#037b0b"/><path d="M1147.82 250.15a53.69 53.69 0 10107.38 0 53.69 53.69 0 10-107.38 0z" fill="#e73635"/><path d="M499.15 183.99a39.71 39.71 0 1044.12-66.04z" stroke="#d3b714"/><path d="M342.45 456.75A51.79 51.79 0 10372.09 556zm1019.66-258.2a29.25 29.25 0 1058.5 0 29.25 29.25 0 10-58.5 0z" stroke="#e73635"/><path d="M1234.92 461.11h42.1v26.21h-42.1z" fill="#e73635"/><path d="M1179.48 278.72h15.35v15.35h-15.35z" stroke="#d3b714"/><path d="M917.06 177.02H933v15.94h-15.94z" stroke="#e73635"/><path d="M788.26 329.53h45.62v45.62h-45.62z" stroke="#d3b714"/><path d="M714.83 331.61h51.36v49.4h-51.36z" stroke="#037b0b"/><path d="M761.71 334.41h28.39v17.5h-28.39z" stroke="#e73635"/><path d="M706.91 313.33h32.87v53.07h-32.87z" stroke="#d3b714"/><path d="M1386.57 25.35h46.23v46.23h-46.23z" fill="#d3b714"/><path d="M715.78 167.79a37.36 37.36 0 10-73.68-12.42z" fill="#037b0b"/><path d="M1149.98 102.92h49.63v49.63h-49.63zM516.53 352.18a26.3 26.3 0 10-49.72 17.18zm73.13-58.01a43.09 43.09 0 1086.18 0 43.09 43.09 0 10-86.18 0z" fill="#e73635"/><path d="M1047.17 462.44a47.33 47.33 0 1073.36 59.82z" fill="#037b0b"/><path d="M65.65 49.22h45.6v45.6h-45.6z" stroke="#037b0b"/><path d="M1218.34 458.32a18.43 18.43 0 1036.86 0 18.43 18.43 0 10-36.86 0z" fill="#037b0b"/></g><defs><mask id="SvgjsMask1000"><path fill="#fff" d="M0 0h1440v560H0z"/></mask></defs></svg>