<svg xmlns="http://www.w3.org/2000/svg" width="1440" height="560" preserveAspectRatio="none"><g mask="url(&quot;#SvgjsMask1002&quot;)" fill="none"><path fill="url(#SvgjsLinearGradient1003)" d="M0 0h1440v560H0z"/><path d="M1440 0h-83.1l83.1 102.16z" fill="rgba(255, 255, 255, .1)"/><path d="M1356.9 0l83.1 102.16v75.59L1129.55 0z" fill="rgba(255, 255, 255, .075)"/><path d="M1129.55 0L1440 177.75v1.95L872.79 0z" fill="rgba(255, 255, 255, .05)"/><path d="M872.79 0L1440 179.7v166.49L373.59 0z" fill="rgba(255, 255, 255, .025)"/><path d="M0 560h651.01L0 343.97z" fill="rgba(0, 0, 0, .1)"/><path d="M0 343.97L651.01 560h30.45L0 165.67z" fill="rgba(0, 0, 0, .075)"/><path d="M0 165.67L681.46 560h191.73L0 149.84z" fill="rgba(0, 0, 0, .05)"/><path d="M0 149.84L873.19 560h65.13L0 68.08z" fill="rgba(0, 0, 0, .025)"/></g><defs><linearGradient x1="50%" y1="100%" x2="50%" y2="0%" gradientUnits="userSpaceOnUse" id="SvgjsLinearGradient1003"><stop stop-color="#0e4721" offset="0"/><stop stop-color="#0052bc" offset="1"/></linearGradient><mask id="SvgjsMask1002"><path fill="#fff" d="M0 0h1440v560H0z"/></mask></defs></svg>