<svg xmlns="http://www.w3.org/2000/svg" width="1920" height="1280" preserveAspectRatio="none"><g mask="url(&quot;#SvgjsMask1020&quot;)" fill="none"><path fill="#0e2a47" d="M0 0h1920v1280H0z"/><path d="M-51.02 820.93h0m0 0l158.45-21.88m-158.45 21.88l-30 182.67m30-182.67L84.65 967.46M-51.02 820.93l244.44-18.45m-244.44 18.45l248.26 189.4m-278.26-6.73h0m0 0l165.67-36.14m-165.67 36.14l158.16 112.39m-155.51 188.26h0m0 0l15.23 125.86m-15.23-125.86l128.76-15.83m-128.76 15.83L78.35 1407.9m-156.72-103.65l155.51-188.26m-140.28 314.12h0m0 0l141.49-22.21m-141.49 22.21l113.53-141.69m57.04-489.37h0m0 0l85.99 3.43M84.65 967.46h0m0 0l112.59 42.87M84.65 967.46l-7.51 148.53m7.51-148.53l22.78-168.41m-30.29 316.94h0m0 0l135.36 45.89m-135.36-45.89l120.1-105.66M50.39 1288.42h0m0 0l27.96 119.48m-27.96-119.48l26.75-172.43m-26.75 172.43l176.52 21.8m-176.52-21.8l166.07 119.23m-138.11.25h0m0 0l138.11-.25m-23.04-605.17h0m0 0l171.76 11.31m-171.76-11.31L84.65 967.46m108.77-164.98l3.82 207.85m0 0h0m0 0l15.26 151.55m0 0h0m0 0l14.41 148.34m-14.41-148.34l179.95-34.76m-179.95 34.76L50.39 1288.42m176.52 21.8h0m0 0l-10.45 97.43m10.45-97.43l118.18 77.66m-118.18-77.66L78.35 1407.9m138.11-.25h0m0 0l128.63-19.77m20.09-574.09h0m0 0l144.91 15m-144.91-15l36.33 180.24m-36.33-180.24l154.03 185.08M365.18 813.79l-257.75-14.74m294.08 194.98h0m0 0l117.7 4.84m-117.7-4.84l-9.06 133.09m0 0h0m0 0l98.04 17.61m-98.04-17.61l15.78 115.26m-15.78-115.26l126.76-128.25m-110.98 243.51h0m-63.14 145.5h0m0 0l63.14-145.5m101.86-413.59h0m0 0l9.12 170.08m-9.12-170.08l183.74-11.8m-183.74 11.8l141.13 125.96M510.09 828.79L401.51 994.03m108.58-165.24l160.1-123.87M519.21 998.87h0m0 0l132.01-44.12m-160.73 189.98h0m0 0l-82.26 97.65m82.26-97.65l25.78 143.38m0 0h0m0 0l9.14 112.5m0 0h0m0 0l121.97 17.35m-121.97-17.35l-180.32-12.73m180.32 12.73l-117.18-158.23m117.18 158.23l175.86-147.05m-175.86 147.05l-34.92-255.88m179.7-439.81h0m0 0l23.64 112.07m-23.64-112.07l155-31.89m-155 31.89l165.88 154.69M670.19 704.92l-18.97 249.83m18.97-249.83l157.58 247.53M693.83 816.99h0m-42.61 137.76h0m0 0l42.61-137.76m-42.61 137.76l176.55-2.3m-126.5 301.11h0m0 0l137.85 21.12m-137.85-21.12l118.04-114.38m-118.04 114.38l-53.89 164.4m53.89-164.4l-185 34.55m185-34.55l-210.78-108.83m156.89 273.23h0m177.81-744.93h0m10.88 186.58h0m0 0l-8.3 92.84m8.3-92.84l-142.24-42.62m142.24 42.62l160.59-72.06m-160.59 72.06l-10.88-186.58m10.88 186.58l-184.85 95.14m176.55-2.3h0m0 0l-8.46 186.73m8.46-186.73L693.83 816.99m133.94 135.46l168.89-164.9m-177.35 351.63h0m0 0l19.81 135.5m-19.81-135.5l189.43 136.46m-189.43-136.46L651.22 954.75m168.09 184.43l16.76-279.57m3.05 415.07h0m0 0l169.62.96m-169.62-.96l150.9 155.07m-150.9-155.07l-191.74 143.28m352.98-911.75h0m0 0l113.4-8.67m-113.4 8.67l95.65-95.53m-83.67 244.27h0m0 0L1119.39 701m-107.05-46.05l-15.68 132.6m15.68-132.6l-11.98-148.74m11.98 148.74l101.42-157.41m-101.42 157.41l-187.15 18.08m171.47 114.52h0m0 0l125.43 44.92m-125.43-44.92L1119.39 701m-110.65 574.64h0m0 0l148.36-6.43m-148.36 6.43l-18.72 154.11m0 0h0m0 0l131.4 16.88m-131.4-16.88l167.08-160.54m-11.2-1009.23h0m0 0l136.09-48.84m-136.09 48.84l-49.89 150.7m0 0h0m0 0l17.75 86.86m-17.75-86.86l193.41-71.87m-175.66 158.73h0m5.63 203.46h0m0 0l2.7 131.47m0 0h0m28.43 178.89h0m0 0l106.83-43.6m-106.83 43.6l-11.41 127.23m11.41-127.23l-28.43-178.89m28.43 178.89l157.07 124.03m-157.07-124.03l104.58-204.67m-115.99 331.9h0m0 0l17.99 130.62m0 0h0m0 0l101.2-4.69m-101.2 4.69l-35.68 177.42m0 0h0m0 0l175.27-40.24M1248.1-81.05h0m0 0l36.03 147.62M1248.1-81.05l151.34 146.32M1248.1-81.05L1457.55-111M1284.13 66.57h0m0 0l115.31-1.3m-115.31 1.3l-2.14 144.57m2.14-144.57L1145.9 259.98m138.23-193.41L1457.55-111m-175.56 322.14h0m0 0l7.43 127.67m0 0h0m0 0l124.84 26.5m-124.84-26.5l-143.52-78.83m155.73 288.8h0m0 0l91.86-21.69m-91.86 21.69l2.9 141.39m-2.9-141.39l123.59 88.97m-123.59-88.97l-187.87-51.24m187.87 51.24l-12.21-209.97m15.11 351.36h0m0 0l-49.43 116.52m49.43-116.52l120.69-52.42M1255.1 806.69h0m0 0l-133.01 25.78m133.01-25.78l2.25 161.07m-2.25-161.07L1119.39 701m137.96 266.76h0m0 0l152.32 9.32m-152.32-9.32l50.24 167.63m0 0h0m0 0l93.03 9.73m-93.03-9.73l-49.29 129.13m49.29-129.13l123.87 102.59m-123.87-102.59l-168.48 3.2m119.19 125.93h0m0 0l38.39 141.87m0 0h0m0 0l107.4 13.36m-107.4-13.36l-139.59-137.18m139.59 137.18l134.77-168.41M1457.55-111h0m0 0l80.56 14.41M1457.55-111l-58.11 176.27m0 0h0m0 0l-117.45 145.87m117.45-145.87l138.67-161.86M1399.44 65.27l152.99 196.75m-138.17 103.29h0m0 0l-20.77 161.78m0 0h0m0 0l31.73 110.66m0 0h0m0 0l150.1 5.96m-126.74 174.92h0m0 0l90.74 32.62m-90.74-32.62l-38.91 158.45m38.91-158.45l-23.36-180.88m-15.55 339.33h0m0 0l165.51 18.77m-174.56 149.27h0m0 0l30.84 92.86m-30.84-92.86l9.05-168.04m-9.05 168.04l173.22-5.72m-142.38 98.58h0m0 0l152.63 45.82m-180 135.95h0m0 0l182.33-22.76M1538.11-96.59h0m0 0l205.25 57.56m-205.25-57.56l161.34 157.12m-147.02 201.49h0m0 0l35.03 125.44m-35.03-125.44l-138.17 103.29m173.2 22.15h0m0 0l107.83 5.6m-107.83-5.6l5.13 137.06m-5.13-137.06l-173.2-22.15m173.2 22.15l165.12 153.53m-159.99-16.47h0m0 0l-17.27 119.19m0 0h0m0 0l124.39 6.34m-124.39-6.34l177.26-102.72m-177.26 102.72l-36 207.54m36-207.54l-126.74 174.92m90.74 32.62h0m0 0l35.86 144.6m-35.86-144.6l-129.65 125.83m165.51 18.77h0m0 0l112.49 15.17m-112.49-15.17l-1.34 143.55m1.34-143.55l136.06 92.88m-137.4 50.67h0m0 0l10.25 144.4m-10.25-144.4l137.4-50.67m-127.15 195.07h0m0 0l2.33 113.19m-2.33-113.19l115.43-34.11m-115.43 34.11l132.29 177.22m-132.29-177.22l-180 135.95m182.33-22.76h0m0 0l129.96 64.03m-129.96-64.03l113.1-147.3m43.84-1288.72h0m0 0l-43.91 99.56m43.91-99.56l95.65-52.51m-95.65 52.51l113.16 79.39m-113.16-79.39l16.61 263.98m-16.61-263.98L1457.55-111m241.9 171.53h0m0 0l157.07-20.17m-157.07 20.17l60.52 164.42m-60.52-164.42l139.56-152.07m-79.04 316.49h0m0 0l92.14 34.66m-92.14-34.66l83.59 148.02m-83.59-148.02l-64.68 168.11m64.68-168.11l96.55-184.59m-96.55 184.59l-207.54 37.07m142.86 131.04h0m0 0l148.27-20.09m-148.27 20.09l57.29 147.93m-57.29-147.93l-102.7 131.46m159.99 16.47h0m0 0l94.56-10.35m-94.56 10.35l-52.87 109.06m52.87-109.06l97.18 108.77m-97.18-108.77l-159.99-16.47m159.99 16.47l90.98-168.02m-143.85 277.08h0m0 0l150.05-.29m-150.05.29l-107.12-125.53m159.17 282.77h0m0 0l145.53 45.27m-145.53-45.27l-52.05-157.24m52.05 157.24l98-157.53m-98 157.53l-64.09 203.73m0 0h0m0 0l23.57 77.71m-23.57-77.71l-113.83 128.38m137.4-50.67h0m0 0l-11.72 160.96m11.72-160.96l-127.15 195.07m127.15-195.07l141.24 194m-152.96-33.04h0m0 0l152.96 33.04m-152.96-33.04l-125.68-110.29m142.54 321.62h0m0 0l163.54-4.46m-163.54 4.46l-16.86-211.33m16.86 211.33l136.1-178.29M1839.01-91.54h0m0 0l17.51 131.9m-17.51-131.9l201.4 13.12m-201.4-13.12l209.4 200.95m-209.4-200.95l-300.9-5.05m318.41 136.95h0m0 0l191.89 69.05m-196.3 150.2h0m0 0l-8.55 113.36m0 0h0m0 0l3.58 157.67m0 0h0m0 0l2.62 119.12m-2.62-119.12l184.63-23.27m-182.01 142.39h0m47.53 202.8h0m0 0l113.87-3.48m-113.87 3.48l101.64-154.52m-101.64 154.52l154.51 128.71m-199.32 301.46h0m0 0l27.44 173.83m0 0h0m0 0l130.41-14.89m-130.41 14.89l180.58-167.26m-180.58 167.26l-180.4-206.87m180.4 206.87l-293.5-59.57M2040.41-78.42h0m0 0l8 187.83m-8-187.83L1856.52 40.36m183.89-118.78l-297.05 39.39m297.05-39.39l-14.65 331.08m14.65-331.08L1699.45 60.53m348.96 48.88h0m0 0l-22.65 143.25m22.65-143.25l-196.3 150.2m196.3-150.2l10.14 261.44m-32.79-118.19h0m0 0l32.79 118.19m-32.79-118.19l-173.65 6.95m173.65-6.95l-182.2 120.31m182.2-120.31l6.01 254.71m-6.01-254.71l-265.79-27.71m298.58 145.9h0m0 0l-26.78 136.52m26.78-136.52l-214.99 2.12m214.99-2.12l-206.44-111.24m206.44 111.24l-211.41 159.79m184.63-23.27h0m0 0l-32.84 190.67m0 0h0m0 0l12.23 151.04m-12.23-151.04l-149.17-48.28m149.17 48.28l-151.79-167.4m151.79 167.4l-247.17 109.25m259.4 41.79h0m0 0l40.64 132.19m-40.64-132.19l-161.4-199.32m161.4 199.32l-259.4-41.79m300.04 173.98h0m0 0l3.52 152.93m0 0h0m0 0l5.18 155.1m-5.18-155.1l-202.84 148.53m202.84-148.53l-44.16-285.12m44.16 285.12l-44.99 307.47m50.17-152.37h0m0 0l-50.17 152.37m50.17-152.37l-208.02-6.57m208.02 6.57l-8.7-308.03m-41.47 460.4h0" stroke="rgba(9, 52, 97, 1)" stroke-width="1.5"/><circle r="5" cx="-51.02" cy="820.93" fill="rgba(9, 52, 97, 1)"/><circle r="5" cx="-81.02" cy="1003.6" fill="rgba(9, 52, 97, 1)"/><circle r="5" cx="-78.37" cy="1304.25" fill="rgba(9, 52, 97, 1)"/><circle r="5" cx="-63.14" cy="1430.11" fill="rgba(9, 52, 97, 1)"/><circle r="5" cx="107.43" cy="799.05" fill="rgba(9, 52, 97, 1)"/><circle r="5" cx="84.65" cy="967.46" fill="rgba(9, 52, 97, 1)"/><circle r="5" cx="77.14" cy="1115.99" fill="rgba(9, 52, 97, 1)"/><circle r="5" cx="50.39" cy="1288.42" fill="rgba(9, 52, 97, 1)"/><circle r="5" cx="78.35" cy="1407.9" fill="rgba(9, 52, 97, 1)"/><circle r="5" cx="193.42" cy="802.48" fill="rgba(9, 52, 97, 1)"/><circle r="5" cx="197.24" cy="1010.33" fill="rgba(9, 52, 97, 1)"/><circle r="5" cx="212.5" cy="1161.88" fill="rgba(9, 52, 97, 1)"/><circle r="5" cx="226.91" cy="1310.22" fill="rgba(9, 52, 97, 1)"/><circle r="5" cx="216.46" cy="1407.65" fill="rgba(9, 52, 97, 1)"/><circle r="5" cx="365.18" cy="813.79" fill="rgba(9, 52, 97, 1)"/><circle r="5" cx="401.51" cy="994.03" fill="rgba(9, 52, 97, 1)"/><circle r="5" cx="392.45" cy="1127.12" fill="rgba(9, 52, 97, 1)"/><circle r="5" cx="408.23" cy="1242.38" fill="rgba(9, 52, 97, 1)"/><circle r="5" cx="345.09" cy="1387.88" fill="rgba(9, 52, 97, 1)"/><circle r="5" cx="510.09" cy="828.79" fill="rgba(9, 52, 97, 1)"/><circle r="5" cx="519.21" cy="998.87" fill="rgba(9, 52, 97, 1)"/><circle r="5" cx="490.49" cy="1144.73" fill="rgba(9, 52, 97, 1)"/><circle r="5" cx="516.27" cy="1288.11" fill="rgba(9, 52, 97, 1)"/><circle r="5" cx="525.41" cy="1400.61" fill="rgba(9, 52, 97, 1)"/><circle r="5" cx="670.19" cy="704.92" fill="rgba(9, 52, 97, 1)"/><circle r="5" cx="693.83" cy="816.99" fill="rgba(9, 52, 97, 1)"/><circle r="5" cx="651.22" cy="954.75" fill="rgba(9, 52, 97, 1)"/><circle r="5" cx="701.27" cy="1253.56" fill="rgba(9, 52, 97, 1)"/><circle r="5" cx="647.38" cy="1417.96" fill="rgba(9, 52, 97, 1)"/><circle r="5" cx="825.19" cy="673.03" fill="rgba(9, 52, 97, 1)"/><circle r="5" cx="836.07" cy="859.61" fill="rgba(9, 52, 97, 1)"/><circle r="5" cx="827.77" cy="952.45" fill="rgba(9, 52, 97, 1)"/><circle r="5" cx="819.31" cy="1139.18" fill="rgba(9, 52, 97, 1)"/><circle r="5" cx="839.12" cy="1274.68" fill="rgba(9, 52, 97, 1)"/><circle r="5" cx="1000.36" cy="506.21" fill="rgba(9, 52, 97, 1)"/><circle r="5" cx="1012.34" cy="654.95" fill="rgba(9, 52, 97, 1)"/><circle r="5" cx="996.66" cy="787.55" fill="rgba(9, 52, 97, 1)"/><circle r="5" cx="1008.74" cy="1275.64" fill="rgba(9, 52, 97, 1)"/><circle r="5" cx="990.02" cy="1429.75" fill="rgba(9, 52, 97, 1)"/><circle r="5" cx="1145.9" cy="259.98" fill="rgba(9, 52, 97, 1)"/><circle r="5" cx="1096.01" cy="410.68" fill="rgba(9, 52, 97, 1)"/><circle r="5" cx="1113.76" cy="497.54" fill="rgba(9, 52, 97, 1)"/><circle r="5" cx="1119.39" cy="701" fill="rgba(9, 52, 97, 1)"/><circle r="5" cx="1122.09" cy="832.47" fill="rgba(9, 52, 97, 1)"/><circle r="5" cx="1150.52" cy="1011.36" fill="rgba(9, 52, 97, 1)"/><circle r="5" cx="1139.11" cy="1138.59" fill="rgba(9, 52, 97, 1)"/><circle r="5" cx="1157.1" cy="1269.21" fill="rgba(9, 52, 97, 1)"/><circle r="5" cx="1121.42" cy="1446.63" fill="rgba(9, 52, 97, 1)"/><circle r="5" cx="1248.1" cy="-81.05" fill="rgba(9, 52, 97, 1)"/><circle r="5" cx="1284.13" cy="66.57" fill="rgba(9, 52, 97, 1)"/><circle r="5" cx="1281.99" cy="211.14" fill="rgba(9, 52, 97, 1)"/><circle r="5" cx="1289.42" cy="338.81" fill="rgba(9, 52, 97, 1)"/><circle r="5" cx="1301.63" cy="548.78" fill="rgba(9, 52, 97, 1)"/><circle r="5" cx="1304.53" cy="690.17" fill="rgba(9, 52, 97, 1)"/><circle r="5" cx="1255.1" cy="806.69" fill="rgba(9, 52, 97, 1)"/><circle r="5" cx="1257.35" cy="967.76" fill="rgba(9, 52, 97, 1)"/><circle r="5" cx="1307.59" cy="1135.39" fill="rgba(9, 52, 97, 1)"/><circle r="5" cx="1258.3" cy="1264.52" fill="rgba(9, 52, 97, 1)"/><circle r="5" cx="1296.69" cy="1406.39" fill="rgba(9, 52, 97, 1)"/><circle r="5" cx="1457.55" cy="-111" fill="rgba(9, 52, 97, 1)"/><circle r="5" cx="1399.44" cy="65.27" fill="rgba(9, 52, 97, 1)"/><circle r="5" cx="1414.26" cy="365.31" fill="rgba(9, 52, 97, 1)"/><circle r="5" cx="1393.49" cy="527.09" fill="rgba(9, 52, 97, 1)"/><circle r="5" cx="1425.22" cy="637.75" fill="rgba(9, 52, 97, 1)"/><circle r="5" cx="1448.58" cy="818.63" fill="rgba(9, 52, 97, 1)"/><circle r="5" cx="1409.67" cy="977.08" fill="rgba(9, 52, 97, 1)"/><circle r="5" cx="1400.62" cy="1145.12" fill="rgba(9, 52, 97, 1)"/><circle r="5" cx="1431.46" cy="1237.98" fill="rgba(9, 52, 97, 1)"/><circle r="5" cx="1404.09" cy="1419.75" fill="rgba(9, 52, 97, 1)"/><circle r="5" cx="1538.11" cy="-96.59" fill="rgba(9, 52, 97, 1)"/><circle r="5" cx="1552.43" cy="262.02" fill="rgba(9, 52, 97, 1)"/><circle r="5" cx="1587.46" cy="387.46" fill="rgba(9, 52, 97, 1)"/><circle r="5" cx="1592.59" cy="524.52" fill="rgba(9, 52, 97, 1)"/><circle r="5" cx="1575.32" cy="643.71" fill="rgba(9, 52, 97, 1)"/><circle r="5" cx="1539.32" cy="851.25" fill="rgba(9, 52, 97, 1)"/><circle r="5" cx="1575.18" cy="995.85" fill="rgba(9, 52, 97, 1)"/><circle r="5" cx="1573.84" cy="1139.4" fill="rgba(9, 52, 97, 1)"/><circle r="5" cx="1584.09" cy="1283.8" fill="rgba(9, 52, 97, 1)"/><circle r="5" cx="1586.42" cy="1396.99" fill="rgba(9, 52, 97, 1)"/><circle r="5" cx="1743.36" cy="-39.03" fill="rgba(9, 52, 97, 1)"/><circle r="5" cx="1699.45" cy="60.53" fill="rgba(9, 52, 97, 1)"/><circle r="5" cx="1759.97" cy="224.95" fill="rgba(9, 52, 97, 1)"/><circle r="5" cx="1695.29" cy="393.06" fill="rgba(9, 52, 97, 1)"/><circle r="5" cx="1752.58" cy="540.99" fill="rgba(9, 52, 97, 1)"/><circle r="5" cx="1699.71" cy="650.05" fill="rgba(9, 52, 97, 1)"/><circle r="5" cx="1751.76" cy="807.29" fill="rgba(9, 52, 97, 1)"/><circle r="5" cx="1687.67" cy="1011.02" fill="rgba(9, 52, 97, 1)"/><circle r="5" cx="1711.24" cy="1088.73" fill="rgba(9, 52, 97, 1)"/><circle r="5" cx="1699.52" cy="1249.69" fill="rgba(9, 52, 97, 1)"/><circle r="5" cx="1716.38" cy="1461.02" fill="rgba(9, 52, 97, 1)"/><circle r="5" cx="1839.01" cy="-91.54" fill="rgba(9, 52, 97, 1)"/><circle r="5" cx="1856.52" cy="40.36" fill="rgba(9, 52, 97, 1)"/><circle r="5" cx="1852.11" cy="259.61" fill="rgba(9, 52, 97, 1)"/><circle r="5" cx="1843.56" cy="372.97" fill="rgba(9, 52, 97, 1)"/><circle r="5" cx="1847.14" cy="530.64" fill="rgba(9, 52, 97, 1)"/><circle r="5" cx="1849.76" cy="649.76" fill="rgba(9, 52, 97, 1)"/><circle r="5" cx="1897.29" cy="852.56" fill="rgba(9, 52, 97, 1)"/><circle r="5" cx="1852.48" cy="1282.73" fill="rgba(9, 52, 97, 1)"/><circle r="5" cx="1879.92" cy="1456.56" fill="rgba(9, 52, 97, 1)"/><circle r="5" cx="2040.41" cy="-78.42" fill="rgba(9, 52, 97, 1)"/><circle r="5" cx="2048.41" cy="109.41" fill="rgba(9, 52, 97, 1)"/><circle r="5" cx="2025.76" cy="252.66" fill="rgba(9, 52, 97, 1)"/><circle r="5" cx="2058.55" cy="370.85" fill="rgba(9, 52, 97, 1)"/><circle r="5" cx="2031.77" cy="507.37" fill="rgba(9, 52, 97, 1)"/><circle r="5" cx="1998.93" cy="698.04" fill="rgba(9, 52, 97, 1)"/><circle r="5" cx="2011.16" cy="849.08" fill="rgba(9, 52, 97, 1)"/><circle r="5" cx="2051.8" cy="981.27" fill="rgba(9, 52, 97, 1)"/><circle r="5" cx="2055.32" cy="1134.2" fill="rgba(9, 52, 97, 1)"/><circle r="5" cx="2060.5" cy="1289.3" fill="rgba(9, 52, 97, 1)"/><circle r="5" cx="2010.33" cy="1441.67" fill="rgba(9, 52, 97, 1)"/><path d="M55.03 1297.92h0m0 0l-105.82 5.93m105.82-5.93L199.75 1281m42.99-164.82h0m0 0l164.03-21.94m-164.03 21.94L199.75 1281m207.02-186.76h0m0 0l113.87 36.72m-113.87-36.72l105.75-85.02m-105.75 85.02l-29.15 174.55m319.07 17.31h0m0 0l-3.85 127.26m3.85-127.26l-24.16-161.64m24.16 161.64l160.3-36.74M1001.4 1267h0m0 0l90.24-18.12M1001.4 1267l-144.41-17.64M1001.4 1267l-39.19-141.54M1001.4 1267l-8.18 162.04m8.18-162.04l93.37 145.56M1001.4 1267l109.95-140.06m-19.71 121.94h0m0 0l19.71-121.94m197.51-309.07h0m0 0l101.63 30.68m-101.63-30.68l-28.54-124.73m28.54 124.73l-165.75-23.07m165.75 23.07l148.93-112.79m-148.93 112.79l143.34 130.44m-205.02 185.58h0m0 0l-135.83-6.95m135.83 6.95l26.66 152.51m-26.66-152.51l-155.54 114.99m155.54-114.99l203.24 10.57m1.78-196.15h0m0 0l-41.71-99.76m41.71 99.76l135.35 40.98m-135.35-40.98l127.13-142.8m-127.13 142.8l-1.78 196.15m0 0h0m0 0l113.26-1.26m-113.26 1.26l-35.77 117.68m35.77-117.68l100.16 164.11m14.87-1203.05h0m0 0l127.67-32.33m-127.67 32.33l-12.49 147.99m12.49-147.99l-24.19-158.16m24.19 158.16l45.1 238.82m-45.1-238.82l195.11 146.24m-195.11-146.24l275.88 104.04m-239.31 501.36h0m0 0l-22.69 94.59m22.69-94.59l124.38-28.82m-124.38 28.82l118.26 79.82m-118.26-79.82l-144.23-5.84m105.89 438.12h0m0 0l23.87-153.91m-23.87 153.91l-13.1 165.37m13.1-165.37l188.15-29.91m-188.15 29.91l-149.03 118.94M1726.4 682.1h0m0 0l-6.12 108.64m6.12-108.64l-3.15-157.68m3.15 157.68l117.73-147.73m23.15-607.76h0m0 0l140.87 23.74m-140.87-23.74l37.48 143.73m-37.48-143.73L1693.12 73.19m174.16-146.58l152.71 178.13m-115.23-34.4h0m0 0l115.23 34.4m-115.23-34.4l-63.43 139.22m63.43-139.22l103.39-119.99M1904.76 70.34l-211.64 2.85m211.64-2.85l-144.2 181.42m128.99 604.58h0m0 0L1867.87 1001m21.68-144.66l167-16.49m-167 16.49l-169.27-65.6M1867.87 1001h0m0 0l-16.46 117.52m0 0h0m0 0l-99.58-5.23m268.16-1008.55h0m0 0l-11.84-154.39m11.84 154.39l-178.66 104.82m178.66-104.82l-110.77 244.51m110.77-244.51l4.41 275.37m-3.6 291.72h0m0 0l-9.32-115.85m9.32 115.85l35.75 168.02m-35.75-168.02l-176.67-137.46m176.67 137.46l-131.25 184.51M-50.79 1303.85h0m0 0l-25.95 143.6m25.95-143.6L62.6 1454.3m-113.39-150.45l90.88-198.18m-116.83 341.78h0m0 0l139.34 6.85m-139.34-6.85l131.77-149.53m-14.94-192.25h0m0 0l14.94 192.25m-14.94-192.25l202.65 10.51M62.6 1454.3h0m0 0l-7.57-156.38m7.57 156.38l186.05-30.05M62.6 1454.3L199.75 1281m0 0h0m0 0l48.9 143.25M199.75 1281l177.87-12.21m-128.97 155.46h0m0 0l158.7 23.44m-29.73-178.9h0m0 0l124.57-19.41m-94.84 198.31h0m0 0l115.07-58.99m-115.07 58.99l-29.73-178.9m29.73 178.9l94.84-198.31m-94.84 198.31L199.75 1281m312.77-271.78h0m0 0l8.12 121.74m-8.12-121.74l160.01 115.24m-160.01-115.24l-10.33 240.16m18.45-118.42h0m0 0l-18.45 118.42m0 0h0m20.23 139.32h0m0 0l-20.23-139.32m170.34-124.92h0m0 0l136.42 9.45m-136.42-9.45l-151.89 6.5m151.89-6.5l122.04-136.55m-101.73 425.45h0m0 0l100.82 47.2m.91-472.65h0m0 0l14.38 146m-14.38-146l216.33-11.65m-216.33 11.65l167.64 137.55M794.57 987.91l161.67-172.28m-147.29 318.28h0m0 0l48.04 115.45m0 0h0m0 0l105.22-123.9m-168.55 335.1h0m0 0l-96.97-174.46m96.97 174.46l199.56-31.52m-199.56 31.52l63.33-211.2m99.25-433.73h0m0 0l54.66 160.63m-54.66-160.63l186.87-20.83m-186.87 20.83l194.1 137.76m-194.1-137.76l5.97 309.83m-5.97-309.83l324.08-122.49M1010.9 976.26h0m0 0l139.44-22.87m-139.44 22.87l-48.69 149.2m48.69-149.2l100.45 150.68m-149.14-1.48h0m0 0l149.14 1.48m-118.13 302.1h0m0 0l101.55-16.48m-101.55 16.48l98.42-180.16m51.47-454.08h0m0 0l7.23 158.59m0 0h0m0 0l-38.99 173.55m38.99-173.55l96.84 180.5m-96.84-180.5l158.52-135.52m-197.51 309.07h0m-16.58 285.62h0m0 0l-3.13-163.68m3.13 163.68l177.25-.44m8.3-718.98h0m0 0L1143.11 794.8m130.73 491.6h0m0 0l-1.82 125.72m1.82-125.72l140.81-24.26m-140.81 24.26l146.36 114.27m-148.18 11.45h0m0 0l148.18-11.45m21.87-860.73h0m0 0l136.87-25.5m-136.87 25.5l15.72 165.14m-15.72-165.14l-161.75 153.2m177.47 11.94h0m0 0l-47.3 143.47m47.3-143.47l121.54 100.43m-121.54-100.43l-177.47-11.94m130.17 155.41h0m4.16 413.59h0m0 0l5.55 138.53m-5.55-138.53l135.93 46.43m-135.93-46.43l-142.63 149.98m148.18-11.45h0m0 0l132.49 19.19m-11.43-1472.5h0m0 0l151.86 125.83M1541.26-52.64l11.7 306.15m-11.7-306.15l326.02-20.75m-326.02 20.75l219.3 304.4m-207.6 1.75h0m0 0l57.59 90.83m-57.59-90.83l166.92 106.62m-166.92-106.62l207.6-1.75m-207.6 1.75l140.16-180.32m-140.16 180.32l25.98 260.93m31.61-170.1h0m0 0l109.33 15.79m-109.33-15.79l-31.61 170.1m31.61-170.1l150.01-92.58m-150.01 92.58l112.7 180.08m-144.31-9.98h0m0 0l144.31 9.98m-144.31-9.98l23.08 196.48m-23.08-196.48l140.94-154.31m-140.94 154.31L1726.4 682.1m-147.07 123.41h0m0 0l140.95-14.77m-140.95 14.77l-168.84 43.04m177.06 140.74h0m0 0l156.15 1.22m-193.12 318.06h0m0 0l2.11 111.29m-2.11-111.29l-130.38 92.1m130.38-92.1l210.32-13.42m-208.21 124.71h0m0 0l181.69 39.41m-181.69-39.41l-138.04-157.72m138.04 157.72l208.21-124.71M1693.12 73.19h0m0 0l67.44 178.57m-67.44-178.57l148.21 136.37m-80.77 42.2h0m0 0l80.77-42.2m-121.45 150.57h0m0 0l40.68-108.37m-40.68 108.37l3.37 164.29m-3.37-164.29l189.34-10.88m-189.34 10.88l121.45-150.57m-118.08 314.86h0m0 0l120.88 9.95m-120.88-9.95l-121.23 186.5m118.26 79.82h0m0 0l23.42 199.77m-23.42-199.77l-132.73 198.55m156.15 1.22h0m0 0l8.13 122.78m-8.13-122.78l124.17 10.49m-124.17-10.49l107.71 128.01M1743.7 990.51l145.85-134.17m-137.72 256.95h0m0 0L1867.87 1001m-116.04 112.29l9.07 181.86m0 0h0m0 0l135.73-38.54m-135.73 38.54l-26.52 164.12m26.52-164.12l90.51-176.63m-117.03 340.75h0m0 0l167.16-2.02m-60.21-1247.69h0m67.89 139.69h0m0 0l115.18 30.86m-115.18-30.86l-67.89-139.69m2.8 324.81h0m0 0l167.35 21.61m-167.35-21.61l65.09-185.12m-12.59 907.36h0m0 0l117.14 34.62m-112.23 166.02h0m0 0l102.03-42.16m4.58-1464.74h0m0 0l-166.82 259.21m166.82-259.21L1693.12 73.19m315.03-122.84l-247.59 301.41m263.84 128.35h0m0 0l-12.92 175.87m12.92-175.87l-180.27 154.26m180.27-154.26l-183.07-170.55m183.07 170.55l-3.6 291.72m-9.32-115.85h0m45.07 283.87h0m0 0l-36.68 153.91m0 0h0m0 0l-18.15 95.68m18.15-95.68l-152 7.24m133.85 88.44h0m0 0l-150.31 29.08m150.31-29.08L1867.87 1001m133.85 88.44l-105.09 167.17m117.14 34.62h0m0 0l-10.2 123.86m10.2-123.86l-112.23 166.02m102.03-42.16h0m0 0l-106.94-158.48" stroke="hsl(211.10000000000002, 67.1%, 43.3%)" stroke-width="1.5"/><circle r="25" cx="55.03" cy="1297.92" fill="url(#SvgjsRadialGradient1021)"/><circle r="25" cx="242.74" cy="1116.18" fill="url(#SvgjsRadialGradient1021)"/><circle r="25" cx="406.77" cy="1094.24" fill="url(#SvgjsRadialGradient1021)"/><circle r="25" cx="696.69" cy="1286.1" fill="url(#SvgjsRadialGradient1021)"/><circle r="25" cx="1001.4" cy="1267" fill="url(#SvgjsRadialGradient1021)"/><circle r="25" cx="1091.64" cy="1248.88" fill="url(#SvgjsRadialGradient1021)"/><circle r="25" cx="1308.86" cy="817.87" fill="url(#SvgjsRadialGradient1021)"/><circle r="25" cx="1247.18" cy="1133.89" fill="url(#SvgjsRadialGradient1021)"/><circle r="25" cx="1452.2" cy="948.31" fill="url(#SvgjsRadialGradient1021)"/><circle r="25" cx="1450.42" cy="1144.46" fill="url(#SvgjsRadialGradient1021)"/><circle r="25" cx="1565.45" cy="105.52" fill="url(#SvgjsRadialGradient1021)"/><circle r="25" cx="1602.02" cy="710.92" fill="url(#SvgjsRadialGradient1021)"/><circle r="25" cx="1563.68" cy="1143.2" fill="url(#SvgjsRadialGradient1021)"/><circle r="25" cx="1726.4" cy="682.1" fill="url(#SvgjsRadialGradient1021)"/><circle r="25" cx="1867.28" cy="-73.39" fill="url(#SvgjsRadialGradient1021)"/><circle r="25" cx="1904.76" cy="70.34" fill="url(#SvgjsRadialGradient1021)"/><circle r="25" cx="1889.55" cy="856.34" fill="url(#SvgjsRadialGradient1021)"/><circle r="25" cx="1867.87" cy="1001" fill="url(#SvgjsRadialGradient1021)"/><circle r="25" cx="1851.41" cy="1118.52" fill="url(#SvgjsRadialGradient1021)"/><circle r="25" cx="2019.99" cy="104.74" fill="url(#SvgjsRadialGradient1021)"/><circle r="25" cx="2020.8" cy="671.83" fill="url(#SvgjsRadialGradient1021)"/><circle r="5" cx="-50.79" cy="1303.85" fill="#8ea9c7"/><circle r="5" cx="-76.74" cy="1447.45" fill="#8ea9c7"/><circle r="5" cx="40.09" cy="1105.67" fill="#8ea9c7"/><circle r="5" cx="62.6" cy="1454.3" fill="#8ea9c7"/><circle r="5" cx="199.75" cy="1281" fill="#8ea9c7"/><circle r="5" cx="248.65" cy="1424.25" fill="#8ea9c7"/><circle r="5" cx="377.62" cy="1268.79" fill="#8ea9c7"/><circle r="5" cx="407.35" cy="1447.69" fill="#8ea9c7"/><circle r="5" cx="512.52" cy="1009.22" fill="#8ea9c7"/><circle r="5" cx="520.64" cy="1130.96" fill="#8ea9c7"/><circle r="5" cx="502.19" cy="1249.38" fill="#8ea9c7"/><circle r="5" cx="522.42" cy="1388.7" fill="#8ea9c7"/><circle r="5" cx="672.53" cy="1124.46" fill="#8ea9c7"/><circle r="5" cx="692.84" cy="1413.36" fill="#8ea9c7"/><circle r="5" cx="794.57" cy="987.91" fill="#8ea9c7"/><circle r="5" cx="808.95" cy="1133.91" fill="#8ea9c7"/><circle r="5" cx="856.99" cy="1249.36" fill="#8ea9c7"/><circle r="5" cx="793.66" cy="1460.56" fill="#8ea9c7"/><circle r="5" cx="956.24" cy="815.63" fill="#8ea9c7"/><circle r="5" cx="1010.9" cy="976.26" fill="#8ea9c7"/><circle r="5" cx="962.21" cy="1125.46" fill="#8ea9c7"/><circle r="5" cx="993.22" cy="1429.04" fill="#8ea9c7"/><circle r="5" cx="1143.11" cy="794.8" fill="#8ea9c7"/><circle r="5" cx="1150.34" cy="953.39" fill="#8ea9c7"/><circle r="5" cx="1111.35" cy="1126.94" fill="#8ea9c7"/><circle r="5" cx="1094.77" cy="1412.56" fill="#8ea9c7"/><circle r="5" cx="1280.32" cy="693.14" fill="#8ea9c7"/><circle r="5" cx="1273.84" cy="1286.4" fill="#8ea9c7"/><circle r="5" cx="1272.02" cy="1412.12" fill="#8ea9c7"/><circle r="5" cx="1442.07" cy="539.94" fill="#8ea9c7"/><circle r="5" cx="1457.79" cy="705.08" fill="#8ea9c7"/><circle r="5" cx="1410.49" cy="848.55" fill="#8ea9c7"/><circle r="5" cx="1414.65" cy="1262.14" fill="#8ea9c7"/><circle r="5" cx="1420.2" cy="1400.67" fill="#8ea9c7"/><circle r="5" cx="1541.26" cy="-52.64" fill="#8ea9c7"/><circle r="5" cx="1552.96" cy="253.51" fill="#8ea9c7"/><circle r="5" cx="1610.55" cy="344.34" fill="#8ea9c7"/><circle r="5" cx="1578.94" cy="514.44" fill="#8ea9c7"/><circle r="5" cx="1579.33" cy="805.51" fill="#8ea9c7"/><circle r="5" cx="1587.55" cy="989.29" fill="#8ea9c7"/><circle r="5" cx="1550.58" cy="1308.57" fill="#8ea9c7"/><circle r="5" cx="1552.69" cy="1419.86" fill="#8ea9c7"/><circle r="5" cx="1693.12" cy="73.19" fill="#8ea9c7"/><circle r="5" cx="1760.56" cy="251.76" fill="#8ea9c7"/><circle r="5" cx="1719.88" cy="360.13" fill="#8ea9c7"/><circle r="5" cx="1723.25" cy="524.42" fill="#8ea9c7"/><circle r="5" cx="1720.28" cy="790.74" fill="#8ea9c7"/><circle r="5" cx="1743.7" cy="990.51" fill="#8ea9c7"/><circle r="5" cx="1751.83" cy="1113.29" fill="#8ea9c7"/><circle r="5" cx="1760.9" cy="1295.15" fill="#8ea9c7"/><circle r="5" cx="1734.38" cy="1459.27" fill="#8ea9c7"/><circle r="5" cx="1841.33" cy="209.56" fill="#8ea9c7"/><circle r="5" cx="1909.22" cy="349.25" fill="#8ea9c7"/><circle r="5" cx="1844.13" cy="534.37" fill="#8ea9c7"/><circle r="5" cx="1896.63" cy="1256.61" fill="#8ea9c7"/><circle r="5" cx="1901.54" cy="1457.25" fill="#8ea9c7"/><circle r="5" cx="2008.15" cy="-49.65" fill="#8ea9c7"/><circle r="5" cx="2024.4" cy="380.11" fill="#8ea9c7"/><circle r="5" cx="2011.48" cy="555.98" fill="#8ea9c7"/><circle r="5" cx="2056.55" cy="839.85" fill="#8ea9c7"/><circle r="5" cx="2019.87" cy="993.76" fill="#8ea9c7"/><circle r="5" cx="2001.72" cy="1089.44" fill="#8ea9c7"/><circle r="5" cx="2013.77" cy="1291.23" fill="#8ea9c7"/><circle r="5" cx="2003.57" cy="1415.09" fill="#8ea9c7"/></g><defs><radialGradient id="SvgjsRadialGradient1021"><stop stop-color="#fff" offset=".1"/><stop stop-color="rgba(28, 83, 142, 1)" offset=".2"/><stop stop-color="rgba(28, 83, 142, 0)" offset="1"/></radialGradient><mask id="SvgjsMask1020"><path fill="#fff" d="M0 0h1920v1280H0z"/></mask></defs></svg>