<svg xmlns="http://www.w3.org/2000/svg" width="1920" height="1280" preserveAspectRatio="none"><g mask="url(&quot;#SvgjsMask1013&quot;)" fill="none"><path fill="#0e2a47" d="M0 0h1920v1280H0z"/><path d="M0 616.835c137.513 8.763 278.55 68.256 404.793 13.035 132.388-57.908 208.62-192.206 285.102-314.805 86.23-138.224 231.466-284.492 186.442-441.063C830.158-286.585 619.432-324 479.752-415.708c-100.147-65.752-193.82-133.3-307.098-172.298C54.58-628.655-65.103-653.894-189.74-646.195c-151.221 9.341-332.82-7.08-432.208 107.274-99.377 114.341-37.483 291.637-45.955 442.891-7.643 136.444-55.98 276.404-1.351 401.668 54.951 126.002 171.664 216.714 296.311 274.673C-257.339 634.066-127.233 608.727 0 616.835" fill="#0b2036"/><path d="M1920 2041.907c152.214-9.717 317.016 13.302 442.176-73.867 123.912-86.3 175.129-241.672 218.543-386.3 39.086-130.21 50.775-267.465 17.251-399.217-31.431-123.529-132.597-208.62-199.516-317.106-82.762-134.171-107.277-311.687-240.417-396.097-144.293-91.481-338.793-135.818-497.056-71.458-156.966 63.833-213.39 251.657-301.689 396.281-74.058 121.299-156.137 239.262-172.528 380.434-16.135 138.967 41.718 268.925 81.561 403.033 46.604 156.864 38.39 354.348 171.664 449.301 133.071 94.809 316.952 25.405 480.011 14.996" fill="#113458"/></g><defs><mask id="SvgjsMask1013"><path fill="#fff" d="M0 0h1920v1280H0z"/></mask></defs></svg>