<svg xmlns="http://www.w3.org/2000/svg" width="1920" height="1280" preserveAspectRatio="none"><g mask="url(&quot;#SvgjsMask1008&quot;)" fill="none"><path fill="#0e2a47" d="M0 0h1920v1280H0z"/><path d="M0 196c76.8 87 230.4 419.6 384 435 153.6 15.4 230.4-356.2 384-358 153.6-1.8 230.4 346.6 384 349 153.6 2.4 230.4-308 384-337s307.2 153.6 384 192v803H0z" fill="#184a7e" style="animation:float1 5s infinite"/><path d="M0 1237c128-84.8 384-426.8 640-424 256 2.8 384 414.4 640 438 256 23.6 512-256 640-320v349H0z" fill="#2264ab" style="animation:float2 4s infinite"/></g><defs><style>@keyframes float1{0%{transform:translate(0,0)}50%{transform:translate(-10px,0)}}@keyframes float2{0%{transform:translate(0,0)}50%{transform:translate(-5px,-5px)}}</style><mask id="SvgjsMask1008"><path fill="#fff" d="M0 0h1920v1280H0z"/></mask></defs></svg>