<svg xmlns="http://www.w3.org/2000/svg" width="452.287" height="452"><ellipse cx="7.76" cy="7.971" rx="7.76" ry="7.971" transform="translate(149.503 296.339)" fill="#fff" opacity=".691"/><path d="M153.32 127.161h-41.917l-2.326-2.327v-7.68l2.326-2.327h41.917l2.327 2.327v7.68z" fill="#454871"/><path d="M123.941 115.749h.9v-3.082h-.9zm-2.753 0h.9v-3.082h-.9zm8.259 0h.9v-3.082h-.9zm-2.753 0h.9v-3.082h-.9zm-8.259 0h.9v-3.082h-.9zm-5.507 0h.9v-3.082h-.9zm2.753 0h.9v-3.082h-.9zm16.52 0h.9v-3.082h-.9zm16.519 0h.9v-3.082h-.9zm-2.753 0h.9v-3.082h-.9zm5.506-3.086v3.086h.9v-3.082zm-16.519 3.086h.9v-3.082h-.9zm2.753 0h.9v-3.082h-.9zm2.753 0h.9v-3.082h-.9zm2.754 0h.9v-3.082h-.9zm-19.273 13.576h.9v-3.085h-.9zm-2.753 0h.9v-3.085h-.9zm8.259 0h.9v-3.085h-.9zm-2.753 0h.9v-3.085h-.9zm-8.259 0h.9v-3.085h-.9zm-5.507 0h.9v-3.085h-.9zm2.753 0h.9v-3.085h-.9zm16.52 0h.9v-3.085h-.9zm16.519 0h.9v-3.085h-.9zm-2.753 0h.9v-3.085h-.9zm5.506-3.085v3.085h.9v-3.085zm-16.519 3.085h.9v-3.085h-.9zm2.753 0h.9v-3.085h-.9zm2.753 0h.9v-3.085h-.9zm2.754 0h.9v-3.085h-.9zm161.88 3.552h-6.431l-1.771-1.771v-16.542l1.771-1.771h6.431l1.771 1.771v16.539z" fill="#e3e4e9"/><path d="M317.794 132.877h-6.43l-1.771-1.771v-16.542l1.771-1.771h6.43l1.771 1.771v16.539z" fill="#454871"/><path d="M330.503 132.877h-6.43l-1.771-1.771v-16.542l1.771-1.771h6.43l1.771 1.771v16.539z" fill="#e3e4e9"/><path d="M103.852 230.049H87.213l-1.309-1.309v-16.643l1.309-1.309h16.639l1.309 1.309v16.639z" fill="#b3b3b3"/><path d="M83.505 213.222h3.398v.794h-3.398zm0 3.399h3.398v.794h-3.398zm0 3.398h3.398v.794h-3.398zm0 3.399h3.398v.794h-3.398zm0 3.398h3.398v.794h-3.398zm20.656-13.594h3.398v.794h-3.398zm0 3.399h3.398v.794h-3.398zm0 3.398h3.398v.794h-3.398zm0 3.399h3.398v.794h-3.398zm0 3.398h3.398v.794h-3.398zm-1.434-18.427v3.398h-.794v-3.398zm-3.399 0v3.398h-.794v-3.398zm-3.398 0v3.398h-.794v-3.398zm-3.399 0v3.398h-.794v-3.398zm-3.399 0v3.398h-.794v-3.398zm13.595 20.656v3.398h-.794v-3.398zm-3.399 0v3.398h-.794v-3.398zm-3.399 0v3.398h-.794v-3.398zm-3.398 0v3.398h-.794v-3.398zm-3.399 0v3.398h-.794v-3.398z" fill="#e3e4e9"/><path d="M103.852 260.017H87.213l-1.309-1.308v-16.64l1.309-1.309h16.639l1.309 1.309v16.64z" fill="#454871"/><path d="M83.505 243.195h3.398v.794h-3.398zm0 3.398h3.398v.794h-3.398zm0 3.399h3.398v.794h-3.398zm0 3.399h3.398v.794h-3.398zm0 3.398h3.398v.794h-3.398zm20.656-13.594h3.398v.794h-3.398zm0 3.398h3.398v.794h-3.398zm0 3.399h3.398v.794h-3.398zm0 3.399h3.398v.794h-3.398zm0 3.398h3.398v.794h-3.398zm-1.434-18.427v3.398h-.794v-3.398zm-3.399 0v3.398h-.794v-3.398zm-3.399 0v3.398h-.794v-3.398zm-3.398 0v3.398h-.794v-3.398zm-3.399 0v3.398h-.794v-3.398zm13.595 20.656v3.398h-.794v-3.398zm-3.399 0v3.398h-.794v-3.398zm-3.398 0v3.398h-.794v-3.398zm-3.399 0v3.398h-.794v-3.398zm-3.399 0v3.398h-.794v-3.398z" fill="#e3e4e9"/><path d="M127.567 339.723h-9.854l-.775-.775v-9.853l.775-.775h9.854l.775.775v9.853z" fill="#b3b3b3"/><path d="M115.517 329.761h2.013v.47h-2.013zm0 2.013h2.013v.47h-2.013zm0 2.012h2.013v.47h-2.013zm0 2.013h2.013v.47h-2.013zm0 2.012h2.013v.47h-2.013zm12.233-8.05h2.013v.47h-2.013zm0 2.013h2.013v.47h-2.013zm0 2.012h2.013v.47h-2.013zm0 2.013h2.013v.47h-2.013zm0 2.012h2.013v.47h-2.013zm-.85-10.912v2.013h-.47v-2.013zm-2.013 0v2.013h-.47v-2.013zm-2.012 0v2.013h-.47v-2.013zm-2.013 0v2.013h-.47v-2.013zm-2.013 0v2.013h-.47v-2.013zm8.051 12.233v2.013h-.47v-2.013zm-2.013 0v2.013h-.47v-2.013zm-2.012 0v2.013h-.47v-2.013zm-2.013 0v2.013h-.47v-2.013zm-2.013 0v2.013h-.47v-2.013z" fill="#e3e4e9"/><path d="M61.85 69.855h-1.524a1.529 1.529 0 01-1.528-1.529v-1.524a1.583 1.583 0 00-1.228-1.573 1.541 1.541 0 00-1.847 1.506v1.591a1.529 1.529 0 01-1.528 1.529h-1.524a1.584 1.584 0 00-1.574 1.227 1.542 1.542 0 001.507 1.847h1.591a1.528 1.528 0 011.528 1.528v1.524a1.584 1.584 0 001.228 1.574 1.541 1.541 0 001.847-1.506v-1.592a1.528 1.528 0 011.528-1.528h1.591a1.542 1.542 0 001.507-1.847 1.585 1.585 0 00-1.574-1.227z" fill="#454871"/><path d="M449.339 219.912h-1.371a1.375 1.375 0 01-1.376-1.375v-1.372a1.425 1.425 0 00-1.1-1.416 1.387 1.387 0 00-1.663 1.356v1.432a1.374 1.374 0 01-1.375 1.375h-1.378a1.426 1.426 0 00-1.416 1.105 1.387 1.387 0 001.356 1.662h1.432a1.375 1.375 0 011.375 1.376v1.371a1.428 1.428 0 001.1 1.417 1.387 1.387 0 001.662-1.356v-1.432a1.376 1.376 0 011.376-1.376h1.432a1.387 1.387 0 001.356-1.662 1.426 1.426 0 00-1.41-1.105z" fill="#e3e4e9"/><path d="M65.979 381.886h-1.9a1.91 1.91 0 01-1.91-1.91v-1.902a1.98 1.98 0 00-1.536-1.97 1.926 1.926 0 00-2.308 1.883v1.987a1.911 1.911 0 01-1.911 1.91h-1.9a1.981 1.981 0 00-1.967 1.535 1.926 1.926 0 001.883 2.308h1.989a1.912 1.912 0 011.911 1.911v1.905a1.98 1.98 0 001.534 1.967 1.927 1.927 0 002.309-1.883v-1.989a1.911 1.911 0 011.91-1.911h1.98a1.926 1.926 0 001.883-2.308 1.981 1.981 0 00-1.967-1.533z" fill="none" stroke="#808490" stroke-miterlimit="10" stroke-width="1.393"/><path d="M399.045 388.541h-19.664a2.031 2.031 0 01-2.025-2.025 2.031 2.031 0 012.025-2.025h19.664a2.032 2.032 0 012.026 2.025 2.031 2.031 0 01-2.026 2.025zm9.354 0h-2.284a2.031 2.031 0 01-2.025-2.025 2.031 2.031 0 012.025-2.025h2.284a2.031 2.031 0 012.025 2.025 2.031 2.031 0 01-2.025 2.025zm11.528 0h-.407a2.031 2.031 0 01-2.026-2.025 2.032 2.032 0 012.026-2.025h.407a2.031 2.031 0 012.026 2.025 2.031 2.031 0 01-2.026 2.025z" fill="#b3b3b3"/><path d="M211.892 20.148h-19.664a2.031 2.031 0 01-2.026-2.025 2.031 2.031 0 012.026-2.025h19.664a2.031 2.031 0 012.025 2.025 2.031 2.031 0 01-2.025 2.025zm9.353 0h-2.283a2.031 2.031 0 01-2.025-2.025 2.031 2.031 0 012.025-2.025h2.283a2.031 2.031 0 012.026 2.025 2.031 2.031 0 01-2.026 2.025zm11.529 0h-.408a2.031 2.031 0 01-2.025-2.025 2.031 2.031 0 012.025-2.025h.408a2.031 2.031 0 012.025 2.025 2.031 2.031 0 01-2.025 2.025z" fill="#454871"/><path d="M371.781 233.504a2.168 2.168 0 11-2.168-2.168 2.168 2.168 0 012.168 2.168zm5.575-5.572a2.168 2.168 0 11-2.168-2.168 2.168 2.168 0 012.168 2.168zm5.574-5.577a2.168 2.168 0 11-2.168-2.168 2.168 2.168 0 012.168 2.168zm36.719 126.634a1.05 1.05 0 11-1.05-1.051 1.05 1.05 0 011.05 1.051zm-134.376 4.716a.946.946 0 11-.945-.945.946.946 0 01.945.945z" fill="#b3b3b3"/><path d="M220.68 432.605a1.05 1.05 0 11-1.051-1.05 1.052 1.052 0 011.051 1.05z" fill="#4d4d4d"/><path d="M191.529 444.054a.946.946 0 11-.946-.945.947.947 0 01.946.945z" fill="#b3b3b3"/><path d="M154.409 344.167a1.05 1.05 0 11-1.05-1.05 1.05 1.05 0 011.05 1.05z" fill="#4d4d4d"/><circle cx="1.26" cy="1.26" r="1.26" transform="translate(58.662 353.807)" fill="#b3b3b3"/><circle cx="1.168" cy="1.168" r="1.168" transform="translate(19.076 208.223)" fill="#b3b3b3"/><path d="M2.725 270.964a1.363 1.363 0 11-1.363-1.362 1.363 1.363 0 011.363 1.362z" fill="#e3e4e9"/><circle cx="1.168" cy="1.168" r="1.168" transform="translate(96.773 65.403)" fill="#b3b3b3"/><circle cx="1.168" cy="1.168" r="1.168" transform="translate(272.83)" fill="#b3b3b3"/><path d="M379.59 60.536a.973.973 0 11-.974-.973.974.974 0 01.974.973z" fill="#b3b3b3"/><circle cx="1.168" cy="1.168" r="1.168" transform="translate(250.677 86.425)" fill="#b3b3b3"/><path d="M446.939 107.027a1.363 1.363 0 11-1.363-1.362 1.363 1.363 0 011.363 1.362z" fill="#4d4d4d"/><path d="M373.75 190.55a.973.973 0 11-.973-.973.973.973 0 01.973.973zM452 272.129a1.363 1.363 0 11-1.363-1.362 1.363 1.363 0 011.363 1.362z" fill="#b3b3b3"/><path d="M357.947 287.668a1.363 1.363 0 11-1.363-1.362 1.363 1.363 0 011.363 1.362zM281.194 152.17a5.849 5.849 0 01-4.593 4.718 5.85 5.85 0 014.593 4.719 5.851 5.851 0 014.593-4.719 5.85 5.85 0 01-4.593-4.718z" fill="#e3e4e9"/><path d="M271.027 132.267a9.882 9.882 0 01-7.759 7.971 9.881 9.881 0 017.759 7.971 9.883 9.883 0 017.76-7.971 9.884 9.884 0 01-7.76-7.971z" fill="#fff"/><path d="M344.923 178.306v108.017a20.226 20.226 0 01-10.124 17.517l-93.534 54a20.2 20.2 0 01-20.233 0l-41.595-24.019-51.94-29.981a20.227 20.227 0 01-10.123-17.517V178.306a20.23 20.23 0 0110.123-17.518l93.535-54a20.2 20.2 0 0114.315-2.27 19.952 19.952 0 015.918 2.27l74.3 42.9 19.23 11.1a20.229 20.229 0 0110.128 17.518z" fill="#454871"/><path d="M315.569 149.69L179.437 333.821l-51.94-29.981a20.227 20.227 0 01-10.123-17.517v-22.239l117.973-159.567a19.952 19.952 0 015.918 2.27z" fill="#404365"/><path d="M332.475 285.954v-102.7a10.843 10.843 0 00-5.421-9.389l-88.937-51.344a10.844 10.844 0 00-10.841 0l-88.939 51.348a10.842 10.842 0 00-5.42 9.389v102.7a10.842 10.842 0 005.42 9.389l88.939 51.348a10.844 10.844 0 0010.841 0l88.937-51.348a10.843 10.843 0 005.421-9.393z" fill="#524f4f"/><path d="M330.928 180.965v102.7a11.144 11.144 0 01-1.328 5.2 10.546 10.546 0 01-4.088 4.184l-88.94 51.356a10.86 10.86 0 01-10.847 0l-50.506-29.16-38.434-22.2a10.857 10.857 0 01-5.416-9.385V180.965a10.86 10.86 0 015.416-9.385l59.07-34.116 29.87-17.239a10.855 10.855 0 0110.847 0l57.928 33.448 31.012 17.907a10.832 10.832 0 015.416 9.385z" fill="#131f55"/><path d="M294.5 153.673L175.219 315.245l-38.434-22.2a10.857 10.857 0 01-5.416-9.385v-58.831l64.486-87.365 29.87-17.239a10.855 10.855 0 0110.847 0z" fill="rgba(255,255,255,0.08)" opacity=".614"/></svg>