<svg xmlns="http://www.w3.org/2000/svg" width="452" height="452"><g transform="translate(-26.793 -19.586)"><path d="M438.551 252.42c0 104.4-84.636 189.04-189.04 189.04" fill="none" stroke="rgba(255,255,255,0.25)" stroke-miterlimit="10" stroke-width="2.367"/><path d="M223.258 65.189a190.558 190.558 0 0126.253-1.809c104.4 0 189.04 84.636 189.04 189.04" fill="none" stroke="rgba(255,255,255,0.25)" stroke-linecap="round" stroke-miterlimit="10" stroke-width="1.393" stroke-dasharray="0 4.178"/><path d="M60.472 252.42c0-95.495 70.808-174.452 162.786-187.231" fill="none" stroke="rgba(255,255,255,0.25)" stroke-miterlimit="10" stroke-width="2.367"/><path d="M249.511 441.46c-104.4 0-189.039-84.636-189.039-189.04" fill="none" stroke="rgba(255,255,255,0.25)" stroke-miterlimit="10" stroke-width=".696"/><circle cx="33.976" cy="33.976" r="33.976" transform="translate(287.93 393.043)" fill="#454871"/><circle cx="33.976" cy="33.976" r="33.976" transform="translate(143.353 393.043)" fill="#454871"/><circle cx="33.976" cy="33.976" r="33.976" transform="translate(40.958 290.972)" fill="#454871"/><circle cx="33.976" cy="33.976" r="33.976" transform="translate(40.792 146.239)" fill="#454871"/><circle cx="33.976" cy="33.976" r="33.976" transform="rotate(-45 230.796 -291.764)" fill="#454871"/><circle cx="33.976" cy="33.976" r="33.976" transform="rotate(-80.683 315.224 -122.612)" fill="#454871"/><circle cx="33.976" cy="33.976" r="33.976" transform="rotate(-76.912 412.25 -66.254)" fill="#454871"/><circle cx="33.976" cy="33.976" r="33.976" transform="rotate(-45 158.334 -116.917)" fill="#454871"/><path d="M164.027 87.067l5.693-12.92 14.807 6.479 5.19-11.756" fill="rgba(0,0,0,0)" stroke="#fff" stroke-miterlimit="10" stroke-width="1.967"/><path d="M183.555 68.862l7.55-2.954 2.723 6.961" fill="rgba(0,0,0,0)" stroke="#fff" stroke-miterlimit="10" stroke-width="1.967"/><path d="M187.211 79.3a3.142 3.142 0 11-4.071-1.781 3.142 3.142 0 014.071 1.781zm-14.472-6.336a3.141 3.141 0 11-4.07-1.781 3.141 3.141 0 014.07 1.781z" fill="#454871" stroke="#fff"/><circle cx="3.141" cy="3.141" r="3.141" transform="rotate(-15.524 391.349 -545.053)" fill="#454871" stroke="#fff"/><path d="M417.2 186.043v-19.455h11.064a6.8 6.8 0 016.8 6.8h0a6.8 6.8 0 01-6.8 6.8h3.339a6.3 6.3 0 016.3 6.3h0a6.3 6.3 0 01-6.3 6.3H417.2v-4.1" fill="rgba(0,0,0,0)" stroke="#fff" stroke-linejoin="round" stroke-width="2.785"/><path fill="none" stroke="#fff" stroke-linejoin="round" stroke-width="2.785" d="M422.044 166.415v-3.693m3.856 3.693v-3.693m-3.856 33.505v-3.693m3.856 3.693v-3.693"/><rect width="38.331" height="24.347" rx="5.519" transform="translate(303.727 65.52)" fill="rgba(0,0,0,0)" stroke="#fff" stroke-linejoin="round" stroke-width="2.785"/><path fill="none" stroke="#fff" stroke-linejoin="round" stroke-width="2.785" d="M308.039 72.335h34.346m-19.205 11.64h10.708"/><path d="M418.746 311.23h21.241v26.577a4.492 4.492 0 01-4.492 4.492h-21.641a4.492 4.492 0 01-4.492-4.492V311.23h5.784" fill="rgba(0,0,0,0)" stroke="#fff" stroke-linejoin="round" stroke-width="2.785"/><path fill="none" stroke="#fff" stroke-linejoin="round" stroke-width="2.785" d="M409.473 334.31h26.141"/><path d="M415.371 316.569v-6.075a9.14 9.14 0 019.113-9.113h0a9.14 9.14 0 019.113 9.113v6.075M87.054 166.533v-.663a2.6 2.6 0 00-2.6-2.6H63.6a3.042 3.042 0 00-3.043 3.043h0a3.043 3.043 0 003.043 3.043h27.487a5.037 5.037 0 015.037 5.036v16.421a5.037 5.037 0 01-5.037 5.036H63.123a9.841 9.841 0 01-9.842-9.841v-13.972a8.766 8.766 0 018.766-8.766h3.225" fill="rgba(0,0,0,0)" stroke="#fff" stroke-linejoin="round" stroke-width="2.785"/><path d="M95.453 178.477H84.728a4.4 4.4 0 00-4.4 4.4h0a4.4 4.4 0 004.4 4.4h10.725" fill="rgba(0,0,0,0)" stroke="#fff" stroke-linejoin="round" stroke-width="2.785"/><path d="M86.215 182.762a1.315 1.315 0 11-1.315-1.315 1.315 1.315 0 011.315 1.315z" fill="#454871" stroke="#fff"/><path d="M82.734 317.856v4.257a13.721 13.721 0 11-7.671-2.343h4.458" fill="rgba(0,0,0,0)" stroke="#fff" stroke-linejoin="round" stroke-width="2.785"/><path d="M67.759 321.329V310.35h-2.922l10.315-10.315 10.138 10.138h-2.556v5.578m86.455 111.495l6.058 6.058 22.4-22.4" fill="rgba(0,0,0,0)" stroke="#fff" stroke-linejoin="round" stroke-width="2.785"/><path d="M186.63 413.484h-9.565a14.869 14.869 0 1014.869 14.87v-11.831" fill="rgba(0,0,0,0)" stroke="#fff" stroke-linejoin="round" stroke-width="2.785"/><path d="M332.058 418.929h-27.53a2.108 2.108 0 00-1.817 3.178l8.4 14.289a4.909 4.909 0 004.232 2.421h10.76a4.911 4.911 0 004.541-3.043l8.759-21.725h6.153" fill="rgba(0,0,0,0)" stroke="#fff" stroke-miterlimit="10" stroke-width="2.785"/><path d="M330.72 442.142a1.843 1.843 0 101.843-1.843 1.843 1.843 0 00-1.843 1.843zm-23.343 0a1.842 1.842 0 101.843-1.843 1.843 1.843 0 00-1.843 1.843z" fill="#454871" stroke="#fff"/><circle cx="2.727" cy="2.727" r="2.727" transform="translate(88.227 352.684)" fill="#454871"/><path d="M292.283 437.1a3.155 3.155 0 11-3.155-3.155 3.155 3.155 0 013.155 3.155zm144.561-224.14a2.766 2.766 0 11-2.766-2.766 2.766 2.766 0 012.766 2.766z" fill="#454871"/><circle cx="2.325" cy="2.325" r="2.325" transform="translate(349.666 91.204)" fill="#454871"/><path d="M386.073 118.776a2.6 2.6 0 11-2.6-2.6 2.6 2.6 0 012.6 2.6zm11.564 13.019a2.68 2.68 0 11-2.681-2.68 2.681 2.681 0 012.681 2.68z" fill="#454871"/><circle cx="2.853" cy="2.853" r="2.853" transform="translate(115.295 113.369)" fill="#454871"/><path d="M68.577 212.515a4.025 4.025 0 11-4.024-4.025 4.025 4.025 0 014.024 4.025zm-4.296 16.55a2.487 2.487 0 11-2.487-2.487 2.487 2.487 0 012.487 2.487z" fill="#454871"/><circle cx="2.104" cy="2.104" r="2.104" transform="translate(248.555 61.259)" fill="#454871"/><path d="M239.153 63.691a1.644 1.644 0 11-1.644-1.643 1.644 1.644 0 011.644 1.643z" fill="#454871"/><circle cx="2.406" cy="2.406" r="2.406" transform="translate(405.647 352.562)" fill="#454871"/><circle cx="1.778" cy="1.778" r="1.778" transform="translate(398.638 364.644)" fill="#454871"/></g></svg>