<svg data-name="Layer 1" xmlns="http://www.w3.org/2000/svg" width="710.232" height="530"><path d="M696.58 362.018H166.364a13.667 13.667 0 01-13.652-13.652V21.424a10.013 10.013 0 0110.001-10.001h537.345a10.186 10.186 0 0110.174 10.174v326.77a13.667 13.667 0 01-13.652 13.651z" fill="#f2f2f2"/><path d="M677.238 342.685H183.091c-7.244 0-13.137-5.519-13.137-12.302V45.678c0-5.03 4.367-9.124 9.734-9.124h500.791c5.457 0 9.896 4.16 9.896 9.274v284.555c0 6.783-5.893 12.302-13.137 12.302z" fill="#fff"/><path d="M710.042 20.643H152.52v-6.95A13.713 13.713 0 01166.222 0h530.119a13.713 13.713 0 0113.701 13.693z" fill="#e6e6e6"/><circle cx="177.421" cy="10.342" r="3.544" fill="#fff"/><circle cx="190.873" cy="10.342" r="3.544" fill="#fff"/><circle cx="204.325" cy="10.342" r="3.544" fill="#fff"/><path d="M391.002 262.656H655.63a13.238 13.238 0 0013.238-13.238V129.822a13.238 13.238 0 00-13.238-13.238H391.002a13.238 13.238 0 00-13.238 13.238v119.596a13.238 13.238 0 0013.238 13.238z" fill="#f2f2f2"/><path d="M626.739 196.239H415.756a6.619 6.619 0 110-13.238h210.982a6.619 6.619 0 110 13.238zm0 28.131H415.756a6.62 6.62 0 110-13.239h210.982a6.62 6.62 0 110 13.239zm-37.233-56.262H415.758a6.619 6.619 0 110-13.238h173.75a6.619 6.619 0 010 13.238z" fill="#fff"/><path d="M261.049 316.206a10.056 10.056 0 0113.594-7.277l23.459-26.956 4.983 17.889-23.042 22.855a10.11 10.11 0 01-18.994-6.51z" fill="#ffb8b8"/><circle cx="389.803" cy="165.148" r="24.561" fill="#ffb8b8"/><path fill="#ffb8b8" d="M360.949 503.221l-12.26-.001-5.832-47.288 18.094.001-.002 47.288z"/><path d="M364.076 515.105l-39.531-.002v-.5a15.386 15.386 0 0115.386-15.386h.001l24.144.001z" fill="#2f2e41"/><path fill="#ffb8b8" d="M397.949 516.221l-12.26-.001-1.697-46.158 13.959-1.129-.002 47.288z"/><path d="M401.076 528.105l-39.531-.002v-.5a15.386 15.386 0 0115.386-15.386h.001l24.144.001zm-6.614-20.514l-9.547-1.124a4.512 4.512 0 01-3.974-4.404l-1.79-124.339a1.5 1.5 0 00-2.913-.479l-13.245 37.4.947 70.101a4.498 4.498 0 01-4.229 4.553l-12.464.53a4.527 4.527 0 01-4.744-3.925l-6.51-79.301-.004-.05 9.877-82.82 74.183 5.368-20.592 174.549a4.507 4.507 0 01-4.467 3.972 4.4 4.4 0 01-.528-.03z" fill="#2f2e41"/><path d="M346.183 331.075a4.473 4.473 0 01-2.355-3.618s6.671-41.484 9.116-42.262l-5.35-44.364a40.91 40.91 0 018.781-30.49 39.013 39.013 0 0127.032-14.482q1.122-.101 2.23-.155a39.369 39.369 0 0133.135 15.082 40.12 40.12 0 017.22 36.407l-3 10.44v72.955a4.555 4.555 0 01-1.862 3.653c-9.342 6.856-19.897 9.28-30.156 9.28-19.41 0-37.757-8.68-44.791-12.446z" fill="#adadad"/><path d="M288.594 317.725l-12.903-9.648a4.5 4.5 0 01-.597-6.673l76.863-82.474a15.053 15.053 0 0119.522-2.075 14.978 14.978 0 011.925 22.976l-78.964 77.502a4.472 4.472 0 01-5.362.708 4.621 4.621 0 01-.484-.316z" fill="#adadad"/><path d="M387.342 306.805a10.056 10.056 0 0114.715-4.607l28.087-22.094 1.55 18.505-26.91 18.144a10.11 10.11 0 01-17.442-9.948z" fill="#ffb8b8"/><path d="M412.481 315.43a4.464 4.464 0 01-3.023-3.249l-2.837-11.916a4.437 4.437 0 011.65-4.612l19.09-20.645-28.08-43.296a15.248 15.248 0 01-.461-18.626 15.242 15.242 0 0126.294 2.994l26.104 50.81a23.118 23.118 0 01-7.72 29.796l-26.677 17.82a4.461 4.461 0 01-2.97 1.137 4.55 4.55 0 01-1.37-.213z" fill="#adadad"/><path d="M408.002 187.106a4.398 4.398 0 01-6.493-2.565l-.016-.062c-.5-2.043-.105-4.182.024-6.282s-.089-4.405-1.527-5.94c-2.68-2.864-7.413-1.313-11.271-2.02a9.51 9.51 0 01-7.453-10.117c.053-.436.137-.874.23-1.31a7.325 7.325 0 00-7.65-8.83c-3.893.243-8.091 1.445-11.329-1.422a8.35 8.35 0 01-2.053-8.992c1.812-5.32 6.997-8.129 12.135-9.684a44.588 44.588 0 0137.826 5.999c3.263 2.273 6.314 5.136 7.719 8.856s.762 8.427-2.349 10.904a20.123 20.123 0 014.766 19.52c-1.517 4.98-8.855 9.787-12.56 11.945z" fill="#2f2e41"/><path d="M434.898 530h-147a1 1 0 010-2h147c.552 0 .448 1 1 1 .248 0-.448 1-1 1z" fill="#ccc"/><path d="M273.311 117.834a12.132 12.132 0 00-11.392-8.01H12.104A12.1 12.1 0 000 121.919v191.714a12.121 12.121 0 0012.104 12.104h249.815a12.121 12.121 0 0012.104-12.104V121.928a12.012 12.012 0 00-.712-4.094z" fill="#fff"/><path d="M273.311 117.834a12.132 12.132 0 00-11.392-8.01H12.104A12.1 12.1 0 000 121.919v191.714a12.121 12.121 0 0012.104 12.104h249.815a12.121 12.121 0 0012.104-12.104V121.928a12.012 12.012 0 00-.712-4.094zm-.712 195.799a10.693 10.693 0 01-10.68 10.68H12.104a10.693 10.693 0 01-10.68-10.68V121.928a10.693 10.693 0 0110.68-10.68h249.815a10.693 10.693 0 0110.68 10.68z" fill="#3f3d56"/><path d="M254.756 135.62v133.86a3.369 3.369 0 01-3.367 3.37H24.148a2.838 2.838 0 01-.483-.037 3.367 3.367 0 01-2.887-3.333V135.62a3.369 3.369 0 013.368-3.37h227.24a3.369 3.369 0 013.37 3.367v.003z" fill="#e6e6e6"/><circle cx="78.059" cy="182.274" r="29.567" fill="#adadad"/><path d="M170.776 273.388H25.731a2.953 2.953 0 01-.542-.043l68.6-118.825a4.803 4.803 0 018.36 0l46.04 79.74 2.205 3.816z" fill="#3f3d56"/><path opacity=".2" style="isolation:isolate" d="M170.776 273.388h-49.522l24.31-35.312 1.75-2.543.875-1.272 2.205 3.815 20.382 35.312z"/><path d="M251.536 273.388H126.084l24.31-35.312 1.75-2.543 31.678-46.018c2.077-3.016 7.073-3.204 9.515-.569a5.719 5.719 0 01.456.57z" fill="#3f3d56"/></svg>