<svg data-name="Layer 1" xmlns="http://www.w3.org/2000/svg" width="847.997" height="727.305"><path d="M651.569 506.704a7.006 7.006 0 01-6.98-6.548l-1.04-15.873a7.006 7.006 0 016.533-7.449l124.363-8.144a14.96 14.96 0 111.955 29.855l-124.363 8.144q-.235.015-.468.015z" fill="#adadad"/><path d="M676.091 508.751a7.015 7.015 0 01-6.998-6.745l-.886-23.709a7.005 7.005 0 016.74-7.262l102.267-3.822a7.006 7.006 0 017.262 6.74l.887 23.708a7.005 7.005 0 01-6.74 7.262l-102.267 3.823a6.38 6.38 0 01-.265.005zm119.841 218.555h-15.908a7.014 7.014 0 01-7.005-7.006V587.717a7.014 7.014 0 017.005-7.006h15.908a7.014 7.014 0 017.006 7.006V720.3a7.014 7.014 0 01-7.006 7.006zm-38 0h-15.908a7.014 7.014 0 01-7.005-7.006V587.717a7.014 7.014 0 017.005-7.006h15.908a7.014 7.014 0 017.006 7.006V720.3a7.014 7.014 0 01-7.006 7.006z" fill="#2f2e41"/><circle cx="771.771" cy="387.379" r="54.967" fill="#adadad"/><path d="M742.018 406.147a13.036 13.036 0 01-4.76-2.795 8.766 8.766 0 01-2.563-6.94 5.897 5.897 0 012.622-4.538c1.965-1.261 4.594-1.265 7.271-.085l-.101-21.459 2.155-.01.12 25.227-1.661-1.045c-1.926-1.21-4.677-2.06-6.62-.814a3.787 3.787 0 00-1.64 2.93 6.624 6.624 0 001.905 5.175c2.38 2.274 5.853 2.985 9.813 3.62l-.341 2.128a35.528 35.528 0 01-6.2-1.394zm-20.033-34.762l.282-2.137 11.51 1.52-.282 2.137zm36.329 4.794l.282-2.137 11.51 1.52-.282 2.137zm49.3 247.11h-82.635a9.177 9.177 0 01-8.894-6.962 8.998 8.998 0 01-.12-3.32s16.14-90.643 24.125-134.176a27.575 27.575 0 0127.128-22.6 59.612 59.612 0 0159.612 59.613v88.229a19.216 19.216 0 01-19.216 19.216z" fill="#2f2e41"/><path d="M791.679 611.313a7.017 7.017 0 01-6.565 3.874l-15.894-.67a7.005 7.005 0 01-6.704-7.294l5.245-124.519a14.96 14.96 0 1129.892 1.26l-5.245 124.519a6.967 6.967 0 01-.729 2.83z" fill="#adadad"/><path d="M799.814 578.296a7.016 7.016 0 01-6.565 3.875l-27.147-1.143a7.014 7.014 0 01-6.704-7.295l4.307-102.248a7.005 7.005 0 017.294-6.704l27.147 1.143a7.005 7.005 0 016.704 7.294l-4.307 102.249a6.975 6.975 0 01-.729 2.83zm-31.098-226.621c-11.856 4.676-29.771 9.646-37.588-4.236a22.686 22.686 0 01-1.287-18.638c2.361-6.549 7.383-11.944 13.106-15.757 10.721-7.141 24.285-9.086 36.77-6.325a50.165 50.165 0 0117.548 7.54c6.04 4.14 10.292 9.73 14.566 15.579 4.37 5.98 9.317 12.01 16.498 14.63 5.872 2.142 13.234 1.049 17.387-3.935a12.177 12.177 0 002.194-3.936c.624-1.831-2.273-2.618-2.893-.797-2.182 6.414-10.217 7.852-15.89 5.775-7.49-2.74-12.22-9.862-16.711-16.01-4.294-5.877-9.041-11.051-15.243-14.95a52.93 52.93 0 00-18.205-7.107c-12.999-2.473-26.998-.281-38.013 7.27a36.719 36.719 0 00-13.669 16.337 25.894 25.894 0 00.179 19.643 20.849 20.849 0 0015.097 12.304c7.264 1.472 14.81-.222 21.705-2.556a113.67 113.67 0 005.247-1.938c1.775-.7 1.002-3.603-.798-2.893z" fill="#2f2e41"/><path d="M48.125 0h376.319a48.18 48.18 0 0148.125 48.125v205.876a48.18 48.18 0 01-48.125 48.125H48.125A48.18 48.18 0 010 254.001V48.125A48.18 48.18 0 0148.125 0z" fill="#f2f2f2"/><path d="M48.125 13.854h376.319a34.31 34.31 0 0134.27 34.271v205.876a34.31 34.31 0 01-34.27 34.271H48.124a34.31 34.31 0 01-34.27-34.27V48.124a34.31 34.31 0 0134.27-34.27z" fill="#fff"/><path d="M51.797 375.837a8.63 8.63 0 01-3.307-.67 8.368 8.368 0 01-5.247-7.852v-71.17l94.883-3.192-80.373 80.373a8.383 8.383 0 01-5.956 2.51z" fill="#f2f2f2"/><rect x="73.826" y="65.063" width="324" height="41.028" rx="20.514" fill="#f2f2f2"/><rect x="74.284" y="130.549" width="324" height="41.028" rx="20.514" fill="#f2f2f2"/><rect x="74.743" y="196.035" width="324" height="41.028" rx="20.514" fill="#f2f2f2"/><path d="M642.361 105H266.042a48.18 48.18 0 00-48.125 48.125v205.876a48.18 48.18 0 0048.125 48.125h376.319a48.18 48.18 0 0048.125-48.125V153.125A48.18 48.18 0 00642.361 105z" fill="#e6e6e6"/><path d="M642.361 118.854H266.042a34.31 34.31 0 00-34.27 34.271v205.876a34.31 34.31 0 0034.27 34.271h376.32a34.31 34.31 0 0034.27-34.27V153.124a34.31 34.31 0 00-34.27-34.27z" fill="#fff"/><path d="M613.733 478.326l-80.374-80.373 94.883 3.192v71.17a8.368 8.368 0 01-5.247 7.853 8.63 8.63 0 01-3.307.669 8.383 8.383 0 01-5.956-2.511z" fill="#e6e6e6"/><circle cx="371.201" cy="256.063" r="26" fill="#adadad"/><circle cx="454.201" cy="256.063" r="26" fill="#adadad"/><circle cx="537.201" cy="256.063" r="26" fill="#adadad"/></svg>