<svg data-name="Layer 1" xmlns="http://www.w3.org/2000/svg" width="532.485" height="389.352"><path d="M323.87 184.247a6.514 6.514 0 01-6.49-6.087l-.966-14.759a6.514 6.514 0 016.074-6.925l115.626-7.573a13.909 13.909 0 011.818 27.758l-115.626 7.572q-.219.014-.436.014z" fill="#fff"/><path d="M346.67 186.15a6.522 6.522 0 01-6.506-6.27l-.824-22.044a6.513 6.513 0 016.266-6.752l95.083-3.554a6.514 6.514 0 016.752 6.266l.824 22.044a6.513 6.513 0 01-6.266 6.752l-95.083 3.553a5.935 5.935 0 01-.246.005zm111.423 203.202h-14.791a6.52 6.52 0 01-6.514-6.514V259.569a6.52 6.52 0 016.514-6.513h14.79a6.52 6.52 0 016.514 6.513v123.27a6.52 6.52 0 01-6.514 6.513zm-37.136 0h-14.79a6.52 6.52 0 01-6.514-6.514V259.569a6.52 6.52 0 016.514-6.513h14.79a6.52 6.52 0 016.514 6.513v123.27a6.52 6.52 0 01-6.514 6.513z" fill="#2f2e41"/><circle cx="435.628" cy="73.304" r="51.106" fill="#fff"/><path d="M407.965 90.754a12.12 12.12 0 01-4.426-2.598 8.15 8.15 0 01-2.382-6.453 5.483 5.483 0 012.438-4.22c1.827-1.172 4.271-1.175 6.76-.078l-.094-19.951 2.004-.01.11 23.455-1.543-.972c-1.791-1.124-4.348-1.916-6.155-.756a3.521 3.521 0 00-1.525 2.724 6.159 6.159 0 001.772 4.811c2.213 2.114 5.441 2.775 9.123 3.366l-.318 1.978a33.031 33.031 0 01-5.764-1.296zm-18.627-32.32l.262-1.987 10.701 1.414-.262 1.986zm33.776 4.458l.262-1.987 10.701 1.414-.262 1.986zm-30.991 229.75a8.527 8.527 0 01-8.517-8.517s13.58-73.678 21.34-116.86a36.373 36.373 0 0135.798-29.944 46.075 46.075 0 0146.076 46.075v14.55a94.696 94.696 0 01-94.696 94.696z" fill="#2f2e41"/><path d="M456.602 285.266a6.524 6.524 0 01-5.98 3.806l-14.79-.129a6.513 6.513 0 01-6.457-6.57l1.005-115.87a13.908 13.908 0 1127.815.242l-1.004 115.87a6.477 6.477 0 01-.59 2.652z" fill="#fff"/><path d="M463.135 254.334a6.524 6.524 0 01-5.98 3.805l-25.261-.219a6.52 6.52 0 01-6.457-6.57l.825-95.146a6.513 6.513 0 016.57-6.456l25.261.219a6.513 6.513 0 016.457 6.57l-.825 95.145a6.485 6.485 0 01-.59 2.652zM420.877 43.19c-7.964 1.352-16.856 2.897-24.444-.796-5.974-2.907-10.08-8.712-8.626-15.534 2.896-13.575 18.438-19.577 30.928-18.366a33.178 33.178 0 0119.63 8.85 1.817 1.817 0 003.068-1.27c-.054-5.01 3.694-9.19 8.135-11.077 5.56-2.362 12.02-1.518 17.735-.254a78.747 78.747 0 0160.833 65.858 77.868 77.868 0 01-2.5 33.35c-3.032 9.96-8.63 19.97-17.849 25.389-8.306 4.883-20.384 6.14-28.05-.71-6.14-5.487-8.907-15.746-3.87-22.844a14.063 14.063 0 0113.232-5.721 12.592 12.592 0 0110.157 9.034 12.349 12.349 0 01-4.287 12.175 11.99 11.99 0 01-17.088-3.262c-1.22-1.958-4.33-.156-3.103 1.814a15.92 15.92 0 0013.088 7.342 14.716 14.716 0 0012.955-7.255 15.36 15.36 0 00.454-15.361 16.454 16.454 0 00-13.716-8.213 17.884 17.884 0 00-14.795 7.633 19.003 19.003 0 00-2.768 13.934 23.056 23.056 0 006.775 12.875 23.812 23.812 0 0015.102 6.142c12.185.695 23.063-6.325 29.783-16.082 6.974-10.125 10.092-22.83 10.72-34.977a82.435 82.435 0 00-27.724-66.018 83.769 83.769 0 00-30.41-16.99c-11.101-3.4-26.6-5.88-34.098 5.463a13.812 13.812 0 00-2.305 7.755l3.067-1.27C430.06 4.439 413.009 1.82 399.465 8.191c-6.803 3.2-12.7 9.15-14.815 16.487-2.194 7.613.978 15.085 7.485 19.402 8.855 5.876 19.837 4.25 29.698 2.575 2.275-.386 1.31-3.85-.956-3.465z" fill="#2f2e41"/><path d="M308.5 264.084h-291a17.52 17.52 0 01-17.5-17.5v-174a17.52 17.52 0 0117.5-17.5h291a17.52 17.52 0 0117.5 17.5v174a17.52 17.52 0 01-17.5 17.5zm-291-206A14.517 14.517 0 003 72.584v174a14.517 14.517 0 0014.5 14.5h291a14.517 14.517 0 0014.5-14.5v-174a14.517 14.517 0 00-14.5-14.5z" fill="#3f3d56"/><path d="M56.5 96.084a12.5 12.5 0 1112.5-12.5 12.514 12.514 0 01-12.5 12.5zm0-22a9.5 9.5 0 109.5 9.5 9.51 9.51 0 00-9.5-9.5zm211 22a12.5 12.5 0 1112.5-12.5 12.514 12.514 0 01-12.5 12.5zm0-22a9.5 9.5 0 109.5 9.5 9.51 9.51 0 00-9.5-9.5z" fill="#3f3d56"/><path d="M86 172.084H32a8.51 8.51 0 01-8.5-8.5v-32a8.51 8.51 0 018.5-8.5h54a8.51 8.51 0 018.5 8.5v32a8.51 8.51 0 01-8.5 8.5zm104 0h-54a8.51 8.51 0 01-8.5-8.5v-32a8.51 8.51 0 018.5-8.5h54a8.51 8.51 0 018.5 8.5v32a8.51 8.51 0 01-8.5 8.5zm50-48a7.508 7.508 0 00-7.5 7.5v32a7.508 7.508 0 007.5 7.5h54a7.508 7.508 0 007.5-7.5v-32a7.508 7.508 0 00-7.5-7.5zm-153.5 112h-54a8.51 8.51 0 01-8.5-8.5v-32a8.51 8.51 0 018.5-8.5h54a8.51 8.51 0 018.5 8.5v32a8.51 8.51 0 01-8.5 8.5zm104 0h-54a8.51 8.51 0 01-8.5-8.5v-32a8.51 8.51 0 018.5-8.5h54a8.51 8.51 0 018.5 8.5v32a8.51 8.51 0 01-8.5 8.5zm104 0h-54a8.51 8.51 0 01-8.5-8.5v-32a8.51 8.51 0 018.5-8.5h54a8.51 8.51 0 018.5 8.5v32a8.51 8.51 0 01-8.5 8.5z" fill="#e6e6e6"/><path d="M56.5 87.084a3.504 3.504 0 01-3.5-3.5v-50a3.5 3.5 0 017 0v50a3.504 3.504 0 01-3.5 3.5zm211 0a3.504 3.504 0 01-3.5-3.5v-50a3.5 3.5 0 017 0v50a3.504 3.504 0 01-3.5 3.5z" fill="#3f3d56"/><path data-name="Path 395" d="M56.959 160.555a6.788 6.788 0 01-4.083-1.357l-.073-.055-15.381-11.766a6.835 6.835 0 018.317-10.849l9.962 7.64 23.542-30.712a6.832 6.832 0 019.579-1.265l.002.002-.146.203.15-.203a6.84 6.84 0 011.264 9.58l-27.69 36.11a6.836 6.836 0 01-5.437 2.665zm107 63a6.788 6.788 0 01-4.083-1.357l-.073-.055-15.381-11.766a6.835 6.835 0 018.317-10.849l9.962 7.64 23.542-30.712a6.832 6.832 0 019.579-1.265l.002.002-.146.203.15-.203a6.84 6.84 0 011.264 9.58l-27.69 36.11a6.836 6.836 0 01-5.437 2.665zm101-63a6.788 6.788 0 01-4.083-1.357l-.073-.055-15.381-11.766a6.835 6.835 0 018.317-10.849l9.962 7.64 23.542-30.712a6.832 6.832 0 019.579-1.265l.002.002-.146.203.15-.203a6.84 6.84 0 011.264 9.58l-27.69 36.11a6.836 6.836 0 01-5.437 2.665z" fill="#fff"/></svg>