<svg data-name="Layer 1" xmlns="http://www.w3.org/2000/svg" width="747.674" height="649.406"><path d="M747.674 315.5c0 144.48-127.12 266.27-300.58 303.66a527.706 527.706 0 01-85.57 11.18c-1.4.07-2.8.14-4.21.19q-11.235.465-22.64.47-19.83 0-39.19-1.41-10.74-.765-21.3-1.95c-68.47-7.68-131.48-28.19-184.7-58.24q-9.975-5.625-19.48-11.7a388.09 388.09 0 01-33.56-23.96c-71.09-56.66-11.82-177.6 25.23-253.74 100-205.5 44.91-280 273-280s413 141.25 413 315.5z" fill="#f2f2f2"/><path d="M584.212 130.068c-70.892-1.272-70.88-106.625.003-107.886 70.89 1.271 70.879 106.625-.003 107.886zm-134.067 157c-70.892-1.272-70.881-106.625.002-107.886 70.89 1.271 70.88 106.625-.002 107.886zm139.848 159.425c-70.893-1.272-70.881-106.625.002-107.886 70.89 1.271 70.879 106.625-.002 107.885z" fill="#fff"/><path d="M584.212 130.068c-70.892-1.272-70.88-106.625.003-107.886 70.89 1.271 70.879 106.625-.003 107.886zm0-104.617c-66.595 1.195-66.585 100.163.003 101.347 66.593-1.194 66.583-100.162-.003-101.347z" fill="#e6e6e6"/><path d="M273.934 626.89a8.36 8.36 0 01-.33-1.56l-20.59-117.4a8.51 8.51 0 00-.14-.9 10.607 10.607 0 00-8.87-8.38l-117.41.51a10.528 10.528 0 00-11.04 5.83q-2.865 5.97-5.61 12.11-11.115 24.735-20.46 52.3c53.22 30.05 116.23 50.56 184.7 58.24z" fill="#2f2e41"/><path d="M388.547 312.729a24.763 24.763 0 00-.564 3.858l-101.055 58.298-24.563-14.14-26.185 34.28 41.05 29.26a18.82 18.82 0 0022.58-.551l104.205-82.208a24.694 24.694 0 10-15.469-28.797z" fill="#ffb8b8"/><path d="M285.544 369.06a10.607 10.607 0 00-5.21-7.12l-46.37-25.93a29.4 29.4 0 00-36.05 46.45l36.97 38.39a10.59 10.59 0 0016.01-.87l7.2-9.34 2.46-3.18 23-29.81a10.369 10.369 0 001.81-3.66 10.521 10.521 0 00.18-4.93z" fill="#00bfa6"/><circle cx="403.712" cy="374.436" r="57.778" transform="rotate(-45 139.384 584.79)" fill="#ffb8b8"/><path d="M250.604 467.83c2.32-3.47 17.07-26.89 11.49-54.34a60.664 60.664 0 00-1.54-6.03 67.359 67.359 0 00-12.37-22.61c.07-1.84.05-3.65-.06-5.45v-.01a51.987 51.987 0 00-48-48.46l-64.62-4.91a51.502 51.502 0 00-44.08 18.76 55.248 55.248 0 00-3.41 4.6.01.01 0 00-.01.01 51.417 51.417 0 00-6.66 42.23l.55 2.42 6.89 30.21 11.52 50.55 9.64 42.3 1.02 4.46a10.61 10.61 0 0010.32 8.23 10.063 10.063 0 001.72-.14l125.04-20.5a10.461 10.461 0 004.83-2.12 10.902 10.902 0 002.19-2.35 10.466 10.466 0 001.62-8.17z" fill="#00bfa6"/><path d="M4.521 638.451a25.272 25.272 0 0110.046-37.426L85.76 382.137l41.258 19.577-77.897 213.128a25.409 25.409 0 01-44.6 23.609z" fill="#ffb8b8"/><path d="M126.534 330.43a31.509 31.509 0 00-38.52 18.95.01.01 0 00-.01.01c-.26.67-.5 1.37-.71 2.07l-6.03 12.79-18.22 38.65a11.32 11.32 0 006.97 15.68l3.55 1.07 15.22 4.6 27.01 8.16 9 2.72a11.333 11.333 0 0014.49-9.2l8.32-56.44a31.46 31.46 0 00-21.07-39.06z" fill="#00bfa6"/><path d="M230.604 228.128c-20.589 18.01-52.195 22.192-76.758 10.156 11.034 13.09 31.99 77.707 31.99 77.707s-59.17-6.218-67.53-8.006c-49.375-10.558-31.428-138.432 21.184-137.786 8.912.11 16.702 1.187 22.633 7.838 3.936-11.035 16.454-17.535 28.14-16.693s22.253 7.86 29.77 16.846a64.473 64.473 0 0113.636 52.844z" fill="#2f2e41"/><path d="M450.145 287.068c-70.892-1.272-70.88-106.625.002-107.886 70.89 1.271 70.879 106.625-.002 107.886zm0-104.617c-66.596 1.195-66.585 100.163.002 101.347 66.594-1.194 66.583-100.162-.002-101.347zm139.848 264.042c-70.893-1.272-70.881-106.625.002-107.886 70.89 1.271 70.879 106.625-.002 107.885zm0-104.617c-66.596 1.194-66.585 100.162.002 101.347 66.593-1.194 66.583-100.162-.002-101.347z" fill="#e6e6e6"/><path d="M595.734 48.473c-13.299.382-39.16-4.372-39.173 16.132.381 13.298-4.372 39.159 16.131 39.172 13.298-.381 39.16 4.372 39.172-16.131-.38-13.298 4.373-39.16-16.13-39.173z" fill="#3f3d56"/><path d="M599.191 64.603c-4.475.057-4.46-6.974.015-6.898 4.475-.055 4.46 6.974-.015 6.899zm-14.978 2.304c11.96-.176 11.96 18.613-.001 18.436-11.96.174-11.96-18.611 0-18.436zm0-4.608c-17.938-.262-17.94 27.917 0 27.652 17.94.262 17.938-27.916 0-27.652z" fill="#fff"/><path d="M492.612 401.645a1.631 1.631 0 01-1.231-2.753l5.442-5.75a.938.938 0 00-.037-1.325l-5.782-5.471a1.676 1.676 0 01-.065-2.37 1.68 1.68 0 012.362-.072l7.778 7.268a1.585 1.585 0 01.062 2.255l-7.395 7.717a1.628 1.628 0 01-1.134.5zm-5.943-8.369a.996.996 0 01-.65.263l-18.134.5a1 1 0 11-.055-1.999l18.134-.5a1 1 0 01.705 1.736zM352.612 242.22a1.631 1.631 0 01-1.231-2.753l5.442-5.75a.938.938 0 00-.037-1.324l-5.782-5.472a1.676 1.676 0 01-.065-2.37 1.68 1.68 0 012.362-.072l7.778 7.268a1.585 1.585 0 01.062 2.255l-7.395 7.717a1.628 1.628 0 01-1.134.501zm-5.943-8.369a.996.996 0 01-.65.264l-18.134.5a1 1 0 11-.055-2l18.134-.5a1 1 0 01.705 1.736zM486.612 85.22a1.631 1.631 0 01-1.231-2.753l5.442-5.75a.938.938 0 00-.037-1.324l-5.782-5.472a1.676 1.676 0 01-.065-2.37 1.68 1.68 0 012.362-.072l7.778 7.268a1.585 1.585 0 01.062 2.255l-7.395 7.717a1.628 1.628 0 01-1.134.501zm-5.943-8.369a.996.996 0 01-.65.264l-18.134.5a1 1 0 11-.055-2l18.134-.5a1 1 0 01.705 1.736z" fill="#ccc"/><path d="M468.044 594.88c-4.69 9.74-12.33 17.62-20.95 24.28a527.706 527.706 0 01-85.57 11.18c-1.4.07-2.8.14-4.21.19q-11.235.465-22.64.47-19.83 0-39.19-1.41a31.788 31.788 0 01-.2-8.98c1.43-11.69 10.3-22.43 21.81-24.91 11.51-2.48 24.63 4.39 28.12 15.63 1.93-21.68 4.14-44.26 15.67-62.72 10.43-16.71 28.5-28.67 48.09-30.81a60.541 60.541 0 0133.47 6.13q1.425.72 2.82 1.5a55.847 55.847 0 0116.13 13.77c12.22 15.46 15.21 37.94 6.65 55.68z" fill="#fff"/><path d="M445.264 525.43a1.522 1.522 0 01-.62 1.37 316.876 316.876 0 00-83.12 103.54c-1.4.07-2.8.14-4.21.19q2.67-5.415 5.54-10.72a322.173 322.173 0 0134.91-51.67 318.079 318.079 0 0144.26-43.95 1.917 1.917 0 01.42-.26 2.05 2.05 0 012.82 1.5z" fill="#f2f2f2"/><path d="M619.281 378.94s-4.58 5.13-5.46 5.46c-2.42 26.33-18.86 32.31-32.06 32.31-9.49 0-17.31-3.09-17.05-3.94 14.08.33 15.28-5.45 15.28-5.45-8.18-1.21-9.82-6.55-9.82-6.55a3.37 3.37 0 004.36-1.09c-8.83-2.3-7.63-10.92-7.63-10.92a11.368 11.368 0 005.34 2.08c-.98-1.2-9.24-11.1-4.27-16.23.29.78 8.89 12.49 23.26 11.64a11.552 11.552 0 0111.24-13.86c7.64 0 9.28 4.37 9.28 4.37l5.46-3.28c-.11 0-.66 5.46-3.39 6.55z" fill="#3f3d56"/><path d="M479.867 233.3a29.975 29.975 0 01-25.28 29.61v-20.94h6.98l1.33-8.67h-8.31c-.28-7.22-.56-11.27 8.66-10.3v-7.37c-13.81-3.04-19.57 3.96-18.02 17.67h-7.61v8.67h7.61v20.93c-35.82-5.51-31.61-59.7 4.67-59.56a29.964 29.964 0 0129.97 29.96z" fill="#3f3d56" fill-rule="evenodd"/></svg>