<svg id="Capa_1" enable-background="new 0 0 512 512" height="512" viewBox="0 0 512 512" width="512" xmlns="http://www.w3.org/2000/svg"><g><g><g><g><g><g id="XMLID_00000164504899680086221700000001500929424774730913_"><circle cx="256" cy="256" fill="#00337a" r="256"/></g></g></g></g></g><path d="m509.622 290.9-119.156-119.157-3.343 24.292-104.103-104.103-6.525 28.131-52.551-52.551c-133.491 82.075-96.458 312.316-96.458 312.316l134.467 132.097c126.859-2.896 230.906-98.072 247.669-221.025z" fill="#002659"/><g><g><path d="m177.183 178.58c0-43.529 17.913-82.867 46.761-111.068-85.081 17.198-149.139 92.383-149.139 182.535 0 102.855 83.38 186.235 186.235 186.235 7.438 0 14.771-.445 21.98-1.293l48.591-59.69-48.591-49.45c-61.518-20.663-105.837-78.789-105.837-147.269z" fill="#ffef4a"/><path d="m443.575 287.143c-28.201 28.848-67.54 46.761-111.068 46.761-17.303 0-33.943-2.833-49.487-8.054v109.139c80.18-9.429 144.776-69.785 160.555-147.846z" fill="#ffd321"/><path d="m228.837 146.114 35.823 18.36 18.36 35.823 18.509-54.183-18.509-54.182-18.36 35.823z" fill="#ffef4a"/><path d="m301.38 164.474 35.823-18.36-35.823-18.359-18.36-35.823v108.365z" fill="#ffd321"/></g><path d="m390.466 171.743 16.468 32.133 32.133 16.469-32.133 16.469-16.468 32.133-16.469-32.133-32.133-16.469 32.133-16.469z" fill="#ffd321"/></g></g></svg>