<svg id="Layer_1" data-name="Layer 1" xmlns="http://www.w3.org/2000/svg" viewBox="0 0 231.44 512.19"><defs><style>.cls-1{fill:#da4648;fill-rule:evenodd;}</style></defs><title>gulp-js</title><g id="Page-1"><g id="gulp"><g id="Gulp-Logo"><path id="Cup" class="cls-1" d="M114.65,404.17A280.58,280.58,0,0,1,50.3,397a122.54,122.54,0,0,1-18.4-5.69l14.88,25.41,5.81,79.39c0,8.9,28.28,16.11,63.15,16.11s63.15-7.21,63.15-16.11l4.6-80.25,14.08-24.62A122.79,122.79,0,0,1,179,397,280.58,280.58,0,0,1,114.65,404.17Zm83.4-258.33c-22,3.08-51.26,4.77-82.31,4.77s-60.28-1.69-82.31-4.77c-10.91-1.52-19.54-3.32-25.65-5.34a36.89,36.89,0,0,1-6.31-2.61L15.12,263.47q.95-3.24,2.12-6.47a120.86,120.86,0,0,1,5.56-12.94,113.29,113.29,0,0,1,6.87-11.94,92.51,92.51,0,0,1,7.9-10.36,63,63,0,0,1,8.61-8.13,40.54,40.54,0,0,1,8.91-5.33A22.5,22.5,0,0,1,64,206.38a19.27,19.27,0,0,1,9.83,2.78,28.22,28.22,0,0,1,8.88,9,7.23,7.23,0,0,1,1.2,2.81,15.2,15.2,0,0,1,.25,2.68,7.16,7.16,0,0,1-1.42,4.7,4.3,4.3,0,0,1-3.38,1.72A4.35,4.35,0,0,1,76,228.18a35.09,35.09,0,0,1-3.43-5.39,13,13,0,0,0-3.94-4.6A8.27,8.27,0,0,0,64,216.77c-2.61,0-5.39,1.08-8.36,3.24a48.48,48.48,0,0,0-8.79,8.57,93.41,93.41,0,0,0-8.35,12.17,126.18,126.18,0,0,0-7.07,14,100.07,100.07,0,0,0-4.89,14.16,50.36,50.36,0,0,0-1.82,12.54,29.24,29.24,0,0,0,.26,3.8,12.26,12.26,0,0,0,.95,3.54,7.16,7.16,0,0,0,1.89,2.62,4.57,4.57,0,0,0,3.05,1,10.2,10.2,0,0,0,4.69-1.39A35.52,35.52,0,0,0,41,287.44a70.09,70.09,0,0,0,5.67-5.1c1.9-1.9,3.67-3.81,5.31-5.76s3.09-3.8,4.35-5.59a32.24,32.24,0,0,0,2.85-4.66l5.2-15.55a7.26,7.26,0,0,1,2.48-3.57A5.5,5.5,0,0,1,70,246.15a5,5,0,0,1,1.56.26,3.83,3.83,0,0,1,1.4.83,3.91,3.91,0,0,1,1,1.45,5.58,5.58,0,0,1,.36,2.09,30.29,30.29,0,0,1-.56,6,48.59,48.59,0,0,1-1.42,5.43c-.58,1.76-1.22,3.54-1.93,5.32s-1.4,3.66-2.07,5.6a12.28,12.28,0,0,0-.81,2.08c-.39,1.17-.86,2.64-1.42,4.4S65,283.3,64.3,285.48s-1.32,4.41-2,6.69-1.35,4.5-2,6.68-1.2,4.16-1.7,5.92-.93,3.24-1.26,4.43-.54,1.9-.62,2.12a13,13,0,0,1-.89,2.35,15.48,15.48,0,0,1-1.45,2.45A9.17,9.17,0,0,1,52.54,318a3.43,3.43,0,0,1-2.06.76,2.93,2.93,0,0,1-2.6-1.19c-.54-.8-.81-2.25-.81-4.37v-.93a8.74,8.74,0,0,1,.06-1,22.89,22.89,0,0,1,.83-4c.53-1.94,1.15-4.13,1.88-6.58s1.5-5,2.34-7.61,1.59-5,2.26-7.05q-3,3.31-6.42,6.59a70.32,70.32,0,0,1-7.09,5.88,42,42,0,0,1-7.32,4.27,17.4,17.4,0,0,1-7.1,1.66,12.75,12.75,0,0,1-6.73-1.72c-.34-.21-.66-.45-1-.68l7.59,79.61c2,5,39.19,17.13,88.26,17.13s86.32-12.18,88.26-17.13l10.91-94.66c-.91.83-1.78,1.64-2.63,2.43a112.12,112.12,0,0,1-8.85,7.5,39.8,39.8,0,0,1-8.13,4.87,21,21,0,0,1-8.49,1.72,10.29,10.29,0,0,1-6.56-1.85,6.17,6.17,0,0,1-2.32-5.1v-.49a4.4,4.4,0,0,1,0-.57,12,12,0,0,1,1.74-4.56,50.79,50.79,0,0,1,3.63-5.36q2.12-2.77,4.52-5.63t4.44-5.39A51,51,0,0,0,194.6,270a7,7,0,0,0,1.34-3.44,1.55,1.55,0,0,0-.55-1.26,2.92,2.92,0,0,0-1.85-.47,10.51,10.51,0,0,0-4.61,1.16,22.82,22.82,0,0,0-4.69,3.11,43.23,43.23,0,0,0-4.53,4.47c-1.47,1.68-2.84,3.42-4.13,5.23s-2.46,3.63-3.52,5.46-2,3.51-2.71,5.06l-.95,2c-.41.88-.86,1.87-1.34,3s-1,2.24-1.54,3.4-1,2.28-1.48,3.31-.84,2-1.19,2.78-.61,1.38-.76,1.69-.49,1.14-.92,2.25-.92,2.39-1.48,3.87-1.15,3-1.76,4.66l-1.73,4.63-1.43,3.84q-.61,1.65-.78,2.25a24.22,24.22,0,0,1-1.31,3.25,14,14,0,0,1-1.73,2.68,8.2,8.2,0,0,1-2.24,1.85,5.77,5.77,0,0,1-2.82.69,5.46,5.46,0,0,1-3.32-1c-.88-.64-1.32-1.86-1.32-3.67a11.18,11.18,0,0,1,.34-2.71,22.33,22.33,0,0,1,.84-2.75c.33-.91.68-1.79,1-2.65s.68-1.68,1-2.48q3-6.62,6.14-13.26t6-13.17c.4-.91.76-1.79,1.15-2.7l-.34.35a73.51,73.51,0,0,1-7.24,6.19,38.42,38.42,0,0,1-7.15,4.27,16.92,16.92,0,0,1-6.9,1.58,9,9,0,0,1-3.82-.72,6.39,6.39,0,0,1-2.46-2,7.85,7.85,0,0,1-1.31-3,11.74,11.74,0,0,1-.2-1.21c-.66.51-1.32,1-2,1.48a39.79,39.79,0,0,1-6.82,3.93,14.93,14.93,0,0,1-6,1.49,5.71,5.71,0,0,1-4.36-1.78c-1.12-1.19-1.67-3.22-1.67-6.09a33,33,0,0,1,.89-7.08,37,37,0,0,1-3.63,5.23,32.05,32.05,0,0,1-5,4.83,25.23,25.23,0,0,1-6.26,3.54A20.58,20.58,0,0,1,86,303.51a13.45,13.45,0,0,1-3.55-.46,7.52,7.52,0,0,1-3-1.59,8,8,0,0,1-2.06-3,12.39,12.39,0,0,1-.79-4.73s.08-.72.23-2a43.3,43.3,0,0,1,1.42-6.15q1.2-4.2,3.72-10.89T89,258.45a9,9,0,0,1,2.71-3.6,5.61,5.61,0,0,1,3.32-1.09,5.76,5.76,0,0,1,1.62.23,5,5,0,0,1,1.57.73A4,4,0,0,1,99.41,256a3.38,3.38,0,0,1,.45,1.75,4.62,4.62,0,0,1-.17,1.26,15.68,15.68,0,0,1-1.2,2.95q-.92,1.81-2.15,4.17t-2.6,5.06q-1.36,2.71-2.54,5.62a57.28,57.28,0,0,0-2,5.92,25.28,25.28,0,0,0-1,5.86,4.39,4.39,0,0,0,.56,2.18,2,2,0,0,0,1.84,1,11.65,11.65,0,0,0,6.93-2.38,30.59,30.59,0,0,0,6.09-5.92,57.4,57.4,0,0,0,5-7.61q2.27-4.06,3.77-7.44a37.62,37.62,0,0,0,1.88-4.83,44.6,44.6,0,0,1,1.76-4.77,14.85,14.85,0,0,1,2.17-3.64,3.89,3.89,0,0,1,3.07-1.45,3.81,3.81,0,0,1,3.19,1.52,5.81,5.81,0,0,1,1.17,3.64,10.48,10.48,0,0,1-.75,3.28c-.51,1.39-1.14,3-1.9,4.76s-1.59,3.69-2.49,5.72-1.72,4.09-2.48,6.19a60.47,60.47,0,0,0-1.9,6.15,23.24,23.24,0,0,0-.75,5.59,2.14,2.14,0,0,0,2.45,2.39,10.62,10.62,0,0,0,4.3-1.2,28.62,28.62,0,0,0,5.39-3.34c.47-.35.95-.73,1.42-1.12a46,46,0,0,1,1.85-6q2-5.16,4-10.25t3.69-9.33L155.44,219a7.15,7.15,0,0,1,2.71-3.64,6.43,6.43,0,0,1,3.44-1.06,5,5,0,0,1,3.15,1.13,4.35,4.35,0,0,1,1.43,3.63,7.37,7.37,0,0,1-.48,2.52,27.47,27.47,0,0,1-1.2,2.84c-.93,2.08-2,4.61-3.32,7.61s-2.67,6.27-4.14,9.8-3,7.2-4.52,11-3,7.53-4.53,11.15-2.85,7.05-4.13,10.29-2.39,6.06-3.32,8.44a36.24,36.24,0,0,0-1.2,3.54,12.7,12.7,0,0,0-.59,3.6,3.18,3.18,0,0,0,.34,1.59,1.33,1.33,0,0,0,1.28.6,7.27,7.27,0,0,0,2.93-.83,29.48,29.48,0,0,0,3.8-2.19c1.36-.9,2.78-1.93,4.24-3.1s2.94-2.39,4.39-3.64,2.84-2.52,4.16-3.78,2.51-2.41,3.55-3.47a2.75,2.75,0,0,1,.86-.57q.94-2.82,1.71-5.51c.3-.8.71-1.92,1.23-3.38a45.89,45.89,0,0,1,1.79-4.3,18,18,0,0,1,2.26-3.67,3.53,3.53,0,0,1,2.71-1.56,4.36,4.36,0,0,1,3.24,1,4.11,4.11,0,0,1,1,3,9.65,9.65,0,0,1-.11,1.25c-.07.58-.16,1.19-.28,1.83s-.23,1.24-.36,1.82a8.23,8.23,0,0,1-.36,1.25q2.06-2.25,4.47-4.46a45.21,45.21,0,0,1,5-4,28.42,28.42,0,0,1,5.25-2.91,13.78,13.78,0,0,1,5.36-1.12,12.76,12.76,0,0,1,3.66.53,10.56,10.56,0,0,1,3.24,1.55,8.21,8.21,0,0,1,2.32,2.58,7.18,7.18,0,0,1,.89,3.61,14.16,14.16,0,0,1-1.37,5.79,41.55,41.55,0,0,1-3.43,6.18c-1.38,2.08-2.87,4.09-4.47,6.06s-3.1,3.75-4.5,5.35-2.57,3-3.52,4.11a6.25,6.25,0,0,0-1.48,2.28,1.72,1.72,0,0,0,.51,1.29,2.31,2.31,0,0,0,1.67.5,6.36,6.36,0,0,0,2.79-1.06,47.86,47.86,0,0,0,5.17-3.67q3.33-2.61,8.44-7c2.33-2,5.07-4.4,8.15-7.13L230,137.88a36.3,36.3,0,0,1-6.32,2.62C217.59,142.52,209,144.32,198.05,145.84Zm-82.4-32.46C51.78,113.38,0,120.52,0,129.33s51.78,15.95,115.65,15.95,115.66-7.14,115.66-15.95S179.53,113.38,115.65,113.38ZM161.83,134c0,2.07-6.15,3.74-13.74,3.74s-13.75-1.67-13.75-3.74,6.16-3.74,13.75-3.74S161.83,131.92,161.83,134Z"/><path id="Straw" class="cls-1" d="M137.13,132.34a.59.59,0,0,0-.11.33c0,1.34,5,2.42,11.07,2.42s11.06-1.08,11.06-2.42l14.45-58.6L231.07,13.4l.06-.06c1.21-1.38-1.26-5.63-5.35-9.29S217.26-.83,215.89.56l0,0L154.54,65.11Z"/></g></g></g></svg>