<svg xmlns="http://www.w3.org/2000/svg" data-name="Layer 1" width="647.13" height="492.562"><path d="M583.781 474.875a2.27 2.27 0 001.645-3.933l-.156-.619.062-.148a6.094 6.094 0 0111.242.042c1.838 4.428 4.179 8.864 4.755 13.546a18.029 18.029 0 01-.316 6.2 72.281 72.281 0 006.575-30.02 69.766 69.766 0 00-.433-7.783q-.358-3.178-.994-6.31a73.119 73.119 0 00-14.5-30.99 19.459 19.459 0 01-8.094-8.397 14.843 14.843 0 01-1.35-4.056c.395.052 1.486-5.949 1.189-6.317.549-.833 1.532-1.247 2.131-2.06 2.983-4.044 7.092-3.338 9.237 2.157 4.582 2.313 4.626 6.148 1.815 9.837-1.79 2.347-2.035 5.522-3.605 8.035.162.206.33.407.491.613a73.591 73.591 0 017.681 12.169 30.592 30.592 0 011.827-14.21c1.748-4.217 5.025-7.769 7.91-11.415a6.28 6.28 0 0111.184 3.084l.018.16q-.643.363-1.26.77a3.078 3.078 0 001.242 5.602l.063.01a30.628 30.628 0 01-.808 4.58c3.702 14.315-4.29 19.53-15.701 19.764-.252.129-.497.258-.75.38a75.115 75.115 0 014.044 19.029 71.244 71.244 0 01-.052 11.503l.02-.136a18.826 18.826 0 016.426-10.87c4.946-4.063 11.933-5.559 17.268-8.824a3.533 3.533 0 015.412 3.437l-.022.142a20.676 20.676 0 00-2.319 1.118q-.643.362-1.258.77a3.078 3.078 0 001.24 5.601l.063.01c.046.006.084.013.13.02a30.655 30.655 0 01-5.639 8.829c-2.315 12.497-12.256 13.682-22.89 10.043h-.007a75.092 75.092 0 01-5.044 14.726h-18.02c-.065-.2-.123-.407-.181-.607a20.474 20.474 0 004.986-.297c-1.337-1.64-2.674-3.294-4.01-4.934a1.117 1.117 0 01-.085-.097c-.678-.84-1.363-1.673-2.04-2.513h-.001a29.99 29.99 0 01.878-7.64z" fill="#f2f2f2"/><path d="M567.73 53.754H1a1 1 0 010-2h566.73a1 1 0 010 2z" fill="#e6e6e6"/><ellipse cx="29.355" cy="15.088" rx="8.457" ry="8.645" fill="rgba(255,255,255,0.3)"/><ellipse cx="58.569" cy="15.088" rx="8.457" ry="8.645" fill="rgba(255,255,255,0.3)"/><ellipse cx="87.782" cy="15.088" rx="8.457" ry="8.645" fill="rgba(255,255,255,0.3)"/><path d="M121.094 21.92a.997.997 0 01-.715-.3l-5.706-5.833a1 1 0 010-1.398l5.706-5.833a1 1 0 011.43 1.399l-5.022 5.133 5.022 5.134a1 1 0 01-.715 1.699zm9.588 0a1 1 0 01-.715-1.698l5.022-5.134-5.022-5.134a1 1 0 111.43-1.398l5.706 5.833a1 1 0 010 1.398l-5.706 5.833a.997.997 0 01-.715.3z" fill="#e6e6e6"/><path d="M517.192 7.444h-10.61a2.19 2.19 0 00-2.19 2.19v10.62a2.19 2.19 0 002.19 2.19h10.61a2.198 2.198 0 002.2-2.19V9.634a2.198 2.198 0 00-2.2-2.19zm-26 0h-10.61a2.19 2.19 0 00-2.19 2.19v10.62a2.19 2.19 0 002.19 2.19h10.61a2.198 2.198 0 002.2-2.19V9.634a2.198 2.198 0 00-2.2-2.19zm50.5.5h-10.61a2.19 2.19 0 00-2.19 2.19v10.62a2.19 2.19 0 002.19 2.19h10.61a2.198 2.198 0 002.2-2.19v-10.62a2.198 2.198 0 00-2.2-2.19z" fill="rgba(255,255,255,0.3)"/><path d="M235.916 23.523h-69a9 9 0 010-18h69a9 9 0 010 18zm93 0h-69a9 9 0 010-18h69a9 9 0 010 18z" fill="#e6e6e6"/><path d="M450.905 23.023h-94.977a11.512 11.512 0 010-23.023h94.977a11.512 11.512 0 010 23.023z" fill="#ffc107"/><path d="M452.249 18.362a1.372 1.372 0 01-.973-.403l-10.98-10.98a1.376 1.376 0 011.947-1.946l10.98 10.98a1.376 1.376 0 01-.974 2.349z" fill="#fff"/><path d="M441.302 18.362a1.372 1.372 0 00.973-.403l10.98-10.98a1.376 1.376 0 00-1.947-1.946l-10.98 10.98a1.376 1.376 0 00.974 2.349z" fill="#fff"/><path d="M336.998 97.923H231.121a2.283 2.283 0 110-4.566h105.877a2.283 2.283 0 010 4.566z" fill="#ffc107"/><path d="M363.796 118.797H204.323a2.283 2.283 0 110-4.566h159.473a2.283 2.283 0 010 4.566zm.004 16.304H204.32a2.285 2.285 0 000 4.57H363.8a2.285 2.285 0 000-4.57zm-.004 25.444H204.323a2.283 2.283 0 110-4.566h159.473a2.283 2.283 0 010 4.566zm0 20.875H204.323a2.283 2.283 0 110-4.567h159.473a2.283 2.283 0 010 4.566zm0 21H204.323a2.283 2.283 0 110-4.567h159.473a2.283 2.283 0 010 4.566zm0 21H204.323a2.283 2.283 0 110-4.567h159.473a2.283 2.283 0 010 4.566zm0 21H204.323a2.283 2.283 0 110-4.567h159.473a2.283 2.283 0 010 4.566zm0 21H204.323a2.283 2.283 0 110-4.567h159.473a2.283 2.283 0 010 4.566z" fill="#f2f2f2"/><path d="M449.372 20.287a8.56 8.56 0 009.274 7.518 8.211 8.211 0 001.333-.255l17.22 24.395 15.453-4.383-27.202-30.867a8.535 8.535 0 00-8.8-5.581 8.168 8.168 0 00-7.303 8.95q.01.111.025.223zm103.575 460.736l-9.695-.001-4.612-37.394 14.309.001-.002 37.394z" fill="#a0616a"/><path d="M553.288 491.136l-29.812-.001v-.377a11.604 11.604 0 0111.603-11.604h.001l5.446-4.13 10.16 4.131h2.602z" fill="#FFF"/><path fill="#a0616a" d="M520.794 458.044l-9.376 2.465-13.969-34.992 13.838-3.638 9.507 36.165z"/><path d="M523.696 467.739l-28.833 7.58-.096-.365a11.604 11.604 0 018.272-14.173l4.217-5.38 10.877 1.412 2.517-.662z" fill="#FFF"/><path d="M505.916 233.523s-19.39 17.826-17.072 20.594 7.965.495 2.318 6.338-8.158-6.402-5.648 7.879-10.304 87.918-10.304 87.918-2.959 13.951-1.034 15.967 4.812-.892 2.74 4.955-7.803 3.337-2.74 8.357 25.24 58.701 25.24 58.701l18.177-9.927s-3.84-55.05-9.488-60.697S527.94 310.5 527.94 310.5s2.155 117.982 4.653 123.804 6.89 3.815 2.498 8.27-7.174.217-3.274 6.729 2.567 11.374 2.567 11.374h22.247l19.774-174.556-5.816-48.512z" fill="#ffc107"/><path d="M490.396 249.987c18.48-21.632 12.238-49.145 4.903-76.919l1.396-41.03a12.55 12.55 0 015.679-10.08l18.866-12.325 4.301-16.284 22.727 2.727 11.78 16.834 12.424 9.485a20.582 20.582 0 017.607 20.804l-11.889 53.768s4.973 27.874 1.939 30.952-10.853.002-4.653 3.457c7.44 4.147 14.206 3.382 10.44 7.147s1 9 1 9z" fill="#e6e6e6"/><path d="M565.661 142.243s18.841-2.571 14.048-9.439-11.64-23.744-31.813-29.624l-58.637-68.042s-21.075 11.464-15.752 13.973 6.33 4.973 6.33 4.973-2.524 4.782 2.537 8.748 20.618 31.792 20.618 31.792l33.468 45.128z" fill="#e6e6e6"/><circle cx="528.219" cy="74.38" r="23.098" fill="#a0616a"/><path d="M537.186 95.002l1.513.482c-4.732.398-13.167 3.038-12.34 1.578s-2.297-6.965-.774-7.662a9.691 9.691 0 004.1-2.78c.966-1.352.944-3.584-.504-4.41-1.406-.816-3.145.064-4.54.89-1.406.816-4.003-11.182-3.338-14.928-3.917-2.146-8.66 1.964-13.06 1.16-2.694-.494-4.636-2.705-5.86-5.216a16.362 16.362 0 004.325-6.89 21.367 21.367 0 01-5.923 1.964 13.92 13.92 0 01.15-5.88 9.597 9.597 0 015.977-6.805c3.005-.966 6.708.226 8.156 3.027a6.916 6.916 0 00-4.378-6.869 7.272 7.272 0 0110.463 4.948 22.466 22.466 0 0115.658-1.674c5.194 1.362 12.084 7.125 12.084 7.125 11.718 2.587 11.16 47.144-11.709 41.94z" fill="#222"/><path d="M474.732 288.457a8.56 8.56 0 00.068-11.938 8.211 8.211 0 00-1.033-.88l8.271-28.693-13.082-9.319-7.08 40.53a8.535 8.535 0 001.146 10.357 8.168 8.168 0 0011.552.103q.08-.079.158-.16z" fill="#a0616a"/><path d="M524.01 126.712s-23.734-7.052-26.462.866-3.632 12.945-14.893 44.548l-20.465 87.46s21.677 10.282 20.57 4.503.291-8.046.291-8.046 5.352-.775 5.576-7.201 13.555-35.386 13.555-35.386l16.765-53.624z" fill="#e6e6e6"/><path d="M391.46 491.372a1.186 1.186 0 001.19 1.19h253.29a1.19 1.19 0 000-2.38H392.65a1.187 1.187 0 00-1.19 1.19z" fill="#ccc"/></svg>