<svg xmlns="http://www.w3.org/2000/svg" width="112.782" height="124.895"><path data-name="Path 226" d="M29.625 59.055c3.547 1.217 6.782 2.723 10.184 3.388a41.025 41.025 0 0011.5.866 7.716 7.716 0 007.13-7.899c.085-4.341-2.565-7.525-7.234-8.434-6.03-1.176-11.768.089-17.333 2.4-1.36.563-2.674 1.232-3.93 1.817-8.26-4.475-8.861-7.71-5.315-28.32-3.24-1.188-4.686.893-5.876 3.255-3.984 7.92-2.317 20.52 3.54 27.114.592.667 1.217 1.307 1.95 2.088-.635 1.1-1.22 2.02-1.708 2.992-3.52 7.007-2.618 14.56 3.204 19.811a46.531 46.531 0 0011.58 7.394c7.125 3.299 14.882 4.553 22.68 4.894 9.42.412 18.862.369 28.294.534 1.412.025 2.823.118 4.66.196a80.279 80.279 0 00-5.168 6.957c-.523.88-.448 3.134.056 3.394 1.083.553 2.622.258 3.972.214.303-.01.594-.41.884-.64 4.609-3.673 9.162-7.416 13.84-11 4.13-3.164 4.441-4.496 1.313-8.59-3.589-4.696-8.419-7.725-13.82-9.895-1.746-.7-3.647-1.128-4.773 1.59 2.32 4.742 8.18 5.733 11.912 10.182-2.03.212-3.398.48-4.765.48-11.836-.003-23.689.32-35.501-.24a87.941 87.941 0 01-19.045-3.426 31.966 31.966 0 01-10.707-5.613c-5.283-4.09-5.652-9.41-1.524-15.51zm7.577-3.161l.066-1.464a21.112 21.112 0 0110.463-2.207c3.409.144 5.2 1.283 4.822 3.151-.54 2.664-2.84 2.697-4.79 2.451-3.546-.445-7.046-1.267-10.562-1.93z" fill="#083685"/></svg>