<svg height="937.641" width="1102.421" xmlns="http://www.w3.org/2000/svg"><g fill="#e8e8e8"><path d="M128.41 806.5h972.983c1.368 0 1.368-3 0-3H128.41c-1.368 0-1.368 3 0 3z"/><path d="M501.71 802.3a55.786 55.786 0 01-24.7-21.9 52.828 52.828 0 01-6.2-14.7c-1.1-5.1.9-10.3 6.9-9.5 3.9.5 7 3.1 9.8 5.5l1.8-2.4a38.768 38.768 0 01-14.7-17.1c-2.1-4.9-7-20.4 1.4-21.9a1.522 1.522 0 00.9-2.2c-8-16.5-9.9-34.9-11.6-52.9-.8-8.6-1.6-19 5.1-25.6 7.9-8 18.8-2.4 25.4 4.4 12.3 12.7 18.7 30.8 25.2 46.9a381.157 381.157 0 0117 51.7c4.9 20.4 7.5 41.3 6.4 62.2-.1 1.9 2.9 1.9 3 0 2.2-42.8-10.7-84.3-27-123.3-6.7-16-14.3-36.6-30.1-45.8-6.1-3.5-13.5-4.5-19.5-.3-6.1 4.3-8.4 11.9-8.8 19-.5 10.9 1.4 22.4 3.1 33.1 1.7 11.1 4.5 22 9.4 32.1.3-.7.6-1.5.9-2.2-8.8 1.6-7 14.3-5.3 20.4a41.771 41.771 0 0017.9 24.1c1.4.9 3.1-1.3 1.8-2.4-4.8-4-10.9-8.5-17.4-5.6-6.9 3.1-5 11.1-3 16.8a58.869 58.869 0 0031 34.1c1.5.9 3.1-1.7 1.3-2.5z"/><path d="M533.61 715.3c-3.2-23.9-2.2-47.3 5.3-70.3 3.6-11.1 7.4-22.1 11.1-33.1 3-8.9 8.3-25.4 21-17.7 9.1 5.5 10.8 20.1 12.9 29.6a277.121 277.121 0 015.5 35.2 338.388 338.388 0 01-.6 67.5 439.2 439.2 0 01-15.8 77.9 1.505 1.505 0 002.9.8c14.5-49.3 21.8-101.4 15.8-152.6a281.971 281.971 0 00-6.6-36.7c-2.3-9-4.7-20.3-13.8-24.9-7.5-3.7-14.7-.1-18.7 6.7-2.3 3.9-3.6 8.4-5.1 12.6-2.2 6.6-4.4 13.1-6.6 19.7-4.4 13.2-9.1 26.2-10.9 40.1-1.9 15-1.3 30.2.7 45.2.1 1.9 3.1 1.9 2.9 0zm-60.1-77.6c28.8 51.3 51.5 107.1 56.7 166.3.2 1.9 3.2 1.9 3 0-5.3-59.7-28-115.9-57.1-167.8-.9-1.7-3.5-.2-2.6 1.5z"/><path d="M565.31 592.8c2.4 17.5 1.5 35.2.8 52.8-.7 17.3-1.4 34.6-2.1 52-1.4 35.2-2.3 70.7-8.8 105.4-.3 1.9 2.5 2.7 2.9.8 6.5-35 7.5-70.7 8.9-106.2.7-18 1.5-36 2.2-53.9.7-17.2 1.4-34.5-1-51.6-.2-2-3.1-1.1-2.9.7z"/><path d="M536.61 643.3a154.422 154.422 0 0126.6 57.2c.4 1.9 3.3 1.1 2.9-.8a156.237 156.237 0 00-26.9-58c-1.1-1.5-3.7 0-2.6 1.6zm47.7-20.8a226.941 226.941 0 00-19.2 46.4 1.504 1.504 0 002.9.8 228.1 228.1 0 0118.9-45.7c.9-1.6-1.7-3.2-2.6-1.5zM475.71 720a100.552 100.552 0 0149.7 44.2c.9 1.7 3.5.2 2.6-1.5a103.91 103.91 0 00-51.5-45.5c-1.8-.9-2.5 2-.8 2.8zm28.2-67.5a175.2 175.2 0 002.2 51.1c.4 1.9 3.3 1.1 2.9-.8a176.755 176.755 0 01-2.1-50.3c.2-1.9-2.8-1.9-3 0zm-356.7 150.4a98.19 98.19 0 01-4.8-20.8 90.818 90.818 0 01-.5-9.1c0-1.6-.3-3.9.1-5.4 0-.6.1-1.2.1-1.8 1.9-1.4 3.5-1.2 4.8.5.9.8 2.7.3 2.6-1.1a63.212 63.212 0 01.2-12.3 55.9 55.9 0 011.1-5.9c.2-.7 2.6-7.5 2.8-7.2a1.477 1.477 0 002.7-.4c4.3-17.7 12-34.2 21.4-49.7 2.4-4 5-8 7.6-11.9 2.9-4.3 7.7-11.1 12.1-3.6 4.5 7.6 5.8 18.7 6.2 27.4 1 18.4-3.2 36.7-9.1 54-5.7 16.9-12.8 33.8-25 47.1-1.3 1.4.8 3.5 2.1 2.1 10.6-11.5 17.3-25.6 22.8-40.1 5.8-15.5 10.5-31.6 11.9-48.1a102.346 102.346 0 00-.6-24.1c-1-6.9-2.5-15.7-6.8-21.5-8.9-11.8-19.2 9.7-22.9 15.7-10 16.2-18.1 33.4-22.6 51.9a25.113 25.113 0 002.7-.4c-2.5-3.3-5.6 0-6.7 2.8-3.1 7.5-3.7 16.2-3 24.1.9-.4 1.7-.7 2.6-1.1-1.9-1.7-5-3.9-7.7-2.6-2.8 1.4-2.4 5.2-2.4 7.8a97.77 97.77 0 005.4 34.3c.6 2 3.5 1.2 2.9-.6z"/><path d="M193.41 670.8a350.311 350.311 0 01-17.2 69.2c-7.5 21-20.1 41.3-22.9 63.7-.2 1.9 2.8 1.9 3 0 1.5-11.9 6.1-22.9 10.9-33.7 4.5-10.2 8.8-20.5 12.5-31a355.73 355.73 0 0016.5-67.5c.3-1.8-2.6-2.6-2.8-.7z"/><path d="M165.81 706.5c1.1 15.9 2.7 31.7 4.8 47.5.3 1.9 3.1 1.1 2.9-.8-2.1-15.5-3.7-31.1-4.7-46.7-.1-1.9-3.1-2-3 0zm18.7 17.9a135.457 135.457 0 0020.7-26.4 1.5 1.5 0 00-2.6-1.5 136.067 136.067 0 01-20.2 25.8c-1.4 1.3.7 3.4 2.1 2.1zm-48.4 77a152.22 152.22 0 01-17.1-31.8 143.744 143.744 0 01-5.1-15.7c-.7-2.8-1.4-5.6-2-8.5-.4-1.7-3-12.8.6-12.1a1.461 1.461 0 001.8-1.8 292.278 292.278 0 01-4.6-41.7c-.2-6.4-.3-13 1.1-19.2.7-3 1.7-6.5 3.7-9 4.6-5.6 9.4-1 12.4 3.2 14.4 20.2 23.6 44.5 28 68.8.3 1.9 3.2 1.1 2.9-.8a188.922 188.922 0 00-13.7-43.6 171.632 171.632 0 00-11.2-20.7c-2.8-4.4-6.4-11.3-12.1-12.5-12.5-2.6-14.1 19.2-14.2 26.9-.2 16.6 1.8 33.3 4.8 49.6l1.8-1.8c-12-2.1-2.1 25.4-.6 30.1a156.26 156.26 0 0020.8 42.4c1.2 1.3 3.8-.2 2.7-1.8zm791.1 3.6a105.324 105.324 0 01-6.2-60.5 17.114 17.114 0 00-1.4 1.1c2.3-.4 4 .6 5.2 3.1.5 1.4 3.1 1.4 2.9-.4a117.427 117.427 0 01.2-26.5 114.662 114.662 0 012.5-13c.5-2 1.1-4 1.7-6 .4-1.1.7-2.3 1.1-3.4a12.627 12.627 0 001.1-5.1c.8.5 1.7 1 2.5 1.5a89.9 89.9 0 0125.5-47.8h-2.1c4.6 4.9 4.8 11.9 5.5 18.2q1.05 9.9 1.5 19.8a358.725 358.725 0 010 38.8 382.3 382.3 0 01-12.2 78.9 1.504 1.504 0 002.9.8 392.647 392.647 0 0012.4-83.5 376.373 376.373 0 00-.7-42.5c-.7-10.1.1-24.6-7.4-32.6a1.449 1.449 0 00-2.1 0 92.445 92.445 0 00-26.3 49.1 1.526 1.526 0 002.5 1.5l.5-.5a1.391 1.391 0 00.4-1.5c-.8-2.3-2.9-3-4.7-1.1-1.3 1.3-1.8 3.6-2.4 5.3-1.2 3.4-2.2 6.8-3.1 10.3a113.605 113.605 0 00-2.6 39.4c1-.1 2-.3 2.9-.4-1.4-3.5-4.2-5.6-8.1-5.3a1.391 1.391 0 00-1.4 1.1 109.052 109.052 0 006.2 62.1c1.1 1.6 4 .9 3.2-.9z"/><path d="M971.81 724.3a103.211 103.211 0 0120.9-49 96.981 96.981 0 018.6-9.5c2-1.9 6.5-7.3 9.6-2.8 1.2 1.7 1.1 4.5 1.1 6.5a207.668 207.668 0 01-2.9 29.3 279.423 279.423 0 01-39.2 105.8c-1 1.6 1.6 3.2 2.6 1.5a285.416 285.416 0 0037.7-96.2c1.6-8.2 2.8-16.4 3.6-24.7.7-6.7 2.8-15.8.3-22.3-5.3-14-21 7-24.8 11.9a103.825 103.825 0 00-20.4 48.7c-.2 1.9 2.7 2.7 2.9.8z"/><path d="M970.11 716.8a385.875 385.875 0 01-6.9 50.2c-.4 1.9 2.5 2.7 2.9.8a379.049 379.049 0 007-51c.1-1.9-2.9-1.9-3 0zm38.6-56.4q-25.5 71.55-49.3 143.6c-.6 1.8 2.3 2.6 2.9.8q23.7-72.15 49.3-143.6c.6-1.8-2.3-2.6-2.9-.8zm-49-11.2q-11.7 78-23.5 155.9c-.3 1.9 2.6 2.7 2.9.8q11.7-78 23.5-155.9c.3-1.9-2.6-2.8-2.9-.8z"/><path d="M933.51 693.7c3.3 20.2 6.6 40.3 9.9 60.5.3 1.9 3.2 1.1 2.9-.8-3.3-20.2-6.6-40.3-9.9-60.5-.3-1.9-3.2-1.1-2.9.8zm33.7-15.4a234.032 234.032 0 00-17.1 35.7c-.7 1.8 2.2 2.6 2.9.8a224.081 224.081 0 0116.8-34.9 1.527 1.527 0 00-2.6-1.6zm12.6 11.8v51.7a1.5 1.5 0 003 0v-51.7a1.5 1.5 0 00-3 0zm-516.4 154.8a26.337 26.337 0 0122-3.2c6.5 2 11.9 4.7 18.9 4.4 6.5-.3 12.8-2 19.3-2.4a26.253 26.253 0 0110.4 1.1c3.4 1.2 5.8 3 9.4 3.2 1.9.1 1.9-2.9 0-3-4.1-.2-7.6-3.1-11.6-3.9a35.669 35.669 0 00-9.8-.3c-7 .7-13.9 2.7-20.9 2.3-7.3-.4-13.5-4.8-20.7-5.5a29.408 29.408 0 00-18.5 4.7c-1.6 1-.1 3.6 1.5 2.6zm-165.8-8.5c10-.3 20-.7 29.9-1 4.9-.2 10-.7 14.9-.3 4.1.3 7.2 2.6 11 3.5 3.1.7 6.1.2 9.2-.5a85.987 85.987 0 0116-2.5c9.5-.5 19 .6 28.4 1.7 1.9.2 1.9-2.8 0-3-9.4-1.1-18.9-2.2-28.4-1.7a75.735 75.735 0 00-13.4 1.8c-5.3 1.2-9.4 2.1-14.5-.2-7.4-3.2-15.2-2.1-23-1.8-10 .3-20 .7-29.9 1-2.1.1-2.1 3.1-.2 3zm359.4 100.7c10.1 1.5 20-.4 29.9-2.3a114.457 114.457 0 0118.5-2.6c6.2-.2 12 1.2 18 2.6a44.991 44.991 0 0015.5 1.1c5.3-.7 10.4-2.1 15.7-2.7 11.5-1.4 22.3 4.2 33.8 3.5 1.9-.1 1.9-3.1 0-3-10.7.6-20.7-4.4-31.4-3.8-5.1.3-10 1.6-15.1 2.5a45.864 45.864 0 01-19.5-.9 68.268 68.268 0 00-29.5-.9c-11.7 2-23.3 5.3-35.2 3.6-1.8-.3-2.6 2.6-.7 2.9zm277.2-97.1c20-6.7 41.7-.4 62.3-3.2 5.8-.8 11.7-1.8 17.6-1.3 4.9.4 9.5 2.3 14.3 2.8 5 .4 9.9-1 14.8-1.5a64.606 64.606 0 0118.1.9c1.9.4 2.7-2.5.8-2.9a77.383 77.383 0 00-15.2-1.3c-5.4.2-10.6 1.7-16 1.8-5.1.1-9.9-2.1-15-2.7-5.5-.7-11 0-16.5.7-11.7 1.6-22.9 1.5-34.6.9-10.7-.5-21.3-.6-31.5 2.9-1.7.6-1 3.5.9 2.9z"/></g><path d="M527.11 917.3h247.6a1.5 1.5 0 000-3h-247.6a1.5 1.5 0 000 3zm-189.7 16.3h127.1a1.5 1.5 0 000-3h-127.1a1.5 1.5 0 000 3zm322.5-47.8h133.6a1.5 1.5 0 000-3h-133.6a1.5 1.5 0 000 3zm184.6 4.4h79.3a1.5 1.5 0 000-3h-79.3a1.5 1.5 0 000 3zm-667.1-30.4h141.2a1.5 1.5 0 000-3h-141.2a1.5 1.5 0 000 3zm134.7-10.9h78.2a1.5 1.5 0 000-3h-78.2a1.5 1.5 0 000 3zm28.7 24.4h102.5a1.5 1.5 0 000-3h-102.5a1.5 1.5 0 000 3z" fill="#161616"/><path d="M781.61 355c.4-7.7 15 0 19.1-.7 5.4-.9 6.6-6.9 12.8-5.6 3.8.8 7.4 2.6 11.4 2.2 2.6-.3 4.5-1.8 7-2.5a10.931 10.931 0 0110.7 2.9c1.4 1.3 3.5-.8 2.1-2.1-4.4-4.2-9.9-5.1-15.5-3-4.7 1.8-7.5 1.6-12.2.2a17.333 17.333 0 00-7.1-1.1c-2.8.4-3.9 1.8-5.8 3.5-5.7 4.9-9.8.4-15.8-.5-4.6-.7-9.3 1.6-9.6 6.7-.2 2 2.8 2 2.9 0zm17.1-15.2c.8-6.6 12.4-1 15.8-.7 4.6.4 5.7-2.2 9-4.6 6.1-4.5 10.5 1.2 16.6.9 1.7-.1 2.6-1.1 4-1.9 3.9-2.2 7.7-2.7 11.2.6 1.4 1.3 3.5-.8 2.1-2.1-4.1-3.8-9-4.1-13.9-1.9-2.2 1-.9 2.1-4.7 2.1-1.9 0-4.3-1.5-6.2-2-2.7-.7-5.5-1.1-8.2 0-4.4 1.8-4.6 6.2-10.8 5.7-3.1-.2-5.8-2.1-9-2.3-4.3-.3-8.5 1.5-9.1 6.1-.1 2 2.9 2 3.2.1zm-658.8 361.7c4.1-3 7.6-4.4 12.4-2.1a24.2 24.2 0 005.8 2.3c4.4.7 8.4-1.5 12.3-3.2 3.6-1.6 6.6-2.5 10.4-.5 2.1 1.1 3.8 2.6 6.2 3 4.8.9 11.9-3.7 15.7 0 1.4 1.3 3.5-.8 2.1-2.1-3.7-3.6-8.2-1.9-12.8-1.1-3.1.5-5.1.4-7.9-1.2a19.793 19.793 0 00-4-2.3 11.488 11.488 0 00-6.1-.4c-2.7.6-5.2 2-7.8 3.1-4.7 2-7.8 1.9-12.6-.2-6.1-2.8-10-1.9-15.5 2.1-1.2 1.1.3 3.7 1.8 2.6zm28.9-15.5c6.8-7.6 18.4 1.2 26.8-.6 3.1-.7 5.1-1.7 8.3-.6 1.9.7 3.5 2 5.4 2.7a13.487 13.487 0 0010.6-.9c1.7-.8.2-3.4-1.5-2.6-7 3.4-10.1-1.9-16.2-2.9a10.368 10.368 0 00-5.2.8 17.369 17.369 0 01-9.6.3c-7-1.5-15.2-4.5-20.9 1.8-1.1 1.3 1 3.4 2.3 2zm215.4-410.6c-7.8-5.9-2.6-19.1 7.4-16.9 4.1.9 7.6 4.2 7.6 8.6a10.388 10.388 0 01-9.5 10.1c-1.9.1-1.9 3.1 0 3a13.363 13.363 0 0012.5-11.8c.6-6.2-3.9-11.4-9.8-12.7-13.5-3.1-20 14.6-9.7 22.4 1.5 1.1 3-1.5 1.5-2.7z" fill="#5222d0"/><path d="M81.41 595.7c-5-5.5-.3-15.3 7.4-13.2 9.3 2.5 6.9 15.6-2.4 15.5a1.5 1.5 0 000 3 11.7 11.7 0 0011.5-9.8c.8-5.2-2.7-9.7-7.5-11.4-10.9-3.8-18.5 9.9-11.1 18 1.3 1.4 3.4-.7 2.1-2.1zm225.7-31.3a19.734 19.734 0 00-7.7 10.7c-1.4 5.2 2.2 12.5-1.3 16.4-2.2 2.5-6 4.2-7 7.6a5.26 5.26 0 00.1 3.5c.5 1.7 1.2 2 1.2 3.8 0 3-2.6 4.3-5.1 5.6-1.7.9-.2 3.5 1.5 2.6 3.2-1.7 7.3-4.5 7-8.6-.2-2.6-2.7-4.2-1.3-7 .9-1.7 3.2-3 4.5-4.3 2.5-2.3 4.2-4.7 3.8-8.2-.5-3.8-1.6-6.7-.6-10.6a15.842 15.842 0 016.3-8.9c1.6-1.1.1-3.7-1.4-2.6zm14.7 10c-8.5-.8-9.5 9.7-9.1 15.8.2 3.4.4 6.8-1.7 9.6-1.1 1.4-2.7 2.5-3.4 4.2-.6 1.5-.2 2.7.1 4.3.9 4.9-1.8 8.1-5.1 11.3a1.485 1.485 0 102.1 2.1c2.6-2.6 5.6-5.6 6.3-9.4.3-1.8-.4-3.2-.4-4.9 0-3.1 1.9-4.2 3.3-6.4 2.2-3.2 2.1-7.1 1.8-10.8-.3-4.3-.6-13.4 6.1-12.8 2 .2 1.9-2.8 0-3zm9.1-369.8c.4-6.9 12-4.3 16.3-6.6 3.1-1.7 4.9-4.8 6.6-7.7a33.594 33.594 0 013.2-5.1c2.6-3 5.6-2.6 9.2-2.9a15.862 15.862 0 0011.4-6.4c1.2-1.5-.9-3.6-2.1-2.1a13.986 13.986 0 01-10.8 5.6c-2.2.1-4.3 0-6.4 1-3.8 1.9-5.6 6-7.6 9.5-1.6 2.7-3.1 4.9-6.1 6-2.9 1.1-6.2.5-9.2 1.2-4 .9-7.1 3.4-7.4 7.6-.2 1.8 2.8 1.8 2.9-.1zm8.8 12.5c3-4.9 9.1-6.1 13.9-8.5a13.468 13.468 0 007.8-9.4c1.9-7.1 7.4-6.2 13.5-7.1 3.7-.6 6.7-1.8 8.2-5.5.7-1.8-2.2-2.6-2.9-.8-1.9 4.5-9.4 3.4-13.4 4.3-4.1.8-6.9 2.7-8.1 6.8-1.1 3.7-1.5 6-4.9 8.1a52.86 52.86 0 01-6.8 3.2c-4 1.7-7.7 3.6-10 7.4-.9 1.6 1.7 3.1 2.7 1.5zm450.7 458.8c-2.4-7.4 5.2-15 12.4-10.5 7.9 4.9 3.5 16.1-5.3 15.9-1.9-.1-1.9 2.9 0 3 11.2.4 17.1-13.9 7.7-20.8-9.2-6.8-21 2.8-17.7 13.3.6 1.8 3.5 1 2.9-.9zm-471.1 98.7c-2.8-5.2.2-12.8 6.9-11.8 2.7.4 5.3 2.4 5.3 5.4 0 2.9-2.3 5.8-5.3 5.9-1.9.1-1.9 3.1 0 3 9.4-.4 11.1-13.7 2.3-16.8-9.7-3.3-16.1 7.7-11.8 15.8a1.5 1.5 0 002.6-1.5zm425-587.1c-2.9-3.2 1.3-7.7 4.9-5.6 4.5 2.7 1.8 8.2-2.4 9.3a1.504 1.504 0 00.8 2.9c7.3-1.8 9.8-12.1 2-15.3-6.6-2.7-12.2 5.6-7.5 10.8 1.4 1.5 3.5-.6 2.2-2.1z" fill="#ec615b"/><path d="M6.01 289.6c-5.8-3-2.3-12.2 4.2-10.3 7.6 2.2 5 12-1.7 13.4-1.9.4-1.1 3.3.8 2.9 10-2.2 11.9-17 .9-19.4-9.5-2.1-14.3 11.5-5.8 15.9 1.8 1 3.3-1.6 1.6-2.5z" fill="#5222d0"/><path d="M195.81 4.7q-.3 60.6-.5 121.3 275.4-1.05 550.8-2-.75-59.7-1.6-119.4-274.35 0-548.7.1z" fill="#74906f"/><path d="M191.71 4.4v117.5c0 3.9 6 3.9 6 0V4.4c0-3.9-6-3.9-6 0z" fill="#3a4838"/><path d="M197.51 6h549.8c3.9 0 3.9-6 0-6h-549.8c-3.9 0-3.9 6 0 6z" fill="#3a4838"/><path d="M744.01 2.9l1.5 122.5c0 3.9 6 3.9 6 0l-1.5-122.5c0-3.8-6-3.8-6 0z" fill="#3a4838"/><path d="M194.71 127.7h554c3.9 0 3.9-6 0-6h-554c-3.9 0-3.9 6 0 6z" fill="#3a4838"/><g fill="#fff"><path d="M241.41 55.3a96.054 96.054 0 006.9-31.3h-3q-.6 42.9-1.1 85.7a1.5 1.5 0 003 0q.6-42.9 1.1-85.7c0-1.9-2.9-1.9-3 0a91.884 91.884 0 01-6.8 30.5c-.7 1.8 2.2 2.5 2.9.8zm44.7-1.7a16.978 16.978 0 01-2.3-13.7c1.5-5.5 8.6-12.4 13.3-5 4 6.4.1 17.6-1.9 24.2a96.056 96.056 0 01-24 40.3 1.512 1.512 0 00.7 2.5c12.8 4.8 27.7 9.5 39.9.7 1.6-1.1.1-3.7-1.5-2.6-11.6 8.3-25.6 3.5-37.6-1a23.346 23.346 0 00.7 2.5 100.692 100.692 0 0019.7-28.3c4.5-9.8 8.9-21.8 8.5-32.8-.3-7.7-7.1-15.3-14.9-10-7.9 5.4-7.8 17.1-3.2 24.6 1 1.7 3.6.2 2.6-1.4zm47.1-20.2a149.264 149.264 0 0130.6 1.6c-.3-.7-.6-1.5-.9-2.2a81.684 81.684 0 01-20.2 18.7 1.5 1.5 0 001.5 2.6c7.5-3.7 15.6 1.1 19.1 8.1 3 6.1 3.2 13.5 1.9 20-1.3 6.4-4.6 12.7-10.4 16.2-6.2 3.7-14.4 3.7-19.9-1.2-1.4-1.3-3.6.8-2.1 2.1 5.8 5.2 14 6 21 2.9 8.3-3.6 13-12.1 14.5-20.7 1.4-8.3.5-18-4.9-24.8-5-6.2-13.4-8.7-20.7-5.2.5.9 1 1.7 1.5 2.6a84.908 84.908 0 0021.3-19.7 1.469 1.469 0 00-.9-2.2 157.182 157.182 0 00-31.4-1.7 1.451 1.451 0 100 2.9zm81.1-4.4a143.815 143.815 0 01-5.2 23.4c-1.2 4.2-.6 5.7 3.9 6.1 7.9.7 15.9.9 23.9 1.4 2.4.1 11.3 2.5 11.9-1.6.3-1.9-2.6-2.7-2.9-.8 0 .2-28.3-1.6-30.9-1.9a5.866 5.866 0 01-2.3-.4c-1.3.2-1.7-.2-1-1.2-.1-.9.9-2.7 1.2-3.6.7-2.4 1.4-4.8 2-7.3a137.9 137.9 0 002.5-14.3c.1-1.7-2.9-1.7-3.1.2z"/><path d="M432.91 34.5c.7 21.2 1.7 42.5 2.9 63.7.1 1.9 3.1 1.9 3 0-1.2-21.2-2.1-42.4-2.9-63.7-.1-1.9-3.1-1.9-3 0zm26.8-4.8c5.5-.8 10.8 0 16.3.5a55.425 55.425 0 007.1.3c.8 0 5.4-1 6-.7a15.986 15.986 0 01-.5-2.1c-.1.1-.1.2-.2.3a15.979 15.979 0 012.1-.5.349.349 0 01-.2-.1c-1.7-.8-3.3 1.7-1.5 2.6a.349.349 0 01.2.1 1.715 1.715 0 002.1-.5c.1-.1.1-.2.2-.3a1.6 1.6 0 00-.5-2.1c-1-.6-1.7-.3-2.8-.2a65.892 65.892 0 01-10.9.3c-6.1-.5-11.9-1.4-18-.5-2.1.3-1.3 3.2.6 2.9z"/><path d="M457.41 28.4a89.286 89.286 0 016.1 23.2 1.471 1.471 0 001.9 1.4c6.2-2.1 12.3-2 17.2 2.8 4.6 4.6 5.9 11.2 4.9 17.5-.8 5.6-3.1 12.9-8.8 15.2-6.6 2.7-13.5-.9-19.3-4-1.7-.9-3.2 1.7-1.5 2.6 6.6 3.5 14.5 7.4 22 4.2 6.7-2.8 9.6-11 10.6-17.6 1.1-7.2-.6-14.7-5.8-20-5.6-5.6-12.8-6.1-20.1-3.6a23.075 23.075 0 001.9 1.4 94.217 94.217 0 00-6.2-24c-.8-1.7-3.7-.9-2.9.9zm64.7-1.7a48.676 48.676 0 00-20.4 31.4c-1.7 9.4-1.8 26.4 8.8 30.9s19-9.9 15.1-18.9c-3.7-8.5-21.1-9.6-23.8.3a1.504 1.504 0 002.9.8c1.4-5 8.9-5.4 13-4.2 6.2 1.8 7.1 9.1 4.4 14.2-3.3 6.2-10.5 7.4-14.6 1.3-2.4-3.5-3.2-7.8-3.6-11.9a46.113 46.113 0 0119.6-41.4c1.7-1 .2-3.6-1.4-2.5zm58.8 11.5c-.3-.7-2.1-4.2-1.7-5.5-.4-1.3.3-1.6 1.9-1h2c3.3-.1 6.5-.1 9.8-.2 6.5-.1 13-.3 19.6-.4-.4-.8-.9-1.5-1.3-2.3a219.944 219.944 0 00-21.2 71c1-.1 2-.3 2.9-.4l-.3-2.1c-.3-1.9-3.2-1.1-2.9.8l.3 2.1c.3 1.8 2.8 1.1 2.9-.4a217.254 217.254 0 0120.8-69.5 1.55 1.55 0 00-1.3-2.3c-10.7.2-21.5.2-32.3.7-6.7.3-3.8 6.6-1.9 11 .8 1.8 3.4.2 2.7-1.5z"/><path d="M584.61 68.7a49.821 49.821 0 0026.8-1.1c1.8-.6 1-3.5-.8-2.9a46.925 46.925 0 01-25.2 1.1 1.504 1.504 0 00-.8 2.9zm74.7-36.4c-4.9 10.9-9.7 21.8-14.6 32.7-2.3 5.2-4.6 10.3-6.9 15.5-2.2 4.9-3.9 11.2-7 15.6-1.1 1.6 1.5 3.1 2.6 1.5 2.8-4.1 4.5-10.1 6.6-14.7 2.4-5.5 4.9-10.9 7.3-16.4 4.9-10.9 9.7-21.8 14.6-32.7.8-1.7-1.8-3.2-2.6-1.5z"/><path d="M660.41 31.7c-6.1-6.1-15.8-1.4-21.7 2.7-7 4.8-12.4 13.3-9 22 3.8 9.9 14.8 12.6 21.9 19.3 5.7 5.3 8.3 13.8 1.2 19.2-5.9 4.5-13.7 3.5-20.6 2.2-1.9-.4-2.7 2.5-.8 2.9 8.5 1.6 18.2 2.5 24.9-4.2 5.8-5.8 4.7-14.1-.3-20-6.7-8.1-20.7-10.6-23.8-21.6-2.1-7.3 3.1-13.9 8.8-17.7 4.5-3 12.7-7.5 17.5-2.8 1.1 1.5 3.2-.6 1.9-2zm40.4 3.3c5.5-5.4-1.1-12-7.2-12-7.4.1-18.3 5-20.2 12.8-1.7 7.1 4.9 13.7 11.9 13.9 8.6.2 14.1-8 15-15.7-1 .1-2 .3-2.9.4a136.211 136.211 0 011.8 40.8c-.7 6-1.8 14.4-8.7 16.5-8 2.4-14.5-4.6-18.3-10.6-1-1.6-3.6-.1-2.6 1.5 3.8 5.9 8.9 11.7 16.3 12.4 6.5.6 11.5-2.9 13.9-8.8 3-7.3 3-16.4 3-24.1a143.358 143.358 0 00-2.7-28.5c-.3-1.8-2.8-1.1-2.9.4-.6 5.3-3.7 10.7-9.1 12.3-5 1.5-11.1-1.8-11.9-7.2-.8-5.2 4-8.6 8.2-10.6a31.134 31.134 0 016.5-2.2 10.993 10.993 0 015.1-.1c3.3 1.1 4.1 3.3 2.5 6.6-1.2 1.4.9 3.6 2.3 2.2z"/></g><path d="M887.11 17.7a59.516 59.516 0 00-11.1 11.9 56.461 56.461 0 00-6.7 12.7c3 1.4 9.4 4.9 10.7 11.1 1.5 6.8-4.1 13-11.5 21a102.831 102.831 0 01-23.4 18.6 20.277 20.277 0 01-18.2-10.7 65.081 65.081 0 00-28.2 16.6c1.4 3.2 5.6 12 15.1 15.8 3.7 1.5 8.4 2.3 17.1.8 8.8-1.5 20.7-5.1 34.8-14.7a110.263 110.263 0 0032.9-34.5c7-11.9 12-20.4 9.1-30.1-3.7-12.1-17.5-17.4-20.6-18.5zm-60 43.4a47.51 47.51 0 0121.4-16.7c1.8-.7 1-3.6-.8-2.9a51.02 51.02 0 00-23.2 18.1c-1.2 1.6 1.4 3.1 2.6 1.5zm-16.5 1.8a63.8 63.8 0 0142.8-35.4 1.504 1.504 0 00-.8-2.9 66.9 66.9 0 00-44.6 36.7c-.8 1.9 1.7 3.4 2.6 1.6z" fill="#161616"/><path d="M796.71 66.1c2.3-13.8 9.8-25.9 20.5-35 10.2-8.7 25.9-18.1 39.8-16.3 1.9.2 1.9-2.8 0-3-14.2-1.8-30 7.5-40.7 16.1-11.6 9.4-20 22.5-22.5 37.3-.3 2 2.6 2.8 2.9.9z" fill="#161616"/><path d="M455.41 866.4c.4 13 .7 26 1.1 39q-61.95 18.3-60.9 24 1.35 7.2 99.3-4.8c-1.4-22.2-2.8-44.5-4.3-66.7-11.7 2.8-23.4 5.6-35.2 8.5z" fill="#161616" stroke="#161616" stroke-miterlimit="10" stroke-width="2"/><path d="M586.11 610.1c-6 1.8-4.7 2.5-37.1 27.4-34.3 26.3-51.4 39.5-63.3 46.2-6.9 3.9-12.5 6.7-19.4 13.1-11.4 10.7-17.2 22.9-21.7 34.8-14 37.1-16.1 72.6-16.5 88.4a355.9 355.9 0 003.4 59.9 119.846 119.846 0 0026.2 3.4c11.1.2 26.9.4 43.3-8a81.155 81.155 0 0010.8-6.8 298.5 298.5 0 01-4-63.3 305.222 305.222 0 016.8-51.9 190.686 190.686 0 0123.9-15.4c12.1-6.5 24.2-11.3 57.6-21.1 40-11.7 41.4-10.4 47.3-15.4 15.3-12.8 26.3-38.6 17.7-61-11.2-29.5-50.6-37.4-75-30.3z" fill="#fff"/><g fill="#161616"><path d="M570.71 620.2c-18.5 12.9-36.9 25.9-55.4 38.8-16.4 11.5-34 22.3-49 35.8-14.4 12.9-22.4 29-27.6 47.4a349.8 349.8 0 00-11.3 62.6 355.246 355.246 0 001.1 72.9c.2 1.9 3.2 1.9 3 0a351.279 351.279 0 017.3-123.9c4.7-19.5 10.9-38.3 25.4-52.8 14-14 31.6-24.6 47.7-35.9l60.3-42.3c1.6-1.1.1-3.7-1.5-2.6zm56.7 84.8c-22 6.3-43.7 13.3-65.1 21.3-9.4 3.5-19 7-28.2 11.1-7.6 3.4-14.7 7.7-19.1 15a1.5 1.5 0 002.6 1.5c4.8-8.1 13.4-12.1 21.7-15.5 9.6-3.9 19.3-7.6 29.1-11.2q29.55-10.8 59.7-19.3c1.9-.5 1.1-3.4-.7-2.9z"/><path d="M516.31 737.4a332.472 332.472 0 00-5.6 129.9c.3 1.9 3.2 1.1 2.9-.8a328.1 328.1 0 015.6-128.3c.4-1.9-2.5-2.7-2.9-.8z"/><path d="M429.81 877.6c.5 5.6 9.2 4.7 13 5.1a182.862 182.862 0 0027.7 1.1c15-.8 29.7-5 41.5-14.6 1.5-1.2-.6-3.3-2.1-2.1-10.1 8.2-22.6 12.2-35.4 13.4a130.887 130.887 0 01-19.8.2c-2.4-.1-21.7-.6-21.9-3.1-.2-1.9-3.2-1.9-3 0z"/></g><path d="M626.51 671.3c-13.8-7-29.6 10.9-68.6 28.7-31.9 14.6-39.8 11-52.3 18.6-22 13.3-41.5 51.2-27.5 161.3a52.611 52.611 0 0033.2-11.8 304.8 304.8 0 01-2.2-81 291.13 291.13 0 016.2-36.5 313.958 313.958 0 0143.3-20.8c46.1-18.1 74.7-17 79.3-33.2 2.4-9.1-3.2-21.2-11.4-25.3z" fill="#666" opacity=".11"/><path d="M616.41 708.4c-.5-2.7-32.9-1.3-66.9 10.1-21.7 7.2-33.5 11.2-43.8 22.5-16.4 17.8-17.3 40.7-18.6 72.5a262.755 262.755 0 005.1 63c6.6-2.1 13.1-4.1 19.7-6.2a358.638 358.638 0 01-2.8-66.3 362.571 362.571 0 016.2-50.6 83.16 83.16 0 0113.5-11.8c13.5-9.5 25.4-11.9 39.4-15.7 18.1-5.1 48.7-14.9 48.2-17.5z" fill="#666" opacity=".12"/><path d="M784.11 798.3a398.247 398.247 0 0153.8-13.5c19.3-3.4 23.8-2.7 27.4 0 6.2 4.6 4.9 11.4 7.2 53.8.8 13.9 1.2 17.4-1.6 21.7-9.5 15.1-41.1 14.4-43.5 7.8-.9-2.6 2.1-7.4 17.1-17.1-.5-9.5-1-19-1.6-28.5-17.1 4.1-34.2 8.3-51.2 12.4-2.4-12.1-5-24.3-7.6-36.6z" fill="#161616" stroke="#161616" stroke-miterlimit="10" stroke-width="2"/><path d="M609.41 626.1c-6.6 15.5-1.9 32.1.3 39.9 2.5 9 4.9 10.2 8.9 22.3 4.3 13 5.6 22.4 7.4 33.7 2.6 16.5 5.6 35.3 10.3 54.1 5.8 23.2 9 35.1 18.6 48 4.2 5.7 14.1 18.5 31.5 25.3 3.3 1.3 7.7 2.7 18.6 4.1 12 1.6 30.6 4 55.2 1a200.72 200.72 0 0051.6-13.4 66.192 66.192 0 002.1-22.7c-.6-6.4-1.6-18.3-10.3-28.4-2.5-2.9-6.2-7.1-12.4-9.3-6.8-2.3-12.9-.8-23.7 2.1-12.5 3.3-17.1 6.9-25.3 5.2a22.925 22.925 0 01-7.7-3.1 111.312 111.312 0 01-8.8-16.5c-8.1-18.8-8.7-33.9-9.8-50.5-2.5-37.4-3.8-56.1-9.8-76.8-6.3-21.7-8.1-32.6-17.5-39.2-9.7-6.8-20.7-6.3-27.5-6-16.7.7-42.5 8.7-51.7 30.2z" fill="#fff"/><g fill="#161616"><path d="M693.41 608.8c16.4 34.4 17.7 73 21.3 110.2 2.6 26.9 4.9 63.8 32.2 78 1.7.9 3.2-1.7 1.5-2.6-14-7.3-21-21.7-24.9-36.4-4.2-16.1-5.3-33-6.7-49.6-3-34.4-5.7-69.5-20.7-101.2-.9-1.7-3.5-.2-2.7 1.6z"/><path d="M612.11 677.3c17.6 39.9 13.2 85.4 30.3 125.4 6.8 16 17 31 31.5 40.9 17.6 11.9 40.5 14.3 61.2 14 26.1-.4 51.8-6.4 76-15.9 1.8-.7 1-3.6-.8-2.9-21.1 8.3-43.3 14-66 15.4-21.6 1.4-46.2.3-65.3-10.9-33.5-19.7-42.4-62-47.8-97.3-3.6-23.9-6.8-48-16.7-70.3-.6-1.6-3.2-.1-2.4 1.6z"/><path d="M732.61 785.4c18.1 10.6 38.8-9.8 57.9-3.6 10.6 3.5 15.8 14.9 18.7 24.9a68.72 68.72 0 011.4 33.1c-.4 1.9 2.5 2.7 2.9.8a75.52 75.52 0 00-.5-31.4c-2.3-9.4-6.3-20.1-14.2-26.3-7.3-5.8-17-5.9-25.8-4.2-11.8 2.3-27.3 11-38.9 4.2a1.458 1.458 0 10-1.5 2.5z"/></g><path d="M678.61 607.5c-16.8 16.5 17.1 52.8 17.7 113.8.5 47.7-10.8 67.5 4.4 83.5 21.8 22.9 71.1 9.7 76.5 8.2 8.6-2.4 27-5.9 28.5-15.2.9-6.1-5.5-13-12-16.4-19.8-10.5-38.3 12.7-55.7 5.1-13.1-5.8-16-25-21.5-60.7-4.5-29.3-1.7-35.5-7-67.7-3.9-23.7-8.9-53.3-20.9-55-4.8-.8-9.2 3.5-10 4.4z" fill="#666" opacity=".11"/><path d="M705.81 646.7c-1.6.1-1.7 19.3-1.9 43-.5 67.3 3.3 81.6 12 94.2 3.6 5.2 10.4 14.8 22.8 20.2 27.4 12.1 63.8-3.8 63.9-13.9 0-5.1-9.3-8.9-10.8-9.5-9.5-3.8-16.8-.1-36.1 3.2-8 1.4-14.8 2.1-19.6 2.5a89.525 89.525 0 01-12.6-20.9c-7.7-17.7-7.1-32.1-7.6-47.4-1.1-37.8-8.1-71.5-10.1-71.4z" fill="#666" opacity=".17"/><path d="M334.21 480c.2-2.3 5.5-3.5 8.7-4.2 13.1-2.9 24.4-.7 27.4.5 5.6 2.2 11.2 4.4 16.9 6.6a14.434 14.434 0 014.1-8c5.2-4.7 12.6-2.9 14.6-2.3 2.6.7 6.7 2.3 13.7 9.9 7.2 7.8 8.2 11.8 12.3 16.9 9.5 11.8 23.8 14.9 31 16.4 6.3 1.4 19 4.1 33.3-1.9 12.6-5.3 19.7-14.6 22.8-18.8 3-4.1 4-6.5 10-20.2 12.2-27.9 16.1-36.5 24.6-45.1 4.6-4.7 10.2-10.2 16-8.9 7.1 1.6 10.1 12.7 11.4 17.4 1.4 5.2 3.2 15.1-.9 32.4-1.4 6-6.2 23.7-20.1 43.2-5.8 8.2-13.9 19.3-28.3 28.7-6.3 4.1-16.6 10.7-31.5 12.7-13.2 1.8-23.3-.9-31.9-3.3a113.474 113.474 0 01-42-22.1c-10.7.5-18.9 1.2-24.6 1.9-9.7 1.1-13.8 2-18.2-.5-1.5-.9-3.7-2.5-6.8-2.3-2.9.2-3.9 1.8-6.4 2.3-2.8.6-7.4.1-10-3.3a10.4 10.4 0 01-1.8-7.2 18.959 18.959 0 01-5.7-8.5 24.753 24.753 0 01-.8-8c.1-3.2.1-4.8.9-6.1 2.3-4 8.9-3.8 9.9-3.7a33.081 33.081 0 00-7.9-4.4c-6.2-2.5-9.5-1.7-15.2-4.8-2.3-1.4-5.7-3.3-5.5-5.3z" fill="#fff"/><g fill="#161616"><path d="M570.51 419.6c-8.7-3.3-15.2 4-19.8 10.5a193.482 193.482 0 00-17.8 30.9c-9.4 20.6-15.8 44.6-35.1 58.4-1.6 1.1-.1 3.7 1.5 2.6 15.6-11.3 23.4-29 30.5-46.3a255.3 255.3 0 0114.5-30.3c2.8-4.7 5.7-9.4 8.9-13.8 3.8-5.3 8.9-11.9 16.4-9.1 1.9.7 2.7-2.2.9-2.9z"/><path d="M395.61 484.7c-4.3 1.4-6-3.9-4.7-6.8 1-2.3 3.6-3.5 5.8-4.2a18.638 18.638 0 0112.9 1.5c6.5 3.2 10.2 9.7 14.2 15.5a65.951 65.951 0 0027.6 23.4 59.582 59.582 0 0066.1-12.8c1.4-1.4-.8-3.5-2.1-2.1a56.417 56.417 0 01-45.3 16.8c-17.2-1.6-32.8-11.6-42.8-25.5-7.4-10.5-16.7-24.6-32-19.5-4.3 1.4-8.5 5.2-7.8 10.1.6 4.4 4.6 7.9 9 6.4 1.7-.5.9-3.4-.9-2.8zm-10.4-4.1c-8-4-16.4-7.1-25.3-8-7.8-.8-18.7-.5-25.1 4.8-5.8 4.8 1.8 7.9 5.9 9.6 9.4 3.9 20 5.1 29.1 9.8 1.7.9 3.2-1.7 1.5-2.6-5.6-2.9-11.6-4.3-17.6-6-3.2-.9-6.3-1.9-9.4-3.1-1.7-.6-5.1-1.3-6.4-2.7-2.3-2.4.6-3.9 2.8-4.7 13.9-5.7 30.3-.9 43.1 5.5 1.6.8 3.1-1.8 1.4-2.6z"/><path d="M369.11 494.9a13.324 13.324 0 00-14-.2c-3.5 2.1-6.4 6.7-4.8 10.8 1.8 4.7 8.8 5.2 12.9 6 6.3 1.1 12.3 1.1 18.1-1.8 1.7-.9.2-3.5-1.5-2.6-6.5 3.3-13.7 2.1-20.6.5-2.7-.6-2.8-.5-4.5-3.4-2.2-1.8-2.1-3.7.1-5.5.6-.5 1.2-.9 1.8-1.4a10.611 10.611 0 0111 .2c1.6 1 3.1-1.6 1.5-2.6z"/><path d="M351.91 507.2c-2 5.5.6 11.2 5.7 13.9 6.6 3.5 14.1.9 20.4-1.6 1.8-.7 1-3.6-.8-2.9-4.2 1.7-8.8 3.5-13.4 3.1-6-.5-11.3-5.4-9-11.7.6-1.8-2.3-2.6-2.9-.8z"/><path d="M356.61 519.8c-1.8 5.6 2.7 10.3 7.8 11.8 7.5 2.1 13.5-2.1 18.9-6.8 1.5-1.3-.7-3.4-2.1-2.1-3.4 2.9-6.9 6-11.5 6.4s-12.2-2.4-10.2-8.5c.6-1.8-2.3-2.6-2.9-.8zm17.4-19.6c3 1 7.6 3.7 5.2 7.4-1 1.6 1.6 3.1 2.6 1.5a6.675 6.675 0 00-.2-7.3c-1.5-2.4-4.2-3.7-6.9-4.5-1.8-.6-2.6 2.3-.7 2.9z"/><path d="M378.31 510.4a4.11 4.11 0 01-1.8 6.8 1.506 1.506 0 00.8 2.9 7.209 7.209 0 003.2-11.9 1.561 1.561 0 00-2.2 2.2z"/><path d="M379.71 517.8a3.61 3.61 0 01.7 5.6c-1.4 1.3.7 3.5 2.1 2.1a6.582 6.582 0 00-1.3-10.3c-1.6-.9-3.2 1.7-1.5 2.6zm3.5-34.8c2.2 1 4.4 2.1 6.6 3.1 1.7.8 3.3-1.8 1.5-2.6-2.2-1-4.4-2.1-6.6-3.1-1.7-.8-3.2 1.8-1.5 2.6zm13.6 4.6a9.124 9.124 0 018.1-2c1.9.4 2.7-2.5.8-2.9a12.269 12.269 0 00-11 2.8c-1.5 1.3.6 3.4 2.1 2.1zm1.7 3.6a18.7 18.7 0 008 22 1.5 1.5 0 001.5-2.6 15.666 15.666 0 01-6.6-18.6c.6-1.9-2.3-2.7-2.9-.8zm-21.1 38.3c6 4.3 12.5 5.2 19.6 3.8 9.9-1.8 19.4-2.7 29.5-1.6 1.9.2 1.9-2.8 0-3a87.345 87.345 0 00-23.4.4c-8.9 1.4-16.2 3.5-24.2-2.2-1.6-1.1-3.1 1.5-1.5 2.6z"/><path d="M423.91 530.4c14.3 6.8 27.5 15.9 42.3 21.5a72.379 72.379 0 0042.7 2.6c14.6-3.6 26.4-12.2 36.7-22.9 10.7-11 20.3-23.4 27.1-37.3 8-16.2 11.9-34.2 9.9-52.2-.2-1.9-3.2-1.9-3 0 2.2 19.8-2.9 39.5-12.7 56.7-9.1 16-22 32-37.1 42.8-15.2 10.8-34.9 14.4-53.1 10.3-18.6-4.2-34.3-16.1-51.4-24.2-1.6-.7-3.1 1.9-1.4 2.7z"/></g><path d="M574.51 431.2c-3.9.2-3.4 16.8-8.1 33.8-6.9 24.6-26.7 56.9-55.8 66.8-20.6 7-41.4 1.2-74.5-8.1-10.5-2.9-29-9-54.6-10.6-21.1-1.3-26.3 1.7-26.5 3.3-.1 1 1.8 1.7 2.9 4.9.9 2.7-.1 3.6.8 5.3 1.6 3.1 6.4 3.5 8.1 3.7a17.276 17.276 0 009.4-2 40.334 40.334 0 008.6 2.9c7.2 1.5 11.3.1 20.4-.8 9.4-.9 15.6-1.5 22.4.4 6.5 1.8 9.5 4.8 15.1 8.6 1.7 1.1 17.7 11.8 37.5 15.1 6.2 1 20.4 3.2 36.2-2.9 9-3.4 14.7-8.1 21.2-13.4 4.1-3.4 22.4-19 35.8-48.1 5.9-12.7 10.7-23.4 9.4-37.5-1.1-10.3-5-21.6-8.3-21.4z" fill="#666" opacity=".16"/><path d="M383.11 520.8c4.8-2.4 10.4-.4 12.6.4 12.5 4.3 13.7 1.3 32.6 4.1 15.6 2.3 16.2 6.8 36.7 13.4 19.7 6.4 35.6 11.5 51.3 6.5 22.3-7.1 32.6-29.6 33.4-28.9.8.6-8.2 22.4-29.7 32.6-19.5 9.3-39.8 4.6-45.6 3.3-9.4-2.2-17-5.8-25.3-9.8a187.084 187.084 0 01-22.8-13 91.105 91.105 0 00-16.3.8c-9.3 1.4-13.2 3.5-20.8 2.4-2-.3-10.3-1.5-11-5.3-.4-2.5 2.3-5.2 4.9-6.5z" fill="#666" opacity=".17"/><path d="M560.01 423.4c-2.7 3.3-6.2 8.8-8.8 52.5-1.4 24.2-2.8 49.6-.7 86.9.9 15.2 2.6 36 6.1 60.6a134.61 134.61 0 0058.6 17.5c43.3 2.6 74.9-17 85.5-24.2a206.576 206.576 0 01-17.5-48.5c-5.8-26-3-37.5-6.1-69.4-4.1-42.2-6.1-63.3-18.9-76.1-24.5-24.6-78.3-23.8-98.2.7z" fill="#ec615b"/><g fill="#666"><path d="M614.51 405.4a208.923 208.923 0 0123.4 46.7c3.1 8.9 18.5 54.7 7.3 113.6a231.709 231.709 0 01-28.4 75.1 136.684 136.684 0 0026.6-.9 134.924 134.924 0 0057.7-22.5 175.14 175.14 0 01-12.4-28.4 195.357 195.357 0 01-7.3-32.5c-1.8-12.4-1.5-16.5-2.7-36.7-.3-4.7-1.5-23.8-4.1-45.8-3.8-32.2-6.7-39.2-11.5-45.4-6.8-8.8-15.4-13.5-19.2-15.6a69.23 69.23 0 00-29.4-7.6z" opacity=".22"/><path d="M674.71 480.5c-1.5 16.2-3.5 32.9-5.9 50.1a1050.367 1050.367 0 01-21.1 108 106.508 106.508 0 0053-22.6c-13.3-23.4-17.9-43-19.6-57-1.7-14.1-1.1-27.7-4.4-60.9-.8-7.4-1.5-13.5-2-17.6z" opacity=".22"/></g><path d="M519.21 304.4c-2 4.9-1.9 10.7-1.9 22.4 0 8.3.1 19.9 4.4 33.6 3.3 10.6 6.5 21.2 16.4 30.6 2.8 2.7 14.9 14.2 32 14.2a37.665 37.665 0 007.9-.8 34.623 34.623 0 005.7 11.5 35.914 35.914 0 004.9 5.2 28.118 28.118 0 0014.8-4.4 27 27 0 009.8-11.2c-1.8-1.8-6.5-7.1-6.8-14.8a22.91 22.91 0 01.5-5.5 78.816 78.816 0 009.8-16.4c1.5-3.3 2.6-6.4 3.6-9.3a10.856 10.856 0 007.4-.5c3.1-1.6 4.2-4.7 5.5-8.5 1.9-5.6 4-11.9 1.4-17.5-2.5-5.3-6.4-4.1-9.8-9-5.2-7.3-.1-14.7-2.2-22.7-3.2-12.3-21-17.6-27.9-19.7-28.3-8.4-66.7 1-75.5 22.8z" fill="#fff"/><path d="M516.61 318.8c2.5.4 4.1-3.5 8-7.4 4-3.9 10.7-8 22.7-9.1 9.8-1 19.6-2.1 29.4-3.1a34.253 34.253 0 0117.3 5.9 35.289 35.289 0 0110.3 11.4c3.1.1 6.1.3 9.2.4.6 3.7 1.3 7.4 1.9 11.1.4-.4 5.8-5.2 11.4-3.4 4.5 1.4 6.4 6.2 7.2 8.4 2.5 6.1.8 11 2.3 11.4 1.8.6 5.3-6 5.7-6.9a44.47 44.47 0 004.6-16.8c.6-7.5 1-12.5-1.9-17.2-1-1.6-2-2.6-2.3-4.6-.5-3.8 2.5-5.9 4.2-9.5.9-1.9 1.1-3.7-1.5-17.5-2.8-14.8-3.8-16.8-5.3-17.2-2-.4-3.8 2.3-6.1 4.6-4 4.1-10.9 8.6-23.7 10.3a54.976 54.976 0 00-1.1-10.7c-.9-4-1.4-4-4.6-13.4-1.8-5.3-2.2-7.5-3.4-7.6-2-.2-2.7 4.9-7.4 6.7-2.1.8-2.9.1-5.7.5-2.5.3-5.9 1.4-9.8 4.7a159.843 159.843 0 01-16 9.2c-11.1 5.6-14.8-.5-26.3 4.6-8.6 3.8-13.8 10.6-16 13.7s-8.4 12.1-8.4 24.5c-.2 7.1 1.8 16.5 5.3 17z" fill="#5222d0"/><path d="M516.71 322.8a95.83 95.83 0 008.3 49.8c6.1 13.1 15.8 26.1 29.8 31.3 14.3 5.3 30.7 1.4 42.6-7.6 12.1-9.2 19.7-22.9 24.2-37.2.6-1.8-2.3-2.6-2.9-.8-4.3 13.6-11.5 26.7-23 35.5-11.9 9-28.6 12.8-42.5 6.2-12.5-5.9-20.9-18.2-26.3-30.5a92.427 92.427 0 01-7.2-46.7c.2-1.9-2.8-1.9-3 0z" fill="#161616"/><path d="M617.51 330.3c1.4-6.1 8.5-5.9 12.1-2 3.1 3.2 3.8 7.9 3.9 12.2.2 7.2-2.4 20.5-12.7 17.2-1.8-.6-2.6 2.3-.8 2.9 14.6 4.7 17.8-15.6 16-25.4-1.1-5.7-4.8-11.8-11.1-12.6a9.283 9.283 0 00-10.3 7.1c-.4 1.6 2.5 2.4 2.9.6zm-63.7-6.3c-2.3 4.8-4.6 9.5-6.8 14.3-1.1 2.5-2.3 5-2.1 7.9.5 5.9 5.7 9.8 11.1 11.1a1.504 1.504 0 00.8-2.9c-6.5-1.6-10.5-6.8-7.7-13.4 2.2-5.2 4.8-10.3 7.3-15.5.8-1.7-1.8-3.2-2.6-1.5zm-14.6 13.1a4.721 4.721 0 01-1.1-2.5 2.855 2.855 0 010-1.3c0-.3.5-1.2.5-1.4-.2 0-.3.1-.5.1a2.769 2.769 0 01.1.9v1.5a11.8 11.8 0 01-.9 3.7 23.346 23.346 0 002.5-.7 3.52 3.52 0 01-1.3-3.2c.2-1.9-2.8-1.9-3 0a6.047 6.047 0 002.2 5.3 1.512 1.512 0 002.5-.7 14.089 14.089 0 00.9-7.3c-.3-1.7-1.7-3.4-3.5-2.6-1.7.7-2.4 3.1-2.4 4.9a7.809 7.809 0 002.1 5.4c1.1 1.5 3.2-.7 1.9-2.1zm38.2-1.5a6.351 6.351 0 01-.5-2.3 5.021 5.021 0 01.2-1.2c0-.1.1-.3.1-.4.2-.3.1-.3-.4 0 0 .1.2.6.2.8a4.87 4.87 0 01-.1 1.2 6.589 6.589 0 01-1.1 2.4l2.4.3a4.364 4.364 0 01.2-5.4l-2.4.3a2.441 2.441 0 01-.9 3.6c.7.3 1.5.6 2.2.9a9.381 9.381 0 01-.6-2.4c0-.5.1-1 .1-1.5 0-.2.1-.3.1-.5-.3-.4-.4-.5-.2-.2a4.494 4.494 0 01.4 2.3c0 .4-.2 1-.2 1.3 0 .2-.1.3-.1.5.7-.1.8-.3.4-.7-1.1-1.6-3.7-.1-2.6 1.5s3.5 3 4.8.7a8.541 8.541 0 000-7c-1.1-1.9-3.7-2.5-5-.4-1.2 2-.9 5-.1 7.1a1.546 1.546 0 002.2.9 5.408 5.408 0 001.5-8.3 1.58 1.58 0 00-2.4.3 7.377 7.377 0 00-.2 8.4 1.572 1.572 0 002.4.3c1.8-2.3 3.7-7.7.1-9.4a2.56 2.56 0 00-3.5 1.8 7.752 7.752 0 00.1 5.8c.8 1.8 3.7 1.1 2.9-.7zm-32-16.8a11.009 11.009 0 00-15.3 3.3c-1 1.6 1.6 3.1 2.6 1.5a8.048 8.048 0 0111.2-2.3c1.6 1.1 3.1-1.5 1.5-2.5zm27.6.8c4.6-3.9 11.7-2.7 13.8 3.2.6 1.8 3.5 1 2.9-.8-2.9-8.1-12.5-10-18.8-4.5-1.4 1.2.7 3.3 2.1 2.1zm3.7 85.9a32.541 32.541 0 009.2 15.4c1.4 1.3 3.5-.8 2.1-2.1a29.2 29.2 0 01-8.4-14.1c-.6-1.9-3.5-1.1-2.9.8zm27.6-18.5a41.182 41.182 0 007.1 18.4c1.1 1.6 3.7.1 2.6-1.5a37.184 37.184 0 01-6.7-16.9c-.2-1.8-3.2-1.9-3 0z" fill="#161616"/><path d="M586.11 421.4c10.8 3.7 23.2-5 27.2-14.9.7-1.8-2.2-2.6-2.9-.8-3.4 8.4-14.5 15.9-23.5 12.8-1.8-.6-2.6 2.3-.8 2.9zm-7.6-14.3a33.734 33.734 0 0018.7-9.8c1.3-1.4-.8-3.5-2.1-2.1a31.68 31.68 0 01-17.4 9.1c-1.9.3-1.1 3.1.8 2.8z" fill="#161616"/><path d="M580.21 409.1c8.4-2.4 17.9-9 21.7-17 .8-1.7-1.8-3.3-2.6-1.5-3.5 7.3-12.2 13.5-20 15.7-1.8.5-1 3.3.9 2.8z" fill="#161616"/><path d="M517.21 311.4c-5.7-6.7-3.4-18.7-.6-26.3 3.4-9.3 10.1-16.3 19.8-19 8.5-2.4 17.6-2.1 25.9-5.3 9.2-3.6 15.9-13.5 26.5-12.8 1.9.1 1.9-2.9 0-3-12.1-.8-19.5 10.8-30.4 13.9-10.5 3.1-22.2 2-31.7 8.1-7.5 4.8-12.2 12.9-14.3 21.4-2.1 8.1-3.2 18.4 2.6 25.1 1.3 1.5 3.5-.6 2.2-2.1z" fill="#5222d0"/><path d="M549.21 300.1a29.251 29.251 0 015.1-20.5c4.8-6.7 12.1-9.7 19.3-13.1 6-2.8 11.5-6.3 15.8-11.4 4.2-4.8 6.3-11.9 11.6-15.6a15.983 15.983 0 00-2.1-.5c5 11.7 15 26 6 38.4-1.1 1.6 1.5 3.1 2.6 1.5 9.7-13.4-.6-28.7-6-41.4a1.468 1.468 0 00-2.1-.5c-5.8 3.9-7.8 10.9-12.3 16-5.9 6.9-13.6 10-21.5 13.8-13 6.3-21.3 18.5-19.6 33.3.4 1.9 3.5 1.9 3.2 0z" fill="#5222d0"/><path d="M577.51 298.7a54.391 54.391 0 0129.7-25.7c6-2.1 12.3-3.3 18-6.2a48.009 48.009 0 0014.3-11l-2.4-.3c3.7 7.9 7.2 16.8 7.9 25.5.7 9.4-4.5 16.6-10.2 23.5-1.2 1.5.9 3.6 2.1 2.1 5.7-7 11.3-14.4 11.1-23.8-.2-9.9-4.3-20-8.4-28.8a1.5 1.5 0 00-2.4-.3 47.339 47.339 0 01-18.6 12.6c-6.1 2.2-12.5 3.4-18.4 6.3a57.753 57.753 0 00-25.5 24.6c-.7 1.7 1.9 3.2 2.8 1.5z" fill="#5222d0"/><path d="M640.51 299.3a41.294 41.294 0 01-3.3 43.3c-1.1 1.6 1.5 3.1 2.6 1.5a44 44 0 003.3-46.3c-.9-1.7-3.5-.2-2.6 1.5z" fill="#5222d0"/><path d="M603.31 315.5a172.211 172.211 0 010 20.5c-1 15.2-1.8 28.3-8.5 40.6-8.4 15.3-22.8 23.3-32.4 27.3a54.749 54.749 0 0020.5-2.7 53.581 53.581 0 0015.7-8.2c1.9 7.5 3.9 15 5.8 22.5 3-3.6 5.9-7.3 8.9-10.9-2.6-5.2-5.2-10.5-7.8-15.7 2.1-3.4 4.1-7 6.1-10.9a181.7 181.7 0 008.9-19.5c1.3.5 5.1 1.8 8.5 0 3.8-2 4.7-6.5 5.5-10.6.8-4.3 3-15.8-3.8-20.8-2.8-2.1-7.7-3.5-11.6-1.4a10.078 10.078 0 00-3.8 4.1c-.5-4.1-.9-8.2-1.4-12.3-3.5-.6-7.1-1.3-10.6-2z" fill="#666" opacity=".14"/><path d="M580.41 298.5a117.747 117.747 0 0026.6-48.5c4.5 8.1 4.1 14.6 3.8 17.4-1.7 12.8-13.3 20.8-19.8 25.3a65.639 65.639 0 01-10.6 5.8z" fill="#212121" opacity=".2"/><path d="M600.91 309.7a104.153 104.153 0 0019.5-9.2 101.945 101.945 0 0027-24.2c.7 4.2 1.4 12.5-3.1 20.1-7.2 12.4-24.9 18.4-43.4 13.3z" fill="#212121" opacity=".16"/><path d="M535.41 304.3a55.19 55.19 0 012-17.1c4.5-15.8 15.7-27.6 17.4-26.6 1.4.8-2 10.2-19.4 43.7z" fill="#212121" opacity=".22"/><g fill="#161616"><path d="M540.31 368.7a86.874 86.874 0 0042.8-8.9c1.3-.6.2-2.6-1.1-1.9a84.479 84.479 0 01-41.6 8.6 1.101 1.101 0 10-.1 2.2z"/><path d="M541.81 369.1a39.752 39.752 0 014.2 11.5c.3 1.4 2.4.8 2.2-.6a40.929 40.929 0 00-4.4-12.1c-.7-1.2-2.7 0-2 1.2z"/><path d="M546.21 380.7c6 5.8 15.7 2.9 22.1-.8a30.673 30.673 0 0015.2-20.1c.3-1.4-1.9-2-2.2-.6a28.58 28.58 0 01-11.7 17.3c-5.7 3.9-16 8.3-21.8 2.6-1-1-2.6.6-1.6 1.6z"/><path d="M544.81 373.2c6.8 1.8 14.6-.2 21.1-2.2 6.3-1.9 12.1-5 16.5-10 1-1.1-.6-2.7-1.6-1.6a32.734 32.734 0 01-15.5 9.4c-6.1 1.8-13.6 3.9-19.9 2.2-1.4-.3-2 1.9-.6 2.2z"/><path d="M545.81 374.3l2.4 5.7c.5 1.2 2.5.3 2.1-.9a33.508 33.508 0 01-1.6-5.4l-1.4 1.4a44.028 44.028 0 007.3.6c1.2 0 1.6-2 .3-2.2a12.69 12.69 0 00-6.4.4 1.159 1.159 0 00-.7 1.7c.6.9 1.3 1.9 1.9 2.8a1.1 1.1 0 001.9-1.1c-.3-.9-.6-1.8-.9-2.6l-2.1.9a4.674 4.674 0 011 4.2l2.1-.6c-1.4-2.3-2.6.4-2.9 1.1-.3.9.9 1.9 1.7 1.3 8.2-6.2 17.8-9.3 27.5-12.3a1.141 1.141 0 00-.6-2.2c-9.9 3-19.7 6.2-28 12.5a19.239 19.239 0 011.7 1.3c.4-.9 1.6-1.1 1.8-2.5.2-1.2-.3-3-1.6-3.4-3.6-1.2-2.3 3.9-1.4 5.3a1.141 1.141 0 002.1-.6 7.564 7.564 0 00-1.3-5.3 1.164 1.164 0 00-2.1.9 12.132 12.132 0 001.1 3.2 18.562 18.562 0 011.9-1.1c-.6-.9-1.3-1.9-1.9-2.8a12.205 12.205 0 01-.7 1.7 8.417 8.417 0 015.2-.4c.1-.7.2-1.5.3-2.2a38.5 38.5 0 01-6.7-.5 1.132 1.132 0 00-1.4 1.4 33.522 33.522 0 001.6 5.4l2.1-.9-2.4-5.7c-.5-1.6-2.5-.4-1.9.9z"/><path d="M552.21 377.9a61.149 61.149 0 0111-5.1l-.9-2.1c-3.5 1.6-7 3.2-10.4 4.7-1.1.5-.3 2.5.9 2.1 9.4-3.7 18.7-7.5 27.2-13.1a19.229 19.229 0 01-1.7-1.3c-1.3 3.5-7.1 3.9-10.1 5-2.5.9-4.9 2.1-7.4 3-3.5 1.2-7.6 1-10.3 4-1 1.1.6 2.7 1.6 1.6 2.2-2.5 6.3-2.4 9.3-3.4s5.9-2.5 9-3.5c4.2-1.3 8.4-1.4 10.1-6a1.191 1.191 0 00-1.7-1.3c-8.3 5.4-17.5 9.2-26.7 12.8l.9 2.1c3.5-1.6 7-3.2 10.4-4.7 1.2-.5.3-2.5-.9-2.1a70.352 70.352 0 00-11.5 5.3c-1.2.8 0 2.8 1.2 2z"/><path d="M579.21 366.9c0-.1-.1-.2-.1-.3v.2l-.4.4h.1c-.3 0-.6.1-.9.1-.5-.1-.5-1-.6-.4a.9.9 0 00.1.5 1.5 1.5 0 00.7.9 1.025 1.025 0 001.5-.4 1.1 1.1 0 00-.4-1.5.1.1 0 01-.1-.1l.4.4c.1.3.1.3.1.1v-.2a1.884 1.884 0 00-.2-.8 1.525 1.525 0 00-1.2-.7c-1.3 0-1.5 1.5-1.1 2.4a1.1 1.1 0 001.4.8c.5-.2 1-.9.7-1.4zm.2-9.1a9.71 9.71 0 014.6 3.9c.7 1.2 2.7.1 1.9-1.1a11.35 11.35 0 00-5.9-4.9c-1.4-.6-2 1.6-.6 2.1z"/><path d="M552.11 382.3a71.676 71.676 0 0126-11.6c1.4-.3.8-2.5-.6-2.2a72.388 72.388 0 00-26.6 11.8c-1.1.9 0 2.9 1.2 2z"/><path d="M550.11 380.5a52.117 52.117 0 0027-9c1.2-.8.1-2.8-1.1-1.9a49.243 49.243 0 01-25.9 8.7c-1.5.1-1.5 2.3 0 2.2z"/><path d="M559.21 378a48.153 48.153 0 0015.4-6.3c1.2-.8.1-2.7-1.1-1.9a46.8 46.8 0 01-14.8 6.1c-1.5.2-.9 2.4.5 2.1z"/><path d="M552.31 381.9a40.137 40.137 0 0022-7c1.2-.8.1-2.8-1.1-1.9a38.138 38.138 0 01-20.9 6.7c-1.4 0-1.4 2.3 0 2.2z"/><path d="M552.31 381.7c-.1 1.7 1.5 1.9 2.8 1.7a85.724 85.724 0 008.8-1.8 1.142 1.142 0 00-.6-2.2c-1.5.4-3 .7-4.6 1-.7.1-4.1.3-4.2 1.2.2-1.3-2.1-1.3-2.2.1z"/></g><path d="M571.41 393.4c1-2.8 10-2.2 17.8-1.2a18.006 18.006 0 011.2-6.1c.7-1.9 1.8-3.8 5.8-8.2 4.3-4.7 6.5-7 9.3-8.7a28.69 28.69 0 0110.5-3.8c2 .7 4.1 1.4 6.1 2 .6-1.9 1.8-5.5 4.1-12.5 1.5-4.7 2.4-7.1 4.4-7.9a5.868 5.868 0 016.1 1.7c2 2.5.2 6.1-.9 12.2-.6 3.5-.1 2.9-.3 16-.2 13.4-.7 13.3-.6 18.9a89.634 89.634 0 003.2 21.5 22.964 22.964 0 019.9-2c9.8.1 16.7 6.5 21.8 11.4 10 9.5 14.3 20 17.2 27.4a91.318 91.318 0 016.4 31.4c.1 8.1.3 15.7-3.8 24.5a39.1 39.1 0 01-13.1 16c-3.4 2.4-9.8 6.8-18.1 6.1-4.8-.4-9.1-2.4-13.7-6.1-15.4-12.5-22.5-35.2-24.7-43.1a245.759 245.759 0 01-9.6-61.4 23.943 23.943 0 01-7.6-1.7c-10.3-4.3-14.3-14.6-15.1-17.2-2.1.1-9.6 0-14.3-5.2-1-1.2-2.4-2.7-2-4z" fill="#fff"/><g fill="#161616"><path d="M585.31 400.4c-5.3-.4-11.4-2.4-12.8-8.2-.3.6-.7 1.2-1 1.8 7.7-1.6 15.4.7 23.1-.4 1.9-.3 1.1-3.2-.8-2.9-7.7 1.1-15.4-1.2-23.1.4a1.474 1.474 0 00-1 1.8c1.7 7.2 9 9.9 15.7 10.4 1.9.2 1.9-2.8-.1-2.9z"/><path d="M591.01 389.7c-1.2-7.1 9.7-6.7 13.8-5.6a1.504 1.504 0 00.8-2.9c-6.7-1.8-19.1-.5-17.5 9.2.3 2 3.2 1.2 2.9-.7z"/><path d="M595.31 382.8c.9-3.5 2.8-6.7 6.2-8.3 4-1.8 8 0 11.7 1.6 1.7.8 3.3-1.8 1.5-2.6-4.6-2.1-9.5-4.1-14.4-1.8-4.2 1.9-6.8 5.9-7.9 10.3-.4 1.9 2.5 2.7 2.9.8z"/><path d="M605.81 370.8c-.2-.2 3.2-3 3.7-3.3a10.388 10.388 0 014.6-1.1c3.9 0 7.4 1.9 10.5 3.9 1.6 1 3.1-1.5 1.5-2.6-5-3.2-11.1-5.7-17-3.3-2.5 1-8.5 5.5-5.5 8.6a1.561 1.561 0 002.2-2.2z"/><path d="M635.51 396.1a120.775 120.775 0 001-25.5 41.15 41.15 0 011.4-13.5c.6-2.5 1.1-5.1.4-7.6-1.1-3.4-4.9-6.2-8.5-4.4-2.3 1.2-2.9 3.9-3.7 6.2-1.5 4.3-2.9 8.7-4.3 13-.6 1.8 2.3 2.6 2.9.8.8-2.5 1.6-5 2.5-7.4.5-1.5 1.3-6.5 2.5-7.4 5-.6 7 .8 5.8 4.4-.3 1.2-.6 2.3-1 3.5a37.319 37.319 0 00-1.2 5.6c-.4 4.8.5 9.8.5 14.7a119.012 119.012 0 01-1.2 16.9c-.2 1.8 2.7 2.6 2.9.7zm-51.8 7.5c5.2.4 6.5 5.8 8.9 9.4a19.471 19.471 0 004.5 5 22.1 22.1 0 0012.1 4.7c1.9.2 1.9-2.8 0-3-7.6-.7-12.4-5.1-15.9-11.5-2.2-4-4.8-7.2-9.6-7.5-2-.2-1.9 2.8 0 2.9z"/><path d="M608.71 421.4c3.1 10.7 3.4 21.7 4.3 32.7a141.529 141.529 0 004.9 27.5c5.1 17.2 13.9 33.1 26.6 45.9 1.4 1.4 3.5-.8 2.1-2.1a105.286 105.286 0 01-26.7-47.7c-5-18.8-2.9-38.5-8.3-57.1-.6-1.8-3.5-1-2.9.8zm23.9-26.5a119 119 0 0014.6 47.6c8 14.2 20.3 26.5 23.1 43.1.3 1.9 3.2 1.1 2.9-.8-2.5-15.1-12.8-26.6-20.7-39.2a116.924 116.924 0 01-16.9-50.6c-.2-2-3.2-2-3-.1z"/><path d="M639.51 418.1c14.9-4.8 29.6 7.2 37.4 18.8 8.2 12.2 11.9 27.2 13.6 41.7 1.6 14.2.5 29.7-9 41.1-8.8 10.6-25.1 14.8-36.2 5.2-1.5-1.3-3.6.9-2.1 2.1 10.5 9.1 26 7.8 36.3-1 12.6-10.7 15.7-28.1 14.4-43.8-1.4-17.1-5.7-35.4-16.1-49.4-8.7-11.6-23.9-22.5-39-17.7-1.9.7-1.2 3.6.7 3z"/></g><path d="M633.01 350.5c-5.3 2-4.9 15.6-4.5 25.4 1.4 29.1 2.1 43.7 7.8 66.1 8.2 31.9 15.7 40.2 19.8 44.1 5.9 5.6 17.2 13.7 22 10.5 7.6-5.1-4.5-35.5-7.5-42.9-10.1-25.2-12.3-33.6-19.8-36.2a20.3 20.3 0 00-12 0 47.984 47.984 0 01-4.9-21.7c.1-4.3.8-4.3 1.1-10.8.6-11.8-1.5-12.5-.4-20.2 1.1-7.5 4-12 1.9-13.8-.7-1-2.4-.9-3.5-.5z" fill="#666" opacity=".15"/><path d="M641.61 422.6a105.937 105.937 0 0128 46.7 106.162 106.162 0 013 15.3 95.7 95.7 0 00-10.5-21.7c-4.5-7-7.4-9.4-11.2-15.7a77.035 77.035 0 01-9.3-24.6z" fill="#666" opacity=".15"/></svg>