<svg xmlns="http://www.w3.org/2000/svg" viewBox="0 0 24.17 24.17"><path d="M23.6 20.82L21.7 19a.38.38 0 00-.15-.1 5.1 5.1 0 10-2.7 2.72.4.4 0 00.08.16l1.9 1.86a2 2 0 102.76-2.78zm-6.75.4a4.34 4.34 0 114.34-4.33 4.35 4.35 0 01-4.35 4.33zm6.2 1.84a1.24 1.24 0 01-1.7 0l-1.85-1.82a5.1 5.1 0 001.7-1.7l1.86 1.82a1.2 1.2 0 010 1.7zM22.28 0H1.88A1.9 1.9 0 000 1.9v15.85a1.9 1.9 0 001.9 1.9h9.37a5.65 5.65 0 01-.3-.76H1.88a1.13 1.13 0 01-1.14-1.15V1.9A1.13 1.13 0 011.9.74h20.38a1.14 1.14 0 011.13 1.13v15.87a1.1 1.1 0 01-.43.88l.5.5a2.06 2.06 0 00.7-1.38V1.9a1.9 1.9 0 00-1.9-1.9zm-1.13 3a.38.38 0 00-.76 0v8.74a6.88 6.88 0 01.75.62zm-8.31 9.13V3a.38.38 0 00-.75 0v9.86a6.2 6.2 0 01.74-.73zM18.88 3a.38.38 0 00-.76 0v7.76a6 6 0 01.76.2zm-1.51 7.68V3a.38.38 0 00-.75 0v7.64h.24zM15.1 3a.38.38 0 00-.75 0v8.16a6.18 6.18 0 01.75-.28zm-5.66-.36a.38.38 0 00-.38.36v12.48a.38.38 0 10.76 0V3a.38.38 0 00-.38-.36zm-1.51 0a.38.38 0 00-.38.36v12.48a.38.38 0 10.75 0V3a.38.38 0 00-.37-.36zm-2.27 0A.38.38 0 005.3 3v12.48a.38.38 0 10.74 0V3a.38.38 0 00-.38-.36zm-2.26 0A.38.38 0 003 3v12.48a.38.38 0 10.75 0V3a.38.38 0 00-.35-.36z" fill="#00bed7"/></svg>