<svg xmlns="http://www.w3.org/2000/svg" viewBox="0 0 23.79 24.17"><path d="M14.26 12.46h-3a.38.38 0 110-.75h3a.38.38 0 110 .76zm0-3.02h-3a.38.38 0 010-.76h3a.38.38 0 010 .76zM9 15.48H3.75a.38.38 0 110-.75H9a.38.38 0 110 .75zm0-3.02H3.75a.38.38 0 010-.75H9a.38.38 0 010 .76zm0-3.02H3.75a.38.38 0 010-.76H9a.38.38 0 010 .76zm7.5-3.02h-3.74a1.88 1.88 0 01-1.88-1.9V.76a.38.38 0 01.75 0v3.78a1.13 1.13 0 001.12 1.13h3.75a.38.38 0 110 .75zm7.26 9.08a.54.54 0 00-.43-.37l-4.15-.6-1.85-3.8a.56.56 0 00-1 0l-1.85 3.8-4.15.6a.54.54 0 00-.43.37.55.55 0 00.13.55l3 2.95-.7 4.16a.54.54 0 00.2.53.53.53 0 00.3.1.53.53 0 00.26-.07l3.7-2 3.7 2a.52.52 0 00.25.06.53.53 0 00.3-.1.55.55 0 00.22-.54L20.62 19l3-2.95a.55.55 0 00.14-.55zm-3.67 3a.75.75 0 00-.23.67l.63 3.72-3.3-1.8a.74.74 0 00-.7 0l-3.32 1.75.63-3.72a.75.75 0 00-.2-.67l-2.7-2.64 3.72-.54a.75.75 0 00.57-.4l1.65-3.4 1.65 3.4a.75.75 0 00.57.4l3.72.54zm-8.86 4.9H1.88a1.13 1.13 0 01-1.12-1.1V1.88A1.13 1.13 0 011.88.76h9.22l5.4 5.45v3.2a1.76 1.76 0 01.35 0 1.72 1.72 0 01.4.05V6a.37.37 0 00-.1-.27L11.53.1a.38.38 0 00-.27-.1H1.88A1.9 1.9 0 000 1.9v20.38a1.88 1.88 0 001.88 1.9h9.63a1.67 1.67 0 01-.27-.77z" fill="#00bed7"/></svg>