<svg xmlns="http://www.w3.org/2000/svg" viewBox="0 0 24.17 24.16"><path d="M23.8 4.5a.38.38 0 00-.22-.3L15.28 0a.38.38 0 00-.38 0l-2.8 1.8L8.86.05a.38.38 0 00-.4 0l-8.3 5.3a.38.38 0 00-.17.32.38.38 0 00.18.33L3 7.68.17 9.5a.38.38 0 00-.17.3.37.37 0 00.17.33l7.93 5.3a.4.4 0 00.43 0l3.34-2.35L13.25 16a.4.4 0 00.25.2h.1a.4.4 0 00.2-.06l7.94-5.67a.38.38 0 00.13-.46l-1.33-3 3.1-2.16a.38.38 0 00.15-.34zM1.1 5.65L8.7.82l2.68 1.5-7.66 4.9zm10.82 6.46L4.45 7.67l7.67-4.92 7.32 4.1zM8.3 14.66L1.07 9.82l2.67-1.7 7.5 4.47zm12.75-4.58l-7.32 5.23-1.25-2.65 7.42-5.2zm-.92-3.7l-7.3-4.1 2.3-1.46 7.54 3.78zM19.64 12v1.24a7 7 0 01.75.12v-1.9zm-7.18 10.74v-8.4l-.6-1.27-.16.1v9.6l-7.55-4.12V12.8l-.75-.5v6.58a.37.37 0 00.2.33l8.3 4.54a.4.4 0 00.18 0 .35.35 0 00.2-.05l1.85-1.14a6.34 6.34 0 01-.37-.66zm6.8 1.42a4.9 4.9 0 114.9-4.9 4.9 4.9 0 01-4.9 4.9zm0-9.06a4.15 4.15 0 104.15 4.15 4.16 4.16 0 00-4.14-4.15zm-.68 6.35a.4.4 0 01-.3-.15l-1.36-1.8A.38.38 0 0117 19a.37.37 0 01.52.08l1.06 1.4L21 17.23a.38.38 0 01.53-.07.37.37 0 01.07.53l-2.72 3.62a.37.37 0 01-.3.15z" fill="#00bed7"/></svg>