<svg xmlns="http://www.w3.org/2000/svg" viewBox="0 0 24.17 24.17"><path d="M23.6 24.17H.57a.38.38 0 010-.75h23a.38.38 0 110 .75zm-16.43-5.5a.57.57 0 01-.57-.57v-2.9a.57.57 0 011.13 0v2.9a.57.57 0 01-.56.57zM15.86 22a.38.38 0 01-.27-.64l3.77-3.75a.38.38 0 01.53.55l-3.78 3.75a.38.38 0 01-.26.1zm1.89-.05a.4.4 0 01-.27-.1.38.38 0 010-.54l1.9-1.87a.38.38 0 01.52 0 .38.38 0 010 .53L18 21.84a.38.38 0 01-.25.1zM1.9 23.64a.38.38 0 00.74 0v-9.87a4.22 4.22 0 01-.75-.17zm6.84-9.86v9.86a.38.38 0 00.75 0v-9.86h-.37a3.9 3.9 0 01-.4 0zm12.78 9.86a.38.38 0 00.75 0v-10a4.2 4.2 0 01-.75.17zM22.2 0H2L0 8.75v.7a3.23 3.23 0 006.2 1.32 3.23 3.23 0 005.9 0 3.23 3.23 0 005.9 0 3.23 3.23 0 006.18-1.32v-.7zM5.7 9.45a2.48 2.48 0 01-5 0V9.2h5zm.1-1h-5L2.58.75h3.78zm5.8 1a2.48 2.48 0 01-5 0V9.2h5zm0-1h-5l.56-7.7h4.48zm5.88 1a2.48 2.48 0 11-5 0v-.23h5zm-5.07-1V.77H17l.6 7.66zm5.4-7.7h3.8l1.7 7.7h-4.9zm5.6 8.7a2.48 2.48 0 01-5 0v-.23h5z" fill="#00bed7"/></svg>