<svg xmlns="http://www.w3.org/2000/svg" viewBox="0 0 24.17 24.17"><path d="M15.48 7.55a3.78 3.78 0 113.76-3.78 3.78 3.78 0 01-3.76 3.78zm0-6.8a3 3 0 103 3 3 3 0 00-3-3zm-1.13 9.45h-.08a11.8 11.8 0 00-5.87 0 .37.37 0 01-.45-.28.38.38 0 01.28-.45 12.53 12.53 0 016.2 0 .38.38 0 01.3.45.38.38 0 01-.38.28zm9.55-1.13a.38.38 0 00-.47.23 1.34 1.34 0 01-.44.5v-.37a1.5 1.5 0 10-1.52 1.5h.4a1.6 1.6 0 01-.3.36 2.22 2.22 0 01-1.57.43.38.38 0 00-.1.75h.33a2.82 2.82 0 001.83-.63 2.52 2.52 0 00.7-1.1 2.12 2.12 0 001.34-1.2.38.38 0 00-.2-.48zm-3.15.35a.76.76 0 11.76.75.76.76 0 01-.75-.74zm-.37 4.9a8 8 0 00-2.82-6.52 4.56 4.56 0 01-.8.32 7.08 7.08 0 012.87 6.2 7 7 0 01-3.28 6.4.38.38 0 00-.18.4l.37 1.88a.38.38 0 01-.38.38H13.6a.38.38 0 01-.38-.38v-.8a.38.38 0 00-.14-.28.37.37 0 00-.24-.1h-.08a8.18 8.18 0 01-2.37 0 5.65 5.65 0 00-.58 0 .38.38 0 00-.38.4V23a.38.38 0 01-.38.38H6.5a.4.4 0 01-.4-.3l.4-2a.4.4 0 00-.18-.4 6.47 6.47 0 01-3-4.15.38.38 0 00-.42-.3l-1.75.28-.36-4 2 .2a.38.38 0 00.4-.3 6.55 6.55 0 012-3.68.38.38 0 00.1-.35L4.63 5.1c1.48.1 3.16.68 3.72 1.66a.38.38 0 00.4.18 12.05 12.05 0 012.6-.27h.7a4.5 4.5 0 01-.54-.77h-.17a13.14 13.14 0 00-2.5.23c-.9-1.24-3-1.82-4.68-1.82a.38.38 0 00-.37.46L4.5 8.3a7.3 7.3 0 00-2 3.6l-2.1-.2a.4.4 0 00-.3.1.37.37 0 00-.1.3L.38 17a.37.37 0 00.43.34l1.83-.28a7.16 7.16 0 003.07 4.17L5.36 23a1.13 1.13 0 001.13 1.13h2.56A1.13 1.13 0 0010.2 23v-.38h.1a9.5 9.5 0 002.16 0V23a1.13 1.13 0 001.13 1.13h2.56A1.14 1.14 0 0017.3 23l-.3-1.77a7.77 7.77 0 003.38-6.9z" fill="#00bed7"/></svg>